<?xml version="1.0" encoding="UTF-8" standalone="no"?>
<!-- Created with Inkscape (http://www.inkscape.org/) -->

<svg
   xmlns:ns0="http://www.iki.fi/pav/software/textext/"
   xmlns:dc="http://purl.org/dc/elements/1.1/"
   xmlns:cc="http://creativecommons.org/ns#"
   xmlns:rdf="http://www.w3.org/1999/02/22-rdf-syntax-ns#"
   xmlns:svg="http://www.w3.org/2000/svg"
   xmlns="http://www.w3.org/2000/svg"
   xmlns:xlink="http://www.w3.org/1999/xlink"
   xmlns:sodipodi="http://sodipodi.sourceforge.net/DTD/sodipodi-0.dtd"
   xmlns:inkscape="http://www.inkscape.org/namespaces/inkscape"
   width="744.09448819"
   height="1052.3622047"
   id="svg2"
   version="1.1"
   inkscape:version="0.48.4 r9939"
   sodipodi:docname="applications.svg">
  <sodipodi:namedview
     id="base"
     pagecolor="#000000"
     bordercolor="#666666"
     borderopacity="1.0"
     inkscape:pageopacity="0"
     inkscape:pageshadow="2"
     inkscape:zoom="0.7"
     inkscape:cx="595.86633"
     inkscape:cy="514.46621"
     inkscape:document-units="px"
     inkscape:current-layer="layer1"
     showgrid="false"
     inkscape:window-width="1261"
     inkscape:window-height="828"
     inkscape:window-x="85"
     inkscape:window-y="33"
     inkscape:window-maximized="0" />
  <defs
     id="defs4">
    <clipPath
       clipPathUnits="userSpaceOnUse"
       id="clipPath4214">
      <path
         d="m 719.75,3121.79 0,0 0,0 0,0 z"
         id="path4216" />
    </clipPath>
    <clipPath
       clipPathUnits="userSpaceOnUse"
       id="clipPath4126">
      <path
         d="m 2.14844,0.585938 5630.00156,0 0,3839.994062 -5630.00156,0 0,-3839.994062 z"
         id="path4128" />
    </clipPath>
    <clipPath
       clipPathUnits="userSpaceOnUse"
       id="clipPath4114">
      <path
         d="m 4949.22,254.414 288,0 0,3455.996 -288,0 0,-3455.996 z"
         id="path4116" />
    </clipPath>
    <clipPath
       clipPathUnits="userSpaceOnUse"
       id="clipPath3992">
      <path
         d="m 2.14844,0.585938 5630.00156,0 0,3839.994062 -5630.00156,0 0,-3839.994062 z"
         id="path3994" />
    </clipPath>
    <clipPath
       clipPathUnits="userSpaceOnUse"
       id="clipPath3980">
      <path
         d="m 2645.22,254.414 2304,0 0,3455.996 -2304,0 0,-3455.996 z"
         id="path3982" />
    </clipPath>
    <clipPath
       clipPathUnits="userSpaceOnUse"
       id="clipPath3858">
      <path
         d="m 2.14844,0.585938 5630.00156,0 0,3839.994062 -5630.00156,0 0,-3839.994062 z"
         id="path3860" />
    </clipPath>
    <clipPath
       clipPathUnits="userSpaceOnUse"
       id="clipPath3846">
      <path
         d="m 341.219,254.414 2304.001,0 0,3455.996 -2304.001,0 0,-3455.996 z"
         id="path3848" />
    </clipPath>
    <clipPath
       clipPathUnits="userSpaceOnUse"
       id="clipPath3834">
      <path
         d="m 2.14844,0.585938 5630.00156,0 0,3839.994062 -5630.00156,0 0,-3839.994062 z"
         id="path3836" />
    </clipPath>
  </defs>
  <metadata
     id="metadata7">
    <rdf:RDF>
      <cc:Work
         rdf:about="">
        <dc:format>image/svg+xml</dc:format>
        <dc:type
           rdf:resource="http://purl.org/dc/dcmitype/StillImage" />
        <dc:title />
      </cc:Work>
    </rdf:RDF>
  </metadata>
  <g
     id="layer1"
     inkscape:groupmode="layer"
     inkscape:label="Layer 1">
    <image
       width="518.85712"
       height="541.87097"
       xlink:href="file:///home/me/Work/UiO/Phd/Articles/ASA2013/presentation/gfx/ultrasound_3d.png"
       id="image3023"
       x="543.40393"
       y="321.8154" />
    <image
       width="693.57141"
       height="464.50195"
       xlink:href="file:///home/me/Work/UiO/Phd/Articles/ASA2013/presentation/gfx/ultrasound_3d_3.png"
       id="image3034"
       x="-121.07143"
       y="360.49991" />
    <g
       ns0:text="\\fontsize{20}{22}\\sffamily\nA featus"
       ns0:preamble="/home/me/.latex/inkscape/header.tex"
       transform="matrix(1.6755242,0,0,1.6755242,-203.41939,118.19437)"
       style="fill:#000000;stroke:#000000;stroke-width:1"
       id="g16035">
      <defs
         id="defs16037">
        <g
           id="g16039">
          <symbol
             overflow="visible"
             id="textext-9afb620e-0"
             style="overflow:visible">
            <path
               style="stroke:none"
               d="m 11.90625,0 -4.828125,-13.828125 -1.71875,0 L 0.515625,0 2.03125,0 l 1.390625,-4.03125 5.34375,0 L 10.1875,0 z m -3.515625,-5.140625 -4.578125,0 c 0.953125,-2.78125 2.140625,-6.25 2.28125,-7.15625 l 0.015625,0 C 6.25,-11.46875 6.65625,-10.28125 7,-9.265625 z m 0,0"
               id="path16042"
               inkscape:connector-curvature="0" />
          </symbol>
          <symbol
             overflow="visible"
             id="textext-9afb620e-1"
             style="overflow:visible">
            <path
               style="stroke:none"
               d="m 6.46875,-12.515625 0,-1.3125 c -0.453125,-0.09375 -1.015625,-0.15625 -1.453125,-0.15625 -1.84375,0 -3.140625,1.515625 -3.140625,3.484375 l 0,1.9375 -1.375,0 0,1.15625 1.375,0 0,7.40625 1.46875,0 0,-7.40625 2.015625,0 0,-1.15625 -2.046875,0 0,-2.546875 c 0,-1.421875 1.0625,-1.65625 1.6875,-1.65625 0.203125,0 0.75,0 1.46875,0.25 z m 0,0"
               id="path16045"
               inkscape:connector-curvature="0" />
          </symbol>
          <symbol
             overflow="visible"
             id="textext-9afb620e-2"
             style="overflow:visible">
            <path
               style="stroke:none"
               d="m 7.796875,-4.359375 c 0,-0.65625 -0.046875,-1.9375 -0.6875,-2.984375 -0.6875,-1.140625 -1.828125,-1.46875 -2.6875,-1.46875 -2.078125,0 -3.828125,1.953125 -3.828125,4.484375 0,2.46875 1.8125,4.484375 4.109375,4.484375 0.890625,0 1.984375,-0.25 2.984375,-0.96875 0,-0.078125 -0.0625,-0.546875 -0.0625,-0.546875 0,0 -0.0625,-0.65625 -0.0625,-0.734375 -0.953125,0.78125 -2.046875,1.03125 -2.84375,1.03125 -1.265625,0 -2.640625,-1.0625 -2.703125,-3.296875 z m -1.328125,-1.09375 -4.296875,0 c 0.265625,-1.09375 1.140625,-2.140625 2.25,-2.140625 0.296875,0 1.6875,0.046875 2.046875,2.140625 z m 0,0"
               id="path16048"
               inkscape:connector-curvature="0" />
          </symbol>
          <symbol
             overflow="visible"
             id="textext-9afb620e-3"
             style="overflow:visible">
            <path
               style="stroke:none"
               d="m 7.6875,0 0,-5.640625 c 0,-1.875 -1.328125,-3.171875 -3.125,-3.171875 -0.875,0 -1.828125,0.171875 -2.921875,0.796875 L 1.75,-6.6875 c 0.5,-0.359375 1.359375,-0.9375 2.796875,-0.9375 1.015625,0 1.625,0.765625 1.625,2 l 0,0.765625 C 2.984375,-4.765625 1,-3.84375 1,-2.265625 c 0,0.8125 0.5,2.421875 2.140625,2.421875 0.3125,0 1.921875,-0.03125 3.078125,-0.890625 L 6.21875,0 z M 6.171875,-2.625 c 0,0.359375 0,0.828125 -0.59375,1.1875 -0.515625,0.34375 -1.171875,0.375 -1.453125,0.375 -1,0 -1.671875,-0.546875 -1.671875,-1.25 0,-1.390625 3.109375,-1.53125 3.71875,-1.546875 z m 0,0"
               id="path16051"
               inkscape:connector-curvature="0" />
          </symbol>
          <symbol
             overflow="visible"
             id="textext-9afb620e-4"
             style="overflow:visible">
            <path
               style="stroke:none"
               d="M 6.234375,-0.578125 5.921875,-1.75 C 5.4375,-1.328125 4.859375,-1.09375 4.25,-1.09375 c -0.890625,0 -0.921875,-1.125 -0.921875,-1.609375 l 0,-4.703125 2.59375,0 0,-1.15625 -2.59375,0 0,-2.453125 -1.421875,0 0,2.453125 -1.5625,0 0,1.15625 1.53125,0 0,5.03125 c 0,1.140625 0.25,2.53125 1.578125,2.53125 0.984375,0 1.90625,-0.28125 2.78125,-0.734375 z m 0,0"
               id="path16054"
               inkscape:connector-curvature="0" />
          </symbol>
          <symbol
             overflow="visible"
             id="textext-9afb620e-5"
             style="overflow:visible">
            <path
               style="stroke:none"
               d="m 8.140625,0 0,-8.5625 -1.5,0 0,5.5 C 6.640625,-1.59375 5.5625,-1 4.421875,-1 c -1.3125,0 -1.4375,-0.4375 -1.4375,-1.25 l 0,-6.3125 -1.515625,0 0,6.40625 c 0,1.5625 0.546875,2.3125 1.921875,2.3125 C 4.0625,0.15625 5.59375,0 6.671875,-1 l 0,1 z m 0,0"
               id="path16057"
               inkscape:connector-curvature="0" />
          </symbol>
          <symbol
             overflow="visible"
             id="textext-9afb620e-6"
             style="overflow:visible">
            <path
               style="stroke:none"
               d="m 6.734375,-2.46875 c 0,-0.984375 -0.5625,-1.640625 -0.9375,-1.9375 -0.65625,-0.515625 -0.890625,-0.578125 -2.53125,-0.90625 -0.28125,-0.046875 -1.25,-0.265625 -1.25,-1.15625 0,-1.140625 1.25,-1.140625 1.53125,-1.140625 1.296875,0 2.09375,0.390625 2.625,0.703125 l 0.25,-1.296875 C 5.234375,-8.765625 4.328125,-8.8125 3.71875,-8.8125 c -1.40625,0 -3.09375,0.5 -3.09375,2.515625 0,2.015625 2.1875,2.453125 2.78125,2.578125 0.921875,0.171875 1.9375,0.375 1.9375,1.375 0,1.25 -1.4375,1.25 -1.703125,1.25 C 2.84375,-1.09375 1.75,-1.3125 0.75,-2.03125 L 0.515625,-0.703125 C 1.65625,-0.046875 2.75,0.15625 3.671875,0.15625 c 2.4375,0 3.0625,-1.484375 3.0625,-2.625 z m 0,0"
               id="path16060"
               inkscape:connector-curvature="0" />
          </symbol>
        </g>
      </defs>
      <g
         id="textext-9afb620e-7"
         style="stroke-width:1">
        <g
           style="fill:#000000;fill-opacity:1;stroke-width:1"
           id="g16063">
          <use
             xlink:href="#textext-9afb620e-0"
             x="223.43201"
             y="138.84399"
             id="use16065"
             width="744.09448"
             height="1052.3622"
             style="stroke-width:1" />
        </g>
        <g
           style="fill:#000000;fill-opacity:1;stroke-width:1"
           id="g16067">
          <use
             xlink:href="#textext-9afb620e-1"
             x="242.11197"
             y="138.84399"
             id="use16069"
             width="744.09448"
             height="1052.3622"
             style="stroke-width:1" />
          <use
             xlink:href="#textext-9afb620e-2"
             x="247.8365"
             y="138.84399"
             id="use16071"
             width="744.09448"
             height="1052.3622"
             style="stroke-width:1" />
        </g>
        <g
           style="fill:#000000;fill-opacity:1;stroke-width:1"
           id="g16073">
          <use
             xlink:href="#textext-9afb620e-3"
             x="256.18323"
             y="138.84399"
             id="use16075"
             width="744.09448"
             height="1052.3622"
             style="stroke-width:1" />
          <use
             xlink:href="#textext-9afb620e-4"
             x="265.16754"
             y="138.84399"
             id="use16077"
             width="744.09448"
             height="1052.3622"
             style="stroke-width:1" />
        </g>
        <g
           style="fill:#000000;fill-opacity:1;stroke-width:1"
           id="g16079">
          <use
             xlink:href="#textext-9afb620e-5"
             x="271.91425"
             y="138.84399"
             id="use16081"
             width="744.09448"
             height="1052.3622"
             style="stroke-width:1" />
          <use
             xlink:href="#textext-9afb620e-6"
             x="281.55609"
             y="138.84399"
             id="use16083"
             width="744.09448"
             height="1052.3622"
             style="stroke-width:1" />
        </g>
      </g>
    </g>
    <g
       id="g16236"
       style="fill:#000000;stroke:#000000;stroke-width:1"
       transform="matrix(1.6755242,0,0,1.6755242,379.66972,118.19437)"
       ns0:preamble="/home/me/.latex/inkscape/header.tex"
       ns0:text="\\fontsize{20}{22}\\sffamily\nA heart">
      <defs
         id="defs16238">
        <g
           id="g16240">
          <symbol
             id="textext-37658ac0-0"
             overflow="visible"
             style="overflow:visible">
            <path
               id="path16243"
               d="m 11.90625,0 -4.828125,-13.828125 -1.71875,0 L 0.515625,0 2.03125,0 l 1.390625,-4.03125 5.34375,0 L 10.1875,0 z m -3.515625,-5.140625 -4.578125,0 c 0.953125,-2.78125 2.140625,-6.25 2.28125,-7.15625 l 0.015625,0 C 6.25,-11.46875 6.65625,-10.28125 7,-9.265625 z m 0,0"
               style="stroke:none"
               inkscape:connector-curvature="0" />
          </symbol>
          <symbol
             id="textext-37658ac0-1"
             overflow="visible"
             style="overflow:visible">
            <path
               id="path16246"
               d="m 8.140625,0 0,-5.8125 c 0,-1.265625 -0.296875,-2.90625 -2.546875,-2.90625 -1.25,0 -2.0625,0.609375 -2.640625,1.28125 l 0,-6.390625 -1.484375,0 0,13.828125 1.515625,0 0,-4.828125 c 0,-1.25 0.484375,-2.6875 1.84375,-2.6875 1.75,0 1.8125,1.1875 1.8125,1.859375 l 0,5.65625 z m 0,0"
               style="stroke:none"
               inkscape:connector-curvature="0" />
          </symbol>
          <symbol
             id="textext-37658ac0-2"
             overflow="visible"
             style="overflow:visible">
            <path
               id="path16249"
               d="m 7.796875,-4.359375 c 0,-0.65625 -0.046875,-1.9375 -0.6875,-2.984375 -0.6875,-1.140625 -1.828125,-1.46875 -2.6875,-1.46875 -2.078125,0 -3.828125,1.953125 -3.828125,4.484375 0,2.46875 1.8125,4.484375 4.109375,4.484375 0.890625,0 1.984375,-0.25 2.984375,-0.96875 0,-0.078125 -0.0625,-0.546875 -0.0625,-0.546875 0,0 -0.0625,-0.65625 -0.0625,-0.734375 -0.953125,0.78125 -2.046875,1.03125 -2.84375,1.03125 -1.265625,0 -2.640625,-1.0625 -2.703125,-3.296875 z m -1.328125,-1.09375 -4.296875,0 c 0.265625,-1.09375 1.140625,-2.140625 2.25,-2.140625 0.296875,0 1.6875,0.046875 2.046875,2.140625 z m 0,0"
               style="stroke:none"
               inkscape:connector-curvature="0" />
          </symbol>
          <symbol
             id="textext-37658ac0-3"
             overflow="visible"
             style="overflow:visible">
            <path
               id="path16252"
               d="m 7.6875,0 0,-5.640625 c 0,-1.875 -1.328125,-3.171875 -3.125,-3.171875 -0.875,0 -1.828125,0.171875 -2.921875,0.796875 L 1.75,-6.6875 c 0.5,-0.359375 1.359375,-0.9375 2.796875,-0.9375 1.015625,0 1.625,0.765625 1.625,2 l 0,0.765625 C 2.984375,-4.765625 1,-3.84375 1,-2.265625 c 0,0.8125 0.5,2.421875 2.140625,2.421875 0.3125,0 1.921875,-0.03125 3.078125,-0.890625 L 6.21875,0 z M 6.171875,-2.625 c 0,0.359375 0,0.828125 -0.59375,1.1875 -0.515625,0.34375 -1.171875,0.375 -1.453125,0.375 -1,0 -1.671875,-0.546875 -1.671875,-1.25 0,-1.390625 3.109375,-1.53125 3.71875,-1.546875 z m 0,0"
               style="stroke:none"
               inkscape:connector-curvature="0" />
          </symbol>
          <symbol
             id="textext-37658ac0-4"
             overflow="visible"
             style="overflow:visible">
            <path
               id="path16255"
               d="m 6.09375,-7.40625 0,-1.3125 C 4.828125,-8.703125 3.625,-8.0625 2.90625,-7.03125 l 0,-1.59375 -1.40625,0 0,8.625 1.46875,0 0,-4.25 c 0,-1.859375 1.375,-3.125 3.125,-3.15625 z m 0,0"
               style="stroke:none"
               inkscape:connector-curvature="0" />
          </symbol>
          <symbol
             id="textext-37658ac0-5"
             overflow="visible"
             style="overflow:visible">
            <path
               id="path16258"
               d="M 6.234375,-0.578125 5.921875,-1.75 C 5.4375,-1.328125 4.859375,-1.09375 4.25,-1.09375 c -0.890625,0 -0.921875,-1.125 -0.921875,-1.609375 l 0,-4.703125 2.59375,0 0,-1.15625 -2.59375,0 0,-2.453125 -1.421875,0 0,2.453125 -1.5625,0 0,1.15625 1.53125,0 0,5.03125 c 0,1.140625 0.25,2.53125 1.578125,2.53125 0.984375,0 1.90625,-0.28125 2.78125,-0.734375 z m 0,0"
               style="stroke:none"
               inkscape:connector-curvature="0" />
          </symbol>
        </g>
      </defs>
      <g
         id="textext-37658ac0-6"
         style="stroke-width:1">
        <g
           id="g16261"
           style="fill:#000000;fill-opacity:1;stroke-width:1">
          <use
             id="use16263"
             y="138.84399"
             x="223.43201"
             xlink:href="#textext-37658ac0-0"
             width="744.09448"
             height="1052.3622"
             style="stroke-width:1" />
        </g>
        <g
           id="g16265"
           style="fill:#000000;fill-opacity:1;stroke-width:1">
          <use
             id="use16267"
             y="138.84399"
             x="242.11197"
             xlink:href="#textext-37658ac0-1"
             width="744.09448"
             height="1052.3622"
             style="stroke-width:1" />
          <use
             id="use16269"
             y="138.84399"
             x="251.75381"
             xlink:href="#textext-37658ac0-2"
             width="744.09448"
             height="1052.3622"
             style="stroke-width:1" />
          <use
             id="use16271"
             y="138.84399"
             x="260.0806"
             xlink:href="#textext-37658ac0-3"
             width="744.09448"
             height="1052.3622"
             style="stroke-width:1" />
        </g>
        <g
           id="g16273"
           style="fill:#000000;fill-opacity:1;stroke-width:1">
          <use
             id="use16275"
             y="138.84399"
             x="268.54688"
             xlink:href="#textext-37658ac0-4"
             width="744.09448"
             height="1052.3622"
             style="stroke-width:1" />
          <use
             id="use16277"
             y="138.84399"
             x="274.92892"
             xlink:href="#textext-37658ac0-5"
             width="744.09448"
             height="1052.3622"
             style="stroke-width:1" />
        </g>
      </g>
    </g>
  </g>
</svg>
