<?xml version="1.0" encoding="UTF-8" standalone="no"?>
<!-- Created with Inkscape (http://www.inkscape.org/) -->

<svg
   xmlns:ns0="http://www.iki.fi/pav/software/textext/"
   xmlns:dc="http://purl.org/dc/elements/1.1/"
   xmlns:cc="http://creativecommons.org/ns#"
   xmlns:rdf="http://www.w3.org/1999/02/22-rdf-syntax-ns#"
   xmlns:svg="http://www.w3.org/2000/svg"
   xmlns="http://www.w3.org/2000/svg"
   xmlns:xlink="http://www.w3.org/1999/xlink"
   xmlns:sodipodi="http://sodipodi.sourceforge.net/DTD/sodipodi-0.dtd"
   xmlns:inkscape="http://www.inkscape.org/namespaces/inkscape"
   sodipodi:docname="scenario_interference_das.svg"
   inkscape:version="0.48.4 r9939"
   version="1.1"
   id="svg3307"
   height="512"
   width="683.14606"
   inkscape:export-filename="/home/me/Work/UiO/Phd/Articles/ECUA2012/presentation/gfx/scenario_interference.png"
   inkscape:export-xdpi="299.94"
   inkscape:export-ydpi="299.94">
  <sodipodi:namedview
     id="base"
     pagecolor="#ffffff"
     bordercolor="#666666"
     borderopacity="1.0"
     inkscape:pageopacity="0.0"
     inkscape:pageshadow="2"
     inkscape:zoom="1.4"
     inkscape:cx="315.87144"
     inkscape:cy="254.90004"
     inkscape:document-units="px"
     inkscape:current-layer="layer1"
     showgrid="true"
     inkscape:window-width="1920"
     inkscape:window-height="1025"
     inkscape:window-x="-2"
     inkscape:window-y="-3"
     inkscape:window-maximized="1"
     inkscape:snap-global="false"
     fit-margin-top="0"
     fit-margin-left="0"
     fit-margin-right="0"
     fit-margin-bottom="0">
    <inkscape:grid
       originy="51.999998px"
       originx="-16.853942px"
       id="grid4125"
       type="xygrid"
       empspacing="5"
       visible="true"
       enabled="true"
       snapvisiblegridlinesonly="true" />
  </sodipodi:namedview>
  <defs
     id="defs3309">
    <linearGradient
       id="linearGradient12844">
      <stop
         id="stop12846"
         offset="0"
         style="stop-color:#82c4dc;stop-opacity:0;" />
      <stop
         style="stop-color:#41bfed;stop-opacity:0.84666669;"
         offset="0.05"
         id="stop12984" />
      <stop
         id="stop12848"
         offset="1"
         style="stop-color:#00baff;stop-opacity:0;" />
    </linearGradient>
    <linearGradient
       id="linearGradient12834">
      <stop
         id="stop12836"
         offset="0"
         style="stop-color:#ff0000;stop-opacity:0.28666666;" />
      <stop
         id="stop12838"
         offset="1"
         style="stop-color:#ff0000;stop-opacity:0.52666664;" />
    </linearGradient>
    <marker
       inkscape:stockid="Arrow2Mend"
       orient="auto"
       refY="0"
       refX="0"
       id="Arrow2Mend"
       style="overflow:visible">
      <path
         id="path3793"
         style="font-size:12px;fill-rule:evenodd;stroke-width:0.625;stroke-linejoin:round"
         d="M 8.7185878,4.0337352 -2.2072895,0.01601326 8.7185884,-4.0017078 c -1.7454984,2.3720609 -1.7354408,5.6174519 -6e-7,8.035443 z"
         transform="scale(-0.6,-0.6)"
         inkscape:connector-curvature="0" />
    </marker>
    <marker
       inkscape:stockid="Arrow2Mstart"
       orient="auto"
       refY="0"
       refX="0"
       id="Arrow2Mstart"
       style="overflow:visible">
      <path
         id="path3790"
         style="font-size:12px;fill-rule:evenodd;stroke-width:0.625;stroke-linejoin:round"
         d="M 8.7185878,4.0337352 -2.2072895,0.01601326 8.7185884,-4.0017078 c -1.7454984,2.3720609 -1.7354408,5.6174519 -6e-7,8.035443 z"
         transform="scale(0.6,0.6)"
         inkscape:connector-curvature="0" />
    </marker>
    <marker
       style="overflow:visible"
       id="Arrow2Lend"
       refX="0"
       refY="0"
       orient="auto"
       inkscape:stockid="Arrow2Lend">
      <path
         transform="matrix(-1.1,0,0,-1.1,-1.1,0)"
         d="M 8.7185878,4.0337352 -2.2072895,0.01601326 8.7185884,-4.0017078 c -1.7454984,2.3720609 -1.7354408,5.6174519 -6e-7,8.035443 z"
         style="font-size:12px;fill-rule:evenodd;stroke-width:0.625;stroke-linejoin:round"
         id="path11637"
         inkscape:connector-curvature="0" />
    </marker>
    <marker
       style="overflow:visible"
       id="Arrow2Lstart"
       refX="0"
       refY="0"
       orient="auto"
       inkscape:stockid="Arrow2Lstart">
      <path
         transform="matrix(1.1,0,0,1.1,1.1,0)"
         d="M 8.7185878,4.0337352 -2.2072895,0.01601326 8.7185884,-4.0017078 c -1.7454984,2.3720609 -1.7354408,5.6174519 -6e-7,8.035443 z"
         style="font-size:12px;fill-rule:evenodd;stroke-width:0.625;stroke-linejoin:round"
         id="path11634"
         inkscape:connector-curvature="0" />
    </marker>
    <marker
       style="overflow:visible"
       id="Arrow2Lend4"
       refX="0"
       refY="0"
       orient="auto"
       inkscape:stockid="Arrow2Lend4">
      <path
         transform="matrix(-1.1,0,0,-1.1,-1.1,0)"
         d="M 8.7185878,4.0337352 -2.2072895,0.01601326 8.7185884,-4.0017078 c -1.7454984,2.3720609 -1.7354408,5.6174519 -6e-7,8.035443 z"
         style="font-size:12px;fill:#008000;fill-rule:evenodd;stroke:#008000;stroke-width:0.625;stroke-linejoin:round"
         id="path15603"
         inkscape:connector-curvature="0" />
    </marker>
    <marker
       style="overflow:visible"
       id="Arrow2Lend-5"
       refX="0"
       refY="0"
       orient="auto"
       inkscape:stockid="Arrow2Lend">
      <path
         inkscape:connector-curvature="0"
         transform="matrix(-1.1,0,0,-1.1,-1.1,0)"
         d="M 8.7185878,4.0337352 -2.2072895,0.01601326 8.7185884,-4.0017078 c -1.7454984,2.3720609 -1.7354408,5.6174519 -6e-7,8.035443 z"
         style="font-size:12px;fill-rule:evenodd;stroke-width:0.625;stroke-linejoin:round"
         id="path11637-3" />
    </marker>
    <marker
       style="overflow:visible"
       id="Arrow2Lend-0"
       refX="0"
       refY="0"
       orient="auto"
       inkscape:stockid="Arrow2Lend">
      <path
         inkscape:connector-curvature="0"
         transform="matrix(-1.1,0,0,-1.1,-1.1,0)"
         d="M 8.7185878,4.0337352 -2.2072895,0.01601326 8.7185884,-4.0017078 c -1.7454984,2.3720609 -1.7354408,5.6174519 -6e-7,8.035443 z"
         style="font-size:12px;fill-rule:evenodd;stroke-width:0.625;stroke-linejoin:round"
         id="path11637-1" />
    </marker>
    <marker
       style="overflow:visible"
       id="Arrow2Lstart-8"
       refX="0"
       refY="0"
       orient="auto"
       inkscape:stockid="Arrow2Lstart">
      <path
         transform="matrix(1.1,0,0,1.1,1.1,0)"
         d="M 8.7185878,4.0337352 -2.2072895,0.01601326 8.7185884,-4.0017078 c -1.7454984,2.3720609 -1.7354408,5.6174519 -6e-7,8.035443 z"
         style="font-size:12px;fill-rule:evenodd;stroke-width:0.625;stroke-linejoin:round"
         id="path11634-9"
         inkscape:connector-curvature="0" />
    </marker>
    <marker
       style="overflow:visible"
       id="Arrow2Lend-03"
       refX="0"
       refY="0"
       orient="auto"
       inkscape:stockid="Arrow2Lend">
      <path
         transform="matrix(-1.1,0,0,-1.1,-1.1,0)"
         d="M 8.7185878,4.0337352 -2.2072895,0.01601326 8.7185884,-4.0017078 c -1.7454984,2.3720609 -1.7354408,5.6174519 -6e-7,8.035443 z"
         style="font-size:12px;fill-rule:evenodd;stroke-width:0.625;stroke-linejoin:round"
         id="path11637-6"
         inkscape:connector-curvature="0" />
    </marker>
    <marker
       inkscape:stockid="Arrow2Mstart"
       orient="auto"
       refY="0"
       refX="0"
       id="Arrow2Mstart-8"
       style="overflow:visible">
      <path
         inkscape:connector-curvature="0"
         id="path3790-7"
         style="font-size:12px;fill-rule:evenodd;stroke-width:0.625;stroke-linejoin:round"
         d="M 8.7185878,4.0337352 -2.2072895,0.01601326 8.7185884,-4.0017078 c -1.7454984,2.3720609 -1.7354408,5.6174519 -6e-7,8.035443 z"
         transform="scale(0.6,0.6)" />
    </marker>
    <marker
       inkscape:stockid="Arrow2Mend"
       orient="auto"
       refY="0"
       refX="0"
       id="Arrow2Mend-2"
       style="overflow:visible">
      <path
         inkscape:connector-curvature="0"
         id="path3793-9"
         style="font-size:12px;fill-rule:evenodd;stroke-width:0.625;stroke-linejoin:round"
         d="M 8.7185878,4.0337352 -2.2072895,0.01601326 8.7185884,-4.0017078 c -1.7454984,2.3720609 -1.7354408,5.6174519 -6e-7,8.035443 z"
         transform="scale(-0.6,-0.6)" />
    </marker>
    <marker
       inkscape:stockid="Arrow2Mstart"
       orient="auto"
       refY="0"
       refX="0"
       id="Arrow2Mstart-8-0"
       style="overflow:visible">
      <path
         inkscape:connector-curvature="0"
         id="path3790-7-5"
         style="font-size:12px;fill-rule:evenodd;stroke-width:0.625;stroke-linejoin:round"
         d="M 8.7185878,4.0337352 -2.2072895,0.01601326 8.7185884,-4.0017078 c -1.7454984,2.3720609 -1.7354408,5.6174519 -6e-7,8.035443 z"
         transform="scale(0.6,0.6)" />
    </marker>
    <marker
       inkscape:stockid="Arrow2Mend"
       orient="auto"
       refY="0"
       refX="0"
       id="Arrow2Mend-2-2"
       style="overflow:visible">
      <path
         inkscape:connector-curvature="0"
         id="path3793-9-7"
         style="font-size:12px;fill-rule:evenodd;stroke-width:0.625;stroke-linejoin:round"
         d="M 8.7185878,4.0337352 -2.2072895,0.01601326 8.7185884,-4.0017078 c -1.7454984,2.3720609 -1.7354408,5.6174519 -6e-7,8.035443 z"
         transform="scale(-0.6,-0.6)" />
    </marker>
    <marker
       style="overflow:visible"
       id="Arrow2Lstart-7"
       refX="0"
       refY="0"
       orient="auto"
       inkscape:stockid="Arrow2Lstart">
      <path
         transform="matrix(1.1,0,0,1.1,1.1,0)"
         d="M 8.7185878,4.0337352 -2.2072895,0.01601326 8.7185884,-4.0017078 c -1.7454984,2.3720609 -1.7354408,5.6174519 -6e-7,8.035443 z"
         style="font-size:12px;fill-rule:evenodd;stroke-width:0.625;stroke-linejoin:round"
         id="path3176"
         inkscape:connector-curvature="0" />
    </marker>
    <marker
       inkscape:stockid="Arrow2Lend"
       orient="auto"
       refY="0"
       refX="0"
       id="Arrow2Lend-6"
       style="overflow:visible">
      <path
         id="path3179"
         style="font-size:12px;fill-rule:evenodd;stroke-width:0.625;stroke-linejoin:round"
         d="M 8.7185878,4.0337352 -2.2072895,0.01601326 8.7185884,-4.0017078 c -1.7454984,2.3720609 -1.7354408,5.6174519 -6e-7,8.035443 z"
         transform="matrix(-1.1,0,0,-1.1,-1.1,0)"
         inkscape:connector-curvature="0" />
    </marker>
    <radialGradient
       gradientUnits="userSpaceOnUse"
       gradientTransform="matrix(1,0,0,0.23510469,-16.42857,-211.70509)"
       r="186.54291"
       fy="-285.18103"
       fx="271.58548"
       cy="-285.18103"
       cx="271.58548"
       id="radialGradient12840-9"
       xlink:href="#linearGradient12834-0"
       inkscape:collect="always" />
    <linearGradient
       id="linearGradient12834-0">
      <stop
         id="stop12836-7"
         offset="0"
         style="stop-color:#ff0000;stop-opacity:0.12666667;" />
      <stop
         id="stop12838-6"
         offset="1"
         style="stop-color:#ff0000;stop-opacity:0.27333334;" />
    </linearGradient>
    <radialGradient
       r="15.75"
       fy="1110.5107"
       fx="-210"
       cy="1110.5107"
       cx="-210"
       gradientUnits="userSpaceOnUse"
       id="radialGradient263679"
       xlink:href="#linearGradient13977"
       inkscape:collect="always" />
    <linearGradient
       id="linearGradient13977">
      <stop
         id="stop13979"
         offset="0"
         style="stop-color:#ff0000;stop-opacity:1;" />
      <stop
         style="stop-color:#ff0000;stop-opacity:0.49803922;"
         offset="0.80681819"
         id="stop13985" />
      <stop
         id="stop13981"
         offset="1"
         style="stop-color:#ff0000;stop-opacity:0;" />
    </linearGradient>
    <radialGradient
       inkscape:collect="always"
       xlink:href="#linearGradient13977"
       id="radialGradient9611"
       gradientUnits="userSpaceOnUse"
       cx="-210"
       cy="1110.5107"
       fx="-210"
       fy="1110.5107"
       r="15.75" />
    <linearGradient
       id="linearGradient323969"
       inkscape:collect="always">
      <stop
         id="stop323971"
         offset="0"
         style="stop-color:#ff0000;stop-opacity:1;" />
      <stop
         id="stop323973"
         offset="1"
         style="stop-color:#ff0000;stop-opacity:0;" />
    </linearGradient>
    <radialGradient
       r="17.033045"
       fy="290.90378"
       fx="308.73184"
       cy="290.90378"
       cx="308.73184"
       gradientTransform="matrix(0.50281696,-0.0641096,0.03641397,0.28559781,131.46079,-23.351102)"
       gradientUnits="userSpaceOnUse"
       id="radialGradient44515"
       xlink:href="#linearGradient323969"
       inkscape:collect="always" />
  </defs>
  <metadata
     id="metadata3312">
    <rdf:RDF>
      <cc:Work
         rdf:about="">
        <dc:format>image/svg+xml</dc:format>
        <dc:type
           rdf:resource="http://purl.org/dc/dcmitype/StillImage" />
        <dc:title />
      </cc:Work>
    </rdf:RDF>
  </metadata>
  <g
     id="layer1"
     inkscape:groupmode="layer"
     inkscape:label="Layer 1"
     transform="translate(35.723164,358.12445)">
    <image
       width="683.14606"
       height="512"
       id="image9592"
       x="-35.723164"
       y="-330.12445"
       xlink:href="/home/me/Work/UiO/Phd/Articles/UAM2014/Presentation/gfx/scenario_interference.png"
       sodipodi:absref="/home/me/Work/UiO/Phd/Articles/UAM2014/Presentation/gfx/scenario_interference.png" />
    <image
       width="74.666672"
       height="56.000004"
       xlink:href="file:///home/me/Work/UiO/Phd/Articles/ECUA2012/presentation/gfx/happy_fish.png"
       id="image12979"
       x="162.81227"
       y="-35.635162" />
    <path
       sodipodi:nodetypes="cc"
       inkscape:connector-curvature="0"
       id="path18248"
       d="M 297.85777,-85.6987 297.47896,39.612032"
       style="fill:none;stroke:#000000;stroke-width:0.94973868;stroke-linecap:butt;stroke-linejoin:miter;stroke-miterlimit:4;stroke-opacity:1;stroke-dasharray:1.89947727, 1.89947727;stroke-dashoffset:0" />
    <path
       sodipodi:nodetypes="cc"
       inkscape:connector-curvature="0"
       id="path18248-0"
       d="m 240.85753,-95.75399 -23.37858,70.118831"
       style="fill:none;stroke:#000000;stroke-width:0.99999994;stroke-linecap:butt;stroke-linejoin:miter;stroke-miterlimit:4;stroke-opacity:1;stroke-dasharray:1.99999998, 1.99999998;stroke-dashoffset:0" />
    <path
       transform="matrix(0.66666674,0,0,0.66666674,438.35452,-993.901)"
       d="m -195,1110.5107 c 0,8.2843 -6.71573,15 -15,15 -8.28427,0 -15,-6.7157 -15,-15 0,-8.2842 6.71573,-15 15,-15 8.28427,0 15,6.7158 15,15 z"
       sodipodi:ry="15"
       sodipodi:rx="15"
       sodipodi:cy="1110.5107"
       sodipodi:cx="-210"
       id="path13975"
       style="fill:url(#radialGradient9611);fill-opacity:1;stroke:none"
       sodipodi:type="arc" />
    <path
       style="fill:none;stroke:#000000;stroke-width:0.74814242px;stroke-linecap:butt;stroke-linejoin:miter;stroke-opacity:1"
       d="M 325.92258,59.145431 346.20515,44.971088"
       id="path176746"
       inkscape:connector-curvature="0"
       sodipodi:nodetypes="cc" />
    <path
       style="fill:none;stroke:#000000;stroke-width:0.74814242px;stroke-linecap:butt;stroke-linejoin:miter;stroke-opacity:1"
       d="M 352.13762,116.56593 418.93368,47.847935"
       id="path177368"
       inkscape:connector-curvature="0"
       sodipodi:nodetypes="cc" />
    <path
       style="fill:none;stroke:#000000;stroke-width:0.74814242px;stroke-linecap:butt;stroke-linejoin:miter;stroke-opacity:1"
       d="M 158.85683,103.60266 273.36764,44.63888"
       id="path177370"
       inkscape:connector-curvature="0"
       sodipodi:nodetypes="cc" />
    <path
       style="fill:none;stroke:#000000;stroke-width:0.74814242px;stroke-linecap:butt;stroke-linejoin:miter;stroke-opacity:1"
       d="M 206.2942,106.75943 255.49634,77.155385"
       id="path176746-2"
       inkscape:connector-curvature="0"
       sodipodi:nodetypes="cc" />
    <path
       style="fill:none;stroke:#000000;stroke-width:0.74814242px;stroke-linecap:butt;stroke-linejoin:miter;stroke-opacity:1"
       d="M 305.73457,113.40722 383.084,46.697197"
       id="path177368-0"
       inkscape:connector-curvature="0"
       sodipodi:nodetypes="cc" />
    <path
       style="fill:none;stroke:#000000;stroke-width:0.74814242px;stroke-linecap:butt;stroke-linejoin:miter;stroke-opacity:1"
       d="M 110.00895,100.01482 242.42976,40.943499"
       id="path177370-1"
       inkscape:connector-curvature="0"
       sodipodi:nodetypes="cc" />
    <path
       style="fill:none;stroke:#000000;stroke-width:0.74814242px;stroke-linecap:butt;stroke-linejoin:miter;stroke-opacity:1"
       d="M 401.09461,119.5774 456.32713,49.190465"
       id="path177368-8"
       inkscape:connector-curvature="0"
       sodipodi:nodetypes="cc" />
    <path
       style="fill:none;stroke:#000000;stroke-width:0.74814242px;stroke-linecap:butt;stroke-linejoin:miter;stroke-opacity:1"
       d="M 231.71476,108.4479 267.89703,84.465824"
       id="path176746-6"
       inkscape:connector-curvature="0"
       sodipodi:nodetypes="cc" />
    <path
       style="fill:none;stroke:#000000;stroke-width:0.74814242px;stroke-linecap:butt;stroke-linejoin:miter;stroke-opacity:1"
       d="M 328.20612,114.94844 400.21763,47.349275"
       id="path177368-5"
       inkscape:connector-curvature="0"
       sodipodi:nodetypes="cc" />
    <path
       style="fill:none;stroke:#000000;stroke-width:0.74814242px;stroke-linecap:butt;stroke-linejoin:miter;stroke-opacity:1"
       d="M 134.7434,101.95126 259.9879,41.527774"
       id="path177370-6"
       inkscape:connector-curvature="0"
       sodipodi:nodetypes="cc" />
    <path
       style="fill:none;stroke:#000000;stroke-width:0.74814248px;stroke-linecap:butt;stroke-linejoin:miter;stroke-opacity:1"
       d="M 183.33303,105.14194 262.24651,61.059303"
       id="path176746-2-6"
       inkscape:connector-curvature="0"
       sodipodi:nodetypes="cc" />
    <path
       style="fill:none;stroke:#000000;stroke-width:0.74814242px;stroke-linecap:butt;stroke-linejoin:miter;stroke-opacity:1"
       d="M 332.30619,70.970943 364.48924,45.791694"
       id="path177368-0-8"
       inkscape:connector-curvature="0"
       sodipodi:nodetypes="cc" />
    <path
       style="fill:none;stroke:#000000;stroke-width:0.74814242px;stroke-linecap:butt;stroke-linejoin:miter;stroke-opacity:1"
       d="M 87.957445,98.77027 225.83628,40.512653"
       id="path177370-1-0"
       inkscape:connector-curvature="0"
       sodipodi:nodetypes="cc" />
    <path
       style="fill:none;stroke:#000000;stroke-width:0.74814242px;stroke-linecap:butt;stroke-linejoin:miter;stroke-opacity:1"
       d="M 376.73858,117.926 437.73237,48.793518"
       id="path177368-8-9"
       inkscape:connector-curvature="0"
       sodipodi:nodetypes="cc" />
    <path
       style="fill:none;stroke:#000000;stroke-width:0.74814242px;stroke-linecap:butt;stroke-linejoin:miter;stroke-opacity:1"
       d="M 423.83155,121.11845 474.21249,50.189044"
       id="path177368-8-0"
       inkscape:connector-curvature="0"
       sodipodi:nodetypes="cc" />
    <path
       style="fill:none;stroke:#000000;stroke-width:0.74814242px;stroke-linecap:butt;stroke-linejoin:miter;stroke-opacity:1"
       d="m 334.26187,76.317102 136.5923,8.52295"
       id="path177498"
       inkscape:connector-curvature="0"
       sodipodi:nodetypes="cc" />
    <path
       style="fill:none;stroke:#000000;stroke-width:0.74814242px;stroke-linecap:butt;stroke-linejoin:miter;stroke-opacity:1"
       d="m 324.9233,57.61475 157.81938,9.412188"
       id="path177500"
       inkscape:connector-curvature="0" />
    <path
       style="fill:none;stroke:#000000;stroke-width:0.74814242px;stroke-linecap:butt;stroke-linejoin:miter;stroke-opacity:1"
       d="M 111.5527,79.109709 457.3563,103.85062"
       id="path177502"
       inkscape:connector-curvature="0" />
    <path
       style="fill:none;stroke:#000000;stroke-width:0.74814242px;stroke-linecap:butt;stroke-linejoin:miter;stroke-opacity:1"
       d="m 321.1419,49.865338 167.08973,8.53105"
       id="path177504"
       inkscape:connector-curvature="0" />
    <path
       style="fill:none;stroke:#000000;stroke-width:0.74814242px;stroke-linecap:butt;stroke-linejoin:miter;stroke-opacity:1"
       d="m 329.96324,66.48583 146.60438,9.747026"
       id="path177506"
       inkscape:connector-curvature="0" />
    <path
       style="fill:none;stroke:#000000;stroke-width:0.74814242px;stroke-linecap:butt;stroke-linejoin:miter;stroke-opacity:1"
       d="M 89.939969,87.740258 451.18124,114.39907"
       id="path177510"
       inkscape:connector-curvature="0" />
    <path
       sodipodi:nodetypes="cccccc"
       inkscape:connector-curvature="0"
       id="path444367"
       d="M 317.24691,43.875031 493.16953,51.089966 444.92683,122.81144 65.417664,97.239435 215.50603,39.702436 l 59.85759,2.454878"
       style="fill:none;stroke:#000000;stroke-width:0.74814242px;stroke-linecap:butt;stroke-linejoin:miter;stroke-opacity:1" />
    <path
       sodipodi:nodetypes="ccccc"
       style="fill:url(#radialGradient44515);fill-opacity:1;stroke:none"
       d="m 277.94765,40.450223 18.18638,-5.292574 20.52506,4.061472 -17.25713,5.628661 z"
       id="path279896"
       inkscape:connector-curvature="0" />
    <path
       style="fill:none;stroke:#000000;stroke-width:0.74814242px;stroke-linecap:butt;stroke-linejoin:miter;stroke-opacity:1"
       d="M 254.49401,109.82807 286.23438,87.523765"
       id="path176746-7"
       inkscape:connector-curvature="0"
       sodipodi:nodetypes="cc" />
    <path
       style="fill:none;stroke:#000000;stroke-width:0.74814242px;stroke-linecap:butt;stroke-linejoin:miter;stroke-opacity:1"
       d="m 173.30334,55.327745 89.15713,5.655351"
       id="path177506-2"
       inkscape:connector-curvature="0" />
    <path
       style="fill:none;stroke:#000000;stroke-width:0.74814242px;stroke-linecap:butt;stroke-linejoin:miter;stroke-opacity:1"
       d="M 151.13448,63.955185 256.6198,70.378276"
       id="path177498-9"
       inkscape:connector-curvature="0"
       sodipodi:nodetypes="cc" />
    <path
       style="fill:none;stroke:#000000;stroke-width:0.74814242px;stroke-linecap:butt;stroke-linejoin:miter;stroke-opacity:1"
       d="M 325.47884,85.123704 463.8744,95.028277"
       id="path177508-4"
       inkscape:connector-curvature="0" />
    <path
       style="fill:none;stroke:#000000;stroke-width:0.74814242px;stroke-linecap:butt;stroke-linejoin:miter;stroke-opacity:1"
       d="m 190.4563,48.998679 66.54904,3.563975"
       id="path177500-9"
       inkscape:connector-curvature="0" />
    <path
       style="fill:none;stroke:#000000;stroke-width:0.74814242px;stroke-linecap:butt;stroke-linejoin:miter;stroke-opacity:1"
       d="m 204.86479,43.436767 67.76967,3.039977"
       id="path177504-6"
       inkscape:connector-curvature="0" />
    <path
       style="fill:none;stroke:#000000;stroke-width:0.74814242px;stroke-linecap:butt;stroke-linejoin:miter;stroke-opacity:1"
       d="m 134.19462,70.479159 122.7155,8.704122"
       id="path177508-4-9"
       inkscape:connector-curvature="0" />
    <path
       style="fill:none;stroke:#000000;stroke-width:0.74814242px;stroke-linecap:butt;stroke-linejoin:miter;stroke-opacity:1"
       d="M 280.59017,111.68801 311.67428,87.373981"
       id="path177368-0-8-6"
       inkscape:connector-curvature="0"
       sodipodi:nodetypes="cc" />
    <image
       width="385.95532"
       height="191.89957"
       xlink:href="file:///home/me/Work/UiO/Phd/Articles/ASA2013/presentation/gfx/scenario_das_resp.png"
       id="image45558"
       x="105.51038"
       y="-257.8385" />
    <path
       transform="translate(-35.723164,-358.12445)"
       inkscape:connector-curvature="0"
       id="path7079"
       d="m 318.57143,245.57143 30,0"
       style="fill:none;stroke:#000000;stroke-width:1.8;stroke-linecap:butt;stroke-linejoin:miter;stroke-opacity:1;marker-start:url(#Arrow2Mstart-8-0);stroke-miterlimit:4;stroke-dasharray:none;marker-end:url(#Arrow2Mend-2-2)" />
    <g
       ns0:text="\\Large\\sffamily\\bf\n$\\approx$2cm"
       ns0:preamble="/home/me/.latex/inkscape/header.tex"
       transform="translate(52.97461,-255.65936)"
       id="g10721">
      <defs
         id="defs10723">
        <g
           id="g10725">
          <symbol
             style="overflow:visible"
             overflow="visible"
             id="textext-0afb0bb4-0">
            <path
               inkscape:connector-curvature="0"
               style="stroke:none"
               d=""
               id="path10728" />
          </symbol>
          <symbol
             style="overflow:visible"
             overflow="visible"
             id="textext-0afb0bb4-1">
            <path
               inkscape:connector-curvature="0"
               style="stroke:none"
               d="m 10.34375,-6.484375 c 0,-0.296875 -0.109375,-0.421875 -0.203125,-0.421875 -0.140625,0 -0.1875,0.234375 -0.203125,0.375 -0.046875,0.984375 -1.0625,1.578125 -1.984375,1.578125 -0.859375,0 -1.5,-0.421875 -2.46875,-1.078125 -0.625,-0.390625 -1.375,-0.890625 -2.296875,-0.890625 -1.328125,0 -2.390625,1 -2.390625,2.328125 0,0.3125 0.109375,0.4375 0.203125,0.4375 0.15625,0 0.203125,-0.265625 0.203125,-0.328125 C 1.28125,-5.6875 2.46875,-6.125 3.1875,-6.125 c 0.859375,0 1.5,0.4375 2.484375,1.078125 0.609375,0.40625 1.375,0.90625 2.28125,0.90625 1.328125,0 2.390625,-1.015625 2.390625,-2.34375 z m 0,3.359375 c 0,-0.296875 -0.109375,-0.453125 -0.203125,-0.453125 -0.15625,0 -0.1875,0.25 -0.203125,0.46875 -0.0625,0.8125 -0.953125,1.5 -1.984375,1.5 -0.859375,0 -1.5,-0.421875 -2.46875,-1.078125 -0.625,-0.390625 -1.375,-0.890625 -2.296875,-0.890625 -1.328125,0 -2.390625,1 -2.390625,2.328125 0,0.3125 0.109375,0.4375 0.203125,0.4375 0.15625,0 0.203125,-0.265625 0.203125,-0.328125 C 1.28125,-2.359375 2.46875,-2.78125 3.1875,-2.78125 c 0.859375,0 1.5,0.421875 2.484375,1.078125 0.609375,0.390625 1.375,0.90625 2.28125,0.90625 1.359375,0 2.390625,-1.046875 2.390625,-2.328125 z"
               id="path10731" />
          </symbol>
          <symbol
             style="overflow:visible"
             overflow="visible"
             id="textext-0afb0bb4-2">
            <path
               inkscape:connector-curvature="0"
               style="stroke:none"
               d=""
               id="path10734" />
          </symbol>
          <symbol
             style="overflow:visible"
             overflow="visible"
             id="textext-0afb0bb4-3">
            <path
               inkscape:connector-curvature="0"
               style="stroke:none"
               d="m 7.25,-3.078125 -0.609375,0 C 6.59375,-2.78125 6.5,-1.9375 6.28125,-1.796875 6.171875,-1.6875 5.046875,-1.6875 4.828125,-1.6875 l -2.21875,0 2.0625,-1.71875 C 6.265625,-4.59375 7.25,-5.328125 7.25,-6.703125 c 0,-1.6875 -1.546875,-2.703125 -3.4375,-2.703125 -1.625,0 -3.015625,0.921875 -3.015625,2.28125 0,0.75 0.625,0.96875 0.953125,0.96875 0.4375,0 0.96875,-0.296875 0.96875,-0.953125 0,-0.609375 -0.453125,-0.90625 -0.890625,-0.96875 0.5625,-0.65625 1.328125,-0.71875 1.625,-0.71875 1.328125,0 1.953125,1.078125 1.953125,2.109375 0,1.125 -0.765625,2.15625 -1.34375,2.765625 L 0.953125,-0.65625 C 0.796875,-0.53125 0.796875,-0.5 0.796875,-0.25 l 0,0.25 6.03125,0 z"
               id="path10737" />
          </symbol>
          <symbol
             style="overflow:visible"
             overflow="visible"
             id="textext-0afb0bb4-4">
            <path
               inkscape:connector-curvature="0"
               style="stroke:none"
               d="m 6.71875,-1.671875 c 0,-0.171875 -0.15625,-0.171875 -0.3125,-0.171875 -0.21875,0 -0.234375,0 -0.3125,0.1875 C 6,-1.390625 5.609375,-0.4375 4.28125,-0.4375 c -2.015625,0 -2.015625,-2.171875 -2.015625,-2.8125 0,-0.859375 0.015625,-2.734375 1.890625,-2.734375 0.109375,0 0.953125,0.03125 0.953125,0.109375 0,0 -0.015625,0.015625 -0.046875,0.03125 -0.046875,0.046875 -0.234375,0.265625 -0.234375,0.625 0,0.59375 0.5,0.84375 0.859375,0.84375 0.296875,0 0.84375,-0.1875 0.84375,-0.859375 C 6.53125,-6.40625 4.875,-6.5 4.109375,-6.5 c -2.5625,0 -3.5625,1.671875 -3.5625,3.3125 0,1.953125 1.359375,3.28125 3.46875,3.28125 2.25,0 2.703125,-1.671875 2.703125,-1.765625 z"
               id="path10740" />
          </symbol>
          <symbol
             style="overflow:visible"
             overflow="visible"
             id="textext-0afb0bb4-5">
            <path
               inkscape:connector-curvature="0"
               style="stroke:none"
               d="m 13.09375,0 0,-0.609375 -0.984375,0 0,-3.78125 c 0,-1.3125 -0.5625,-2.0625 -2.171875,-2.0625 -1.453125,0 -2.125,0.96875 -2.34375,1.4375 -0.234375,-1.21875 -1.203125,-1.4375 -2.125,-1.4375 -1.375,0 -2.125,0.890625 -2.421875,1.578125 l -0.015625,0 0,-1.578125 -2.421875,0.109375 0,0.625 c 0.875,0 0.984375,0 0.984375,0.5625 l 0,4.546875 -0.984375,0 0,0.609375 c 0.328125,-0.03125 1.359375,-0.03125 1.75,-0.03125 0.40625,0 1.453125,0 1.78125,0.03125 l 0,-0.609375 -0.984375,0 0,-3.0625 c 0,-1.5625 1.15625,-2.3125 2.0625,-2.3125 0.53125,0 0.84375,0.3125 0.84375,1.4375 l 0,3.9375 -0.984375,0 0,0.609375 C 5.40625,-0.03125 6.4375,-0.03125 6.84375,-0.03125 c 0.40625,0 1.453125,0 1.78125,0.03125 l 0,-0.609375 -1,0 0,-3.0625 c 0,-1.5625 1.171875,-2.3125 2.078125,-2.3125 0.53125,0 0.84375,0.3125 0.84375,1.4375 l 0,3.9375 -1,0 0,0.609375 c 0.34375,-0.03125 1.375,-0.03125 1.765625,-0.03125 0.40625,0 1.453125,0 1.78125,0.03125 z"
               id="path10743" />
          </symbol>
        </g>
      </defs>
      <g
         id="textext-0afb0bb4-6">
        <g
           style="fill:#000000;fill-opacity:1"
           id="g10746">
          <use
             height="512"
             width="683.14606"
             xlink:href="#textext-0afb0bb4-1"
             x="223.43201"
             y="134.765"
             id="use10748" />
        </g>
        <g
           style="fill:#000000;fill-opacity:1"
           id="g10750">
          <use
             height="512"
             width="683.14606"
             xlink:href="#textext-0afb0bb4-3"
             x="234.59"
             y="134.765"
             id="use10752" />
          <use
             height="512"
             width="683.14606"
             xlink:href="#textext-0afb0bb4-4"
             x="242.65974"
             y="134.765"
             id="use10754" />
          <use
             height="512"
             width="683.14606"
             xlink:href="#textext-0afb0bb4-5"
             x="249.83284"
             y="134.765"
             id="use10756" />
        </g>
      </g>
    </g>
    <g
       id="g11158"
       transform="translate(183.84789,-190.52267)"
       ns0:preamble="/home/me/.latex/inkscape/header.tex"
       ns0:text="\\parbox{7cm}{\\Large\\sffamily\n\\textbf{Beampattern in HISAS1030}:\\\\[0.1cm]\n\\setlength{\\leftmargini}{1em}\n\\begin{itemize}\\leftmargin=0pt\n  \\setlength{\\parindent}{0pt}\n  \\setlength{\\itemsep}{0pt}\n  \\setlength{\\parskip}{0pt plus0.3pt minus0.3pt}\n  \\setlength{\\parsep}{0pt}\n\\vspace{-0.8cm}\n\\item Would the template be better if smeared by the beampattern?\n\\end{itemize}}">
      <defs
         id="defs11160">
        <g
           id="g11162">
          <symbol
             id="textext-e51d4d97-0"
             overflow="visible">
            <path
               id="path11165"
               d=""
               style="stroke:none;" />
          </symbol>
          <symbol
             id="textext-e51d4d97-1"
             overflow="visible">
            <path
               id="path11168"
               d="M 9.625 -2.78125 C 9.625 -4.8125 7.625 -5.125 7.09375 -5.203125 C 8.421875 -5.515625 9.1875 -6.25 9.1875 -7.375 C 9.1875 -9.953125 6.125 -9.953125 5.515625 -9.953125 L 2 -9.953125 C 1.484375 -9.953125 1.3125 -9.796875 1.3125 -9.265625 L 1.3125 -0.6875 C 1.3125 -0.171875 1.46875 0 2 0 L 5.921875 0 C 6.984375 0 9.625 -0.1875 9.625 -2.78125 Z M 7.234375 -7.328125 C 7.234375 -5.6875 5.34375 -5.6875 4.984375 -5.6875 L 3.328125 -5.6875 L 3.328125 -8.71875 L 5 -8.71875 C 5.5625 -8.71875 7.234375 -8.671875 7.234375 -7.328125 Z M 7.625 -2.8125 C 7.625 -1.328125 6.09375 -1.234375 5.40625 -1.234375 L 3.328125 -1.234375 L 3.328125 -4.65625 L 5.140625 -4.65625 C 5.640625 -4.65625 7.625 -4.65625 7.625 -2.8125 Z "
               style="stroke:none;" />
          </symbol>
          <symbol
             id="textext-e51d4d97-2"
             overflow="visible">
            <path
               id="path11171"
               d="M 6.875 -3.734375 C 6.875 -5.578125 6.015625 -6.8125 3.875 -6.8125 C 1.578125 -6.8125 0.4375 -5.515625 0.4375 -3.34375 C 0.4375 -0.984375 1.8125 0.15625 4.0625 0.15625 C 4.609375 0.15625 5.421875 0.09375 6.375 -0.390625 C 6.6875 -0.546875 6.78125 -0.59375 6.78125 -0.765625 C 6.78125 -0.859375 6.734375 -1.28125 6.734375 -1.390625 C 6.671875 -1.84375 6.65625 -1.84375 6.53125 -1.84375 C 6.46875 -1.84375 6.4375 -1.84375 6.28125 -1.703125 C 5.4375 -0.96875 4.578125 -0.875 4.109375 -0.875 C 2.5 -0.875 2.328125 -2.15625 2.28125 -3.0625 L 6.1875 -3.0625 C 6.515625 -3.0625 6.875 -3.078125 6.875 -3.734375 Z M 5.28125 -3.828125 L 2.296875 -3.828125 C 2.34375 -4.703125 2.625 -5.78125 3.875 -5.78125 C 5.015625 -5.78125 5.234375 -4.953125 5.28125 -3.828125 Z "
               style="stroke:none;" />
          </symbol>
          <symbol
             id="textext-e51d4d97-3"
             overflow="visible">
            <path
               id="path11174"
               d="M 6.796875 -0.6875 L 6.796875 -4.53125 C 6.796875 -6.796875 4.625 -6.8125 3.90625 -6.8125 C 3.234375 -6.8125 2.515625 -6.75 1.546875 -6.359375 C 1.25 -6.21875 1.171875 -6.1875 1.171875 -6.03125 C 1.171875 -5.921875 1.265625 -5.09375 1.28125 -4.984375 C 1.296875 -4.890625 1.359375 -4.8125 1.46875 -4.8125 C 1.53125 -4.8125 1.578125 -4.859375 1.625 -4.90625 C 2.234375 -5.546875 2.953125 -5.859375 3.84375 -5.859375 C 4.625 -5.859375 4.84375 -5.390625 4.84375 -4.546875 L 4.84375 -4.046875 C 4.34375 -4.046875 0.59375 -4.015625 0.59375 -1.90625 C 0.59375 -0.90625 1.390625 0.15625 2.65625 0.15625 C 3.140625 0.15625 4.21875 0.015625 4.890625 -0.96875 L 4.890625 -0.6875 C 4.890625 -0.234375 4.984375 0 5.578125 0 L 6.109375 0 C 6.65625 0 6.796875 -0.1875 6.796875 -0.6875 Z M 4.84375 -2.203125 C 4.84375 -0.875 3.484375 -0.875 3.4375 -0.875 C 2.84375 -0.875 2.453125 -1.390625 2.453125 -1.9375 C 2.453125 -3.34375 4.453125 -3.4375 4.84375 -3.453125 Z "
               style="stroke:none;" />
          </symbol>
          <symbol
             id="textext-e51d4d97-4"
             overflow="visible">
            <path
               id="path11177"
               d="M 11.5625 -0.6875 L 11.5625 -4.65625 C 11.5625 -6.140625 10.9375 -6.734375 9.46875 -6.734375 C 8.453125 -6.734375 7.65625 -6.25 7.140625 -5.3125 C 6.90625 -6.6875 5.6875 -6.734375 5.09375 -6.734375 C 4.8125 -6.734375 4.21875 -6.734375 3.578125 -6.25 C 3.125 -5.921875 2.84375 -5.46875 2.734375 -5.25 L 2.71875 -5.25 L 2.71875 -5.96875 C 2.71875 -6.421875 2.625 -6.65625 2.03125 -6.65625 L 1.546875 -6.65625 C 1.03125 -6.65625 0.859375 -6.5 0.859375 -5.96875 L 0.859375 -0.6875 C 0.859375 -0.171875 1.015625 0 1.546875 0 L 2.125 0 C 2.671875 0 2.8125 -0.1875 2.8125 -0.6875 L 2.8125 -3.859375 C 2.8125 -5.15625 3.6875 -5.6875 4.390625 -5.6875 C 5.078125 -5.6875 5.234375 -5.390625 5.234375 -4.640625 L 5.234375 -0.6875 C 5.234375 -0.171875 5.390625 0 5.921875 0 L 6.5 0 C 7.046875 0 7.1875 -0.1875 7.1875 -0.6875 L 7.1875 -3.859375 C 7.1875 -5.15625 8.0625 -5.6875 8.765625 -5.6875 C 9.453125 -5.6875 9.609375 -5.390625 9.609375 -4.640625 L 9.609375 -0.6875 C 9.609375 -0.171875 9.765625 0 10.296875 0 L 10.875 0 C 11.421875 0 11.5625 -0.1875 11.5625 -0.6875 Z "
               style="stroke:none;" />
          </symbol>
          <symbol
             id="textext-e51d4d97-5"
             overflow="visible">
            <path
               id="path11180"
               d="M 7.5 -3.3125 C 7.5 -4.015625 7.5 -6.734375 4.90625 -6.734375 C 4.0625 -6.734375 3.296875 -6.390625 2.78125 -5.890625 C 2.78125 -6.421875 2.578125 -6.5625 2.09375 -6.5625 L 1.5625 -6.5625 C 1.046875 -6.5625 0.875 -6.40625 0.875 -5.875 L 0.875 2.09375 C 0.875 2.609375 1.03125 2.78125 1.5625 2.78125 L 2.140625 2.78125 C 2.6875 2.78125 2.828125 2.59375 2.828125 2.09375 L 2.828125 -0.5625 C 3.46875 0.15625 4.265625 0.15625 4.453125 0.15625 C 7.5 0.15625 7.5 -2.59375 7.5 -3.3125 Z M 5.546875 -3.28125 C 5.546875 -2.71875 5.546875 -0.875 3.9375 -0.875 C 3.59375 -0.875 3.34375 -0.984375 3.171875 -1.125 C 2.828125 -1.359375 2.828125 -1.4375 2.828125 -1.6875 L 2.828125 -5.140625 C 2.984375 -5.28125 3.453125 -5.609375 4.078125 -5.609375 C 5.53125 -5.609375 5.546875 -3.921875 5.546875 -3.28125 Z "
               style="stroke:none;" />
          </symbol>
          <symbol
             id="textext-e51d4d97-6"
             overflow="visible">
            <path
               id="path11183"
               d="M 5.34375 -0.671875 C 5.34375 -0.71875 5.328125 -0.8125 5.234375 -1.125 C 5.15625 -1.40625 5.140625 -1.484375 5 -1.484375 C 4.9375 -1.484375 4.921875 -1.484375 4.828125 -1.390625 C 4.671875 -1.28125 4.28125 -0.96875 3.6875 -0.96875 C 3.34375 -0.96875 3.125 -1.203125 3.125 -2.15625 L 3.125 -5.53125 L 4.40625 -5.53125 C 4.578125 -5.53125 5.09375 -5.53125 5.09375 -6.046875 C 5.09375 -6.5625 4.578125 -6.5625 4.40625 -6.5625 L 3.125 -6.5625 L 3.125 -7.765625 C 3.125 -8.21875 3.03125 -8.453125 2.4375 -8.453125 L 2 -8.453125 C 1.484375 -8.453125 1.3125 -8.296875 1.3125 -7.765625 L 1.3125 -6.5625 L 0.96875 -6.5625 C 0.8125 -6.5625 0.28125 -6.5625 0.28125 -6.046875 C 0.28125 -5.53125 0.796875 -5.53125 0.96875 -5.53125 L 1.265625 -5.53125 L 1.265625 -1.90625 C 1.265625 -0.453125 1.78125 0.15625 2.765625 0.15625 C 2.890625 0.15625 3.53125 0.15625 4.28125 -0.078125 C 4.515625 -0.140625 5.34375 -0.40625 5.34375 -0.671875 Z "
               style="stroke:none;" />
          </symbol>
          <symbol
             id="textext-e51d4d97-7"
             overflow="visible">
            <path
               id="path11186"
               d="M 5.109375 -5.671875 L 5.109375 -6.34375 C 5.109375 -6.625 5.109375 -6.734375 4.84375 -6.734375 C 4.453125 -6.734375 3.40625 -6.578125 2.71875 -5.03125 L 2.71875 -5.96875 C 2.71875 -6.421875 2.609375 -6.65625 2.015625 -6.65625 L 1.5625 -6.65625 C 1.046875 -6.65625 0.875 -6.5 0.875 -5.96875 L 0.875 -0.6875 C 0.875 -0.171875 1.03125 0 1.5625 0 L 2.09375 0 C 2.640625 0 2.78125 -0.1875 2.78125 -0.6875 L 2.78125 -3.296875 C 2.78125 -4.65625 3.921875 -5.21875 4.8125 -5.28125 C 5.078125 -5.296875 5.109375 -5.296875 5.109375 -5.671875 Z "
               style="stroke:none;" />
          </symbol>
          <symbol
             id="textext-e51d4d97-8"
             overflow="visible">
            <path
               id="path11189"
               d="M 7.171875 -0.6875 L 7.171875 -4.65625 C 7.171875 -6.140625 6.546875 -6.734375 5.078125 -6.734375 C 3.578125 -6.734375 2.921875 -5.640625 2.734375 -5.25 L 2.71875 -5.25 L 2.71875 -5.96875 C 2.71875 -6.421875 2.625 -6.65625 2.03125 -6.65625 L 1.546875 -6.65625 C 1.03125 -6.65625 0.859375 -6.5 0.859375 -5.96875 L 0.859375 -0.6875 C 0.859375 -0.171875 1.015625 0 1.546875 0 L 2.125 0 C 2.671875 0 2.8125 -0.1875 2.8125 -0.6875 L 2.8125 -3.859375 C 2.8125 -5.109375 3.640625 -5.6875 4.390625 -5.6875 C 5.078125 -5.6875 5.21875 -5.359375 5.21875 -4.640625 L 5.21875 -0.6875 C 5.21875 -0.234375 5.328125 0 5.90625 0 L 6.484375 0 C 7.03125 0 7.171875 -0.1875 7.171875 -0.6875 Z "
               style="stroke:none;" />
          </symbol>
          <symbol
             id="textext-e51d4d97-9"
             overflow="visible">
            <path
               id="path11192"
               d="M 2.78125 -0.6875 L 2.78125 -5.875 C 2.78125 -6.34375 2.6875 -6.5625 2.09375 -6.5625 L 1.5625 -6.5625 C 1.046875 -6.5625 0.875 -6.40625 0.875 -5.875 L 0.875 -0.6875 C 0.875 -0.171875 1.03125 0 1.5625 0 L 2.09375 0 C 2.640625 0 2.78125 -0.1875 2.78125 -0.6875 Z M 2.890625 -8.6875 L 2.890625 -8.96875 C 2.890625 -9.421875 2.78125 -9.65625 2.1875 -9.65625 L 1.46875 -9.65625 C 0.921875 -9.65625 0.78125 -9.46875 0.78125 -8.96875 L 0.78125 -8.6875 C 0.78125 -8.28125 0.84375 -8 1.46875 -8 L 2.1875 -8 C 2.796875 -8 2.890625 -8.265625 2.890625 -8.6875 Z "
               style="stroke:none;" />
          </symbol>
          <symbol
             id="textext-e51d4d97-10"
             overflow="visible">
            <path
               id="path11195"
               d="M 10.0625 -0.6875 L 10.0625 -9.265625 C 10.0625 -9.71875 9.96875 -9.953125 9.375 -9.953125 L 8.65625 -9.953125 C 8.109375 -9.953125 7.953125 -9.765625 7.953125 -9.265625 L 7.953125 -5.859375 L 3.40625 -5.859375 L 3.40625 -9.265625 C 3.40625 -9.71875 3.3125 -9.953125 2.71875 -9.953125 L 2 -9.953125 C 1.484375 -9.953125 1.3125 -9.796875 1.3125 -9.265625 L 1.3125 -0.6875 C 1.3125 -0.171875 1.46875 0 2 0 L 2.71875 0 C 3.265625 0 3.40625 -0.1875 3.40625 -0.6875 L 3.40625 -4.5 L 7.953125 -4.5 L 7.953125 -0.6875 C 7.953125 -0.234375 8.0625 0 8.65625 0 L 9.375 0 C 9.921875 0 10.0625 -0.1875 10.0625 -0.6875 Z "
               style="stroke:none;" />
          </symbol>
          <symbol
             id="textext-e51d4d97-11"
             overflow="visible">
            <path
               id="path11198"
               d="M 3.421875 -0.6875 L 3.421875 -9.265625 C 3.421875 -9.71875 3.328125 -9.953125 2.734375 -9.953125 L 2.015625 -9.953125 C 1.484375 -9.953125 1.3125 -9.796875 1.3125 -9.265625 L 1.3125 -0.6875 C 1.3125 -0.171875 1.484375 0 2.015625 0 L 2.734375 0 C 3.28125 0 3.421875 -0.1875 3.421875 -0.6875 Z "
               style="stroke:none;" />
          </symbol>
          <symbol
             id="textext-e51d4d97-12"
             overflow="visible">
            <path
               id="path11201"
               d="M 7.875 -2.875 C 7.875 -4.46875 6.6875 -5.6875 5.25 -6.015625 L 3.875 -6.328125 C 3.5625 -6.390625 2.671875 -6.734375 2.671875 -7.546875 C 2.671875 -8.765625 3.890625 -8.796875 4.375 -8.796875 C 5.171875 -8.796875 5.890625 -8.609375 6.59375 -7.921875 C 6.828125 -7.703125 6.84375 -7.6875 6.90625 -7.6875 C 6.984375 -7.6875 7.0625 -7.734375 7.09375 -7.953125 L 7.3125 -9.1875 C 7.34375 -9.3125 7.34375 -9.34375 7.34375 -9.375 C 7.34375 -9.5 7.328125 -9.515625 6.96875 -9.703125 C 5.953125 -10.203125 5.109375 -10.265625 4.375 -10.265625 C 3.09375 -10.265625 0.875 -9.96875 0.875 -7.28125 C 0.875 -6.265625 1.40625 -5.609375 1.671875 -5.328125 C 2.40625 -4.578125 3.078125 -4.4375 4.203125 -4.171875 C 5 -3.984375 5.328125 -3.921875 5.640625 -3.625 C 5.78125 -3.484375 6.078125 -3.1875 6.078125 -2.640625 C 6.078125 -1.296875 4.84375 -1.25 4.375 -1.25 C 3.171875 -1.25 2.125 -1.734375 1.40625 -2.375 C 1.234375 -2.546875 1.203125 -2.546875 1.140625 -2.546875 C 1.0625 -2.546875 0.984375 -2.515625 0.953125 -2.296875 L 0.734375 -1.046875 C 0.703125 -0.9375 0.703125 -0.90625 0.703125 -0.859375 C 0.703125 -0.5625 2.1875 -0.046875 2.265625 -0.015625 C 3.234375 0.28125 4 0.3125 4.375 0.3125 C 6.53125 0.3125 7.875 -0.640625 7.875 -2.875 Z "
               style="stroke:none;" />
          </symbol>
          <symbol
             id="textext-e51d4d97-13"
             overflow="visible">
            <path
               id="path11204"
               d="M 9.890625 -0.390625 C 9.890625 -0.453125 9.890625 -0.484375 9.828125 -0.671875 L 6.796875 -9.34375 C 6.578125 -9.953125 6.171875 -9.953125 5.875 -9.953125 L 4.625 -9.953125 C 4.328125 -9.953125 3.921875 -9.953125 3.703125 -9.34375 L 0.671875 -0.671875 C 0.609375 -0.484375 0.609375 -0.453125 0.609375 -0.390625 C 0.609375 0 0.96875 0 1.15625 0 L 1.671875 0 C 1.9375 0 2.375 0 2.578125 -0.578125 L 3.140625 -2.171875 L 7.109375 -2.171875 L 7.609375 -0.78125 C 7.78125 -0.28125 7.875 0 8.5625 0 L 9.34375 0 C 9.53125 0 9.890625 0 9.890625 -0.390625 Z M 6.6875 -3.40625 L 3.578125 -3.40625 L 4.609375 -6.4375 C 4.8125 -7.078125 5 -7.609375 5.125 -8.140625 L 5.140625 -8.140625 C 5.203125 -7.78125 5.203125 -7.765625 5.328125 -7.4375 Z "
               style="stroke:none;" />
          </symbol>
          <symbol
             id="textext-e51d4d97-14"
             overflow="visible">
            <path
               id="path11207"
               d="M 6.78125 -0.515625 C 6.78125 -1.03125 6.25 -1.03125 6.09375 -1.03125 L 5.09375 -1.03125 L 5.09375 -9.578125 C 5.09375 -9.859375 5.09375 -10.265625 4.453125 -10.265625 C 4.171875 -10.265625 4.109375 -10.234375 3.9375 -10.0625 C 3.6875 -9.84375 3.140625 -9.3125 1.71875 -9.28125 C 1.46875 -9.28125 1.09375 -9.1875 1.09375 -8.765625 C 1.09375 -8.25 1.59375 -8.25 1.78125 -8.25 C 2.203125 -8.25 2.71875 -8.3125 3.125 -8.4375 L 3.125 -1.03125 L 2.015625 -1.03125 C 1.828125 -1.03125 1.3125 -1.03125 1.3125 -0.515625 C 1.3125 0 1.828125 0 2.015625 0 L 6.09375 0 C 6.25 0 6.78125 0 6.78125 -0.515625 Z "
               style="stroke:none;" />
          </symbol>
          <symbol
             id="textext-e51d4d97-15"
             overflow="visible">
            <path
               id="path11210"
               d="M 7.265625 -4.921875 C 7.265625 -6.890625 7.265625 -10.265625 3.9375 -10.265625 C 0.609375 -10.265625 0.609375 -6.90625 0.609375 -4.921875 C 0.609375 -2.953125 0.609375 0.3125 3.9375 0.3125 C 7.265625 0.3125 7.265625 -2.921875 7.265625 -4.921875 Z M 5.3125 -5.125 C 5.3125 -4.296875 5.3125 -3.1875 5.203125 -2.390625 C 5.15625 -2.015625 5 -0.71875 3.9375 -0.71875 C 2.875 -0.71875 2.71875 -2.03125 2.671875 -2.421875 C 2.5625 -3.1875 2.5625 -4.53125 2.5625 -5.125 C 2.5625 -5.96875 2.5625 -6.890625 2.65625 -7.59375 C 2.703125 -7.96875 2.84375 -9.234375 3.9375 -9.234375 C 4.984375 -9.234375 5.15625 -8.03125 5.203125 -7.75 C 5.3125 -7.015625 5.3125 -5.875 5.3125 -5.125 Z "
               style="stroke:none;" />
          </symbol>
          <symbol
             id="textext-e51d4d97-16"
             overflow="visible">
            <path
               id="path11213"
               d="M 7.21875 -2.90625 C 7.21875 -4.203125 6.53125 -5.078125 5.234375 -5.40625 C 6.390625 -6.03125 6.78125 -6.96875 6.78125 -7.78125 C 6.78125 -10.078125 4.734375 -10.265625 3.796875 -10.265625 C 1.84375 -10.265625 0.875 -8.859375 0.875 -8.75 C 0.875 -8.65625 0.96875 -8.53125 0.96875 -8.53125 L 1.375 -7.953125 C 1.484375 -7.78125 1.59375 -7.78125 1.59375 -7.78125 C 1.6875 -7.78125 1.71875 -7.84375 1.796875 -7.953125 C 2.53125 -9 3.546875 -9 3.734375 -9 C 4.640625 -9 4.78125 -8.515625 4.78125 -7.8125 C 4.78125 -7.609375 4.78125 -6.921875 4.328125 -6.390625 C 3.984375 -5.984375 3.625 -5.953125 3.203125 -5.921875 C 3.046875 -5.90625 2.765625 -5.890625 2.71875 -5.859375 C 2.625 -5.828125 2.625 -5.734375 2.625 -5.515625 L 2.625 -5.25 C 2.625 -4.875 2.640625 -4.859375 3.015625 -4.859375 L 3.640625 -4.859375 C 4.953125 -4.859375 5.109375 -4.046875 5.109375 -2.9375 C 5.109375 -1.984375 5 -1.03125 3.703125 -1.03125 C 3.234375 -1.03125 2.1875 -1.140625 1.21875 -2.03125 C 1.09375 -2.171875 1.078125 -2.1875 1.015625 -2.1875 C 0.875 -2.1875 0.84375 -2.046875 0.828125 -2.015625 C 0.828125 -2.015625 0.65625 -1.109375 0.65625 -1.03125 C 0.65625 -0.84375 1.890625 0.3125 3.765625 0.3125 C 6.234375 0.3125 7.21875 -1 7.21875 -2.90625 Z "
               style="stroke:none;" />
          </symbol>
          <symbol
             id="textext-e51d4d97-17"
             overflow="visible">
            <path
               id="path11216"
               d=""
               style="stroke:none;" />
          </symbol>
          <symbol
             id="textext-e51d4d97-18"
             overflow="visible">
            <path
               id="path11219"
               d="M 2.53125 -5.203125 L 2.53125 -6.375 L 1.359375 -6.375 L 1.359375 -5.203125 Z M 2.53125 0 L 2.53125 -1.15625 L 1.359375 -1.15625 L 1.359375 0 Z "
               style="stroke:none;" />
          </symbol>
          <symbol
             id="textext-e51d4d97-19"
             overflow="visible">
            <path
               id="path11222"
               d="M 12.96875 -9.953125 L 11.921875 -9.953125 L 10.609375 -5.25 C 10.296875 -4.109375 10.296875 -4.09375 10.046875 -3.125 C 9.859375 -2.4375 9.640625 -1.609375 9.578125 -1.09375 L 9.5625 -1.09375 C 9.5 -1.6875 9.1875 -2.921875 8.9375 -3.78125 L 7.25 -9.953125 L 6.03125 -9.953125 L 4.796875 -5.515625 C 4.6875 -5.15625 3.828125 -2.03125 3.734375 -1.109375 L 3.71875 -1.109375 C 3.65625 -1.65625 3.296875 -3.0625 3.234375 -3.296875 L 2.625 -5.59375 L 1.421875 -9.953125 L 0.203125 -9.953125 L 3.015625 0 L 4.203125 0 L 5.546875 -4.875 C 5.90625 -6.15625 6.453125 -8.125 6.546875 -8.875 L 6.5625 -8.875 C 6.5625 -8.875 6.65625 -8.140625 7.328125 -5.6875 L 8.890625 0 L 10.15625 0 Z "
               style="stroke:none;" />
          </symbol>
          <symbol
             id="textext-e51d4d97-20"
             overflow="visible">
            <path
               id="path11225"
               d="M 6.578125 -3.15625 C 6.578125 -5.09375 5.15625 -6.578125 3.515625 -6.578125 C 1.828125 -6.578125 0.4375 -5.0625 0.4375 -3.15625 C 0.4375 -1.28125 1.859375 0.140625 3.5 0.140625 C 5.1875 0.140625 6.578125 -1.3125 6.578125 -3.15625 Z M 5.5 -3.296875 C 5.5 -1.53125 4.46875 -0.75 3.515625 -0.75 C 2.484375 -0.75 1.515625 -1.609375 1.515625 -3.296875 C 1.515625 -5.03125 2.59375 -5.71875 3.5 -5.71875 C 4.484375 -5.71875 5.5 -4.984375 5.5 -3.296875 Z "
               style="stroke:none;" />
          </symbol>
          <symbol
             id="textext-e51d4d97-21"
             overflow="visible">
            <path
               id="path11228"
               d="M 6.078125 0 L 6.078125 -6.375 L 4.984375 -6.375 L 4.984375 -2.265625 C 4.984375 -1.171875 4.234375 -0.640625 3.296875 -0.640625 C 2.296875 -0.640625 2.1875 -1.015625 2.1875 -1.65625 L 2.1875 -6.375 L 1.109375 -6.375 L 1.109375 -1.59375 C 1.109375 -0.5625 1.4375 0.140625 2.609375 0.140625 C 3.015625 0.140625 4.140625 0.078125 5.015625 -0.71875 L 5.015625 0 Z "
               style="stroke:none;" />
          </symbol>
          <symbol
             id="textext-e51d4d97-22"
             overflow="visible">
            <path
               id="path11231"
               d="M 2.1875 0 L 2.1875 -9.953125 L 1.125 -9.953125 L 1.125 0 Z "
               style="stroke:none;" />
          </symbol>
          <symbol
             id="textext-e51d4d97-23"
             overflow="visible">
            <path
               id="path11234"
               d="M 6.0625 0 L 6.0625 -9.953125 L 5 -9.953125 L 5 -5.765625 C 4.34375 -6.3125 3.59375 -6.515625 2.984375 -6.515625 C 1.625 -6.515625 0.5 -5.046875 0.5 -3.1875 C 0.5 -1.328125 1.5625 0.140625 2.921875 0.140625 C 3.453125 0.140625 4.265625 -0.03125 4.984375 -0.734375 L 4.984375 0 Z M 4.984375 -1.6875 C 4.640625 -1.078125 4.125 -0.71875 3.5 -0.71875 C 2.625 -0.71875 1.59375 -1.390625 1.59375 -3.171875 C 1.59375 -5.078125 2.8125 -5.65625 3.640625 -5.65625 C 4.203125 -5.65625 4.65625 -5.359375 4.984375 -4.890625 Z "
               style="stroke:none;" />
          </symbol>
          <symbol
             id="textext-e51d4d97-24"
             overflow="visible">
            <path
               id="path11237"
               d="M 4.671875 -0.421875 L 4.453125 -1.25 C 3.953125 -0.796875 3.421875 -0.75 3.171875 -0.75 C 2.53125 -0.75 2.453125 -1.421875 2.453125 -1.921875 L 2.453125 -5.53125 L 4.4375 -5.53125 L 4.4375 -6.375 L 2.453125 -6.375 L 2.453125 -8.1875 L 1.46875 -8.1875 L 1.46875 -6.375 L 0.265625 -6.375 L 0.265625 -5.53125 L 1.4375 -5.53125 L 1.4375 -1.671875 C 1.4375 -0.84375 1.625 0.140625 2.609375 0.140625 C 3.578125 0.140625 4.234375 -0.1875 4.671875 -0.421875 Z "
               style="stroke:none;" />
          </symbol>
          <symbol
             id="textext-e51d4d97-25"
             overflow="visible">
            <path
               id="path11240"
               d="M 6.078125 0 L 6.078125 -4.3125 C 6.078125 -5.1875 5.890625 -6.515625 4.15625 -6.515625 C 3.171875 -6.515625 2.515625 -5.953125 2.171875 -5.515625 L 2.171875 -9.953125 L 1.109375 -9.953125 L 1.109375 0 L 2.1875 0 L 2.1875 -3.578125 C 2.1875 -4.453125 2.53125 -5.65625 3.609375 -5.65625 C 4.953125 -5.65625 4.984375 -4.71875 4.984375 -4.21875 L 4.984375 0 Z "
               style="stroke:none;" />
          </symbol>
          <symbol
             id="textext-e51d4d97-26"
             overflow="visible">
            <path
               id="path11243"
               d="M 5.84375 -3.234375 C 5.84375 -3.84375 5.78125 -4.71875 5.328125 -5.484375 C 4.734375 -6.46875 3.734375 -6.578125 3.3125 -6.578125 C 1.765625 -6.578125 0.46875 -5.09375 0.46875 -3.234375 C 0.46875 -1.328125 1.84375 0.140625 3.515625 0.140625 C 4.171875 0.140625 4.96875 -0.046875 5.75 -0.609375 C 5.75 -0.671875 5.703125 -1.140625 5.703125 -1.140625 C 5.703125 -1.140625 5.671875 -1.484375 5.671875 -1.53125 C 4.8125 -0.8125 3.96875 -0.71875 3.546875 -0.71875 C 2.4375 -0.71875 1.484375 -1.703125 1.46875 -3.234375 Z M 4.984375 -4 L 1.546875 -4 C 1.796875 -4.96875 2.46875 -5.71875 3.3125 -5.71875 C 3.765625 -5.71875 4.75 -5.515625 4.984375 -4 Z "
               style="stroke:none;" />
          </symbol>
          <symbol
             id="textext-e51d4d97-27"
             overflow="visible">
            <path
               id="path11246"
               d="M 10 0 L 10 -4.3125 C 10 -5.3125 9.734375 -6.515625 8.0625 -6.515625 C 6.84375 -6.515625 6.171875 -5.671875 5.953125 -5.34375 C 5.6875 -6.25 4.90625 -6.515625 4.15625 -6.515625 C 2.984375 -6.515625 2.359375 -5.75 2.125 -5.453125 L 2.125 -6.4375 L 1.109375 -6.4375 L 1.109375 0 L 2.1875 0 L 2.1875 -3.578125 C 2.1875 -4.515625 2.5625 -5.65625 3.609375 -5.65625 C 4.9375 -5.65625 5 -4.75 5 -4.21875 L 5 0 L 6.09375 0 L 6.09375 -3.578125 C 6.09375 -4.515625 6.46875 -5.65625 7.515625 -5.65625 C 8.828125 -5.65625 8.90625 -4.75 8.90625 -4.21875 L 8.90625 0 Z "
               style="stroke:none;" />
          </symbol>
          <symbol
             id="textext-e51d4d97-28"
             overflow="visible">
            <path
               id="path11249"
               d="M 6.6875 -3.203125 C 6.6875 -4.9375 5.765625 -6.515625 4.4375 -6.515625 C 3.84375 -6.515625 2.921875 -6.328125 2.1875 -5.6875 L 2.1875 -6.375 L 1.125 -6.375 L 1.125 2.78125 L 2.203125 2.78125 L 2.203125 -0.640625 C 2.703125 -0.203125 3.296875 0.140625 4.078125 0.140625 C 5.453125 0.140625 6.6875 -1.25 6.6875 -3.203125 Z M 5.59375 -3.1875 C 5.59375 -1.75 4.609375 -0.71875 3.546875 -0.71875 C 3.140625 -0.71875 2.875 -0.859375 2.609375 -1.0625 C 2.25 -1.375 2.203125 -1.640625 2.203125 -1.859375 L 2.203125 -4.8125 C 2.53125 -5.3125 3.078125 -5.625 3.671875 -5.625 C 4.734375 -5.625 5.59375 -4.546875 5.59375 -3.1875 Z "
               style="stroke:none;" />
          </symbol>
          <symbol
             id="textext-e51d4d97-29"
             overflow="visible">
            <path
               id="path11252"
               d="M 5.75 0 L 5.75 -4.203125 C 5.75 -5.578125 4.765625 -6.578125 3.421875 -6.578125 C 2.5625 -6.578125 1.921875 -6.390625 1.21875 -5.984375 L 1.3125 -5.03125 C 1.9375 -5.5 2.59375 -5.75 3.421875 -5.75 C 4.09375 -5.75 4.65625 -5.21875 4.65625 -4.171875 L 4.65625 -3.578125 C 4.015625 -3.5625 3.15625 -3.515625 2.296875 -3.234375 C 1.328125 -2.890625 0.78125 -2.359375 0.78125 -1.65625 C 0.78125 -1.015625 1.140625 0.140625 2.359375 0.140625 C 3.15625 0.140625 4.15625 -0.09375 4.6875 -0.53125 L 4.6875 0 Z M 4.65625 -1.921875 C 4.65625 -1.640625 4.65625 -1.296875 4.1875 -1 C 3.796875 -0.765625 3.3125 -0.71875 3.09375 -0.71875 C 2.328125 -0.71875 1.796875 -1.140625 1.796875 -1.65625 C 1.796875 -2.640625 3.78125 -2.859375 4.65625 -2.859375 Z "
               style="stroke:none;" />
          </symbol>
          <symbol
             id="textext-e51d4d97-30"
             overflow="visible">
            <path
               id="path11255"
               d="M 6.6875 -3.203125 C 6.6875 -4.96875 5.734375 -6.515625 4.40625 -6.515625 C 3.984375 -6.515625 3.0625 -6.421875 2.1875 -5.703125 L 2.1875 -9.953125 L 1.125 -9.953125 L 1.125 0 L 2.203125 0 L 2.203125 -0.640625 C 2.875 -0.015625 3.578125 0.140625 4.078125 0.140625 C 5.4375 0.140625 6.6875 -1.25 6.6875 -3.203125 Z M 5.59375 -3.203125 C 5.59375 -1.328125 4.421875 -0.71875 3.546875 -0.71875 C 3.140625 -0.71875 2.875 -0.859375 2.609375 -1.0625 C 2.265625 -1.359375 2.203125 -1.625 2.203125 -1.859375 L 2.203125 -4.828125 C 2.46875 -5.234375 2.984375 -5.65625 3.6875 -5.65625 C 4.5625 -5.65625 5.59375 -4.984375 5.59375 -3.203125 Z "
               style="stroke:none;" />
          </symbol>
          <symbol
             id="textext-e51d4d97-31"
             overflow="visible">
            <path
               id="path11258"
               d="M 4.5625 -5.546875 L 4.5625 -6.515625 C 3.25 -6.5 2.5 -5.734375 2.109375 -5.171875 L 2.109375 -6.4375 L 1.125 -6.4375 L 1.125 0 L 2.1875 0 L 2.1875 -3.140625 C 2.1875 -4.59375 3.265625 -5.53125 4.5625 -5.546875 Z "
               style="stroke:none;" />
          </symbol>
          <symbol
             id="textext-e51d4d97-32"
             overflow="visible">
            <path
               id="path11261"
               d="M 2.1875 0 L 2.1875 -6.375 L 1.125 -6.375 L 1.125 0 Z M 2.265625 -8.140625 L 2.265625 -9.375 L 1.03125 -9.375 L 1.03125 -8.140625 Z "
               style="stroke:none;" />
          </symbol>
          <symbol
             id="textext-e51d4d97-33"
             overflow="visible">
            <path
               id="path11264"
               d="M 4.859375 -9.015625 L 4.859375 -9.953125 C 4.765625 -9.984375 4.28125 -10.09375 3.765625 -10.09375 C 2.390625 -10.09375 1.421875 -9.046875 1.421875 -7.65625 L 1.421875 -6.375 L 0.375 -6.375 L 0.375 -5.53125 L 1.421875 -5.53125 L 1.421875 0 L 2.484375 0 L 2.484375 -5.53125 L 4.015625 -5.53125 L 4.015625 -6.375 L 2.453125 -6.375 L 2.453125 -8.09375 C 2.453125 -9.0625 3.265625 -9.234375 3.75 -9.234375 C 4.25 -9.234375 4.6875 -9.078125 4.859375 -9.015625 Z "
               style="stroke:none;" />
          </symbol>
          <symbol
             id="textext-e51d4d97-34"
             overflow="visible">
            <path
               id="path11267"
               d="M 5.046875 -1.828125 C 5.046875 -2.546875 4.609375 -3.015625 4.546875 -3.078125 C 4.015625 -3.625 3.578125 -3.71875 2.71875 -3.890625 C 2.1875 -3.984375 1.46875 -4.125 1.46875 -4.84375 C 1.46875 -5.734375 2.46875 -5.734375 2.65625 -5.734375 C 3.40625 -5.734375 4.015625 -5.5625 4.640625 -5.203125 L 4.8125 -6.140625 C 3.90625 -6.5625 3.125 -6.578125 2.796875 -6.578125 C 2.46875 -6.578125 0.46875 -6.578125 0.46875 -4.71875 C 0.46875 -4.09375 0.8125 -3.65625 1.03125 -3.453125 C 1.546875 -3.015625 1.90625 -2.9375 2.75 -2.765625 C 3.234375 -2.671875 4.0625 -2.5 4.0625 -1.734375 C 4.0625 -0.75 2.9375 -0.75 2.734375 -0.75 C 2.171875 -0.75 1.328125 -0.90625 0.5625 -1.46875 L 0.390625 -0.484375 C 0.453125 -0.4375 1.4375 0.140625 2.75 0.140625 C 4.609375 0.140625 5.046875 -0.96875 5.046875 -1.828125 Z "
               style="stroke:none;" />
          </symbol>
          <symbol
             id="textext-e51d4d97-35"
             overflow="visible">
            <path
               id="path11270"
               d="M 6.203125 -6.375 L 5.140625 -6.375 C 4.46875 -4.671875 3.375 -1.859375 3.3125 -0.828125 L 3.296875 -0.828125 C 3.234375 -1.671875 2.46875 -3.578125 2.359375 -3.859375 L 1.328125 -6.375 L 0.203125 -6.375 L 2.875 0 L 2.359375 1.3125 C 2.046875 2.015625 1.84375 2.09375 1.578125 2.09375 C 1.375 2.09375 0.921875 2.046875 0.46875 1.875 L 0.5625 2.8125 C 0.640625 2.828125 1.125 2.921875 1.578125 2.921875 C 1.921875 2.921875 2.59375 2.921875 3.21875 1.34375 Z "
               style="stroke:none;" />
          </symbol>
          <symbol
             id="textext-e51d4d97-36"
             overflow="visible">
            <path
               id="path11273"
               d="M 6.078125 0 L 6.078125 -4.3125 C 6.078125 -5.1875 5.890625 -6.515625 4.15625 -6.515625 C 3.359375 -6.515625 2.671875 -6.15625 2.125 -5.46875 L 2.125 -6.4375 L 1.109375 -6.4375 L 1.109375 0 L 2.1875 0 L 2.1875 -3.578125 C 2.1875 -4.453125 2.53125 -5.65625 3.609375 -5.65625 C 4.953125 -5.65625 4.984375 -4.71875 4.984375 -4.21875 L 4.984375 0 Z "
               style="stroke:none;" />
          </symbol>
          <symbol
             id="textext-e51d4d97-37"
             overflow="visible">
            <path
               id="path11276"
               d="M 5.84375 -7.875 C 5.84375 -8.984375 5.15625 -10.09375 3.125 -10.09375 C 2.015625 -10.09375 1.203125 -9.65625 0.78125 -9.34375 L 1.09375 -8.453125 C 1.890625 -9.171875 2.703125 -9.234375 3.140625 -9.234375 C 3.921875 -9.234375 4.75 -9.046875 4.75 -7.890625 C 4.75 -7.25 4.453125 -6.96875 4.203125 -6.765625 C 3.40625 -6.0625 2.640625 -4.8125 2.640625 -3.21875 L 2.640625 -2.484375 L 3.578125 -2.484375 L 3.578125 -3.171875 C 3.578125 -4.703125 4.5 -5.71875 5.046875 -6.171875 C 5.328125 -6.40625 5.84375 -6.890625 5.84375 -7.875 Z M 3.6875 0 L 3.6875 -1.15625 L 2.53125 -1.15625 L 2.53125 0 Z "
               style="stroke:none;" />
          </symbol>
          <symbol
             id="textext-e51d4d97-38"
             overflow="visible">
            <path
               id="path11279"
               d=""
               style="stroke:none;" />
          </symbol>
          <symbol
             id="textext-e51d4d97-39"
             overflow="visible">
            <path
               id="path11282"
               d="M 6.375 -3.578125 C 6.375 -5.125 5.09375 -6.375 3.578125 -6.375 C 2.03125 -6.375 0.78125 -5.09375 0.78125 -3.578125 C 0.78125 -2.0625 2.03125 -0.796875 3.578125 -0.796875 C 5.09375 -0.796875 6.375 -2.046875 6.375 -3.578125 Z "
               style="stroke:none;" />
          </symbol>
        </g>
      </defs>
      <g
         id="textext-e51d4d97-40">
        <g
           id="g11285"
           style="fill:rgb(0%,0%,0%);fill-opacity:1;">
          <use
             id="use11287"
             y="134.765"
             x="223.432"
             xlink:href="#textext-e51d4d97-1" />
          <use
             id="use11289"
             y="134.765"
             x="233.952068"
             xlink:href="#textext-e51d4d97-2" />
          <use
             id="use11291"
             y="134.765"
             x="241.284411"
             xlink:href="#textext-e51d4d97-3" />
          <use
             id="use11293"
             y="134.765"
             x="248.816166"
             xlink:href="#textext-e51d4d97-4" />
          <use
             id="use11295"
             y="134.765"
             x="261.250018"
             xlink:href="#textext-e51d4d97-5" />
          <use
             id="use11297"
             y="134.765"
             x="269.299671"
             xlink:href="#textext-e51d4d97-3" />
          <use
             id="use11299"
             y="134.765"
             x="276.831426"
             xlink:href="#textext-e51d4d97-6" />
          <use
             id="use11301"
             y="134.765"
             x="282.63016"
             xlink:href="#textext-e51d4d97-6" />
          <use
             id="use11303"
             y="134.765"
             x="288.428894"
             xlink:href="#textext-e51d4d97-2" />
          <use
             id="use11305"
             y="134.765"
             x="295.761237"
             xlink:href="#textext-e51d4d97-7" />
          <use
             id="use11307"
             y="134.765"
             x="301.100892"
             xlink:href="#textext-e51d4d97-8" />
        </g>
        <g
           id="g11309"
           style="fill:rgb(0%,0%,0%);fill-opacity:1;">
          <use
             id="use11311"
             y="134.765"
             x="314.4156"
             xlink:href="#textext-e51d4d97-9" />
          <use
             id="use11313"
             y="134.765"
             x="318.081054"
             xlink:href="#textext-e51d4d97-8" />
        </g>
        <g
           id="g11315"
           style="fill:rgb(0%,0%,0%);fill-opacity:1;">
          <use
             id="use11317"
             y="134.765"
             x="331.381417"
             xlink:href="#textext-e51d4d97-10" />
          <use
             id="use11319"
             y="134.765"
             x="342.779472"
             xlink:href="#textext-e51d4d97-11" />
          <use
             id="use11321"
             y="134.765"
             x="347.520892"
             xlink:href="#textext-e51d4d97-12" />
          <use
             id="use11323"
             y="134.765"
             x="356.287854"
             xlink:href="#textext-e51d4d97-13" />
          <use
             id="use11325"
             y="134.765"
             x="366.807923"
             xlink:href="#textext-e51d4d97-12" />
          <use
             id="use11327"
             y="134.765"
             x="375.574886"
             xlink:href="#textext-e51d4d97-14" />
          <use
             id="use11329"
             y="134.765"
             x="383.465296"
             xlink:href="#textext-e51d4d97-15" />
          <use
             id="use11331"
             y="134.765"
             x="391.355706"
             xlink:href="#textext-e51d4d97-16" />
          <use
             id="use11333"
             y="134.765"
             x="399.246116"
             xlink:href="#textext-e51d4d97-15" />
        </g>
        <g
           id="g11335"
           style="fill:rgb(0%,0%,0%);fill-opacity:1;">
          <use
             id="use11337"
             y="134.765"
             x="407.141"
             xlink:href="#textext-e51d4d97-18" />
        </g>
        <g
           id="g11339"
           style="fill:rgb(0%,0%,0%);fill-opacity:1;">
          <use
             id="use11341"
             y="158.758"
             x="225.325"
             xlink:href="#textext-e51d4d97-39" />
        </g>
        <g
           id="g11343"
           style="fill:rgb(0%,0%,0%);fill-opacity:1;">
          <use
             id="use11345"
             y="158.758"
             x="237.479"
             xlink:href="#textext-e51d4d97-19" />
        </g>
        <g
           id="g11347"
           style="fill:rgb(0%,0%,0%);fill-opacity:1;">
          <use
             id="use11349"
             y="158.758"
             x="250.27581"
             xlink:href="#textext-e51d4d97-20" />
          <use
             id="use11351"
             y="158.758"
             x="257.29971"
             xlink:href="#textext-e51d4d97-21" />
          <use
             id="use11353"
             y="158.758"
             x="264.505806"
             xlink:href="#textext-e51d4d97-22" />
          <use
             id="use11355"
             y="158.758"
             x="267.809736"
             xlink:href="#textext-e51d4d97-23" />
        </g>
        <g
           id="g11357"
           style="fill:rgb(0%,0%,0%);fill-opacity:1;">
          <use
             id="use11359"
             y="158.758"
             x="279.190576"
             xlink:href="#textext-e51d4d97-24" />
          <use
             id="use11361"
             y="158.758"
             x="284.263393"
             xlink:href="#textext-e51d4d97-25" />
          <use
             id="use11363"
             y="158.758"
             x="291.469489"
             xlink:href="#textext-e51d4d97-26" />
        </g>
        <g
           id="g11365"
           style="fill:rgb(0%,0%,0%);fill-opacity:1;">
          <use
             id="use11367"
             y="158.758"
             x="301.902046"
             xlink:href="#textext-e51d4d97-24" />
          <use
             id="use11369"
             y="158.758"
             x="306.974862"
             xlink:href="#textext-e51d4d97-26" />
          <use
             id="use11371"
             y="158.758"
             x="313.218328"
             xlink:href="#textext-e51d4d97-27" />
          <use
             id="use11373"
             y="158.758"
             x="324.326591"
             xlink:href="#textext-e51d4d97-28" />
          <use
             id="use11375"
             y="158.758"
             x="331.532687"
             xlink:href="#textext-e51d4d97-22" />
          <use
             id="use11377"
             y="158.758"
             x="334.836617"
             xlink:href="#textext-e51d4d97-29" />
          <use
             id="use11379"
             y="158.758"
             x="341.560681"
             xlink:href="#textext-e51d4d97-24" />
          <use
             id="use11381"
             y="158.758"
             x="346.633497"
             xlink:href="#textext-e51d4d97-26" />
        </g>
        <g
           id="g11383"
           style="fill:rgb(0%,0%,0%);fill-opacity:1;">
          <use
             id="use11385"
             y="158.758"
             x="357.051708"
             xlink:href="#textext-e51d4d97-30" />
        </g>
        <g
           id="g11387"
           style="fill:rgb(0%,0%,0%);fill-opacity:1;">
          <use
             id="use11389"
             y="158.758"
             x="364.659498"
             xlink:href="#textext-e51d4d97-26" />
        </g>
        <g
           id="g11391"
           style="fill:rgb(0%,0%,0%);fill-opacity:1;">
          <use
             id="use11393"
             y="158.758"
             x="375.077708"
             xlink:href="#textext-e51d4d97-30" />
        </g>
        <g
           id="g11395"
           style="fill:rgb(0%,0%,0%);fill-opacity:1;">
          <use
             id="use11397"
             y="158.758"
             x="382.671152"
             xlink:href="#textext-e51d4d97-26" />
          <use
             id="use11399"
             y="158.758"
             x="388.914618"
             xlink:href="#textext-e51d4d97-24" />
          <use
             id="use11401"
             y="158.758"
             x="393.987434"
             xlink:href="#textext-e51d4d97-24" />
          <use
             id="use11403"
             y="158.758"
             x="399.060251"
             xlink:href="#textext-e51d4d97-26" />
          <use
             id="use11405"
             y="158.758"
             x="405.303717"
             xlink:href="#textext-e51d4d97-31" />
        </g>
        <g
           id="g11407"
           style="fill:rgb(0%,0%,0%);fill-opacity:1;">
          <use
             id="use11409"
             y="158.758"
             x="414.265788"
             xlink:href="#textext-e51d4d97-32" />
          <use
             id="use11411"
             y="158.758"
             x="417.569718"
             xlink:href="#textext-e51d4d97-33" />
        </g>
        <g
           id="g11413"
           style="fill:rgb(0%,0%,0%);fill-opacity:1;">
          <use
             id="use11415"
             y="176.691"
             x="237.479"
             xlink:href="#textext-e51d4d97-34" />
          <use
             id="use11417"
             y="176.691"
             x="242.863129"
             xlink:href="#textext-e51d4d97-27" />
          <use
             id="use11419"
             y="176.691"
             x="253.971392"
             xlink:href="#textext-e51d4d97-26" />
          <use
             id="use11421"
             y="176.691"
             x="260.214858"
             xlink:href="#textext-e51d4d97-29" />
        </g>
        <g
           id="g11423"
           style="fill:rgb(0%,0%,0%);fill-opacity:1;">
          <use
             id="use11425"
             y="176.691"
             x="266.551574"
             xlink:href="#textext-e51d4d97-31" />
          <use
             id="use11427"
             y="176.691"
             x="271.324555"
             xlink:href="#textext-e51d4d97-26" />
          <use
             id="use11429"
             y="176.691"
             x="277.568021"
             xlink:href="#textext-e51d4d97-23" />
        </g>
        <g
           id="g11431"
           style="fill:rgb(0%,0%,0%);fill-opacity:1;">
          <use
             id="use11433"
             y="176.691"
             x="289.450979"
             xlink:href="#textext-e51d4d97-30" />
        </g>
        <g
           id="g11435"
           style="fill:rgb(0%,0%,0%);fill-opacity:1;">
          <use
             id="use11437"
             y="176.691"
             x="296.269728"
             xlink:href="#textext-e51d4d97-35" />
        </g>
        <g
           id="g11439"
           style="fill:rgb(0%,0%,0%);fill-opacity:1;">
          <use
             id="use11441"
             y="176.691"
             x="307.372252"
             xlink:href="#textext-e51d4d97-24" />
          <use
             id="use11443"
             y="176.691"
             x="312.445068"
             xlink:href="#textext-e51d4d97-25" />
          <use
             id="use11445"
             y="176.691"
             x="319.651164"
             xlink:href="#textext-e51d4d97-26" />
        </g>
        <g
           id="g11447"
           style="fill:rgb(0%,0%,0%);fill-opacity:1;">
          <use
             id="use11449"
             y="176.691"
             x="330.585838"
             xlink:href="#textext-e51d4d97-30" />
        </g>
        <g
           id="g11451"
           style="fill:rgb(0%,0%,0%);fill-opacity:1;">
          <use
             id="use11453"
             y="176.691"
             x="338.179282"
             xlink:href="#textext-e51d4d97-26" />
          <use
             id="use11455"
             y="176.691"
             x="344.422748"
             xlink:href="#textext-e51d4d97-29" />
          <use
             id="use11457"
             y="176.691"
             x="351.146812"
             xlink:href="#textext-e51d4d97-27" />
          <use
             id="use11459"
             y="176.691"
             x="362.255074"
             xlink:href="#textext-e51d4d97-28" />
          <use
             id="use11461"
             y="176.691"
             x="369.461171"
             xlink:href="#textext-e51d4d97-29" />
          <use
             id="use11463"
             y="176.691"
             x="376.185235"
             xlink:href="#textext-e51d4d97-24" />
          <use
             id="use11465"
             y="176.691"
             x="381.258051"
             xlink:href="#textext-e51d4d97-24" />
          <use
             id="use11467"
             y="176.691"
             x="386.330867"
             xlink:href="#textext-e51d4d97-26" />
          <use
             id="use11469"
             y="176.691"
             x="392.574334"
             xlink:href="#textext-e51d4d97-31" />
          <use
             id="use11471"
             y="176.691"
             x="397.347314"
             xlink:href="#textext-e51d4d97-36" />
          <use
             id="use11473"
             y="176.691"
             x="404.553411"
             xlink:href="#textext-e51d4d97-37" />
        </g>
      </g>
    </g>
  </g>
</svg>
