<?xml version="1.0" encoding="UTF-8" standalone="no"?>
<!-- Created with Inkscape (http://www.inkscape.org/) -->

<svg
   xmlns:ns0="http://www.iki.fi/pav/software/textext/"
   xmlns:dc="http://purl.org/dc/elements/1.1/"
   xmlns:cc="http://creativecommons.org/ns#"
   xmlns:rdf="http://www.w3.org/1999/02/22-rdf-syntax-ns#"
   xmlns:svg="http://www.w3.org/2000/svg"
   xmlns="http://www.w3.org/2000/svg"
   xmlns:xlink="http://www.w3.org/1999/xlink"
   xmlns:sodipodi="http://sodipodi.sourceforge.net/DTD/sodipodi-0.dtd"
   xmlns:inkscape="http://www.inkscape.org/namespaces/inkscape"
   width="744.09448819"
   height="1052.3622047"
   id="svg11769"
   version="1.1"
   inkscape:version="0.48.4 r9939"
   sodipodi:docname="viewer_ship_rough.svg">
  <sodipodi:namedview
     id="base"
     pagecolor="#ffffff"
     bordercolor="#666666"
     borderopacity="1.0"
     inkscape:pageopacity="0.0"
     inkscape:pageshadow="2"
     inkscape:zoom="2.07"
     inkscape:cx="439.3586"
     inkscape:cy="644.20863"
     inkscape:document-units="px"
     inkscape:current-layer="layer1"
     showgrid="false"
     inkscape:window-width="1916"
     inkscape:window-height="1018"
     inkscape:window-x="0"
     inkscape:window-y="0"
     inkscape:window-maximized="0" />
  <defs
     id="defs11771">
    <linearGradient
       id="linearGradient18789">
      <stop
         id="stop18791"
         offset="0"
         style="stop-color:#dcdee8;stop-opacity:1;" />
      <stop
         id="stop18793"
         offset="1"
         style="stop-color:#365364;stop-opacity:1;" />
    </linearGradient>
    <marker
       inkscape:stockid="Arrow2MendI"
       orient="auto"
       refY="0"
       refX="0"
       id="Arrow2MendI"
       style="overflow:visible">
      <path
         id="path31744"
         style="fill:#000000;fill-rule:evenodd;stroke:#000000;stroke-width:0.625;stroke-linejoin:round"
         d="M 8.7185878,4.0337352 -2.2072895,0.01601326 8.7185884,-4.0017078 c -1.7454984,2.3720609 -1.7354408,5.6174519 -6e-7,8.035443 z"
         transform="scale(-0.6,-0.6)"
         inkscape:connector-curvature="0" />
    </marker>
    <marker
       inkscape:stockid="Arrow2MstartZ"
       orient="auto"
       refY="0"
       refX="0"
       id="Arrow2MstartZ"
       style="overflow:visible">
      <path
         id="path31738"
         style="fill:#000000;fill-rule:evenodd;stroke:#000000;stroke-width:0.625;stroke-linejoin:round"
         d="M 8.7185878,4.0337352 -2.2072895,0.01601326 8.7185884,-4.0017078 c -1.7454984,2.3720609 -1.7354408,5.6174519 -6e-7,8.035443 z"
         transform="scale(0.6,0.6)"
         inkscape:connector-curvature="0" />
    </marker>
    <marker
       inkscape:stockid="Arrow2MendC"
       orient="auto"
       refY="0"
       refX="0"
       id="Arrow2MendC"
       style="overflow:visible">
      <path
         id="path31741"
         style="fill:#000000;fill-rule:evenodd;stroke:#000000;stroke-width:0.625;stroke-linejoin:round"
         d="M 8.7185878,4.0337352 -2.2072895,0.01601326 8.7185884,-4.0017078 c -1.7454984,2.3720609 -1.7354408,5.6174519 -6e-7,8.035443 z"
         transform="scale(-0.6,-0.6)"
         inkscape:connector-curvature="0" />
    </marker>
    <linearGradient
       gradientTransform="matrix(0.92779292,0,0,0.93577982,19.824896,17.168498)"
       gradientUnits="userSpaceOnUse"
       y2="525.66461"
       x2="427.53622"
       y1="325.0675"
       x1="427.53622"
       id="linearGradient18795"
       xlink:href="#linearGradient18789"
       inkscape:collect="always" />
  </defs>
  <metadata
     id="metadata11774">
    <rdf:RDF>
      <cc:Work
         rdf:about="">
        <dc:format>image/svg+xml</dc:format>
        <dc:type
           rdf:resource="http://purl.org/dc/dcmitype/StillImage" />
        <dc:title />
      </cc:Work>
    </rdf:RDF>
  </metadata>
  <g
     id="layer1"
     inkscape:groupmode="layer"
     inkscape:label="Layer 1">
    <rect
       y="267.33804"
       x="184.31764"
       height="246.37682"
       width="328.98553"
       id="rect18787"
       style="color:#000000;fill:url(#linearGradient18795);fill-opacity:1;stroke-width:0.5;stroke-linecap:butt;stroke-linejoin:miter;stroke-miterlimit:4;stroke-opacity:1;stroke-dasharray:0.5, 0.5;stroke-dashoffset:0;marker:none;visibility:visible;display:inline;overflow:visible;enable-background:accumulate" />
    <image
       width="278.29477"
       height="190.6192"
       xlink:href="file:///home/me/Work/UiO/Phd/Articles/UAM2014/Presentation/gfx/viewer_ship_rough.png"
       id="image11969"
       x="209.66302"
       y="322.48816" />
    <path
       style="fill:none;stroke:#000000;stroke-width:0.5;stroke-linecap:butt;stroke-linejoin:miter;stroke-miterlimit:4;stroke-opacity:1;stroke-dasharray:none;stroke-dashoffset:0;marker-start:none;marker-end:none"
       d="m 331.82887,281.80584 0,31.25331 152.87141,0"
       id="path3774"
       inkscape:connector-curvature="0"
       sodipodi:nodetypes="ccc" />
    <path
       sodipodi:nodetypes="cc"
       style="fill:none;stroke:#000000;stroke-width:0.49999997;stroke-linecap:butt;stroke-linejoin:miter;stroke-miterlimit:4;stroke-opacity:1;stroke-dasharray:none;marker-end:none"
       d="m 331.71325,282.12862 110.70804,31.1006"
       id="path5867"
       inkscape:connector-curvature="0" />
    <g
       transform="matrix(0.99042097,-0.13808076,0.13808076,0.99042097,-34.060129,61.988962)"
       id="g18780">
      <path
         sodipodi:nodetypes="ccc"
         inkscape:connector-curvature="0"
         id="path8249"
         d="m 341.9109,270.58361 5,-1 -15,-1"
         style="fill:none;stroke:#808080;stroke-width:0.5;stroke-linecap:butt;stroke-linejoin:round;stroke-miterlimit:4;stroke-opacity:1;stroke-dasharray:none" />
      <path
         sodipodi:nodetypes="ccc"
         inkscape:connector-curvature="0"
         id="path8251"
         d="m 346.9109,269.58361 -4,8 -5,1"
         style="fill:none;stroke:#808080;stroke-width:0.5;stroke-linecap:butt;stroke-linejoin:round;stroke-miterlimit:4;stroke-opacity:1;stroke-dasharray:none" />
      <path
         inkscape:connector-curvature="0"
         id="path8253"
         d="m 331.9109,268.58361 10,5"
         style="fill:none;stroke:#333333;stroke-width:0.2;stroke-linecap:butt;stroke-linejoin:miter;stroke-miterlimit:4;stroke-opacity:1;stroke-dasharray:0.2, 0.2;stroke-dashoffset:0" />
      <path
         sodipodi:nodetypes="cccc"
         style="fill:none;stroke:#808080;stroke-width:0.5;stroke-linecap:butt;stroke-linejoin:round;stroke-miterlimit:4;stroke-opacity:1;stroke-dasharray:none"
         d="m 331.9109,268.58361 10,2 -4,8 z"
         id="path5037"
         inkscape:connector-curvature="0" />
      <path
         sodipodi:type="arc"
         style="fill:#000000;fill-opacity:1;stroke:#000000;stroke-width:2;stroke-miterlimit:4;stroke-dasharray:none;stroke-dashoffset:0"
         id="path4851-6"
         sodipodi:cx="437.5"
         sodipodi:cy="329.86218"
         sodipodi:rx="2.5"
         sodipodi:ry="2.5"
         d="m 440,329.86218 c 0,1.38071 -1.11929,2.5 -2.5,2.5 -1.38071,0 -2.5,-1.11929 -2.5,-2.5 0,-1.38071 1.11929,-2.5 2.5,-2.5 1.38071,0 2.5,1.11929 2.5,2.5 z"
         transform="matrix(0.4,0,0,0.4,156.91091,136.63874)" />
    </g>
    <image
       sodipodi:absref="/home/me/Work/UiO/Phd/Articles/UAM2014/Presentation/gfx/HUGIN.png"
       xlink:href="/home/me/Work/UiO/Phd/Articles/UAM2014/Presentation/gfx/HUGIN.png"
       transform="matrix(0.80612897,-0.59173987,0.48456624,0.87475457,0,0)"
       width="34.691566"
       height="6.4177947"
       id="image5307-5"
       x="133.31839"
       y="421.20615" />
    <g
       id="g14653"
       transform="matrix(0.49,0,0,0.49,233.84237,212.1219)"
       ns0:preamble="/home/me/.latex/inkscape/header.tex"
       ns0:text="\\Large\\sffamily\nCamera">
      <defs
         id="defs14655">
        <g
           id="g14657">
          <symbol
             id="textext-10ec2239-0"
             overflow="visible"
             style="overflow:visible">
            <path
               id="path14660"
               d=""
               style="stroke:none"
               inkscape:connector-curvature="0" />
          </symbol>
          <symbol
             id="textext-10ec2239-1"
             overflow="visible"
             style="overflow:visible">
            <path
               id="path14663"
               d="M 8.25,-0.640625 8.15625,-1.65625 C 7.78125,-1.359375 7.359375,-1.078125 6.890625,-0.921875 6.421875,-0.78125 5.9375,-0.75 5.453125,-0.75 4.53125,-0.75 3.703125,-1.265625 3.125,-2 2.46875,-2.84375 2.171875,-3.90625 2.171875,-4.984375 c 0,-1.0625 0.296875,-2.140625 0.953125,-2.984375 0.578125,-0.734375 1.40625,-1.234375 2.328125,-1.234375 0.421875,0 0.859375,0.03125 1.28125,0.171875 0.40625,0.140625 0.796875,0.359375 1.15625,0.609375 l 0.21875,-1.1875 C 7.671875,-9.78125 7.25,-9.90625 6.796875,-10 c -0.4375,-0.07813 -0.90625,-0.109375 -1.34375,-0.109375 -1.234375,0 -2.390625,0.578125 -3.1875,1.5 -0.890625,1 -1.3125,2.296875 -1.3125,3.625 0,1.328125 0.421875,2.625 1.3125,3.640625 0.796875,0.90625 1.953125,1.5 3.1875,1.5 C 5.9375,0.15625 6.4375,0.125 6.90625,0 7.40625,-0.140625 7.828125,-0.390625 8.25,-0.640625 z"
               style="stroke:none"
               inkscape:connector-curvature="0" />
          </symbol>
          <symbol
             id="textext-10ec2239-2"
             overflow="visible"
             style="overflow:visible">
            <path
               id="path14666"
               d="m 5.75,0 0,-4.203125 c 0,-1.375 -0.984375,-2.375 -2.328125,-2.375 -0.859375,0 -1.5,0.1875 -2.203125,0.59375 L 1.3125,-5.03125 C 1.9375,-5.5 2.59375,-5.75 3.421875,-5.75 c 0.671875,0 1.234375,0.53125 1.234375,1.578125 l 0,0.59375 c -0.640625,0.015625 -1.5,0.0625 -2.359375,0.34375 -0.96875,0.34375 -1.515625,0.875 -1.515625,1.578125 0,0.640625 0.359375,1.796875 1.578125,1.796875 0.796875,0 1.796875,-0.234375 2.328125,-0.671875 L 4.6875,0 z M 4.65625,-1.921875 c 0,0.28125 0,0.625 -0.46875,0.921875 -0.390625,0.234375 -0.875,0.28125 -1.09375,0.28125 -0.765625,0 -1.296875,-0.421875 -1.296875,-0.9375 0,-0.984375 1.984375,-1.203125 2.859375,-1.203125 z"
               style="stroke:none"
               inkscape:connector-curvature="0" />
          </symbol>
          <symbol
             id="textext-10ec2239-3"
             overflow="visible"
             style="overflow:visible">
            <path
               id="path14669"
               d="m 10,0 0,-4.3125 c 0,-1 -0.265625,-2.203125 -1.9375,-2.203125 -1.21875,0 -1.890625,0.84375 -2.109375,1.171875 C 5.6875,-6.25 4.90625,-6.515625 4.15625,-6.515625 c -1.171875,0 -1.796875,0.765625 -2.03125,1.0625 l 0,-0.984375 -1.015625,0 0,6.4375 1.078125,0 0,-3.578125 c 0,-0.9375 0.375,-2.078125 1.421875,-2.078125 C 4.9375,-5.65625 5,-4.75 5,-4.21875 L 5,0 l 1.09375,0 0,-3.578125 c 0,-0.9375 0.375,-2.078125 1.421875,-2.078125 1.3125,0 1.390625,0.90625 1.390625,1.4375 l 0,4.21875 z"
               style="stroke:none"
               inkscape:connector-curvature="0" />
          </symbol>
          <symbol
             id="textext-10ec2239-4"
             overflow="visible"
             style="overflow:visible">
            <path
               id="path14672"
               d="m 5.84375,-3.234375 c 0,-0.609375 -0.0625,-1.484375 -0.515625,-2.25 -0.59375,-0.984375 -1.59375,-1.09375 -2.015625,-1.09375 -1.546875,0 -2.84375,1.484375 -2.84375,3.34375 0,1.90625 1.375,3.375 3.046875,3.375 0.65625,0 1.453125,-0.1875 2.234375,-0.75 0,-0.0625 -0.046875,-0.53125 -0.046875,-0.53125 0,0 -0.03125,-0.34375 -0.03125,-0.390625 -0.859375,0.71875 -1.703125,0.8125 -2.125,0.8125 -1.109375,0 -2.0625,-0.984375 -2.078125,-2.515625 z M 4.984375,-4 l -3.4375,0 c 0.25,-0.96875 0.921875,-1.71875 1.765625,-1.71875 0.453125,0 1.4375,0.203125 1.671875,1.71875 z"
               style="stroke:none"
               inkscape:connector-curvature="0" />
          </symbol>
          <symbol
             id="textext-10ec2239-5"
             overflow="visible"
             style="overflow:visible">
            <path
               id="path14675"
               d="m 4.5625,-5.546875 0,-0.96875 C 3.25,-6.5 2.5,-5.734375 2.109375,-5.171875 l 0,-1.265625 -0.984375,0 0,6.4375 1.0625,0 0,-3.140625 c 0,-1.453125 1.078125,-2.390625 2.375,-2.40625 z"
               style="stroke:none"
               inkscape:connector-curvature="0" />
          </symbol>
        </g>
      </defs>
      <g
         id="textext-10ec2239-6">
        <g
           id="g14678"
           style="fill:#000000;fill-opacity:1">
          <use
             id="use14680"
             y="134.765"
             x="223.43201"
             xlink:href="#textext-10ec2239-1"
             width="744.09448"
             height="1052.3622" />
          <use
             id="use14682"
             y="134.765"
             x="232.40698"
             xlink:href="#textext-10ec2239-2"
             width="744.09448"
             height="1052.3622" />
          <use
             id="use14684"
             y="134.765"
             x="239.13104"
             xlink:href="#textext-10ec2239-3"
             width="744.09448"
             height="1052.3622" />
          <use
             id="use14686"
             y="134.765"
             x="250.2393"
             xlink:href="#textext-10ec2239-4"
             width="744.09448"
             height="1052.3622" />
          <use
             id="use14688"
             y="134.765"
             x="256.48279"
             xlink:href="#textext-10ec2239-5"
             width="744.09448"
             height="1052.3622" />
          <use
             id="use14690"
             y="134.765"
             x="261.25577"
             xlink:href="#textext-10ec2239-2"
             width="744.09448"
             height="1052.3622" />
        </g>
      </g>
    </g>
    <image
       width="41.304348"
       height="31.942028"
       xlink:href="file:///home/me/Work/UiO/Phd/Articles/UAM2014/Presentation/gfx/wreck.gif"
       id="image3117"
       x="426.44925"
       y="282.28491" />
    <g
       ns0:text="\\sffamily\n70m"
       ns0:preamble="/home/me/.latex/inkscape/header.tex"
       transform="matrix(0.7,0,0,0.7,214.89464,216.46785)"
       id="g3314">
      <defs
         id="defs3316">
        <g
           id="g3318">
          <symbol
             overflow="visible"
             id="textext-bf765f8f-0">
            <path
               style="stroke:none;"
               d=""
               id="path3321" />
          </symbol>
          <symbol
             overflow="visible"
             id="textext-bf765f8f-1">
            <path
               style="stroke:none;"
               d="M 4.5625 -5.890625 L 4.5625 -6.546875 L 0.421875 -6.546875 L 0.421875 -5.828125 L 2.3125 -5.828125 C 2.4375 -5.828125 2.546875 -5.84375 2.671875 -5.84375 L 3.875 -5.84375 C 2.40625 -4.21875 1.515625 -2.21875 1.515625 0.109375 L 2.359375 0.109375 C 2.359375 -2.875 3.78125 -5.015625 4.5625 -5.890625 Z "
               id="path3324" />
          </symbol>
          <symbol
             overflow="visible"
             id="textext-bf765f8f-2">
            <path
               style="stroke:none;"
               d="M 4.5625 -3.25 C 4.5625 -4.03125 4.515625 -4.96875 4.09375 -5.765625 C 3.6875 -6.515625 3 -6.765625 2.5 -6.765625 C 1.90625 -6.765625 1.203125 -6.484375 0.796875 -5.609375 C 0.46875 -4.875 0.421875 -4.046875 0.421875 -3.25 C 0.421875 -2.46875 0.453125 -1.734375 0.75 -1 C 1.15625 -0.046875 1.90625 0.21875 2.484375 0.21875 C 3.203125 0.21875 3.84375 -0.1875 4.15625 -0.875 C 4.453125 -1.53125 4.5625 -2.1875 4.5625 -3.25 Z M 3.78125 -3.375 C 3.78125 -2.71875 3.78125 -2.078125 3.59375 -1.453125 C 3.34375 -0.546875 2.8125 -0.390625 2.5 -0.390625 C 1.96875 -0.390625 1.5625 -0.765625 1.359375 -1.484375 C 1.203125 -2.046875 1.203125 -2.59375 1.203125 -3.375 C 1.203125 -4 1.203125 -4.59375 1.359375 -5.140625 C 1.421875 -5.328125 1.671875 -6.15625 2.484375 -6.15625 C 3.265625 -6.15625 3.515625 -5.390625 3.59375 -5.21875 C 3.78125 -4.65625 3.78125 -3.984375 3.78125 -3.375 Z "
               id="path3327" />
          </symbol>
          <symbol
             overflow="visible"
             id="textext-bf765f8f-3">
            <path
               style="stroke:none;"
               d="M 7.109375 0 L 7.109375 -2.96875 C 7.109375 -3.640625 6.953125 -4.53125 5.734375 -4.53125 C 5.140625 -4.53125 4.625 -4.25 4.25 -3.71875 C 4 -4.46875 3.296875 -4.53125 2.984375 -4.53125 C 2.265625 -4.53125 1.796875 -4.125 1.53125 -3.765625 L 1.53125 -4.484375 L 0.8125 -4.484375 L 0.8125 0 L 1.578125 0 L 1.578125 -2.4375 C 1.578125 -3.125 1.859375 -3.921875 2.59375 -3.921875 C 3.515625 -3.921875 3.5625 -3.28125 3.5625 -2.90625 L 3.5625 0 L 4.34375 0 L 4.34375 -2.4375 C 4.34375 -3.125 4.609375 -3.921875 5.359375 -3.921875 C 6.28125 -3.921875 6.328125 -3.28125 6.328125 -2.90625 L 6.328125 0 Z "
               id="path3330" />
          </symbol>
        </g>
      </defs>
      <g
         id="textext-bf765f8f-4">
        <g
           style="fill:rgb(0%,0%,0%);fill-opacity:1;"
           id="g3333">
          <use
             xlink:href="#textext-bf765f8f-1"
             x="223.432"
             y="134.765"
             id="use3335" />
          <use
             xlink:href="#textext-bf765f8f-2"
             x="228.4133"
             y="134.765"
             id="use3337" />
          <use
             xlink:href="#textext-bf765f8f-3"
             x="233.3946"
             y="134.765"
             id="use3339" />
        </g>
      </g>
    </g>
    <g
       id="g3490"
       transform="matrix(0.7,0,0,0.7,160.28637,209.95758)"
       ns0:preamble="/home/me/.latex/inkscape/header.tex"
       ns0:text="\\sffamily\n20m">
      <defs
         id="defs3492">
        <g
           id="g3494">
          <symbol
             id="textext-b5ce1fdc-0"
             overflow="visible"
             style="overflow:visible">
            <path
               id="path3497"
               d=""
               style="stroke:none"
               inkscape:connector-curvature="0" />
          </symbol>
          <symbol
             id="textext-b5ce1fdc-1"
             overflow="visible"
             style="overflow:visible">
            <path
               id="path3500"
               d="m 4.46875,0 0,-0.703125 -1.8125,0 c -0.109375,0 -0.234375,0 -0.359375,0 l -1.078125,0 c 0.3125,-0.28125 1.078125,-1.015625 1.390625,-1.3125 0.1875,-0.171875 0.6875,-0.59375 0.875,-0.78125 0.453125,-0.4375 0.984375,-0.96875 0.984375,-1.8125 0,-1.15625 -0.796875,-2.15625 -2.109375,-2.15625 -1.140625,0 -1.703125,0.78125 -1.9375,1.640625 0.109375,0.171875 0.171875,0.234375 0.1875,0.265625 0.015625,0.015625 0.125,0.140625 0.21875,0.28125 C 1.03125,-5.34375 1.3125,-6.125 2.21875,-6.125 c 0.9375,0 1.4375,0.75 1.4375,1.53125 0,0.84375 -0.5625,1.40625 -1.15625,2.015625 L 1.734375,-1.875 0.5,-0.640625 0.5,0 z"
               style="stroke:none"
               inkscape:connector-curvature="0" />
          </symbol>
          <symbol
             id="textext-b5ce1fdc-2"
             overflow="visible"
             style="overflow:visible">
            <path
               id="path3503"
               d="m 4.5625,-3.25 c 0,-0.78125 -0.046875,-1.71875 -0.46875,-2.515625 -0.40625,-0.75 -1.09375,-1 -1.59375,-1 -0.59375,0 -1.296875,0.28125 -1.703125,1.15625 -0.328125,0.734375 -0.375,1.5625 -0.375,2.359375 0,0.78125 0.03125,1.515625 0.328125,2.25 0.40625,0.953125 1.15625,1.21875 1.734375,1.21875 0.71875,0 1.359375,-0.40625 1.671875,-1.09375 C 4.453125,-1.53125 4.5625,-2.1875 4.5625,-3.25 z M 3.78125,-3.375 c 0,0.65625 0,1.296875 -0.1875,1.921875 -0.25,0.90625 -0.78125,1.0625 -1.09375,1.0625 -0.53125,0 -0.9375,-0.375 -1.140625,-1.09375 -0.15625,-0.5625 -0.15625,-1.109375 -0.15625,-1.890625 0,-0.625 0,-1.21875 0.15625,-1.765625 0.0625,-0.1875 0.3125,-1.015625 1.125,-1.015625 0.78125,0 1.03125,0.765625 1.109375,0.9375 0.1875,0.5625 0.1875,1.234375 0.1875,1.84375 z"
               style="stroke:none"
               inkscape:connector-curvature="0" />
          </symbol>
          <symbol
             id="textext-b5ce1fdc-3"
             overflow="visible"
             style="overflow:visible">
            <path
               id="path3506"
               d="m 7.109375,0 0,-2.96875 c 0,-0.671875 -0.15625,-1.5625 -1.375,-1.5625 -0.59375,0 -1.109375,0.28125 -1.484375,0.8125 -0.25,-0.75 -0.953125,-0.8125 -1.265625,-0.8125 -0.71875,0 -1.1875,0.40625 -1.453125,0.765625 l 0,-0.71875 -0.71875,0 0,4.484375 0.765625,0 0,-2.4375 c 0,-0.6875 0.28125,-1.484375 1.015625,-1.484375 0.921875,0 0.96875,0.640625 0.96875,1.015625 l 0,2.90625 0.78125,0 0,-2.4375 c 0,-0.6875 0.265625,-1.484375 1.015625,-1.484375 0.921875,0 0.96875,0.640625 0.96875,1.015625 l 0,2.90625 z"
               style="stroke:none"
               inkscape:connector-curvature="0" />
          </symbol>
        </g>
      </defs>
      <g
         id="textext-b5ce1fdc-4">
        <g
           id="g3509"
           style="fill:#000000;fill-opacity:1">
          <use
             id="use3511"
             y="134.765"
             x="223.43201"
             xlink:href="#textext-b5ce1fdc-1"
             width="744.09448"
             height="1052.3622" />
          <use
             id="use3513"
             y="134.765"
             x="228.4133"
             xlink:href="#textext-b5ce1fdc-2"
             width="744.09448"
             height="1052.3622" />
          <use
             id="use3515"
             y="134.765"
             x="233.39461"
             xlink:href="#textext-b5ce1fdc-3"
             width="744.09448"
             height="1052.3622" />
        </g>
      </g>
    </g>
  </g>
</svg>
