<?xml version="1.0" encoding="UTF-8" standalone="no"?>
<!-- Created with Inkscape (http://www.inkscape.org/) -->

<svg
   xmlns:ns0="http://www.iki.fi/pav/software/textext/"
   xmlns:dc="http://purl.org/dc/elements/1.1/"
   xmlns:cc="http://creativecommons.org/ns#"
   xmlns:rdf="http://www.w3.org/1999/02/22-rdf-syntax-ns#"
   xmlns:svg="http://www.w3.org/2000/svg"
   xmlns="http://www.w3.org/2000/svg"
   xmlns:xlink="http://www.w3.org/1999/xlink"
   xmlns:sodipodi="http://sodipodi.sourceforge.net/DTD/sodipodi-0.dtd"
   xmlns:inkscape="http://www.inkscape.org/namespaces/inkscape"
   width="744.09448819"
   height="1052.3622047"
   id="svg11769"
   version="1.1"
   inkscape:version="0.48.4 r9939"
   sodipodi:docname="viewer_manta_straight.svg">
  <sodipodi:namedview
     id="base"
     pagecolor="#ffffff"
     bordercolor="#666666"
     borderopacity="1.0"
     inkscape:pageopacity="0.0"
     inkscape:pageshadow="2"
     inkscape:zoom="2.07"
     inkscape:cx="439.3586"
     inkscape:cy="644.20863"
     inkscape:document-units="px"
     inkscape:current-layer="layer1"
     showgrid="false"
     inkscape:window-width="1916"
     inkscape:window-height="1018"
     inkscape:window-x="0"
     inkscape:window-y="0"
     inkscape:window-maximized="0" />
  <defs
     id="defs11771">
    <linearGradient
       id="linearGradient18789">
      <stop
         style="stop-color:#dcdee8;stop-opacity:1;"
         offset="0"
         id="stop18791" />
      <stop
         style="stop-color:#365364;stop-opacity:1;"
         offset="1"
         id="stop18793" />
    </linearGradient>
    <marker
       style="overflow:visible"
       id="Arrow2MendI"
       refX="0"
       refY="0"
       orient="auto"
       inkscape:stockid="Arrow2MendI">
      <path
         inkscape:connector-curvature="0"
         transform="scale(-0.6,-0.6)"
         d="M 8.7185878,4.0337352 -2.2072895,0.01601326 8.7185884,-4.0017078 c -1.7454984,2.3720609 -1.7354408,5.6174519 -6e-7,8.035443 z"
         style="fill:#000000;fill-rule:evenodd;stroke:#000000;stroke-width:0.625;stroke-linejoin:round"
         id="path31744" />
    </marker>
    <marker
       style="overflow:visible"
       id="Arrow2MstartZ"
       refX="0"
       refY="0"
       orient="auto"
       inkscape:stockid="Arrow2MstartZ">
      <path
         inkscape:connector-curvature="0"
         transform="scale(0.6,0.6)"
         d="M 8.7185878,4.0337352 -2.2072895,0.01601326 8.7185884,-4.0017078 c -1.7454984,2.3720609 -1.7354408,5.6174519 -6e-7,8.035443 z"
         style="fill:#000000;fill-rule:evenodd;stroke:#000000;stroke-width:0.625;stroke-linejoin:round"
         id="path31738" />
    </marker>
    <marker
       style="overflow:visible"
       id="Arrow2MendC"
       refX="0"
       refY="0"
       orient="auto"
       inkscape:stockid="Arrow2MendC">
      <path
         inkscape:connector-curvature="0"
         transform="scale(-0.6,-0.6)"
         d="M 8.7185878,4.0337352 -2.2072895,0.01601326 8.7185884,-4.0017078 c -1.7454984,2.3720609 -1.7354408,5.6174519 -6e-7,8.035443 z"
         style="fill:#000000;fill-rule:evenodd;stroke:#000000;stroke-width:0.625;stroke-linejoin:round"
         id="path31741" />
    </marker>
    <linearGradient
       inkscape:collect="always"
       xlink:href="#linearGradient18789"
       id="linearGradient18795"
       x1="427.53622"
       y1="325.0675"
       x2="427.53622"
       y2="525.66461"
       gradientUnits="userSpaceOnUse"
       gradientTransform="matrix(0.92779292,0,0,0.93577982,19.824896,17.168498)" />
  </defs>
  <metadata
     id="metadata11774">
    <rdf:RDF>
      <cc:Work
         rdf:about="">
        <dc:format>image/svg+xml</dc:format>
        <dc:type
           rdf:resource="http://purl.org/dc/dcmitype/StillImage" />
        <dc:title />
      </cc:Work>
    </rdf:RDF>
  </metadata>
  <g
     inkscape:label="Layer 1"
     inkscape:groupmode="layer"
     id="layer1">
    <rect
       style="color:#000000;fill:url(#linearGradient18795);fill-opacity:1;stroke-width:0.5;stroke-linecap:butt;stroke-linejoin:miter;stroke-miterlimit:4;stroke-opacity:1;stroke-dasharray:0.5, 0.5;stroke-dashoffset:0;marker:none;visibility:visible;display:inline;overflow:visible;enable-background:accumulate"
       id="rect18787"
       width="328.98553"
       height="246.37682"
       x="184.31764"
       y="267.33804" />
    <image
       y="322.48816"
       x="209.66302"
       id="image11969"
       xlink:href="file:///home/me/Work/UiO/Phd/Articles/UAM2014/Presentation/gfx/viewer_manta_straight.png"
       height="190.6192"
       width="278.29477" />
    <path
       sodipodi:nodetypes="ccc"
       inkscape:connector-curvature="0"
       id="path3774"
       d="m 331.82887,281.80584 0,31.25331 152.87141,0"
       style="fill:none;stroke:#000000;stroke-width:0.5;stroke-linecap:butt;stroke-linejoin:miter;stroke-miterlimit:4;stroke-opacity:1;stroke-dasharray:none;stroke-dashoffset:0;marker-start:none;marker-end:none" />
    <path
       inkscape:connector-curvature="0"
       id="path5867"
       d="m 331.71325,282.12862 110.70804,31.1006"
       style="fill:none;stroke:#000000;stroke-width:0.49999997;stroke-linecap:butt;stroke-linejoin:miter;stroke-miterlimit:4;stroke-opacity:1;stroke-dasharray:none;marker-end:none"
       sodipodi:nodetypes="cc" />
    <g
       id="g18780"
       transform="matrix(0.99042097,-0.13808076,0.13808076,0.99042097,-34.060129,61.988962)">
      <path
         style="fill:none;stroke:#808080;stroke-width:0.5;stroke-linecap:butt;stroke-linejoin:round;stroke-miterlimit:4;stroke-opacity:1;stroke-dasharray:none"
         d="m 341.9109,270.58361 5,-1 -15,-1"
         id="path8249"
         inkscape:connector-curvature="0"
         sodipodi:nodetypes="ccc" />
      <path
         style="fill:none;stroke:#808080;stroke-width:0.5;stroke-linecap:butt;stroke-linejoin:round;stroke-miterlimit:4;stroke-opacity:1;stroke-dasharray:none"
         d="m 346.9109,269.58361 -4,8 -5,1"
         id="path8251"
         inkscape:connector-curvature="0"
         sodipodi:nodetypes="ccc" />
      <path
         style="fill:none;stroke:#333333;stroke-width:0.2;stroke-linecap:butt;stroke-linejoin:miter;stroke-miterlimit:4;stroke-opacity:1;stroke-dasharray:0.2, 0.2;stroke-dashoffset:0"
         d="m 331.9109,268.58361 10,5"
         id="path8253"
         inkscape:connector-curvature="0" />
      <path
         inkscape:connector-curvature="0"
         id="path5037"
         d="m 331.9109,268.58361 10,2 -4,8 z"
         style="fill:none;stroke:#808080;stroke-width:0.5;stroke-linecap:butt;stroke-linejoin:round;stroke-miterlimit:4;stroke-opacity:1;stroke-dasharray:none"
         sodipodi:nodetypes="cccc" />
      <path
         transform="matrix(0.4,0,0,0.4,156.91091,136.63874)"
         d="m 440,329.86218 c 0,1.38071 -1.11929,2.5 -2.5,2.5 -1.38071,0 -2.5,-1.11929 -2.5,-2.5 0,-1.38071 1.11929,-2.5 2.5,-2.5 1.38071,0 2.5,1.11929 2.5,2.5 z"
         sodipodi:ry="2.5"
         sodipodi:rx="2.5"
         sodipodi:cy="329.86218"
         sodipodi:cx="437.5"
         id="path4851-6"
         style="fill:#000000;fill-opacity:1;stroke:#000000;stroke-width:2;stroke-miterlimit:4;stroke-dasharray:none;stroke-dashoffset:0"
         sodipodi:type="arc" />
    </g>
    <path
       sodipodi:nodetypes="ccccc"
       inkscape:connector-curvature="0"
       id="path14720-3"
       d="m 447.10529,312.69969 -3,-4.99999 -6.00001,0 -3.00002,4.99998 z"
       style="fill:#4d4d4d;stroke:#000000;stroke-width:0.5;stroke-linecap:butt;stroke-linejoin:round;stroke-miterlimit:4;stroke-opacity:1;stroke-dasharray:none" />
    <image
       y="421.20615"
       x="133.31839"
       id="image5307-5"
       height="6.4177947"
       width="34.691566"
       transform="matrix(0.80612897,-0.59173987,0.48456624,0.87475457,0,0)"
       xlink:href="/home/me/Work/UiO/Phd/Articles/UAM2014/Presentation/gfx/HUGIN.png"
       sodipodi:absref="/home/me/Work/UiO/Phd/Articles/UAM2014/Presentation/gfx/HUGIN.png" />
    <g
       ns0:text="\\Large\\sffamily\nCamera"
       ns0:preamble="/home/me/.latex/inkscape/header.tex"
       transform="matrix(0.49,0,0,0.49,233.84237,212.1219)"
       id="g14653">
      <defs
         id="defs14655">
        <g
           id="g14657">
          <symbol
             style="overflow:visible"
             overflow="visible"
             id="textext-10ec2239-0">
            <path
               inkscape:connector-curvature="0"
               style="stroke:none"
               d=""
               id="path14660" />
          </symbol>
          <symbol
             style="overflow:visible"
             overflow="visible"
             id="textext-10ec2239-1">
            <path
               inkscape:connector-curvature="0"
               style="stroke:none"
               d="M 8.25,-0.640625 8.15625,-1.65625 C 7.78125,-1.359375 7.359375,-1.078125 6.890625,-0.921875 6.421875,-0.78125 5.9375,-0.75 5.453125,-0.75 4.53125,-0.75 3.703125,-1.265625 3.125,-2 2.46875,-2.84375 2.171875,-3.90625 2.171875,-4.984375 c 0,-1.0625 0.296875,-2.140625 0.953125,-2.984375 0.578125,-0.734375 1.40625,-1.234375 2.328125,-1.234375 0.421875,0 0.859375,0.03125 1.28125,0.171875 0.40625,0.140625 0.796875,0.359375 1.15625,0.609375 l 0.21875,-1.1875 C 7.671875,-9.78125 7.25,-9.90625 6.796875,-10 c -0.4375,-0.07813 -0.90625,-0.109375 -1.34375,-0.109375 -1.234375,0 -2.390625,0.578125 -3.1875,1.5 -0.890625,1 -1.3125,2.296875 -1.3125,3.625 0,1.328125 0.421875,2.625 1.3125,3.640625 0.796875,0.90625 1.953125,1.5 3.1875,1.5 C 5.9375,0.15625 6.4375,0.125 6.90625,0 7.40625,-0.140625 7.828125,-0.390625 8.25,-0.640625 z"
               id="path14663" />
          </symbol>
          <symbol
             style="overflow:visible"
             overflow="visible"
             id="textext-10ec2239-2">
            <path
               inkscape:connector-curvature="0"
               style="stroke:none"
               d="m 5.75,0 0,-4.203125 c 0,-1.375 -0.984375,-2.375 -2.328125,-2.375 -0.859375,0 -1.5,0.1875 -2.203125,0.59375 L 1.3125,-5.03125 C 1.9375,-5.5 2.59375,-5.75 3.421875,-5.75 c 0.671875,0 1.234375,0.53125 1.234375,1.578125 l 0,0.59375 c -0.640625,0.015625 -1.5,0.0625 -2.359375,0.34375 -0.96875,0.34375 -1.515625,0.875 -1.515625,1.578125 0,0.640625 0.359375,1.796875 1.578125,1.796875 0.796875,0 1.796875,-0.234375 2.328125,-0.671875 L 4.6875,0 z M 4.65625,-1.921875 c 0,0.28125 0,0.625 -0.46875,0.921875 -0.390625,0.234375 -0.875,0.28125 -1.09375,0.28125 -0.765625,0 -1.296875,-0.421875 -1.296875,-0.9375 0,-0.984375 1.984375,-1.203125 2.859375,-1.203125 z"
               id="path14666" />
          </symbol>
          <symbol
             style="overflow:visible"
             overflow="visible"
             id="textext-10ec2239-3">
            <path
               inkscape:connector-curvature="0"
               style="stroke:none"
               d="m 10,0 0,-4.3125 c 0,-1 -0.265625,-2.203125 -1.9375,-2.203125 -1.21875,0 -1.890625,0.84375 -2.109375,1.171875 C 5.6875,-6.25 4.90625,-6.515625 4.15625,-6.515625 c -1.171875,0 -1.796875,0.765625 -2.03125,1.0625 l 0,-0.984375 -1.015625,0 0,6.4375 1.078125,0 0,-3.578125 c 0,-0.9375 0.375,-2.078125 1.421875,-2.078125 C 4.9375,-5.65625 5,-4.75 5,-4.21875 L 5,0 l 1.09375,0 0,-3.578125 c 0,-0.9375 0.375,-2.078125 1.421875,-2.078125 1.3125,0 1.390625,0.90625 1.390625,1.4375 l 0,4.21875 z"
               id="path14669" />
          </symbol>
          <symbol
             style="overflow:visible"
             overflow="visible"
             id="textext-10ec2239-4">
            <path
               inkscape:connector-curvature="0"
               style="stroke:none"
               d="m 5.84375,-3.234375 c 0,-0.609375 -0.0625,-1.484375 -0.515625,-2.25 -0.59375,-0.984375 -1.59375,-1.09375 -2.015625,-1.09375 -1.546875,0 -2.84375,1.484375 -2.84375,3.34375 0,1.90625 1.375,3.375 3.046875,3.375 0.65625,0 1.453125,-0.1875 2.234375,-0.75 0,-0.0625 -0.046875,-0.53125 -0.046875,-0.53125 0,0 -0.03125,-0.34375 -0.03125,-0.390625 -0.859375,0.71875 -1.703125,0.8125 -2.125,0.8125 -1.109375,0 -2.0625,-0.984375 -2.078125,-2.515625 z M 4.984375,-4 l -3.4375,0 c 0.25,-0.96875 0.921875,-1.71875 1.765625,-1.71875 0.453125,0 1.4375,0.203125 1.671875,1.71875 z"
               id="path14672" />
          </symbol>
          <symbol
             style="overflow:visible"
             overflow="visible"
             id="textext-10ec2239-5">
            <path
               inkscape:connector-curvature="0"
               style="stroke:none"
               d="m 4.5625,-5.546875 0,-0.96875 C 3.25,-6.5 2.5,-5.734375 2.109375,-5.171875 l 0,-1.265625 -0.984375,0 0,6.4375 1.0625,0 0,-3.140625 c 0,-1.453125 1.078125,-2.390625 2.375,-2.40625 z"
               id="path14675" />
          </symbol>
        </g>
      </defs>
      <g
         id="textext-10ec2239-6">
        <g
           style="fill:#000000;fill-opacity:1"
           id="g14678">
          <use
             height="1052.3622"
             width="744.09448"
             xlink:href="#textext-10ec2239-1"
             x="223.43201"
             y="134.765"
             id="use14680" />
          <use
             height="1052.3622"
             width="744.09448"
             xlink:href="#textext-10ec2239-2"
             x="232.40698"
             y="134.765"
             id="use14682" />
          <use
             height="1052.3622"
             width="744.09448"
             xlink:href="#textext-10ec2239-3"
             x="239.13104"
             y="134.765"
             id="use14684" />
          <use
             height="1052.3622"
             width="744.09448"
             xlink:href="#textext-10ec2239-4"
             x="250.2393"
             y="134.765"
             id="use14686" />
          <use
             height="1052.3622"
             width="744.09448"
             xlink:href="#textext-10ec2239-5"
             x="256.48279"
             y="134.765"
             id="use14688" />
          <use
             height="1052.3622"
             width="744.09448"
             xlink:href="#textext-10ec2239-2"
             x="261.25577"
             y="134.765"
             id="use14690" />
        </g>
      </g>
    </g>
    <g
       id="g15142"
       transform="matrix(0.7,0,0,0.7,222.89464,216.46785)"
       ns0:preamble="/home/me/.latex/inkscape/header.tex"
       ns0:text="\\sffamily\n5\\;m">
      <defs
         id="defs15144">
        <g
           id="g15146">
          <symbol
             id="textext-6c9ec211-0"
             overflow="visible"
             style="overflow:visible">
            <path
               id="path15149"
               d=""
               style="stroke:none"
               inkscape:connector-curvature="0" />
          </symbol>
          <symbol
             id="textext-6c9ec211-1"
             overflow="visible"
             style="overflow:visible">
            <path
               id="path15152"
               d="m 4.46875,-2.03125 c 0,-1.234375 -0.84375,-2.21875 -1.875,-2.21875 -0.40625,0 -0.78125,0.140625 -1.0625,0.40625 l 0,-2.0625 2.609375,0 0,-0.640625 -3.328125,0 0,3.6875 0.65625,0 C 1.640625,-3.265625 2,-3.65625 2.578125,-3.65625 c 0.46875,0 1.015625,0.421875 1.015625,1.609375 0,1.65625 -1.21875,1.65625 -1.3125,1.65625 C 1.609375,-0.390625 1,-0.78125 0.71875,-1.3125 L 0.390625,-0.75 c 0.40625,0.5625 1.09375,0.96875 1.90625,0.96875 1.1875,0 2.171875,-0.984375 2.171875,-2.25 z"
               style="stroke:none"
               inkscape:connector-curvature="0" />
          </symbol>
          <symbol
             id="textext-6c9ec211-2"
             overflow="visible"
             style="overflow:visible">
            <path
               id="path15155"
               d="m 7.109375,0 0,-2.96875 c 0,-0.671875 -0.15625,-1.5625 -1.375,-1.5625 -0.59375,0 -1.109375,0.28125 -1.484375,0.8125 -0.25,-0.75 -0.953125,-0.8125 -1.265625,-0.8125 -0.71875,0 -1.1875,0.40625 -1.453125,0.765625 l 0,-0.71875 -0.71875,0 0,4.484375 0.765625,0 0,-2.4375 c 0,-0.6875 0.28125,-1.484375 1.015625,-1.484375 0.921875,0 0.96875,0.640625 0.96875,1.015625 l 0,2.90625 0.78125,0 0,-2.4375 c 0,-0.6875 0.265625,-1.484375 1.015625,-1.484375 0.921875,0 0.96875,0.640625 0.96875,1.015625 l 0,2.90625 z"
               style="stroke:none"
               inkscape:connector-curvature="0" />
          </symbol>
        </g>
      </defs>
      <g
         id="textext-6c9ec211-3">
        <g
           id="g15158"
           style="fill:#000000;fill-opacity:1">
          <use
             id="use15160"
             y="134.765"
             x="223.43201"
             xlink:href="#textext-6c9ec211-1"
             width="744.09448"
             height="1052.3622" />
        </g>
        <g
           id="g15162"
           style="fill:#000000;fill-opacity:1">
          <use
             id="use15164"
             y="134.765"
             x="231.18291"
             xlink:href="#textext-6c9ec211-2"
             width="744.09448"
             height="1052.3622" />
        </g>
      </g>
    </g>
    <g
       ns0:text="\\sffamily\n2.5\\;m"
       ns0:preamble="/home/me/.latex/inkscape/header.tex"
       transform="matrix(0.7,0,0,0.7,156.28637,209.95758)"
       id="g15679">
      <defs
         id="defs15681">
        <g
           id="g15683">
          <symbol
             overflow="visible"
             id="textext-fe46a1d2-0"
             style="overflow:visible">
            <path
               style="stroke:none"
               d=""
               id="path15686"
               inkscape:connector-curvature="0" />
          </symbol>
          <symbol
             overflow="visible"
             id="textext-fe46a1d2-1"
             style="overflow:visible">
            <path
               style="stroke:none"
               d="m 4.46875,0 0,-0.703125 -1.8125,0 c -0.109375,0 -0.234375,0 -0.359375,0 l -1.078125,0 c 0.3125,-0.28125 1.078125,-1.015625 1.390625,-1.3125 0.1875,-0.171875 0.6875,-0.59375 0.875,-0.78125 0.453125,-0.4375 0.984375,-0.96875 0.984375,-1.8125 0,-1.15625 -0.796875,-2.15625 -2.109375,-2.15625 -1.140625,0 -1.703125,0.78125 -1.9375,1.640625 0.109375,0.171875 0.171875,0.234375 0.1875,0.265625 0.015625,0.015625 0.125,0.140625 0.21875,0.28125 C 1.03125,-5.34375 1.3125,-6.125 2.21875,-6.125 c 0.9375,0 1.4375,0.75 1.4375,1.53125 0,0.84375 -0.5625,1.40625 -1.15625,2.015625 L 1.734375,-1.875 0.5,-0.640625 0.5,0 z"
               id="path15689"
               inkscape:connector-curvature="0" />
          </symbol>
          <symbol
             overflow="visible"
             id="textext-fe46a1d2-2"
             style="overflow:visible">
            <path
               style="stroke:none"
               d="m 1.796875,0 0,-0.828125 -0.828125,0 0,0.828125 z"
               id="path15692"
               inkscape:connector-curvature="0" />
          </symbol>
          <symbol
             overflow="visible"
             id="textext-fe46a1d2-3"
             style="overflow:visible">
            <path
               style="stroke:none"
               d="m 4.46875,-2.03125 c 0,-1.234375 -0.84375,-2.21875 -1.875,-2.21875 -0.40625,0 -0.78125,0.140625 -1.0625,0.40625 l 0,-2.0625 2.609375,0 0,-0.640625 -3.328125,0 0,3.6875 0.65625,0 C 1.640625,-3.265625 2,-3.65625 2.578125,-3.65625 c 0.46875,0 1.015625,0.421875 1.015625,1.609375 0,1.65625 -1.21875,1.65625 -1.3125,1.65625 C 1.609375,-0.390625 1,-0.78125 0.71875,-1.3125 L 0.390625,-0.75 c 0.40625,0.5625 1.09375,0.96875 1.90625,0.96875 1.1875,0 2.171875,-0.984375 2.171875,-2.25 z"
               id="path15695"
               inkscape:connector-curvature="0" />
          </symbol>
          <symbol
             overflow="visible"
             id="textext-fe46a1d2-4"
             style="overflow:visible">
            <path
               style="stroke:none"
               d="m 7.109375,0 0,-2.96875 c 0,-0.671875 -0.15625,-1.5625 -1.375,-1.5625 -0.59375,0 -1.109375,0.28125 -1.484375,0.8125 -0.25,-0.75 -0.953125,-0.8125 -1.265625,-0.8125 -0.71875,0 -1.1875,0.40625 -1.453125,0.765625 l 0,-0.71875 -0.71875,0 0,4.484375 0.765625,0 0,-2.4375 c 0,-0.6875 0.28125,-1.484375 1.015625,-1.484375 0.921875,0 0.96875,0.640625 0.96875,1.015625 l 0,2.90625 0.78125,0 0,-2.4375 c 0,-0.6875 0.265625,-1.484375 1.015625,-1.484375 0.921875,0 0.96875,0.640625 0.96875,1.015625 l 0,2.90625 z"
               id="path15698"
               inkscape:connector-curvature="0" />
          </symbol>
        </g>
      </defs>
      <g
         id="textext-fe46a1d2-5">
        <g
           style="fill:#000000;fill-opacity:1"
           id="g15701">
          <use
             xlink:href="#textext-fe46a1d2-1"
             x="223.43201"
             y="134.765"
             id="use15703"
             width="744.09448"
             height="1052.3622" />
          <use
             xlink:href="#textext-fe46a1d2-2"
             x="228.4133"
             y="134.765"
             id="use15705"
             width="744.09448"
             height="1052.3622" />
          <use
             xlink:href="#textext-fe46a1d2-3"
             x="231.18091"
             y="134.765"
             id="use15707"
             width="744.09448"
             height="1052.3622" />
        </g>
        <g
           style="fill:#000000;fill-opacity:1"
           id="g15709">
          <use
             xlink:href="#textext-fe46a1d2-4"
             x="238.93181"
             y="134.765"
             id="use15711"
             width="744.09448"
             height="1052.3622" />
        </g>
      </g>
    </g>
    <g
       id="g16368"
       style="fill:#ff6600"
       transform="matrix(0.49,0,0,0.49,322.6664,234.85541)"
       ns0:preamble="/home/me/.latex/inkscape/header.tex"
       ns0:text="\\Large\\sffamily\nSeafloor">
      <defs
         id="defs16370">
        <g
           id="g16372">
          <symbol
             id="textext-df87758b-0"
             overflow="visible"
             style="overflow:visible">
            <path
               id="path16375"
               d=""
               style="stroke:none"
               inkscape:connector-curvature="0" />
          </symbol>
          <symbol
             id="textext-df87758b-1"
             overflow="visible"
             style="overflow:visible">
            <path
               id="path16378"
               d="M 7.015625,-2.71875 C 7.015625,-3.625 6.5625,-4.3125 6.25,-4.671875 5.59375,-5.375 5.0625,-5.515625 4.109375,-5.765625 3.125,-6.015625 2.765625,-6.09375 2.453125,-6.390625 2.265625,-6.59375 1.875,-6.953125 1.875,-7.609375 c 0,-0.875 0.796875,-1.71875 2.0625,-1.71875 1.21875,0 1.859375,0.484375 2.375,0.9375 l 0.21875,-1.15625 C 5.9375,-9.875 5.21875,-10.25 3.9375,-10.25 c -1.921875,0 -3.15625,1.375 -3.15625,2.8125 0,1.015625 0.609375,1.671875 0.6875,1.75 0.703125,0.703125 1.1875,0.84375 2.109375,1.0625 1.21875,0.3125 1.40625,0.359375 1.875,0.84375 0.234375,0.25 0.453125,0.71875 0.453125,1.21875 0,0.984375 -0.8125,1.90625 -2.046875,1.90625 -1.046875,0 -2.171875,-0.421875 -3.015625,-1.1875 L 0.625,-0.6875 c 1.3125,0.859375 2.578125,0.984375 3.234375,0.984375 1.84375,0 3.15625,-1.421875 3.15625,-3.015625 z"
               style="stroke:none"
               inkscape:connector-curvature="0" />
          </symbol>
          <symbol
             id="textext-df87758b-2"
             overflow="visible"
             style="overflow:visible">
            <path
               id="path16381"
               d="m 5.84375,-3.234375 c 0,-0.609375 -0.0625,-1.484375 -0.515625,-2.25 -0.59375,-0.984375 -1.59375,-1.09375 -2.015625,-1.09375 -1.546875,0 -2.84375,1.484375 -2.84375,3.34375 0,1.90625 1.375,3.375 3.046875,3.375 0.65625,0 1.453125,-0.1875 2.234375,-0.75 0,-0.0625 -0.046875,-0.53125 -0.046875,-0.53125 0,0 -0.03125,-0.34375 -0.03125,-0.390625 -0.859375,0.71875 -1.703125,0.8125 -2.125,0.8125 -1.109375,0 -2.0625,-0.984375 -2.078125,-2.515625 z M 4.984375,-4 l -3.4375,0 c 0.25,-0.96875 0.921875,-1.71875 1.765625,-1.71875 0.453125,0 1.4375,0.203125 1.671875,1.71875 z"
               style="stroke:none"
               inkscape:connector-curvature="0" />
          </symbol>
          <symbol
             id="textext-df87758b-3"
             overflow="visible"
             style="overflow:visible">
            <path
               id="path16384"
               d="m 5.75,0 0,-4.203125 c 0,-1.375 -0.984375,-2.375 -2.328125,-2.375 -0.859375,0 -1.5,0.1875 -2.203125,0.59375 L 1.3125,-5.03125 C 1.9375,-5.5 2.59375,-5.75 3.421875,-5.75 c 0.671875,0 1.234375,0.53125 1.234375,1.578125 l 0,0.59375 c -0.640625,0.015625 -1.5,0.0625 -2.359375,0.34375 -0.96875,0.34375 -1.515625,0.875 -1.515625,1.578125 0,0.640625 0.359375,1.796875 1.578125,1.796875 0.796875,0 1.796875,-0.234375 2.328125,-0.671875 L 4.6875,0 z M 4.65625,-1.921875 c 0,0.28125 0,0.625 -0.46875,0.921875 -0.390625,0.234375 -0.875,0.28125 -1.09375,0.28125 -0.765625,0 -1.296875,-0.421875 -1.296875,-0.9375 0,-0.984375 1.984375,-1.203125 2.859375,-1.203125 z"
               style="stroke:none"
               inkscape:connector-curvature="0" />
          </symbol>
          <symbol
             id="textext-df87758b-4"
             overflow="visible"
             style="overflow:visible">
            <path
               id="path16387"
               d="m 4.125,-5.53125 0,-0.84375 -1.671875,0 0,-1.75 c 0,-0.859375 0.453125,-1.109375 0.84375,-1.109375 0.28125,0 0.59375,0.0625 0.828125,0.21875 l 0,-0.9375 C 3.84375,-10.0625 3.75,-10.09375 3.296875,-10.09375 c -1.0625,0 -1.875,1.015625 -1.875,2.40625 l 0,1.3125 -1.046875,0 0,0.84375 1.046875,0 0,5.53125 1.0625,0 0,-5.53125 z M 6.375,0 l 0,-9.953125 -1.0625,0 0,9.953125 z"
               style="stroke:none"
               inkscape:connector-curvature="0" />
          </symbol>
          <symbol
             id="textext-df87758b-5"
             overflow="visible"
             style="overflow:visible">
            <path
               id="path16390"
               d="m 6.578125,-3.15625 c 0,-1.9375 -1.421875,-3.421875 -3.0625,-3.421875 -1.6875,0 -3.078125,1.515625 -3.078125,3.421875 0,1.875 1.421875,3.296875 3.0625,3.296875 1.6875,0 3.078125,-1.453125 3.078125,-3.296875 z M 5.5,-3.296875 C 5.5,-1.53125 4.46875,-0.75 3.515625,-0.75 c -1.03125,0 -2,-0.859375 -2,-2.546875 0,-1.734375 1.078125,-2.421875 1.984375,-2.421875 0.984375,0 2,0.734375 2,2.421875 z"
               style="stroke:none"
               inkscape:connector-curvature="0" />
          </symbol>
          <symbol
             id="textext-df87758b-6"
             overflow="visible"
             style="overflow:visible">
            <path
               id="path16393"
               d="m 4.5625,-5.546875 0,-0.96875 C 3.25,-6.5 2.5,-5.734375 2.109375,-5.171875 l 0,-1.265625 -0.984375,0 0,6.4375 1.0625,0 0,-3.140625 c 0,-1.453125 1.078125,-2.390625 2.375,-2.40625 z"
               style="stroke:none"
               inkscape:connector-curvature="0" />
          </symbol>
        </g>
      </defs>
      <g
         id="textext-df87758b-7"
         style="fill:#ff6600">
        <g
           id="g16396"
           style="fill:#ff6600;fill-opacity:1">
          <use
             id="use16398"
             y="134.765"
             x="223.43201"
             xlink:href="#textext-df87758b-1"
             width="744.09448"
             height="1052.3622"
             style="fill:#ff6600" />
          <use
             id="use16400"
             y="134.765"
             x="231.23633"
             xlink:href="#textext-df87758b-2"
             width="744.09448"
             height="1052.3622"
             style="fill:#ff6600" />
          <use
             id="use16402"
             y="134.765"
             x="237.4798"
             xlink:href="#textext-df87758b-3"
             width="744.09448"
             height="1052.3622"
             style="fill:#ff6600" />
          <use
             id="use16404"
             y="134.765"
             x="244.20386"
             xlink:href="#textext-df87758b-4"
             width="744.09448"
             height="1052.3622"
             style="fill:#ff6600" />
          <use
             id="use16406"
             y="134.765"
             x="251.70979"
             xlink:href="#textext-df87758b-5"
             width="744.09448"
             height="1052.3622"
             style="fill:#ff6600" />
        </g>
        <g
           id="g16408"
           style="fill:#ff6600;fill-opacity:1">
          <use
             id="use16410"
             y="134.765"
             x="259.12103"
             xlink:href="#textext-df87758b-5"
             width="744.09448"
             height="1052.3622"
             style="fill:#ff6600" />
        </g>
        <g
           id="g16412"
           style="fill:#ff6600;fill-opacity:1">
          <use
             id="use16414"
             y="134.765"
             x="265.7576"
             xlink:href="#textext-df87758b-6"
             width="744.09448"
             height="1052.3622"
             style="fill:#ff6600" />
        </g>
      </g>
    </g>
    <path
       style="fill:#000000;stroke:#ff6600;stroke-width:1.00000012px;stroke-linecap:butt;stroke-linejoin:miter;stroke-opacity:1;marker-start:none"
       d="M 460.87673,313.36624 420.2828,313.09721"
       id="path4567-2"
       inkscape:connector-curvature="0"
       sodipodi:nodetypes="cc" />
  </g>
</svg>
