<?xml version="1.0" encoding="UTF-8" standalone="no"?>
<!-- Created with Inkscape (http://www.inkscape.org/) -->

<svg
   xmlns:ns0="http://www.iki.fi/pav/software/textext/"
   xmlns:dc="http://purl.org/dc/elements/1.1/"
   xmlns:cc="http://creativecommons.org/ns#"
   xmlns:rdf="http://www.w3.org/1999/02/22-rdf-syntax-ns#"
   xmlns:svg="http://www.w3.org/2000/svg"
   xmlns="http://www.w3.org/2000/svg"
   xmlns:xlink="http://www.w3.org/1999/xlink"
   xmlns:sodipodi="http://sodipodi.sourceforge.net/DTD/sodipodi-0.dtd"
   xmlns:inkscape="http://www.inkscape.org/namespaces/inkscape"
   sodipodi:docname="scenario_interference_das.svg"
   inkscape:version="0.92.4 (unknown)"
   version="1.1"
   id="svg3307"
   height="415.28574"
   width="635.28564"
   inkscape:export-filename="/home/me/Work/UiO/Phd/Articles/ECUA2012/presentation/gfx/scenario_interference.png"
   inkscape:export-xdpi="299.94"
   inkscape:export-ydpi="299.94">
  <sodipodi:namedview
     id="base"
     pagecolor="#ffffff"
     bordercolor="#666666"
     borderopacity="1.0"
     inkscape:pageopacity="0.0"
     inkscape:pageshadow="2"
     inkscape:zoom="1.4"
     inkscape:cx="193.55965"
     inkscape:cy="206.05167"
     inkscape:document-units="px"
     inkscape:current-layer="layer1"
     showgrid="true"
     inkscape:window-width="1920"
     inkscape:window-height="1133"
     inkscape:window-x="0"
     inkscape:window-y="472"
     inkscape:window-maximized="1"
     inkscape:snap-global="false"
     fit-margin-top="0"
     fit-margin-left="0"
     fit-margin-right="0"
     fit-margin-bottom="0">
    <inkscape:grid
       snapvisiblegridlinesonly="true"
       enabled="true"
       visible="true"
       empspacing="5"
       type="xygrid"
       id="grid4125"
       originx="-34.925367"
       originy="26.785695"
       spacingx="1"
       spacingy="1" />
  </sodipodi:namedview>
  <defs
     id="defs3309">
    <linearGradient
       id="linearGradient12844">
      <stop
         style="stop-color:#82c4dc;stop-opacity:0;"
         offset="0"
         id="stop12846" />
      <stop
         id="stop12984"
         offset="0.05"
         style="stop-color:#41bfed;stop-opacity:0.84666669;" />
      <stop
         style="stop-color:#00baff;stop-opacity:0;"
         offset="1"
         id="stop12848" />
    </linearGradient>
    <linearGradient
       id="linearGradient12834">
      <stop
         style="stop-color:#ff0000;stop-opacity:0.28666666;"
         offset="0"
         id="stop12836" />
      <stop
         style="stop-color:#ff0000;stop-opacity:0.52666664;"
         offset="1"
         id="stop12838" />
    </linearGradient>
    <marker
       style="overflow:visible"
       id="Arrow2Mend"
       refX="0"
       refY="0"
       orient="auto"
       inkscape:stockid="Arrow2Mend">
      <path
         inkscape:connector-curvature="0"
         transform="scale(-0.6)"
         d="M 8.7185878,4.0337352 -2.2072895,0.01601326 8.7185884,-4.0017078 c -1.7454984,2.3720609 -1.7354408,5.6174519 -6e-7,8.035443 z"
         style="font-size:12px;fill-rule:evenodd;stroke-width:0.625;stroke-linejoin:round"
         id="path3793" />
    </marker>
    <marker
       style="overflow:visible"
       id="Arrow2Mstart"
       refX="0"
       refY="0"
       orient="auto"
       inkscape:stockid="Arrow2Mstart">
      <path
         inkscape:connector-curvature="0"
         transform="scale(0.6)"
         d="M 8.7185878,4.0337352 -2.2072895,0.01601326 8.7185884,-4.0017078 c -1.7454984,2.3720609 -1.7354408,5.6174519 -6e-7,8.035443 z"
         style="font-size:12px;fill-rule:evenodd;stroke-width:0.625;stroke-linejoin:round"
         id="path3790" />
    </marker>
    <marker
       inkscape:stockid="Arrow2Lend"
       orient="auto"
       refY="0"
       refX="0"
       id="Arrow2Lend"
       style="overflow:visible">
      <path
         inkscape:connector-curvature="0"
         id="path11637"
         style="font-size:12px;fill-rule:evenodd;stroke-width:0.625;stroke-linejoin:round"
         d="M 8.7185878,4.0337352 -2.2072895,0.01601326 8.7185884,-4.0017078 c -1.7454984,2.3720609 -1.7354408,5.6174519 -6e-7,8.035443 z"
         transform="matrix(-1.1,0,0,-1.1,-1.1,0)" />
    </marker>
    <marker
       inkscape:stockid="Arrow2Lstart"
       orient="auto"
       refY="0"
       refX="0"
       id="Arrow2Lstart"
       style="overflow:visible">
      <path
         inkscape:connector-curvature="0"
         id="path11634"
         style="font-size:12px;fill-rule:evenodd;stroke-width:0.625;stroke-linejoin:round"
         d="M 8.7185878,4.0337352 -2.2072895,0.01601326 8.7185884,-4.0017078 c -1.7454984,2.3720609 -1.7354408,5.6174519 -6e-7,8.035443 z"
         transform="matrix(1.1,0,0,1.1,1.1,0)" />
    </marker>
    <marker
       inkscape:stockid="Arrow2Lend4"
       orient="auto"
       refY="0"
       refX="0"
       id="Arrow2Lend4"
       style="overflow:visible">
      <path
         inkscape:connector-curvature="0"
         id="path15603"
         style="font-size:12px;fill:#008000;fill-rule:evenodd;stroke:#008000;stroke-width:0.625;stroke-linejoin:round"
         d="M 8.7185878,4.0337352 -2.2072895,0.01601326 8.7185884,-4.0017078 c -1.7454984,2.3720609 -1.7354408,5.6174519 -6e-7,8.035443 z"
         transform="matrix(-1.1,0,0,-1.1,-1.1,0)" />
    </marker>
    <marker
       inkscape:stockid="Arrow2Lend"
       orient="auto"
       refY="0"
       refX="0"
       id="Arrow2Lend-5"
       style="overflow:visible">
      <path
         id="path11637-3"
         style="font-size:12px;fill-rule:evenodd;stroke-width:0.625;stroke-linejoin:round"
         d="M 8.7185878,4.0337352 -2.2072895,0.01601326 8.7185884,-4.0017078 c -1.7454984,2.3720609 -1.7354408,5.6174519 -6e-7,8.035443 z"
         transform="matrix(-1.1,0,0,-1.1,-1.1,0)"
         inkscape:connector-curvature="0" />
    </marker>
    <marker
       inkscape:stockid="Arrow2Lend"
       orient="auto"
       refY="0"
       refX="0"
       id="Arrow2Lend-0"
       style="overflow:visible">
      <path
         id="path11637-1"
         style="font-size:12px;fill-rule:evenodd;stroke-width:0.625;stroke-linejoin:round"
         d="M 8.7185878,4.0337352 -2.2072895,0.01601326 8.7185884,-4.0017078 c -1.7454984,2.3720609 -1.7354408,5.6174519 -6e-7,8.035443 z"
         transform="matrix(-1.1,0,0,-1.1,-1.1,0)"
         inkscape:connector-curvature="0" />
    </marker>
    <marker
       inkscape:stockid="Arrow2Lstart"
       orient="auto"
       refY="0"
       refX="0"
       id="Arrow2Lstart-8"
       style="overflow:visible">
      <path
         inkscape:connector-curvature="0"
         id="path11634-9"
         style="font-size:12px;fill-rule:evenodd;stroke-width:0.625;stroke-linejoin:round"
         d="M 8.7185878,4.0337352 -2.2072895,0.01601326 8.7185884,-4.0017078 c -1.7454984,2.3720609 -1.7354408,5.6174519 -6e-7,8.035443 z"
         transform="matrix(1.1,0,0,1.1,1.1,0)" />
    </marker>
    <marker
       inkscape:stockid="Arrow2Lend"
       orient="auto"
       refY="0"
       refX="0"
       id="Arrow2Lend-03"
       style="overflow:visible">
      <path
         inkscape:connector-curvature="0"
         id="path11637-6"
         style="font-size:12px;fill-rule:evenodd;stroke-width:0.625;stroke-linejoin:round"
         d="M 8.7185878,4.0337352 -2.2072895,0.01601326 8.7185884,-4.0017078 c -1.7454984,2.3720609 -1.7354408,5.6174519 -6e-7,8.035443 z"
         transform="matrix(-1.1,0,0,-1.1,-1.1,0)" />
    </marker>
    <marker
       style="overflow:visible"
       id="Arrow2Mstart-8"
       refX="0"
       refY="0"
       orient="auto"
       inkscape:stockid="Arrow2Mstart">
      <path
         transform="scale(0.6)"
         d="M 8.7185878,4.0337352 -2.2072895,0.01601326 8.7185884,-4.0017078 c -1.7454984,2.3720609 -1.7354408,5.6174519 -6e-7,8.035443 z"
         style="font-size:12px;fill-rule:evenodd;stroke-width:0.625;stroke-linejoin:round"
         id="path3790-7"
         inkscape:connector-curvature="0" />
    </marker>
    <marker
       style="overflow:visible"
       id="Arrow2Mend-2"
       refX="0"
       refY="0"
       orient="auto"
       inkscape:stockid="Arrow2Mend">
      <path
         transform="scale(-0.6)"
         d="M 8.7185878,4.0337352 -2.2072895,0.01601326 8.7185884,-4.0017078 c -1.7454984,2.3720609 -1.7354408,5.6174519 -6e-7,8.035443 z"
         style="font-size:12px;fill-rule:evenodd;stroke-width:0.625;stroke-linejoin:round"
         id="path3793-9"
         inkscape:connector-curvature="0" />
    </marker>
    <marker
       style="overflow:visible"
       id="Arrow2Mstart-8-0"
       refX="0"
       refY="0"
       orient="auto"
       inkscape:stockid="Arrow2Mstart">
      <path
         transform="scale(0.6)"
         d="M 8.7185878,4.0337352 -2.2072895,0.01601326 8.7185884,-4.0017078 c -1.7454984,2.3720609 -1.7354408,5.6174519 -6e-7,8.035443 z"
         style="font-size:12px;fill-rule:evenodd;stroke-width:0.625;stroke-linejoin:round"
         id="path3790-7-5"
         inkscape:connector-curvature="0" />
    </marker>
    <marker
       style="overflow:visible"
       id="Arrow2Mend-2-2"
       refX="0"
       refY="0"
       orient="auto"
       inkscape:stockid="Arrow2Mend">
      <path
         transform="scale(-0.6)"
         d="M 8.7185878,4.0337352 -2.2072895,0.01601326 8.7185884,-4.0017078 c -1.7454984,2.3720609 -1.7354408,5.6174519 -6e-7,8.035443 z"
         style="font-size:12px;fill-rule:evenodd;stroke-width:0.625;stroke-linejoin:round"
         id="path3793-9-7"
         inkscape:connector-curvature="0" />
    </marker>
    <marker
       inkscape:stockid="Arrow2Lstart"
       orient="auto"
       refY="0"
       refX="0"
       id="Arrow2Lstart-7"
       style="overflow:visible">
      <path
         inkscape:connector-curvature="0"
         id="path3176"
         style="font-size:12px;fill-rule:evenodd;stroke-width:0.625;stroke-linejoin:round"
         d="M 8.7185878,4.0337352 -2.2072895,0.01601326 8.7185884,-4.0017078 c -1.7454984,2.3720609 -1.7354408,5.6174519 -6e-7,8.035443 z"
         transform="matrix(1.1,0,0,1.1,1.1,0)" />
    </marker>
    <marker
       style="overflow:visible"
       id="Arrow2Lend-6"
       refX="0"
       refY="0"
       orient="auto"
       inkscape:stockid="Arrow2Lend">
      <path
         inkscape:connector-curvature="0"
         transform="matrix(-1.1,0,0,-1.1,-1.1,0)"
         d="M 8.7185878,4.0337352 -2.2072895,0.01601326 8.7185884,-4.0017078 c -1.7454984,2.3720609 -1.7354408,5.6174519 -6e-7,8.035443 z"
         style="font-size:12px;fill-rule:evenodd;stroke-width:0.625;stroke-linejoin:round"
         id="path3179" />
    </marker>
    <radialGradient
       inkscape:collect="always"
       xlink:href="#linearGradient12834-0"
       id="radialGradient12840-9"
       cx="271.58548"
       cy="-285.18103"
       fx="271.58548"
       fy="-285.18103"
       r="186.54291"
       gradientTransform="matrix(1,0,0,0.23510469,-16.42857,-211.70509)"
       gradientUnits="userSpaceOnUse" />
    <linearGradient
       id="linearGradient12834-0">
      <stop
         style="stop-color:#ff0000;stop-opacity:0.12666667;"
         offset="0"
         id="stop12836-7" />
      <stop
         style="stop-color:#ff0000;stop-opacity:0.27333334;"
         offset="1"
         id="stop12838-6" />
    </linearGradient>
    <radialGradient
       inkscape:collect="always"
       xlink:href="#linearGradient13977"
       id="radialGradient263679"
       gradientUnits="userSpaceOnUse"
       cx="-210"
       cy="1110.5107"
       fx="-210"
       fy="1110.5107"
       r="15.75" />
    <linearGradient
       id="linearGradient13977">
      <stop
         style="stop-color:#ff0000;stop-opacity:1;"
         offset="0"
         id="stop13979" />
      <stop
         id="stop13985"
         offset="0.80681819"
         style="stop-color:#ff0000;stop-opacity:0.49803922;" />
      <stop
         style="stop-color:#ff0000;stop-opacity:0;"
         offset="1"
         id="stop13981" />
    </linearGradient>
    <radialGradient
       r="15.75"
       fy="1110.5107"
       fx="-210"
       cy="1110.5107"
       cx="-210"
       gradientUnits="userSpaceOnUse"
       id="radialGradient9611"
       xlink:href="#linearGradient13977"
       inkscape:collect="always" />
    <linearGradient
       inkscape:collect="always"
       id="linearGradient323969">
      <stop
         style="stop-color:#ff0000;stop-opacity:1;"
         offset="0"
         id="stop323971" />
      <stop
         style="stop-color:#ff0000;stop-opacity:0;"
         offset="1"
         id="stop323973" />
    </linearGradient>
    <radialGradient
       inkscape:collect="always"
       xlink:href="#linearGradient323969"
       id="radialGradient44515"
       gradientUnits="userSpaceOnUse"
       gradientTransform="matrix(0.50281696,-0.0641096,0.03641397,0.28559781,131.46079,-23.351102)"
       cx="308.73184"
       cy="290.90378"
       fx="308.73184"
       fy="290.90378"
       r="17.033045" />
  </defs>
  <metadata
     id="metadata3312">
    <rdf:RDF>
      <cc:Work
         rdf:about="">
        <dc:format>image/svg+xml</dc:format>
        <dc:type
           rdf:resource="http://purl.org/dc/dcmitype/StillImage" />
        <dc:title></dc:title>
      </cc:Work>
    </rdf:RDF>
  </metadata>
  <g
     transform="translate(17.651739,286.62448)"
     inkscape:label="Layer 1"
     inkscape:groupmode="layer"
     id="layer1">
    <image
       sodipodi:absref="/home/jbs/Dropbox/UiO/Phd/Articles/ThesisJo/gfx/scenario_interference0001.png"
       xlink:href="scenario_interference0001.png"
       y="-330.12445"
       x="-35.723164"
       id="image9592"
       height="512"
       width="683.14606" />
    <image
       sodipodi:absref="/home/jbs/Dropbox/UiO/Phd/Articles/ThesisJo/gfx/happy_fish.png"
       xlink:href="happy_fish.png"
       y="-35.635162"
       x="162.81227"
       id="image12979"
       height="56.000004"
       width="74.666672" />
    <path
       style="fill:none;stroke:#000000;stroke-width:0.94973868;stroke-linecap:butt;stroke-linejoin:miter;stroke-miterlimit:4;stroke-dasharray:1.89947727, 1.89947727;stroke-dashoffset:0;stroke-opacity:1"
       d="M 297.85777,-85.6987 297.47896,39.612032"
       id="path18248"
       inkscape:connector-curvature="0"
       sodipodi:nodetypes="cc" />
    <path
       style="fill:none;stroke:#000000;stroke-width:0.99999994;stroke-linecap:butt;stroke-linejoin:miter;stroke-miterlimit:4;stroke-dasharray:1.99999998, 1.99999998;stroke-dashoffset:0;stroke-opacity:1"
       d="m 240.85753,-95.75399 -23.37858,70.118831"
       id="path18248-0"
       inkscape:connector-curvature="0"
       sodipodi:nodetypes="cc" />
    <circle
       style="fill:url(#radialGradient9611);fill-opacity:1;stroke:none"
       id="path13975"
       transform="matrix(0.66666674,0,0,0.66666674,438.35452,-993.901)"
       cx="-210"
       cy="1110.5107"
       r="15" />
    <path
       sodipodi:nodetypes="cc"
       inkscape:connector-curvature="0"
       id="path176746"
       d="M 325.92258,59.145431 346.20515,44.971088"
       style="fill:none;stroke:#000000;stroke-width:0.74814242px;stroke-linecap:butt;stroke-linejoin:miter;stroke-opacity:1" />
    <path
       sodipodi:nodetypes="cc"
       inkscape:connector-curvature="0"
       id="path177368"
       d="M 352.13762,116.56593 418.93368,47.847935"
       style="fill:none;stroke:#000000;stroke-width:0.74814242px;stroke-linecap:butt;stroke-linejoin:miter;stroke-opacity:1" />
    <path
       sodipodi:nodetypes="cc"
       inkscape:connector-curvature="0"
       id="path177370"
       d="M 158.85683,103.60266 273.36764,44.63888"
       style="fill:none;stroke:#000000;stroke-width:0.74814242px;stroke-linecap:butt;stroke-linejoin:miter;stroke-opacity:1" />
    <path
       sodipodi:nodetypes="cc"
       inkscape:connector-curvature="0"
       id="path176746-2"
       d="M 206.2942,106.75943 255.49634,77.155385"
       style="fill:none;stroke:#000000;stroke-width:0.74814242px;stroke-linecap:butt;stroke-linejoin:miter;stroke-opacity:1" />
    <path
       sodipodi:nodetypes="cc"
       inkscape:connector-curvature="0"
       id="path177368-0"
       d="M 305.73457,113.40722 383.084,46.697197"
       style="fill:none;stroke:#000000;stroke-width:0.74814242px;stroke-linecap:butt;stroke-linejoin:miter;stroke-opacity:1" />
    <path
       sodipodi:nodetypes="cc"
       inkscape:connector-curvature="0"
       id="path177370-1"
       d="M 110.00895,100.01482 242.42976,40.943499"
       style="fill:none;stroke:#000000;stroke-width:0.74814242px;stroke-linecap:butt;stroke-linejoin:miter;stroke-opacity:1" />
    <path
       sodipodi:nodetypes="cc"
       inkscape:connector-curvature="0"
       id="path177368-8"
       d="M 401.09461,119.5774 456.32713,49.190465"
       style="fill:none;stroke:#000000;stroke-width:0.74814242px;stroke-linecap:butt;stroke-linejoin:miter;stroke-opacity:1" />
    <path
       sodipodi:nodetypes="cc"
       inkscape:connector-curvature="0"
       id="path176746-6"
       d="M 231.71476,108.4479 267.89703,84.465824"
       style="fill:none;stroke:#000000;stroke-width:0.74814242px;stroke-linecap:butt;stroke-linejoin:miter;stroke-opacity:1" />
    <path
       sodipodi:nodetypes="cc"
       inkscape:connector-curvature="0"
       id="path177368-5"
       d="M 328.20612,114.94844 400.21763,47.349275"
       style="fill:none;stroke:#000000;stroke-width:0.74814242px;stroke-linecap:butt;stroke-linejoin:miter;stroke-opacity:1" />
    <path
       sodipodi:nodetypes="cc"
       inkscape:connector-curvature="0"
       id="path177370-6"
       d="M 134.7434,101.95126 259.9879,41.527774"
       style="fill:none;stroke:#000000;stroke-width:0.74814242px;stroke-linecap:butt;stroke-linejoin:miter;stroke-opacity:1" />
    <path
       sodipodi:nodetypes="cc"
       inkscape:connector-curvature="0"
       id="path176746-2-6"
       d="M 183.33303,105.14194 262.24651,61.059303"
       style="fill:none;stroke:#000000;stroke-width:0.74814248px;stroke-linecap:butt;stroke-linejoin:miter;stroke-opacity:1" />
    <path
       sodipodi:nodetypes="cc"
       inkscape:connector-curvature="0"
       id="path177368-0-8"
       d="M 332.30619,70.970943 364.48924,45.791694"
       style="fill:none;stroke:#000000;stroke-width:0.74814242px;stroke-linecap:butt;stroke-linejoin:miter;stroke-opacity:1" />
    <path
       sodipodi:nodetypes="cc"
       inkscape:connector-curvature="0"
       id="path177370-1-0"
       d="M 87.957445,98.77027 225.83628,40.512653"
       style="fill:none;stroke:#000000;stroke-width:0.74814242px;stroke-linecap:butt;stroke-linejoin:miter;stroke-opacity:1" />
    <path
       sodipodi:nodetypes="cc"
       inkscape:connector-curvature="0"
       id="path177368-8-9"
       d="M 376.73858,117.926 437.73237,48.793518"
       style="fill:none;stroke:#000000;stroke-width:0.74814242px;stroke-linecap:butt;stroke-linejoin:miter;stroke-opacity:1" />
    <path
       sodipodi:nodetypes="cc"
       inkscape:connector-curvature="0"
       id="path177368-8-0"
       d="M 423.83155,121.11845 474.21249,50.189044"
       style="fill:none;stroke:#000000;stroke-width:0.74814242px;stroke-linecap:butt;stroke-linejoin:miter;stroke-opacity:1" />
    <path
       sodipodi:nodetypes="cc"
       inkscape:connector-curvature="0"
       id="path177498"
       d="m 334.26187,76.317102 136.5923,8.52295"
       style="fill:none;stroke:#000000;stroke-width:0.74814242px;stroke-linecap:butt;stroke-linejoin:miter;stroke-opacity:1" />
    <path
       inkscape:connector-curvature="0"
       id="path177500"
       d="m 324.9233,57.61475 157.81938,9.412188"
       style="fill:none;stroke:#000000;stroke-width:0.74814242px;stroke-linecap:butt;stroke-linejoin:miter;stroke-opacity:1" />
    <path
       inkscape:connector-curvature="0"
       id="path177502"
       d="M 111.5527,79.109709 457.3563,103.85062"
       style="fill:none;stroke:#000000;stroke-width:0.74814242px;stroke-linecap:butt;stroke-linejoin:miter;stroke-opacity:1" />
    <path
       inkscape:connector-curvature="0"
       id="path177504"
       d="m 321.1419,49.865338 167.08973,8.53105"
       style="fill:none;stroke:#000000;stroke-width:0.74814242px;stroke-linecap:butt;stroke-linejoin:miter;stroke-opacity:1" />
    <path
       inkscape:connector-curvature="0"
       id="path177506"
       d="m 329.96324,66.48583 146.60438,9.747026"
       style="fill:none;stroke:#000000;stroke-width:0.74814242px;stroke-linecap:butt;stroke-linejoin:miter;stroke-opacity:1" />
    <path
       inkscape:connector-curvature="0"
       id="path177510"
       d="M 89.939969,87.740258 451.18124,114.39907"
       style="fill:none;stroke:#000000;stroke-width:0.74814242px;stroke-linecap:butt;stroke-linejoin:miter;stroke-opacity:1" />
    <path
       style="fill:none;stroke:#000000;stroke-width:0.74814242px;stroke-linecap:butt;stroke-linejoin:miter;stroke-opacity:1"
       d="M 317.24691,43.875031 493.16953,51.089966 444.92683,122.81144 65.417664,97.239435 215.50603,39.702436 l 59.85759,2.454878"
       id="path444367"
       inkscape:connector-curvature="0"
       sodipodi:nodetypes="cccccc" />
    <path
       inkscape:connector-curvature="0"
       id="path279896"
       d="m 277.94765,40.450223 18.18638,-5.292574 20.52506,4.061472 -17.25713,5.628661 z"
       style="fill:url(#radialGradient44515);fill-opacity:1;stroke:none"
       sodipodi:nodetypes="ccccc" />
    <path
       sodipodi:nodetypes="cc"
       inkscape:connector-curvature="0"
       id="path176746-7"
       d="M 254.49401,109.82807 286.23438,87.523765"
       style="fill:none;stroke:#000000;stroke-width:0.74814242px;stroke-linecap:butt;stroke-linejoin:miter;stroke-opacity:1" />
    <path
       inkscape:connector-curvature="0"
       id="path177506-2"
       d="m 173.30334,55.327745 89.15713,5.655351"
       style="fill:none;stroke:#000000;stroke-width:0.74814242px;stroke-linecap:butt;stroke-linejoin:miter;stroke-opacity:1" />
    <path
       sodipodi:nodetypes="cc"
       inkscape:connector-curvature="0"
       id="path177498-9"
       d="M 151.13448,63.955185 256.6198,70.378276"
       style="fill:none;stroke:#000000;stroke-width:0.74814242px;stroke-linecap:butt;stroke-linejoin:miter;stroke-opacity:1" />
    <path
       inkscape:connector-curvature="0"
       id="path177508-4"
       d="M 325.47884,85.123704 463.8744,95.028277"
       style="fill:none;stroke:#000000;stroke-width:0.74814242px;stroke-linecap:butt;stroke-linejoin:miter;stroke-opacity:1" />
    <path
       inkscape:connector-curvature="0"
       id="path177500-9"
       d="m 190.4563,48.998679 66.54904,3.563975"
       style="fill:none;stroke:#000000;stroke-width:0.74814242px;stroke-linecap:butt;stroke-linejoin:miter;stroke-opacity:1" />
    <path
       inkscape:connector-curvature="0"
       id="path177504-6"
       d="m 204.86479,43.436767 67.76967,3.039977"
       style="fill:none;stroke:#000000;stroke-width:0.74814242px;stroke-linecap:butt;stroke-linejoin:miter;stroke-opacity:1" />
    <path
       inkscape:connector-curvature="0"
       id="path177508-4-9"
       d="m 134.19462,70.479159 122.7155,8.704122"
       style="fill:none;stroke:#000000;stroke-width:0.74814242px;stroke-linecap:butt;stroke-linejoin:miter;stroke-opacity:1" />
    <path
       sodipodi:nodetypes="cc"
       inkscape:connector-curvature="0"
       id="path177368-0-8-6"
       d="M 280.59017,111.68801 311.67428,87.373981"
       style="fill:none;stroke:#000000;stroke-width:0.74814242px;stroke-linecap:butt;stroke-linejoin:miter;stroke-opacity:1" />
    <image
       sodipodi:absref="/home/jbs/Dropbox/UiO/Phd/Articles/ThesisJo/gfx/../../ASA2013/presentation/gfx/scenario_das_resp.png"
       xlink:href="../../ASA2013/presentation/gfx/scenario_das_resp.png"
       y="-257.8385"
       x="105.51038"
       id="image45558"
       height="191.89957"
       width="385.95532" />
    <g
       id="g5214"
       transform="matrix(1.3442846,0,0,1.3442846,-252.82463,-197.77038)"
       ns0:preamble=""
       ns0:text="Strong interference\\\\ at 20 degrees"
       style="stroke-width:1.66666663">
      <defs
         id="defs5141">
        <g
           id="g5139">
          <symbol
             id="textext-5ddbe569-0"
             overflow="visible"
             style="overflow:visible">
            <path
               id="path5091"
               d=""
               style="stroke:none"
               inkscape:connector-curvature="0" />
          </symbol>
          <symbol
             id="textext-5ddbe569-1"
             overflow="visible"
             style="overflow:visible">
            <path
               id="path5094"
               d="m 3.484375,-3.875 -1.28125,-0.296875 c -0.625,-0.15625 -1,-0.6875 -1,-1.265625 0,-0.703125 0.53125,-1.3125 1.3125,-1.3125 1.65625,0 1.875,1.640625 1.9375,2.078125 0.015625,0.0625 0.015625,0.125 0.125,0.125 0.125,0 0.125,-0.046875 0.125,-0.234375 v -2 c 0,-0.171875 0,-0.25 -0.109375,-0.25 -0.0625,0 -0.078125,0.015625 -0.140625,0.140625 l -0.359375,0.5625 C 3.796875,-6.625 3.390625,-7.03125 2.5,-7.03125 c -1.109375,0 -1.9375,0.875 -1.9375,1.9375 0,0.828125 0.53125,1.5625 1.296875,1.828125 0.109375,0.03125 0.625,0.15625 1.328125,0.328125 0.265625,0.0625 0.5625,0.140625 0.84375,0.5 0.203125,0.265625 0.3125,0.59375 0.3125,0.921875 0,0.703125 -0.5,1.421875 -1.34375,1.421875 -0.28125,0 -1.046875,-0.046875 -1.578125,-0.53125 C 0.84375,-1.171875 0.8125,-1.796875 0.8125,-2.15625 0.796875,-2.265625 0.71875,-2.265625 0.6875,-2.265625 c -0.125,0 -0.125,0.078125 -0.125,0.25 v 2 c 0,0.171875 0,0.234375 0.109375,0.234375 0.0625,0 0.078125,-0.015625 0.140625,-0.125 0,-0.015625 0.03125,-0.046875 0.359375,-0.578125 0.3125,0.34375 0.953125,0.703125 1.84375,0.703125 1.15625,0 1.953125,-0.96875 1.953125,-2.078125 0,-0.984375 -0.65625,-1.8125 -1.484375,-2.015625 z m 0,0"
               style="stroke:none"
               inkscape:connector-curvature="0" />
          </symbol>
          <symbol
             id="textext-5ddbe569-2"
             overflow="visible"
             style="overflow:visible">
            <path
               id="path5097"
               d="m 1.71875,-3.984375 h 1.4375 v -0.3125 H 1.71875 V -6.125 h -0.25 c 0,0.8125 -0.296875,1.875 -1.28125,1.921875 v 0.21875 h 0.84375 v 2.75 c 0,1.21875 0.9375,1.34375 1.296875,1.34375 0.703125,0 0.984375,-0.703125 0.984375,-1.34375 v -0.5625 h -0.25 V -1.25 c 0,0.734375 -0.296875,1.109375 -0.671875,1.109375 -0.671875,0 -0.671875,-0.90625 -0.671875,-1.078125 z m 0,0"
               style="stroke:none"
               inkscape:connector-curvature="0" />
          </symbol>
          <symbol
             id="textext-5ddbe569-3"
             overflow="visible"
             style="overflow:visible">
            <path
               id="path5100"
               d="M 1.671875,-3.3125 V -4.40625 L 0.28125,-4.296875 v 0.3125 c 0.703125,0 0.78125,0.0625 0.78125,0.5625 V -0.75 c 0,0.4375 -0.109375,0.4375 -0.78125,0.4375 V 0 c 0.390625,-0.015625 0.859375,-0.03125 1.140625,-0.03125 0.390625,0 0.859375,0 1.265625,0.03125 V -0.3125 H 2.46875 c -0.734375,0 -0.75,-0.109375 -0.75,-0.46875 V -2.3125 c 0,-0.984375 0.421875,-1.875 1.171875,-1.875 0.0625,0 0.09375,0 0.109375,0.015625 -0.03125,0 -0.234375,0.125 -0.234375,0.390625 0,0.265625 0.21875,0.421875 0.4375,0.421875 0.171875,0 0.421875,-0.125 0.421875,-0.4375 0,-0.3125 -0.3125,-0.609375 -0.734375,-0.609375 -0.734375,0 -1.09375,0.671875 -1.21875,1.09375 z m 0,0"
               style="stroke:none"
               inkscape:connector-curvature="0" />
          </symbol>
          <symbol
             id="textext-5ddbe569-4"
             overflow="visible"
             style="overflow:visible">
            <path
               id="path5103"
               d="M 4.6875,-2.140625 C 4.6875,-3.40625 3.703125,-4.46875 2.5,-4.46875 c -1.25,0 -2.21875,1.09375 -2.21875,2.328125 0,1.296875 1.03125,2.25 2.203125,2.25 1.203125,0 2.203125,-0.984375 2.203125,-2.25 z m -2.1875,2 c -0.4375,0 -0.875,-0.203125 -1.140625,-0.671875 -0.25,-0.4375 -0.25,-1.046875 -0.25,-1.40625 0,-0.390625 0,-0.921875 0.234375,-1.359375 C 1.609375,-4.03125 2.078125,-4.25 2.484375,-4.25 c 0.4375,0 0.859375,0.21875 1.125,0.65625 0.265625,0.421875 0.265625,1 0.265625,1.375 0,0.359375 0,0.90625 -0.21875,1.34375 C 3.421875,-0.421875 2.984375,-0.140625 2.5,-0.140625 Z m 0,0"
               style="stroke:none"
               inkscape:connector-curvature="0" />
          </symbol>
          <symbol
             id="textext-5ddbe569-5"
             overflow="visible"
             style="overflow:visible">
            <path
               id="path5106"
               d="M 1.09375,-3.421875 V -0.75 c 0,0.4375 -0.109375,0.4375 -0.78125,0.4375 V 0 c 0.359375,-0.015625 0.859375,-0.03125 1.140625,-0.03125 0.25,0 0.765625,0.015625 1.109375,0.03125 v -0.3125 c -0.671875,0 -0.78125,0 -0.78125,-0.4375 V -2.59375 C 1.78125,-3.625 2.5,-4.1875 3.125,-4.1875 c 0.640625,0 0.75,0.53125 0.75,1.109375 V -0.75 c 0,0.4375 -0.109375,0.4375 -0.78125,0.4375 V 0 c 0.34375,-0.015625 0.859375,-0.03125 1.125,-0.03125 0.25,0 0.78125,0.015625 1.109375,0.03125 v -0.3125 c -0.515625,0 -0.765625,0 -0.765625,-0.296875 v -1.90625 c 0,-0.859375 0,-1.15625 -0.3125,-1.515625 -0.140625,-0.171875 -0.46875,-0.375 -1.046875,-0.375 C 2.46875,-4.40625 2,-3.984375 1.71875,-3.359375 V -4.40625 L 0.3125,-4.296875 v 0.3125 c 0.703125,0 0.78125,0.0625 0.78125,0.5625 z m 0,0"
               style="stroke:none"
               inkscape:connector-curvature="0" />
          </symbol>
          <symbol
             id="textext-5ddbe569-6"
             overflow="visible"
             style="overflow:visible">
            <path
               id="path5109"
               d="m 2.21875,-1.71875 c -0.875,0 -0.875,-1 -0.875,-1.21875 0,-0.265625 0.015625,-0.59375 0.15625,-0.84375 0.078125,-0.109375 0.3125,-0.390625 0.71875,-0.390625 0.859375,0 0.859375,0.984375 0.859375,1.21875 0,0.265625 0,0.59375 -0.15625,0.84375 C 2.84375,-2 2.609375,-1.71875 2.21875,-1.71875 Z M 1.0625,-1.328125 c 0,-0.03125 0,-0.265625 0.15625,-0.46875 0.390625,0.28125 0.8125,0.3125 1,0.3125 0.921875,0 1.609375,-0.6875 1.609375,-1.453125 0,-0.375 -0.15625,-0.734375 -0.40625,-0.96875 C 3.78125,-4.25 4.140625,-4.296875 4.3125,-4.296875 c 0.03125,0 0.078125,0 0.109375,0.015625 C 4.3125,-4.25 4.25,-4.140625 4.25,-4.015625 c 0,0.171875 0.140625,0.28125 0.296875,0.28125 0.09375,0 0.28125,-0.0625 0.28125,-0.296875 0,-0.171875 -0.109375,-0.484375 -0.5,-0.484375 -0.203125,0 -0.640625,0.0625 -1.0625,0.46875 C 2.84375,-4.375 2.4375,-4.40625 2.21875,-4.40625 c -0.9375,0 -1.625,0.6875 -1.625,1.453125 0,0.4375 0.21875,0.8125 0.46875,1.03125 -0.125,0.140625 -0.3125,0.46875 -0.3125,0.828125 0,0.3125 0.140625,0.6875 0.453125,0.890625 -0.609375,0.15625 -0.921875,0.59375 -0.921875,0.984375 0,0.71875 0.984375,1.265625 2.203125,1.265625 1.171875,0 2.203125,-0.5 2.203125,-1.28125 0,-0.34375 -0.125,-0.859375 -0.640625,-1.140625 -0.53125,-0.265625 -1.109375,-0.265625 -1.71875,-0.265625 -0.25,0 -0.671875,0 -0.75,-0.015625 C 1.265625,-0.703125 1.0625,-1 1.0625,-1.328125 Z M 2.5,1.828125 c -1.015625,0 -1.703125,-0.515625 -1.703125,-1.046875 0,-0.453125 0.375,-0.828125 0.8125,-0.84375 h 0.59375 c 0.859375,0 1.96875,0 1.96875,0.84375 0,0.546875 -0.703125,1.046875 -1.671875,1.046875 z m 0,0"
               style="stroke:none"
               inkscape:connector-curvature="0" />
          </symbol>
          <symbol
             id="textext-5ddbe569-7"
             overflow="visible"
             style="overflow:visible">
            <path
               id="path5112"
               d="M 1.765625,-4.40625 0.375,-4.296875 v 0.3125 c 0.640625,0 0.734375,0.0625 0.734375,0.546875 V -0.75 c 0,0.4375 -0.109375,0.4375 -0.78125,0.4375 V 0 C 0.640625,-0.015625 1.1875,-0.03125 1.421875,-0.03125 1.78125,-0.03125 2.125,-0.015625 2.46875,0 v -0.3125 c -0.671875,0 -0.703125,-0.046875 -0.703125,-0.4375 z m 0.03125,-1.734375 c 0,-0.3125 -0.234375,-0.53125 -0.515625,-0.53125 -0.3125,0 -0.53125,0.265625 -0.53125,0.53125 0,0.265625 0.21875,0.53125 0.53125,0.53125 0.28125,0 0.515625,-0.21875 0.515625,-0.53125 z m 0,0"
               style="stroke:none"
               inkscape:connector-curvature="0" />
          </symbol>
          <symbol
             id="textext-5ddbe569-8"
             overflow="visible"
             style="overflow:visible">
            <path
               id="path5115"
               d="M 1.109375,-2.515625 C 1.171875,-4 2.015625,-4.25 2.359375,-4.25 c 1.015625,0 1.125,1.34375 1.125,1.734375 z m 0,0.21875 h 2.78125 c 0.21875,0 0.25,0 0.25,-0.21875 0,-0.984375 -0.546875,-1.953125 -1.78125,-1.953125 -1.15625,0 -2.078125,1.03125 -2.078125,2.28125 0,1.328125 1.046875,2.296875 2.1875,2.296875 C 3.6875,0.109375 4.140625,-1 4.140625,-1.1875 4.140625,-1.28125 4.0625,-1.3125 4,-1.3125 c -0.078125,0 -0.109375,0.0625 -0.125,0.140625 -0.34375,1.03125 -1.25,1.03125 -1.34375,1.03125 -0.5,0 -0.890625,-0.296875 -1.125,-0.671875 -0.296875,-0.46875 -0.296875,-1.125 -0.296875,-1.484375 z m 0,0"
               style="stroke:none"
               inkscape:connector-curvature="0" />
          </symbol>
          <symbol
             id="textext-5ddbe569-9"
             overflow="visible"
             style="overflow:visible">
            <path
               id="path5118"
               d="m 1.75,-4.296875 v -1.15625 c 0,-0.875 0.46875,-1.359375 0.90625,-1.359375 0.03125,0 0.1875,0 0.328125,0.078125 C 2.875,-6.703125 2.6875,-6.5625 2.6875,-6.3125 c 0,0.21875 0.15625,0.421875 0.4375,0.421875 0.28125,0 0.4375,-0.203125 0.4375,-0.4375 0,-0.375 -0.375,-0.703125 -0.90625,-0.703125 -0.6875,0 -1.546875,0.53125 -1.546875,1.59375 v 1.140625 h -0.78125 v 0.3125 h 0.78125 V -0.75 C 1.109375,-0.3125 1,-0.3125 0.34375,-0.3125 V 0 c 0.390625,-0.015625 0.859375,-0.03125 1.125,-0.03125 0.40625,0 0.875,0 1.265625,0.03125 V -0.3125 H 2.53125 c -0.734375,0 -0.75,-0.109375 -0.75,-0.46875 v -3.203125 h 1.125 v -0.3125 z m 0,0"
               style="stroke:none"
               inkscape:connector-curvature="0" />
          </symbol>
          <symbol
             id="textext-5ddbe569-10"
             overflow="visible"
             style="overflow:visible">
            <path
               id="path5121"
               d="m 1.171875,-2.171875 c 0,-1.625 0.8125,-2.046875 1.34375,-2.046875 0.09375,0 0.71875,0.015625 1.0625,0.375 -0.40625,0.03125 -0.46875,0.328125 -0.46875,0.453125 0,0.265625 0.1875,0.453125 0.453125,0.453125 0.265625,0 0.46875,-0.15625 0.46875,-0.46875 0,-0.671875 -0.765625,-1.0625 -1.53125,-1.0625 -1.25,0 -2.15625,1.078125 -2.15625,2.3125 0,1.28125 0.984375,2.265625 2.140625,2.265625 1.328125,0 1.65625,-1.203125 1.65625,-1.296875 0,-0.09375 -0.109375,-0.09375 -0.140625,-0.09375 -0.078125,0 -0.109375,0.03125 -0.125,0.09375 -0.28125,0.921875 -0.9375,1.046875 -1.296875,1.046875 -0.53125,0 -1.40625,-0.421875 -1.40625,-2.03125 z m 0,0"
               style="stroke:none"
               inkscape:connector-curvature="0" />
          </symbol>
          <symbol
             id="textext-5ddbe569-11"
             overflow="visible"
             style="overflow:visible">
            <path
               id="path5124"
               d="m 3.3125,-0.75 c 0.046875,0.390625 0.3125,0.8125 0.78125,0.8125 0.21875,0 0.828125,-0.140625 0.828125,-0.953125 v -0.5625 h -0.25 v 0.5625 c 0,0.578125 -0.25,0.640625 -0.359375,0.640625 -0.328125,0 -0.375,-0.453125 -0.375,-0.5 v -1.984375 c 0,-0.421875 0,-0.8125 -0.359375,-1.1875 C 3.1875,-4.3125 2.6875,-4.46875 2.21875,-4.46875 c -0.828125,0 -1.515625,0.46875 -1.515625,1.125 0,0.296875 0.203125,0.46875 0.46875,0.46875 0.28125,0 0.453125,-0.203125 0.453125,-0.453125 0,-0.125 -0.046875,-0.453125 -0.515625,-0.453125 C 1.390625,-4.140625 1.875,-4.25 2.1875,-4.25 c 0.5,0 1.0625,0.390625 1.0625,1.28125 v 0.359375 c -0.515625,0.03125 -1.203125,0.0625 -1.828125,0.359375 -0.75,0.34375 -1,0.859375 -1,1.296875 0,0.8125 0.96875,1.0625 1.59375,1.0625 0.65625,0 1.109375,-0.40625 1.296875,-0.859375 z M 3.25,-2.390625 v 1 c 0,0.9375 -0.71875,1.28125 -1.171875,1.28125 -0.484375,0 -0.890625,-0.34375 -0.890625,-0.84375 0,-0.546875 0.421875,-1.375 2.0625,-1.4375 z m 0,0"
               style="stroke:none"
               inkscape:connector-curvature="0" />
          </symbol>
          <symbol
             id="textext-5ddbe569-12"
             overflow="visible"
             style="overflow:visible">
            <path
               id="path5127"
               d="m 1.265625,-0.765625 1.0625,-1.03125 c 1.546875,-1.375 2.140625,-1.90625 2.140625,-2.90625 0,-1.140625 -0.890625,-1.9375 -2.109375,-1.9375 -1.125,0 -1.859375,0.921875 -1.859375,1.8125 0,0.546875 0.5,0.546875 0.53125,0.546875 0.171875,0 0.515625,-0.109375 0.515625,-0.53125 0,-0.25 -0.1875,-0.515625 -0.53125,-0.515625 -0.078125,0 -0.09375,0 -0.125,0.015625 0.21875,-0.65625 0.765625,-1.015625 1.34375,-1.015625 0.90625,0 1.328125,0.8125 1.328125,1.625 C 3.5625,-3.90625 3.078125,-3.125 2.515625,-2.5 l -1.90625,2.125 C 0.5,-0.265625 0.5,-0.234375 0.5,0 H 4.203125 L 4.46875,-1.734375 H 4.234375 C 4.171875,-1.4375 4.109375,-1 4,-0.84375 3.9375,-0.765625 3.28125,-0.765625 3.0625,-0.765625 Z m 0,0"
               style="stroke:none"
               inkscape:connector-curvature="0" />
          </symbol>
          <symbol
             id="textext-5ddbe569-13"
             overflow="visible"
             style="overflow:visible">
            <path
               id="path5130"
               d="m 4.578125,-3.1875 c 0,-0.796875 -0.046875,-1.59375 -0.390625,-2.328125 -0.453125,-0.96875 -1.28125,-1.125 -1.6875,-1.125 -0.609375,0 -1.328125,0.265625 -1.75,1.1875 -0.3125,0.6875 -0.359375,1.46875 -0.359375,2.265625 0,0.75 0.03125,1.640625 0.453125,2.40625 0.421875,0.796875 1.15625,1 1.640625,1 0.53125,0 1.296875,-0.203125 1.734375,-1.15625 0.3125,-0.6875 0.359375,-1.46875 0.359375,-2.25 z M 2.484375,0 C 2.09375,0 1.5,-0.25 1.328125,-1.203125 1.21875,-1.796875 1.21875,-2.71875 1.21875,-3.3125 c 0,-0.640625 0,-1.296875 0.078125,-1.828125 0.1875,-1.1875 0.9375,-1.28125 1.1875,-1.28125 0.328125,0 0.984375,0.1875 1.171875,1.171875 0.109375,0.5625 0.109375,1.3125 0.109375,1.9375 0,0.75 0,1.421875 -0.109375,2.0625 C 3.5,-0.296875 2.9375,0 2.484375,0 Z m 0,0"
               style="stroke:none"
               inkscape:connector-curvature="0" />
          </symbol>
          <symbol
             id="textext-5ddbe569-14"
             overflow="visible"
             style="overflow:visible">
            <path
               id="path5133"
               d="m 3.78125,-0.546875 v 0.65625 L 5.25,0 v -0.3125 c -0.6875,0 -0.78125,-0.0625 -0.78125,-0.5625 V -6.921875 L 3.046875,-6.8125 V -6.5 c 0.6875,0 0.765625,0.0625 0.765625,0.5625 v 2.15625 c -0.28125,-0.359375 -0.71875,-0.625 -1.25,-0.625 -1.171875,0 -2.21875,0.984375 -2.21875,2.265625 0,1.265625 0.96875,2.25 2.109375,2.25 0.640625,0 1.078125,-0.34375 1.328125,-0.65625 z m 0,-2.671875 v 2.046875 c 0,0.171875 0,0.1875 -0.109375,0.359375 C 3.375,-0.328125 2.9375,-0.109375 2.5,-0.109375 2.046875,-0.109375 1.6875,-0.375 1.453125,-0.75 1.203125,-1.15625 1.171875,-1.71875 1.171875,-2.140625 1.171875,-2.5 1.1875,-3.09375 1.46875,-3.546875 1.6875,-3.859375 2.0625,-4.1875 2.609375,-4.1875 c 0.34375,0 0.765625,0.15625 1.0625,0.59375 0.109375,0.171875 0.109375,0.1875 0.109375,0.375 z m 0,0"
               style="stroke:none"
               inkscape:connector-curvature="0" />
          </symbol>
          <symbol
             id="textext-5ddbe569-15"
             overflow="visible"
             style="overflow:visible">
            <path
               id="path5136"
               d="m 2.078125,-1.9375 c 0.21875,0.046875 1.03125,0.203125 1.03125,0.921875 0,0.5 -0.34375,0.90625 -1.125,0.90625 -0.84375,0 -1.203125,-0.5625 -1.390625,-1.421875 C 0.5625,-1.65625 0.5625,-1.6875 0.453125,-1.6875 c -0.125,0 -0.125,0.0625 -0.125,0.234375 V -0.125 c 0,0.171875 0,0.234375 0.109375,0.234375 0.046875,0 0.0625,-0.015625 0.25,-0.203125 0.015625,-0.015625 0.015625,-0.03125 0.203125,-0.21875 0.4375,0.40625 0.890625,0.421875 1.09375,0.421875 1.140625,0 1.609375,-0.671875 1.609375,-1.390625 0,-0.515625 -0.296875,-0.828125 -0.421875,-0.9375 C 2.84375,-2.546875 2.453125,-2.625 2.03125,-2.703125 1.46875,-2.8125 0.8125,-2.9375 0.8125,-3.515625 c 0,-0.359375 0.25,-0.765625 1.109375,-0.765625 1.09375,0 1.15625,0.90625 1.171875,1.203125 0,0.09375 0.09375,0.09375 0.109375,0.09375 0.140625,0 0.140625,-0.046875 0.140625,-0.234375 v -1.015625 c 0,-0.15625 0,-0.234375 -0.109375,-0.234375 -0.046875,0 -0.078125,0 -0.203125,0.125 -0.03125,0.03125 -0.125,0.125 -0.171875,0.15625 -0.375,-0.28125 -0.78125,-0.28125 -0.9375,-0.28125 -1.21875,0 -1.59375,0.671875 -1.59375,1.234375 0,0.34375 0.15625,0.625 0.421875,0.84375 0.328125,0.25 0.609375,0.3125 1.328125,0.453125 z m 0,0"
               style="stroke:none"
               inkscape:connector-curvature="0" />
          </symbol>
        </g>
      </defs>
      <g
         id="textext-5ddbe569-16"
         style="stroke-width:1.66666663">
        <g
           id="g5155"
           style="fill:#000000;fill-opacity:1;stroke-width:1.66666663">
          <use
             id="use5143"
             y="134.765"
             x="223.43201"
             xlink:href="#textext-5ddbe569-1"
             width="100%"
             height="100%"
             style="stroke-width:1.66666663" />
          <use
             id="use5145"
             y="134.765"
             x="228.96722"
             xlink:href="#textext-5ddbe569-2"
             width="100%"
             height="100%"
             style="stroke-width:1.66666663" />
          <use
             id="use5147"
             y="134.765"
             x="232.84167"
             xlink:href="#textext-5ddbe569-3"
             width="100%"
             height="100%"
             style="stroke-width:1.66666663" />
          <use
             id="use5149"
             y="134.765"
             x="236.74402"
             xlink:href="#textext-5ddbe569-4"
             width="100%"
             height="100%"
             style="stroke-width:1.66666663" />
          <use
             id="use5151"
             y="134.765"
             x="241.72533"
             xlink:href="#textext-5ddbe569-5"
             width="100%"
             height="100%"
             style="stroke-width:1.66666663" />
          <use
             id="use5153"
             y="134.765"
             x="247.26054"
             xlink:href="#textext-5ddbe569-6"
             width="100%"
             height="100%"
             style="stroke-width:1.66666663" />
        </g>
        <g
           id="g5161"
           style="fill:#000000;fill-opacity:1;stroke-width:1.66666663">
          <use
             id="use5157"
             y="134.765"
             x="255.55939"
             xlink:href="#textext-5ddbe569-7"
             width="100%"
             height="100%"
             style="stroke-width:1.66666663" />
          <use
             id="use5159"
             y="134.765"
             x="258.327"
             xlink:href="#textext-5ddbe569-5"
             width="100%"
             height="100%"
             style="stroke-width:1.66666663" />
        </g>
        <g
           id="g5183"
           style="fill:#000000;fill-opacity:1;stroke-width:1.66666663">
          <use
             id="use5163"
             y="134.765"
             x="263.58328"
             xlink:href="#textext-5ddbe569-2"
             width="100%"
             height="100%"
             style="stroke-width:1.66666663" />
          <use
             id="use5165"
             y="134.765"
             x="267.45773"
             xlink:href="#textext-5ddbe569-8"
             width="100%"
             height="100%"
             style="stroke-width:1.66666663" />
          <use
             id="use5167"
             y="134.765"
             x="271.8851"
             xlink:href="#textext-5ddbe569-3"
             width="100%"
             height="100%"
             style="stroke-width:1.66666663" />
          <use
             id="use5169"
             y="134.765"
             x="275.78745"
             xlink:href="#textext-5ddbe569-9"
             width="100%"
             height="100%"
             style="stroke-width:1.66666663" />
          <use
             id="use5171"
             y="134.765"
             x="278.83203"
             xlink:href="#textext-5ddbe569-8"
             width="100%"
             height="100%"
             style="stroke-width:1.66666663" />
          <use
             id="use5173"
             y="134.765"
             x="283.2594"
             xlink:href="#textext-5ddbe569-3"
             width="100%"
             height="100%"
             style="stroke-width:1.66666663" />
          <use
             id="use5175"
             y="134.765"
             x="287.16174"
             xlink:href="#textext-5ddbe569-8"
             width="100%"
             height="100%"
             style="stroke-width:1.66666663" />
          <use
             id="use5177"
             y="134.765"
             x="291.58914"
             xlink:href="#textext-5ddbe569-5"
             width="100%"
             height="100%"
             style="stroke-width:1.66666663" />
          <use
             id="use5179"
             y="134.765"
             x="297.12436"
             xlink:href="#textext-5ddbe569-10"
             width="100%"
             height="100%"
             style="stroke-width:1.66666663" />
          <use
             id="use5181"
             y="134.765"
             x="301.55173"
             xlink:href="#textext-5ddbe569-8"
             width="100%"
             height="100%"
             style="stroke-width:1.66666663" />
        </g>
        <g
           id="g5189"
           style="fill:#000000;fill-opacity:1;stroke-width:1.66666663">
          <use
             id="use5185"
             y="146.72"
             x="223.43201"
             xlink:href="#textext-5ddbe569-11"
             width="100%"
             height="100%"
             style="stroke-width:1.66666663" />
          <use
             id="use5187"
             y="146.72"
             x="228.4133"
             xlink:href="#textext-5ddbe569-2"
             width="100%"
             height="100%"
             style="stroke-width:1.66666663" />
        </g>
        <g
           id="g5195"
           style="fill:#000000;fill-opacity:1;stroke-width:1.66666663">
          <use
             id="use5191"
             y="146.72"
             x="235.6053"
             xlink:href="#textext-5ddbe569-12"
             width="100%"
             height="100%"
             style="stroke-width:1.66666663" />
          <use
             id="use5193"
             y="146.72"
             x="240.58659"
             xlink:href="#textext-5ddbe569-13"
             width="100%"
             height="100%"
             style="stroke-width:1.66666663" />
        </g>
        <g
           id="g5211"
           style="fill:#000000;fill-opacity:1;stroke-width:1.66666663">
          <use
             id="use5197"
             y="146.72"
             x="248.89542"
             xlink:href="#textext-5ddbe569-14"
             width="100%"
             height="100%"
             style="stroke-width:1.66666663" />
          <use
             id="use5199"
             y="146.72"
             x="254.43063"
             xlink:href="#textext-5ddbe569-8"
             width="100%"
             height="100%"
             style="stroke-width:1.66666663" />
          <use
             id="use5201"
             y="146.72"
             x="258.858"
             xlink:href="#textext-5ddbe569-6"
             width="100%"
             height="100%"
             style="stroke-width:1.66666663" />
          <use
             id="use5203"
             y="146.72"
             x="263.83929"
             xlink:href="#textext-5ddbe569-3"
             width="100%"
             height="100%"
             style="stroke-width:1.66666663" />
          <use
             id="use5205"
             y="146.72"
             x="267.74167"
             xlink:href="#textext-5ddbe569-8"
             width="100%"
             height="100%"
             style="stroke-width:1.66666663" />
          <use
             id="use5207"
             y="146.72"
             x="272.16904"
             xlink:href="#textext-5ddbe569-8"
             width="100%"
             height="100%"
             style="stroke-width:1.66666663" />
          <use
             id="use5209"
             y="146.72"
             x="276.59641"
             xlink:href="#textext-5ddbe569-15"
             width="100%"
             height="100%"
             style="stroke-width:1.66666663" />
        </g>
      </g>
    </g>
    <g
       id="g5582"
       transform="matrix(1.3442846,0,0,1.3442846,10.169792,-195.16583)"
       ns0:preamble=""
       ns0:text="Image pixel delayed\\\\ to broadside"
       style="stroke-width:1.66666663">
      <defs
         id="defs5509">
        <g
           id="g5507">
          <symbol
             id="textext-4b3a096a-0"
             overflow="visible"
             style="overflow:visible">
            <path
               id="path5456"
               d=""
               style="stroke:none"
               inkscape:connector-curvature="0" />
          </symbol>
          <symbol
             id="textext-4b3a096a-1"
             overflow="visible"
             style="overflow:visible">
            <path
               id="path5459"
               d="M 2.25,-6.03125 C 2.25,-6.390625 2.265625,-6.5 3.0625,-6.5 h 0.25 v -0.3125 c -0.34375,0.03125 -1.125,0.03125 -1.515625,0.03125 -0.375,0 -1.171875,0 -1.515625,-0.03125 V -6.5 h 0.25 c 0.796875,0 0.828125,0.109375 0.828125,0.46875 v 5.25 c 0,0.359375 -0.03125,0.46875 -0.828125,0.46875 h -0.25 V 0 c 0.34375,-0.03125 1.140625,-0.03125 1.515625,-0.03125 0.390625,0 1.171875,0 1.515625,0.03125 v -0.3125 h -0.25 C 2.265625,-0.3125 2.25,-0.421875 2.25,-0.78125 Z m 0,0"
               style="stroke:none"
               inkscape:connector-curvature="0" />
          </symbol>
          <symbol
             id="textext-4b3a096a-2"
             overflow="visible"
             style="overflow:visible">
            <path
               id="path5462"
               d="M 1.09375,-3.421875 V -0.75 c 0,0.4375 -0.109375,0.4375 -0.78125,0.4375 V 0 c 0.359375,-0.015625 0.859375,-0.03125 1.140625,-0.03125 0.25,0 0.765625,0.015625 1.109375,0.03125 v -0.3125 c -0.671875,0 -0.78125,0 -0.78125,-0.4375 V -2.59375 C 1.78125,-3.625 2.5,-4.1875 3.125,-4.1875 c 0.640625,0 0.75,0.53125 0.75,1.109375 V -0.75 c 0,0.4375 -0.109375,0.4375 -0.78125,0.4375 V 0 c 0.34375,-0.015625 0.859375,-0.03125 1.125,-0.03125 0.25,0 0.78125,0.015625 1.109375,0.03125 v -0.3125 c -0.65625,0 -0.765625,0 -0.765625,-0.4375 v -1.84375 c 0,-1.03125 0.703125,-1.59375 1.34375,-1.59375 0.625,0 0.734375,0.53125 0.734375,1.109375 V -0.75 c 0,0.4375 -0.109375,0.4375 -0.78125,0.4375 V 0 c 0.34375,-0.015625 0.859375,-0.03125 1.125,-0.03125 0.265625,0 0.78125,0.015625 1.125,0.03125 v -0.3125 c -0.515625,0 -0.765625,0 -0.78125,-0.296875 v -1.90625 c 0,-0.859375 0,-1.15625 -0.3125,-1.515625 -0.140625,-0.171875 -0.46875,-0.375 -1.046875,-0.375 -0.828125,0 -1.28125,0.59375 -1.4375,0.984375 C 4.390625,-4.296875 3.65625,-4.40625 3.203125,-4.40625 2.46875,-4.40625 2,-3.984375 1.71875,-3.359375 V -4.40625 L 0.3125,-4.296875 v 0.3125 c 0.703125,0 0.78125,0.0625 0.78125,0.5625 z m 0,0"
               style="stroke:none"
               inkscape:connector-curvature="0" />
          </symbol>
          <symbol
             id="textext-4b3a096a-3"
             overflow="visible"
             style="overflow:visible">
            <path
               id="path5465"
               d="m 3.3125,-0.75 c 0.046875,0.390625 0.3125,0.8125 0.78125,0.8125 0.21875,0 0.828125,-0.140625 0.828125,-0.953125 v -0.5625 h -0.25 v 0.5625 c 0,0.578125 -0.25,0.640625 -0.359375,0.640625 -0.328125,0 -0.375,-0.453125 -0.375,-0.5 v -1.984375 c 0,-0.421875 0,-0.8125 -0.359375,-1.1875 C 3.1875,-4.3125 2.6875,-4.46875 2.21875,-4.46875 c -0.828125,0 -1.515625,0.46875 -1.515625,1.125 0,0.296875 0.203125,0.46875 0.46875,0.46875 0.28125,0 0.453125,-0.203125 0.453125,-0.453125 0,-0.125 -0.046875,-0.453125 -0.515625,-0.453125 C 1.390625,-4.140625 1.875,-4.25 2.1875,-4.25 c 0.5,0 1.0625,0.390625 1.0625,1.28125 v 0.359375 c -0.515625,0.03125 -1.203125,0.0625 -1.828125,0.359375 -0.75,0.34375 -1,0.859375 -1,1.296875 0,0.8125 0.96875,1.0625 1.59375,1.0625 0.65625,0 1.109375,-0.40625 1.296875,-0.859375 z M 3.25,-2.390625 v 1 c 0,0.9375 -0.71875,1.28125 -1.171875,1.28125 -0.484375,0 -0.890625,-0.34375 -0.890625,-0.84375 0,-0.546875 0.421875,-1.375 2.0625,-1.4375 z m 0,0"
               style="stroke:none"
               inkscape:connector-curvature="0" />
          </symbol>
          <symbol
             id="textext-4b3a096a-4"
             overflow="visible"
             style="overflow:visible">
            <path
               id="path5468"
               d="m 2.21875,-1.71875 c -0.875,0 -0.875,-1 -0.875,-1.21875 0,-0.265625 0.015625,-0.59375 0.15625,-0.84375 0.078125,-0.109375 0.3125,-0.390625 0.71875,-0.390625 0.859375,0 0.859375,0.984375 0.859375,1.21875 0,0.265625 0,0.59375 -0.15625,0.84375 C 2.84375,-2 2.609375,-1.71875 2.21875,-1.71875 Z M 1.0625,-1.328125 c 0,-0.03125 0,-0.265625 0.15625,-0.46875 0.390625,0.28125 0.8125,0.3125 1,0.3125 0.921875,0 1.609375,-0.6875 1.609375,-1.453125 0,-0.375 -0.15625,-0.734375 -0.40625,-0.96875 C 3.78125,-4.25 4.140625,-4.296875 4.3125,-4.296875 c 0.03125,0 0.078125,0 0.109375,0.015625 C 4.3125,-4.25 4.25,-4.140625 4.25,-4.015625 c 0,0.171875 0.140625,0.28125 0.296875,0.28125 0.09375,0 0.28125,-0.0625 0.28125,-0.296875 0,-0.171875 -0.109375,-0.484375 -0.5,-0.484375 -0.203125,0 -0.640625,0.0625 -1.0625,0.46875 C 2.84375,-4.375 2.4375,-4.40625 2.21875,-4.40625 c -0.9375,0 -1.625,0.6875 -1.625,1.453125 0,0.4375 0.21875,0.8125 0.46875,1.03125 -0.125,0.140625 -0.3125,0.46875 -0.3125,0.828125 0,0.3125 0.140625,0.6875 0.453125,0.890625 -0.609375,0.15625 -0.921875,0.59375 -0.921875,0.984375 0,0.71875 0.984375,1.265625 2.203125,1.265625 1.171875,0 2.203125,-0.5 2.203125,-1.28125 0,-0.34375 -0.125,-0.859375 -0.640625,-1.140625 -0.53125,-0.265625 -1.109375,-0.265625 -1.71875,-0.265625 -0.25,0 -0.671875,0 -0.75,-0.015625 C 1.265625,-0.703125 1.0625,-1 1.0625,-1.328125 Z M 2.5,1.828125 c -1.015625,0 -1.703125,-0.515625 -1.703125,-1.046875 0,-0.453125 0.375,-0.828125 0.8125,-0.84375 h 0.59375 c 0.859375,0 1.96875,0 1.96875,0.84375 0,0.546875 -0.703125,1.046875 -1.671875,1.046875 z m 0,0"
               style="stroke:none"
               inkscape:connector-curvature="0" />
          </symbol>
          <symbol
             id="textext-4b3a096a-5"
             overflow="visible"
             style="overflow:visible">
            <path
               id="path5471"
               d="M 1.109375,-2.515625 C 1.171875,-4 2.015625,-4.25 2.359375,-4.25 c 1.015625,0 1.125,1.34375 1.125,1.734375 z m 0,0.21875 h 2.78125 c 0.21875,0 0.25,0 0.25,-0.21875 0,-0.984375 -0.546875,-1.953125 -1.78125,-1.953125 -1.15625,0 -2.078125,1.03125 -2.078125,2.28125 0,1.328125 1.046875,2.296875 2.1875,2.296875 C 3.6875,0.109375 4.140625,-1 4.140625,-1.1875 4.140625,-1.28125 4.0625,-1.3125 4,-1.3125 c -0.078125,0 -0.109375,0.0625 -0.125,0.140625 -0.34375,1.03125 -1.25,1.03125 -1.34375,1.03125 -0.5,0 -0.890625,-0.296875 -1.125,-0.671875 -0.296875,-0.46875 -0.296875,-1.125 -0.296875,-1.484375 z m 0,0"
               style="stroke:none"
               inkscape:connector-curvature="0" />
          </symbol>
          <symbol
             id="textext-4b3a096a-6"
             overflow="visible"
             style="overflow:visible">
            <path
               id="path5474"
               d="m 1.71875,-3.75 v -0.65625 l -1.4375,0.109375 v 0.3125 c 0.703125,0 0.78125,0.0625 0.78125,0.5 v 4.65625 C 1.0625,1.625 0.953125,1.625 0.28125,1.625 V 1.9375 C 0.625,1.921875 1.140625,1.90625 1.390625,1.90625 c 0.28125,0 0.78125,0.015625 1.125,0.03125 V 1.625 C 1.859375,1.625 1.75,1.625 1.75,1.171875 V -0.59375 c 0.046875,0.171875 0.46875,0.703125 1.21875,0.703125 1.1875,0 2.21875,-0.984375 2.21875,-2.265625 0,-1.265625 -0.953125,-2.25 -2.078125,-2.25 -0.78125,0 -1.203125,0.4375 -1.390625,0.65625 z M 1.75,-1.140625 v -2.21875 C 2.03125,-3.875 2.515625,-4.15625 3.03125,-4.15625 c 0.734375,0 1.328125,0.875 1.328125,2 0,1.203125 -0.6875,2.046875 -1.421875,2.046875 -0.40625,0 -0.78125,-0.203125 -1.046875,-0.609375 C 1.75,-0.921875 1.75,-0.9375 1.75,-1.140625 Z m 0,0"
               style="stroke:none"
               inkscape:connector-curvature="0" />
          </symbol>
          <symbol
             id="textext-4b3a096a-7"
             overflow="visible"
             style="overflow:visible">
            <path
               id="path5477"
               d="M 1.765625,-4.40625 0.375,-4.296875 v 0.3125 c 0.640625,0 0.734375,0.0625 0.734375,0.546875 V -0.75 c 0,0.4375 -0.109375,0.4375 -0.78125,0.4375 V 0 C 0.640625,-0.015625 1.1875,-0.03125 1.421875,-0.03125 1.78125,-0.03125 2.125,-0.015625 2.46875,0 v -0.3125 c -0.671875,0 -0.703125,-0.046875 -0.703125,-0.4375 z m 0.03125,-1.734375 c 0,-0.3125 -0.234375,-0.53125 -0.515625,-0.53125 -0.3125,0 -0.53125,0.265625 -0.53125,0.53125 0,0.265625 0.21875,0.53125 0.53125,0.53125 0.28125,0 0.515625,-0.21875 0.515625,-0.53125 z m 0,0"
               style="stroke:none"
               inkscape:connector-curvature="0" />
          </symbol>
          <symbol
             id="textext-4b3a096a-8"
             overflow="visible"
             style="overflow:visible">
            <path
               id="path5480"
               d="M 2.859375,-2.34375 C 3.15625,-2.71875 3.53125,-3.203125 3.78125,-3.46875 4.09375,-3.828125 4.5,-3.984375 4.96875,-3.984375 v -0.3125 c -0.265625,0.015625 -0.5625,0.03125 -0.828125,0.03125 -0.296875,0 -0.828125,-0.015625 -0.953125,-0.03125 v 0.3125 c 0.21875,0.015625 0.296875,0.140625 0.296875,0.3125 0,0.15625 -0.109375,0.28125 -0.15625,0.34375 L 2.71875,-2.546875 1.9375,-3.5625 C 1.84375,-3.65625 1.84375,-3.671875 1.84375,-3.734375 c 0,-0.15625 0.15625,-0.25 0.34375,-0.25 v -0.3125 c -0.25,0.015625 -0.90625,0.03125 -1.078125,0.03125 -0.203125,0 -0.671875,-0.015625 -0.9375,-0.03125 v 0.3125 c 0.703125,0 0.703125,0 1.171875,0.609375 l 0.984375,1.28125 -0.9375,1.1875 C 0.921875,-0.328125 0.328125,-0.3125 0.125,-0.3125 V 0 c 0.25,-0.015625 0.5625,-0.03125 0.828125,-0.03125 0.28125,0 0.703125,0.015625 0.9375,0.03125 v -0.3125 c -0.21875,-0.03125 -0.28125,-0.15625 -0.28125,-0.3125 0,-0.21875 0.28125,-0.546875 0.890625,-1.265625 l 0.765625,1 C 3.34375,-0.78125 3.46875,-0.625 3.46875,-0.5625 c 0,0.09375 -0.09375,0.25 -0.359375,0.25 V 0 C 3.40625,-0.015625 3.96875,-0.03125 4.1875,-0.03125 c 0.265625,0 0.65625,0.015625 0.953125,0.03125 v -0.3125 c -0.53125,0 -0.71875,-0.015625 -0.9375,-0.3125 z m 0,0"
               style="stroke:none"
               inkscape:connector-curvature="0" />
          </symbol>
          <symbol
             id="textext-4b3a096a-9"
             overflow="visible"
             style="overflow:visible">
            <path
               id="path5483"
               d="M 1.765625,-6.921875 0.328125,-6.8125 V -6.5 c 0.703125,0 0.78125,0.0625 0.78125,0.5625 V -0.75 c 0,0.4375 -0.109375,0.4375 -0.78125,0.4375 V 0 C 0.65625,-0.015625 1.1875,-0.03125 1.4375,-0.03125 c 0.25,0 0.734375,0.015625 1.109375,0.03125 v -0.3125 c -0.671875,0 -0.78125,0 -0.78125,-0.4375 z m 0,0"
               style="stroke:none"
               inkscape:connector-curvature="0" />
          </symbol>
          <symbol
             id="textext-4b3a096a-10"
             overflow="visible"
             style="overflow:visible">
            <path
               id="path5486"
               d="m 3.78125,-0.546875 v 0.65625 L 5.25,0 v -0.3125 c -0.6875,0 -0.78125,-0.0625 -0.78125,-0.5625 V -6.921875 L 3.046875,-6.8125 V -6.5 c 0.6875,0 0.765625,0.0625 0.765625,0.5625 v 2.15625 c -0.28125,-0.359375 -0.71875,-0.625 -1.25,-0.625 -1.171875,0 -2.21875,0.984375 -2.21875,2.265625 0,1.265625 0.96875,2.25 2.109375,2.25 0.640625,0 1.078125,-0.34375 1.328125,-0.65625 z m 0,-2.671875 v 2.046875 c 0,0.171875 0,0.1875 -0.109375,0.359375 C 3.375,-0.328125 2.9375,-0.109375 2.5,-0.109375 2.046875,-0.109375 1.6875,-0.375 1.453125,-0.75 1.203125,-1.15625 1.171875,-1.71875 1.171875,-2.140625 1.171875,-2.5 1.1875,-3.09375 1.46875,-3.546875 1.6875,-3.859375 2.0625,-4.1875 2.609375,-4.1875 c 0.34375,0 0.765625,0.15625 1.0625,0.59375 0.109375,0.171875 0.109375,0.1875 0.109375,0.375 z m 0,0"
               style="stroke:none"
               inkscape:connector-curvature="0" />
          </symbol>
          <symbol
             id="textext-4b3a096a-11"
             overflow="visible"
             style="overflow:visible">
            <path
               id="path5489"
               d="m 4.140625,-3.34375 c 0.25,-0.640625 0.765625,-0.640625 0.921875,-0.640625 v -0.3125 c -0.234375,0.015625 -0.515625,0.03125 -0.75,0.03125 -0.171875,0 -0.640625,-0.015625 -0.859375,-0.03125 v 0.3125 c 0.3125,0 0.46875,0.171875 0.46875,0.421875 0,0.109375 -0.015625,0.125 -0.0625,0.25 L 2.84375,-0.875 1.75,-3.546875 C 1.703125,-3.65625 1.6875,-3.6875 1.6875,-3.734375 c 0,-0.25 0.359375,-0.25 0.5625,-0.25 v -0.3125 c -0.265625,0.015625 -0.921875,0.03125 -1.09375,0.03125 -0.265625,0 -0.671875,-0.015625 -0.96875,-0.03125 v 0.3125 c 0.484375,0 0.671875,0 0.8125,0.34375 L 2.5,0 C 2.4375,0.125 2.296875,0.453125 2.25,0.59375 2.03125,1.140625 1.75,1.828125 1.109375,1.828125 c -0.046875,0 -0.28125,0 -0.46875,-0.1875 0.3125,-0.03125 0.390625,-0.25 0.390625,-0.421875 0,-0.25 -0.1875,-0.40625 -0.421875,-0.40625 -0.203125,0 -0.421875,0.125 -0.421875,0.421875 0,0.453125 0.421875,0.8125 0.921875,0.8125 0.625,0 1.03125,-0.578125 1.265625,-1.140625 z m 0,0"
               style="stroke:none"
               inkscape:connector-curvature="0" />
          </symbol>
          <symbol
             id="textext-4b3a096a-12"
             overflow="visible"
             style="overflow:visible">
            <path
               id="path5492"
               d="m 1.71875,-3.984375 h 1.4375 v -0.3125 H 1.71875 V -6.125 h -0.25 c 0,0.8125 -0.296875,1.875 -1.28125,1.921875 v 0.21875 h 0.84375 v 2.75 c 0,1.21875 0.9375,1.34375 1.296875,1.34375 0.703125,0 0.984375,-0.703125 0.984375,-1.34375 v -0.5625 h -0.25 V -1.25 c 0,0.734375 -0.296875,1.109375 -0.671875,1.109375 -0.671875,0 -0.671875,-0.90625 -0.671875,-1.078125 z m 0,0"
               style="stroke:none"
               inkscape:connector-curvature="0" />
          </symbol>
          <symbol
             id="textext-4b3a096a-13"
             overflow="visible"
             style="overflow:visible">
            <path
               id="path5495"
               d="M 4.6875,-2.140625 C 4.6875,-3.40625 3.703125,-4.46875 2.5,-4.46875 c -1.25,0 -2.21875,1.09375 -2.21875,2.328125 0,1.296875 1.03125,2.25 2.203125,2.25 1.203125,0 2.203125,-0.984375 2.203125,-2.25 z m -2.1875,2 c -0.4375,0 -0.875,-0.203125 -1.140625,-0.671875 -0.25,-0.4375 -0.25,-1.046875 -0.25,-1.40625 0,-0.390625 0,-0.921875 0.234375,-1.359375 C 1.609375,-4.03125 2.078125,-4.25 2.484375,-4.25 c 0.4375,0 0.859375,0.21875 1.125,0.65625 0.265625,0.421875 0.265625,1 0.265625,1.375 0,0.359375 0,0.90625 -0.21875,1.34375 C 3.421875,-0.421875 2.984375,-0.140625 2.5,-0.140625 Z m 0,0"
               style="stroke:none"
               inkscape:connector-curvature="0" />
          </symbol>
          <symbol
             id="textext-4b3a096a-14"
             overflow="visible"
             style="overflow:visible">
            <path
               id="path5498"
               d="m 1.71875,-3.765625 v -3.15625 L 0.28125,-6.8125 V -6.5 c 0.703125,0 0.78125,0.0625 0.78125,0.5625 V 0 h 0.25 c 0,-0.015625 0.078125,-0.15625 0.359375,-0.625 0.140625,0.234375 0.5625,0.734375 1.296875,0.734375 1.1875,0 2.21875,-0.984375 2.21875,-2.265625 0,-1.265625 -0.96875,-2.25 -2.109375,-2.25 -0.78125,0 -1.203125,0.46875 -1.359375,0.640625 z m 0.03125,2.625 V -3.1875 c 0,-0.1875 0,-0.203125 0.109375,-0.359375 C 2.25,-4.109375 2.796875,-4.1875 3.03125,-4.1875 c 0.453125,0 0.8125,0.265625 1.046875,0.640625 0.265625,0.40625 0.28125,0.96875 0.28125,1.390625 0,0.359375 -0.015625,0.953125 -0.296875,1.40625 -0.21875,0.3125 -0.59375,0.640625 -1.125,0.640625 -0.453125,0 -0.8125,-0.234375 -1.046875,-0.609375 C 1.75,-0.921875 1.75,-0.953125 1.75,-1.140625 Z m 0,0"
               style="stroke:none"
               inkscape:connector-curvature="0" />
          </symbol>
          <symbol
             id="textext-4b3a096a-15"
             overflow="visible"
             style="overflow:visible">
            <path
               id="path5501"
               d="M 1.671875,-3.3125 V -4.40625 L 0.28125,-4.296875 v 0.3125 c 0.703125,0 0.78125,0.0625 0.78125,0.5625 V -0.75 c 0,0.4375 -0.109375,0.4375 -0.78125,0.4375 V 0 c 0.390625,-0.015625 0.859375,-0.03125 1.140625,-0.03125 0.390625,0 0.859375,0 1.265625,0.03125 V -0.3125 H 2.46875 c -0.734375,0 -0.75,-0.109375 -0.75,-0.46875 V -2.3125 c 0,-0.984375 0.421875,-1.875 1.171875,-1.875 0.0625,0 0.09375,0 0.109375,0.015625 -0.03125,0 -0.234375,0.125 -0.234375,0.390625 0,0.265625 0.21875,0.421875 0.4375,0.421875 0.171875,0 0.421875,-0.125 0.421875,-0.4375 0,-0.3125 -0.3125,-0.609375 -0.734375,-0.609375 -0.734375,0 -1.09375,0.671875 -1.21875,1.09375 z m 0,0"
               style="stroke:none"
               inkscape:connector-curvature="0" />
          </symbol>
          <symbol
             id="textext-4b3a096a-16"
             overflow="visible"
             style="overflow:visible">
            <path
               id="path5504"
               d="m 2.078125,-1.9375 c 0.21875,0.046875 1.03125,0.203125 1.03125,0.921875 0,0.5 -0.34375,0.90625 -1.125,0.90625 -0.84375,0 -1.203125,-0.5625 -1.390625,-1.421875 C 0.5625,-1.65625 0.5625,-1.6875 0.453125,-1.6875 c -0.125,0 -0.125,0.0625 -0.125,0.234375 V -0.125 c 0,0.171875 0,0.234375 0.109375,0.234375 0.046875,0 0.0625,-0.015625 0.25,-0.203125 0.015625,-0.015625 0.015625,-0.03125 0.203125,-0.21875 0.4375,0.40625 0.890625,0.421875 1.09375,0.421875 1.140625,0 1.609375,-0.671875 1.609375,-1.390625 0,-0.515625 -0.296875,-0.828125 -0.421875,-0.9375 C 2.84375,-2.546875 2.453125,-2.625 2.03125,-2.703125 1.46875,-2.8125 0.8125,-2.9375 0.8125,-3.515625 c 0,-0.359375 0.25,-0.765625 1.109375,-0.765625 1.09375,0 1.15625,0.90625 1.171875,1.203125 0,0.09375 0.09375,0.09375 0.109375,0.09375 0.140625,0 0.140625,-0.046875 0.140625,-0.234375 v -1.015625 c 0,-0.15625 0,-0.234375 -0.109375,-0.234375 -0.046875,0 -0.078125,0 -0.203125,0.125 -0.03125,0.03125 -0.125,0.125 -0.171875,0.15625 -0.375,-0.28125 -0.78125,-0.28125 -0.9375,-0.28125 -1.21875,0 -1.59375,0.671875 -1.59375,1.234375 0,0.34375 0.15625,0.625 0.421875,0.84375 0.328125,0.25 0.609375,0.3125 1.328125,0.453125 z m 0,0"
               style="stroke:none"
               inkscape:connector-curvature="0" />
          </symbol>
        </g>
      </defs>
      <g
         id="textext-4b3a096a-17"
         style="stroke-width:1.66666663">
        <g
           id="g5521"
           style="fill:#000000;fill-opacity:1;stroke-width:1.66666663">
          <use
             id="use5511"
             y="134.765"
             x="223.43201"
             xlink:href="#textext-4b3a096a-1"
             width="100%"
             height="100%"
             style="stroke-width:1.66666663" />
          <use
             id="use5513"
             y="134.765"
             x="227.0295"
             xlink:href="#textext-4b3a096a-2"
             width="100%"
             height="100%"
             style="stroke-width:1.66666663" />
          <use
             id="use5515"
             y="134.765"
             x="235.33133"
             xlink:href="#textext-4b3a096a-3"
             width="100%"
             height="100%"
             style="stroke-width:1.66666663" />
          <use
             id="use5517"
             y="134.765"
             x="240.31262"
             xlink:href="#textext-4b3a096a-4"
             width="100%"
             height="100%"
             style="stroke-width:1.66666663" />
          <use
             id="use5519"
             y="134.765"
             x="245.29393"
             xlink:href="#textext-4b3a096a-5"
             width="100%"
             height="100%"
             style="stroke-width:1.66666663" />
        </g>
        <g
           id="g5533"
           style="fill:#000000;fill-opacity:1;stroke-width:1.66666663">
          <use
             id="use5523"
             y="134.765"
             x="253.03885"
             xlink:href="#textext-4b3a096a-6"
             width="100%"
             height="100%"
             style="stroke-width:1.66666663" />
          <use
             id="use5525"
             y="134.765"
             x="258.57407"
             xlink:href="#textext-4b3a096a-7"
             width="100%"
             height="100%"
             style="stroke-width:1.66666663" />
          <use
             id="use5527"
             y="134.765"
             x="261.34167"
             xlink:href="#textext-4b3a096a-8"
             width="100%"
             height="100%"
             style="stroke-width:1.66666663" />
          <use
             id="use5529"
             y="134.765"
             x="266.59995"
             xlink:href="#textext-4b3a096a-5"
             width="100%"
             height="100%"
             style="stroke-width:1.66666663" />
          <use
             id="use5531"
             y="134.765"
             x="271.02731"
             xlink:href="#textext-4b3a096a-9"
             width="100%"
             height="100%"
             style="stroke-width:1.66666663" />
        </g>
        <g
           id="g5543"
           style="fill:#000000;fill-opacity:1;stroke-width:1.66666663">
          <use
             id="use5535"
             y="134.765"
             x="277.12244"
             xlink:href="#textext-4b3a096a-10"
             width="100%"
             height="100%"
             style="stroke-width:1.66666663" />
          <use
             id="use5537"
             y="134.765"
             x="282.65765"
             xlink:href="#textext-4b3a096a-5"
             width="100%"
             height="100%"
             style="stroke-width:1.66666663" />
          <use
             id="use5539"
             y="134.765"
             x="287.08505"
             xlink:href="#textext-4b3a096a-9"
             width="100%"
             height="100%"
             style="stroke-width:1.66666663" />
          <use
             id="use5541"
             y="134.765"
             x="289.85266"
             xlink:href="#textext-4b3a096a-3"
             width="100%"
             height="100%"
             style="stroke-width:1.66666663" />
        </g>
        <g
           id="g5547"
           style="fill:#000000;fill-opacity:1;stroke-width:1.66666663">
          <use
             id="use5545"
             y="134.765"
             x="294.55499"
             xlink:href="#textext-4b3a096a-11"
             width="100%"
             height="100%"
             style="stroke-width:1.66666663" />
        </g>
        <g
           id="g5553"
           style="fill:#000000;fill-opacity:1;stroke-width:1.66666663">
          <use
             id="use5549"
             y="134.765"
             x="299.5343"
             xlink:href="#textext-4b3a096a-5"
             width="100%"
             height="100%"
             style="stroke-width:1.66666663" />
          <use
             id="use5551"
             y="134.765"
             x="303.9617"
             xlink:href="#textext-4b3a096a-10"
             width="100%"
             height="100%"
             style="stroke-width:1.66666663" />
        </g>
        <g
           id="g5559"
           style="fill:#000000;fill-opacity:1;stroke-width:1.66666663">
          <use
             id="use5555"
             y="146.72"
             x="223.43201"
             xlink:href="#textext-4b3a096a-12"
             width="100%"
             height="100%"
             style="stroke-width:1.66666663" />
          <use
             id="use5557"
             y="146.72"
             x="227.30646"
             xlink:href="#textext-4b3a096a-13"
             width="100%"
             height="100%"
             style="stroke-width:1.66666663" />
        </g>
        <g
           id="g5579"
           style="fill:#000000;fill-opacity:1;stroke-width:1.66666663">
          <use
             id="use5561"
             y="146.72"
             x="235.6053"
             xlink:href="#textext-4b3a096a-14"
             width="100%"
             height="100%"
             style="stroke-width:1.66666663" />
          <use
             id="use5563"
             y="146.72"
             x="241.14052"
             xlink:href="#textext-4b3a096a-15"
             width="100%"
             height="100%"
             style="stroke-width:1.66666663" />
          <use
             id="use5565"
             y="146.72"
             x="245.04288"
             xlink:href="#textext-4b3a096a-13"
             width="100%"
             height="100%"
             style="stroke-width:1.66666663" />
          <use
             id="use5567"
             y="146.72"
             x="250.02417"
             xlink:href="#textext-4b3a096a-3"
             width="100%"
             height="100%"
             style="stroke-width:1.66666663" />
          <use
             id="use5569"
             y="146.72"
             x="255.00548"
             xlink:href="#textext-4b3a096a-10"
             width="100%"
             height="100%"
             style="stroke-width:1.66666663" />
          <use
             id="use5571"
             y="146.72"
             x="260.54068"
             xlink:href="#textext-4b3a096a-16"
             width="100%"
             height="100%"
             style="stroke-width:1.66666663" />
          <use
             id="use5573"
             y="146.72"
             x="264.46994"
             xlink:href="#textext-4b3a096a-7"
             width="100%"
             height="100%"
             style="stroke-width:1.66666663" />
          <use
             id="use5575"
             y="146.72"
             x="267.23755"
             xlink:href="#textext-4b3a096a-10"
             width="100%"
             height="100%"
             style="stroke-width:1.66666663" />
          <use
             id="use5577"
             y="146.72"
             x="272.77277"
             xlink:href="#textext-4b3a096a-5"
             width="100%"
             height="100%"
             style="stroke-width:1.66666663" />
        </g>
      </g>
    </g>
    <rect
       style="display:none;opacity:1;fill:none;fill-opacity:0.76078431;stroke:#000000;stroke-width:1;stroke-linecap:butt;stroke-linejoin:miter;stroke-miterlimit:4;stroke-dasharray:2.99999974, 2.99999974;stroke-dashoffset:0;stroke-opacity:1"
       id="rect5660"
       width="634.28564"
       height="414.28574"
       x="-17.151739"
       y="-286.12448"
       ry="0"
       inkscape:label="CropBox" />
  </g>
</svg>
