<?xml version="1.0" encoding="UTF-8" standalone="no"?>
<!-- Created with Inkscape (http://www.inkscape.org/) -->

<svg
   xmlns:ns0="http://www.iki.fi/pav/software/textext/"
   xmlns:dc="http://purl.org/dc/elements/1.1/"
   xmlns:cc="http://creativecommons.org/ns#"
   xmlns:rdf="http://www.w3.org/1999/02/22-rdf-syntax-ns#"
   xmlns:svg="http://www.w3.org/2000/svg"
   xmlns="http://www.w3.org/2000/svg"
   xmlns:xlink="http://www.w3.org/1999/xlink"
   xmlns:sodipodi="http://sodipodi.sourceforge.net/DTD/sodipodi-0.dtd"
   xmlns:inkscape="http://www.inkscape.org/namespaces/inkscape"
   width="744.09448819"
   height="1052.3622047"
   id="svg2"
   version="1.1"
   inkscape:version="0.48.4 r9939"
   sodipodi:docname="wave_equation_mass_flow.svg">
  <sodipodi:namedview
     id="base"
     pagecolor="#ffffff"
     bordercolor="#666666"
     borderopacity="1.0"
     inkscape:pageopacity="0.0"
     inkscape:pageshadow="2"
     inkscape:zoom="1.4"
     inkscape:cx="259.05074"
     inkscape:cy="967.8286"
     inkscape:document-units="px"
     inkscape:current-layer="layer1"
     showgrid="true"
     inkscape:window-width="1916"
     inkscape:window-height="1173"
     inkscape:window-x="-2"
     inkscape:window-y="133"
     inkscape:window-maximized="0"
     inkscape:snap-global="true"
     inkscape:object-nodes="true"
     inkscape:snap-object-midpoints="true">
    <inkscape:grid
       type="xygrid"
       id="grid3193" />
  </sodipodi:namedview>
  <defs
     id="defs4">
    <marker
       inkscape:stockid="Arrow2Mend"
       orient="auto"
       refY="0.0"
       refX="0.0"
       id="Arrow2Mend"
       style="overflow:visible;">
      <path
         id="path3791"
         style="fill-rule:evenodd;stroke-width:0.62500000;stroke-linejoin:round;"
         d="M 8.7185878,4.0337352 L -2.2072895,0.016013256 L 8.7185884,-4.0017078 C 6.9730900,-1.6296469 6.9831476,1.6157441 8.7185878,4.0337352 z "
         transform="scale(0.6) rotate(180) translate(0,0)" />
    </marker>
    <marker
       inkscape:stockid="Arrow2Mend"
       orient="auto"
       refY="0"
       refX="0"
       id="Arrow2Mend-5"
       style="overflow:visible">
      <path
         inkscape:connector-curvature="0"
         id="path3791-1"
         style="fill-rule:evenodd;stroke-width:0.625;stroke-linejoin:round"
         d="M 8.7185878,4.0337352 -2.2072895,0.01601326 8.7185884,-4.0017078 c -1.7454984,2.3720609 -1.7354408,5.6174519 -6e-7,8.035443 z"
         transform="scale(-0.6,-0.6)" />
    </marker>
    <marker
       inkscape:stockid="Arrow2Mend"
       orient="auto"
       refY="0"
       refX="0"
       id="Arrow2Mend-0"
       style="overflow:visible">
      <path
         id="path3791-7"
         style="fill-rule:evenodd;stroke-width:0.625;stroke-linejoin:round"
         d="M 8.7185878,4.0337352 -2.2072895,0.01601326 8.7185884,-4.0017078 c -1.7454984,2.3720609 -1.7354408,5.6174519 -6e-7,8.035443 z"
         transform="scale(-0.6,-0.6)"
         inkscape:connector-curvature="0" />
    </marker>
    <marker
       inkscape:stockid="Arrow2Mend"
       orient="auto"
       refY="0"
       refX="0"
       id="Arrow2Mend-5-9"
       style="overflow:visible">
      <path
         inkscape:connector-curvature="0"
         id="path3791-1-8"
         style="fill-rule:evenodd;stroke-width:0.625;stroke-linejoin:round"
         d="M 8.7185878,4.0337352 -2.2072895,0.01601326 8.7185884,-4.0017078 c -1.7454984,2.3720609 -1.7354408,5.6174519 -6e-7,8.035443 z"
         transform="scale(-0.6,-0.6)" />
    </marker>
    <marker
       inkscape:stockid="Arrow2Mend"
       orient="auto"
       refY="0"
       refX="0"
       id="marker6507"
       style="overflow:visible">
      <path
         inkscape:connector-curvature="0"
         id="path6509"
         style="fill-rule:evenodd;stroke-width:0.625;stroke-linejoin:round"
         d="M 8.7185878,4.0337352 -2.2072895,0.01601326 8.7185884,-4.0017078 c -1.7454984,2.3720609 -1.7354408,5.6174519 -6e-7,8.035443 z"
         transform="scale(-0.6,-0.6)" />
    </marker>
    <marker
       inkscape:stockid="Arrow2Mend"
       orient="auto"
       refY="0"
       refX="0"
       id="marker6511"
       style="overflow:visible">
      <path
         id="path6513"
         style="fill-rule:evenodd;stroke-width:0.625;stroke-linejoin:round"
         d="M 8.7185878,4.0337352 -2.2072895,0.01601326 8.7185884,-4.0017078 c -1.7454984,2.3720609 -1.7354408,5.6174519 -6e-7,8.035443 z"
         transform="scale(-0.6,-0.6)"
         inkscape:connector-curvature="0" />
    </marker>
    <marker
       inkscape:stockid="Arrow2Mend"
       orient="auto"
       refY="0"
       refX="0"
       id="Arrow2Mend-5-7"
       style="overflow:visible">
      <path
         inkscape:connector-curvature="0"
         id="path3791-1-89"
         style="fill-rule:evenodd;stroke-width:0.625;stroke-linejoin:round"
         d="M 8.7185878,4.0337352 -2.2072895,0.01601326 8.7185884,-4.0017078 c -1.7454984,2.3720609 -1.7354408,5.6174519 -6e-7,8.035443 z"
         transform="scale(-0.6,-0.6)" />
    </marker>
    <marker
       inkscape:stockid="Arrow2Mend"
       orient="auto"
       refY="0"
       refX="0"
       id="Arrow2Mend-5-3"
       style="overflow:visible">
      <path
         inkscape:connector-curvature="0"
         id="path3791-1-2"
         style="fill-rule:evenodd;stroke-width:0.625;stroke-linejoin:round"
         d="M 8.7185878,4.0337352 -2.2072895,0.01601326 8.7185884,-4.0017078 c -1.7454984,2.3720609 -1.7354408,5.6174519 -6e-7,8.035443 z"
         transform="scale(-0.6,-0.6)" />
    </marker>
    <marker
       inkscape:stockid="Arrow2Mend"
       orient="auto"
       refY="0"
       refX="0"
       id="Arrow2Mend-5-4"
       style="overflow:visible">
      <path
         inkscape:connector-curvature="0"
         id="path3791-1-7"
         style="fill-rule:evenodd;stroke-width:0.625;stroke-linejoin:round"
         d="M 8.7185878,4.0337352 -2.2072895,0.01601326 8.7185884,-4.0017078 c -1.7454984,2.3720609 -1.7354408,5.6174519 -6e-7,8.035443 z"
         transform="scale(-0.6,-0.6)" />
    </marker>
    <marker
       inkscape:stockid="Arrow2Mend"
       orient="auto"
       refY="0"
       refX="0"
       id="Arrow2Mend-5-4-8"
       style="overflow:visible">
      <path
         inkscape:connector-curvature="0"
         id="path3791-1-7-1"
         style="fill-rule:evenodd;stroke-width:0.625;stroke-linejoin:round"
         d="M 8.7185878,4.0337352 -2.2072895,0.01601326 8.7185884,-4.0017078 c -1.7454984,2.3720609 -1.7354408,5.6174519 -6e-7,8.035443 z"
         transform="scale(-0.6,-0.6)" />
    </marker>
  </defs>
  <metadata
     id="metadata7">
    <rdf:RDF>
      <cc:Work
         rdf:about="">
        <dc:format>image/svg+xml</dc:format>
        <dc:type
           rdf:resource="http://purl.org/dc/dcmitype/StillImage" />
        <dc:title />
      </cc:Work>
    </rdf:RDF>
  </metadata>
  <g
     inkscape:label="Layer 1"
     inkscape:groupmode="layer"
     id="layer1">
    <path
       sodipodi:nodetypes="cc"
       style="fill:none;stroke:#000000;stroke-width:1px;stroke-linecap:butt;stroke-linejoin:miter;stroke-opacity:1;marker-end:url(#Arrow2Mend-5)"
       d="m 95,102.36218 20,0"
       id="path4204-1-2"
       inkscape:connector-curvature="0" />
    <path
       sodipodi:nodetypes="cc"
       style="fill:none;stroke:#000000;stroke-width:1px;stroke-linecap:butt;stroke-linejoin:miter;stroke-opacity:1;marker-end:url(#Arrow2Mend-5)"
       d="M 95,102.36218 95,82.362186"
       id="path4204-1-2-2"
       inkscape:connector-curvature="0" />
    <path
       sodipodi:nodetypes="cc"
       style="fill:none;stroke:#000000;stroke-width:1px;stroke-linecap:butt;stroke-linejoin:miter;stroke-opacity:1;marker-end:url(#Arrow2Mend-5)"
       d="M 95,102.36218 109.59179,87.362182"
       id="path4204-1-2-2-9"
       inkscape:connector-curvature="0" />
    <g
       id="g5861"
       transform="translate(-105.81093,-30.355334)"
       ns0:preamble="/home/me/.latex/inkscape/header.tex"
       ns0:text="x">
      <defs
         id="defs5863">
        <g
           id="g5865">
          <symbol
             id="textext-b004d060-0"
             overflow="visible"
             style="overflow:visible">
            <path
               id="path5868"
               d=""
               style="stroke:none"
               inkscape:connector-curvature="0" />
          </symbol>
          <symbol
             id="textext-b004d060-1"
             overflow="visible"
             style="overflow:visible">
            <path
               id="path5871"
               d="m 5.140625,0 0,-0.3125 c -0.53125,0 -0.71875,-0.015625 -0.9375,-0.3125 L 2.859375,-2.34375 C 3.15625,-2.71875 3.53125,-3.203125 3.78125,-3.46875 4.09375,-3.828125 4.5,-3.984375 4.96875,-3.984375 l 0,-0.3125 c -0.265625,0.015625 -0.5625,0.03125 -0.828125,0.03125 -0.296875,0 -0.828125,-0.015625 -0.953125,-0.03125 l 0,0.3125 c 0.21875,0.015625 0.296875,0.140625 0.296875,0.3125 0,0.15625 -0.109375,0.28125 -0.15625,0.34375 L 2.71875,-2.546875 1.9375,-3.5625 C 1.84375,-3.65625 1.84375,-3.671875 1.84375,-3.734375 c 0,-0.15625 0.15625,-0.25 0.34375,-0.25 l 0,-0.3125 -1.078125,0.03125 c -0.203125,0 -0.671875,-0.015625 -0.9375,-0.03125 l 0,0.3125 c 0.703125,0 0.703125,0 1.171875,0.609375 l 0.984375,1.28125 c -0.46875,0.59375 -0.46875,0.625 -0.9375,1.1875 C 0.921875,-0.328125 0.328125,-0.3125 0.125,-0.3125 L 0.125,0 c 0.25,-0.015625 0.5625,-0.03125 0.828125,-0.03125 L 1.890625,0 l 0,-0.3125 c -0.21875,-0.03125 -0.28125,-0.15625 -0.28125,-0.3125 0,-0.21875 0.28125,-0.546875 0.890625,-1.265625 l 0.765625,1 C 3.34375,-0.78125 3.46875,-0.625 3.46875,-0.5625 c 0,0.09375 -0.09375,0.25 -0.359375,0.25 l 0,0.3125 1.078125,-0.03125 c 0.265625,0 0.65625,0.015625 0.953125,0.03125 z"
               style="stroke:none"
               inkscape:connector-curvature="0" />
          </symbol>
        </g>
      </defs>
      <g
         id="textext-b004d060-2">
        <g
           id="g5874"
           style="fill:#000000;fill-opacity:1">
          <use
             id="use5876"
             y="134.765"
             x="223.43201"
             xlink:href="#textext-b004d060-1"
             width="744.09448"
             height="1052.3622" />
        </g>
      </g>
    </g>
    <g
       ns0:text="z"
       ns0:preamble="/home/me/.latex/inkscape/header.tex"
       transform="translate(-130.7094,-56.011426)"
       id="g6435">
      <defs
         id="defs6437">
        <g
           id="g6439">
          <symbol
             style="overflow:visible"
             overflow="visible"
             id="textext-0c61047f-0">
            <path
               inkscape:connector-curvature="0"
               style="stroke:none"
               d=""
               id="path6442" />
          </symbol>
          <symbol
             style="overflow:visible"
             overflow="visible"
             id="textext-0c61047f-1">
            <path
               inkscape:connector-curvature="0"
               style="stroke:none"
               d="m 4,-1.859375 -0.25,0 C 3.65625,-0.6875 3.453125,-0.25 2.296875,-0.25 l -1.1875,0 2.78125,-3.75 c 0.09375,-0.109375 0.09375,-0.125 0.09375,-0.171875 0,-0.125 -0.09375,-0.125 -0.265625,-0.125 l -3.1875,0 -0.109375,1.609375 0.25,0 c 0.0625,-1.015625 0.25,-1.390625 1.34375,-1.390625 l 1.140625,0 L 0.375,-0.3125 C 0.28125,-0.203125 0.28125,-0.1875 0.28125,-0.140625 0.28125,0 0.34375,0 0.53125,0 l 3.296875,0 z"
               id="path6445" />
          </symbol>
        </g>
      </defs>
      <g
         id="textext-0c61047f-2">
        <g
           style="fill:#000000;fill-opacity:1"
           id="g6448">
          <use
             height="1052.3622"
             width="744.09448"
             xlink:href="#textext-0c61047f-1"
             x="223.43201"
             y="134.765"
             id="use6450" />
        </g>
      </g>
    </g>
    <g
       id="g7029"
       transform="translate(-111.51778,-48.385797)"
       ns0:preamble="/home/me/.latex/inkscape/header.tex"
       ns0:text="y">
      <defs
         id="defs7031">
        <g
           id="g7033">
          <symbol
             id="textext-14727621-0"
             overflow="visible"
             style="overflow:visible">
            <path
               id="path7036"
               d=""
               style="stroke:none"
               inkscape:connector-curvature="0" />
          </symbol>
          <symbol
             id="textext-14727621-1"
             overflow="visible"
             style="overflow:visible">
            <path
               id="path7039"
               d="m 5.0625,-3.984375 0,-0.3125 c -0.234375,0.015625 -0.515625,0.03125 -0.75,0.03125 l -0.859375,-0.03125 0,0.3125 c 0.3125,0 0.46875,0.171875 0.46875,0.421875 0,0.109375 -0.015625,0.125 -0.0625,0.25 L 2.84375,-0.875 1.75,-3.546875 C 1.703125,-3.65625 1.6875,-3.6875 1.6875,-3.734375 c 0,-0.25 0.359375,-0.25 0.5625,-0.25 l 0,-0.3125 -1.09375,0.03125 c -0.265625,0 -0.671875,-0.015625 -0.96875,-0.03125 l 0,0.3125 c 0.484375,0 0.671875,0 0.8125,0.34375 L 2.5,0 2.25,0.59375 c -0.21875,0.546875 -0.5,1.234375 -1.140625,1.234375 -0.046875,0 -0.28125,0 -0.46875,-0.1875 0.3125,-0.03125 0.390625,-0.25 0.390625,-0.421875 0,-0.25 -0.1875,-0.40625 -0.421875,-0.40625 -0.203125,0 -0.421875,0.125 -0.421875,0.421875 0,0.453125 0.421875,0.8125 0.921875,0.8125 0.625,0 1.03125,-0.578125 1.265625,-1.140625 l 1.765625,-4.25 c 0.25,-0.640625 0.765625,-0.640625 0.921875,-0.640625 z"
               style="stroke:none"
               inkscape:connector-curvature="0" />
          </symbol>
        </g>
      </defs>
      <g
         id="textext-14727621-2">
        <g
           id="g7042"
           style="fill:#000000;fill-opacity:1">
          <use
             id="use7044"
             y="134.765"
             x="223.43201"
             xlink:href="#textext-14727621-1"
             width="744.09448"
             height="1052.3622" />
        </g>
      </g>
    </g>
    <path
       style="fill:none;stroke:#000000;stroke-width:1px;stroke-linecap:butt;stroke-linejoin:miter;stroke-opacity:1;marker-end:url(#Arrow2Mend-5-4)"
       d="m 100,62.362183 40,0"
       id="path7321"
       inkscape:connector-curvature="0" />
    <path
       style="fill:#999999;stroke:#000000;stroke-width:1px;stroke-linecap:square;stroke-linejoin:bevel;stroke-opacity:1"
       d="m 140,42.362183 20,-20 50,0 0,50 -20,20 -50,0 z"
       id="path3195"
       inkscape:connector-curvature="0"
       sodipodi:nodetypes="ccccccc" />
    <path
       style="fill:none;stroke:#000000;stroke-width:1px;stroke-linecap:butt;stroke-linejoin:miter;stroke-opacity:1"
       d="m 140,42.362183 50,0 20,-20"
       id="path7545"
       inkscape:connector-curvature="0"
       sodipodi:nodetypes="ccc" />
    <path
       style="fill:none;stroke:#000000;stroke-width:1px;stroke-linecap:butt;stroke-linejoin:miter;stroke-opacity:1"
       d="m 190,42.362183 0,50"
       id="path7547"
       inkscape:connector-curvature="0" />
    <path
       style="fill:none;stroke:#000000;stroke-width:1px;stroke-linecap:butt;stroke-linejoin:miter;stroke-opacity:1;marker-end:url(#Arrow2Mend-5-4)"
       d="m 204.58781,62.371791 40,0"
       id="path7321-8"
       inkscape:connector-curvature="0" />
    <g
       id="g8549"
       transform="translate(-122.35987,-77.44218)"
       ns0:preamble="/home/me/.latex/inkscape/header.tex"
       ns0:text="$\\dot m_\\text{in}$">
      <defs
         id="defs8551">
        <g
           id="g8553">
          <symbol
             id="textext-a40ee432-0"
             overflow="visible"
             style="overflow:visible">
            <path
               id="path8556"
               d=""
               style="stroke:none"
               inkscape:connector-curvature="0" />
          </symbol>
          <symbol
             id="textext-a40ee432-1"
             overflow="visible"
             style="overflow:visible">
            <path
               id="path8559"
               d="m 1.90625,-6.015625 c 0,-0.28125 -0.21875,-0.53125 -0.515625,-0.53125 -0.34375,0 -0.546875,0.28125 -0.546875,0.53125 C 0.84375,-5.75 1.078125,-5.5 1.375,-5.5 c 0.34375,0 0.53125,-0.265625 0.53125,-0.515625 z"
               style="stroke:none"
               inkscape:connector-curvature="0" />
          </symbol>
          <symbol
             id="textext-a40ee432-2"
             overflow="visible"
             style="overflow:visible">
            <path
               id="path8562"
               d=""
               style="stroke:none"
               inkscape:connector-curvature="0" />
          </symbol>
          <symbol
             id="textext-a40ee432-3"
             overflow="visible"
             style="overflow:visible">
            <path
               id="path8565"
               d="m 8.453125,-1.421875 c 0,-0.109375 -0.09375,-0.109375 -0.125,-0.109375 -0.09375,0 -0.09375,0.03125 -0.140625,0.1875 -0.15625,0.53125 -0.46875,1.234375 -1.015625,1.234375 -0.171875,0 -0.25,-0.09375 -0.25,-0.328125 0,-0.25 0.09375,-0.484375 0.1875,-0.703125 0.1875,-0.53125 0.609375,-1.625 0.609375,-2.203125 0,-0.640625 -0.40625,-1.0625 -1.15625,-1.0625 -0.734375,0 -1.25,0.4375 -1.625,0.96875 0,-0.125 -0.03125,-0.46875 -0.3125,-0.703125 -0.25,-0.21875 -0.5625,-0.265625 -0.8125,-0.265625 -0.90625,0 -1.390625,0.640625 -1.5625,0.875 -0.046875,-0.578125 -0.46875,-0.875 -0.921875,-0.875 -0.453125,0 -0.640625,0.390625 -0.734375,0.5625 -0.171875,0.359375 -0.296875,0.9375 -0.296875,0.96875 0,0.109375 0.109375,0.109375 0.109375,0.109375 0.109375,0 0.109375,-0.015625 0.171875,-0.234375 0.171875,-0.703125 0.375,-1.1875 0.734375,-1.1875 0.15625,0 0.296875,0.078125 0.296875,0.453125 0,0.21875 -0.03125,0.328125 -0.15625,0.84375 L 0.875,-0.59375 c -0.03125,0.15625 -0.09375,0.390625 -0.09375,0.4375 0,0.171875 0.140625,0.265625 0.296875,0.265625 0.125,0 0.296875,-0.078125 0.375,-0.28125 0,-0.015625 0.125,-0.484375 0.1875,-0.734375 l 0.21875,-0.890625 C 1.90625,-2.03125 1.96875,-2.25 2.03125,-2.46875 l 0.125,-0.5 c 0.140625,-0.3125 0.671875,-1.21875 1.625,-1.21875 0.453125,0 0.53125,0.375 0.53125,0.703125 0,0.25 -0.0625,0.53125 -0.140625,0.828125 L 3.890625,-1.5 C 3.78125,-1.140625 3.78125,-1.078125 3.6875,-0.75 c -0.03125,0.203125 -0.125,0.546875 -0.125,0.59375 0,0.171875 0.140625,0.265625 0.28125,0.265625 0.3125,0 0.375,-0.25 0.453125,-0.5625 l 0.59375,-2.40625 c 0.03125,-0.125 0.5625,-1.328125 1.65625,-1.328125 0.421875,0 0.53125,0.34375 0.53125,0.703125 0,0.5625 -0.421875,1.703125 -0.625,2.234375 -0.078125,0.234375 -0.125,0.34375 -0.125,0.546875 0,0.46875 0.34375,0.8125 0.8125,0.8125 0.9375,0 1.3125,-1.453125 1.3125,-1.53125 z"
               style="stroke:none"
               inkscape:connector-curvature="0" />
          </symbol>
          <symbol
             id="textext-a40ee432-4"
             overflow="visible"
             style="overflow:visible">
            <path
               id="path8568"
               d=""
               style="stroke:none"
               inkscape:connector-curvature="0" />
          </symbol>
          <symbol
             id="textext-a40ee432-5"
             overflow="visible"
             style="overflow:visible">
            <path
               id="path8571"
               d="m 1.90625,0 0,-0.25 C 1.5,-0.25 1.4375,-0.25 1.4375,-0.546875 l 0,-2.53125 L 0.40625,-3 l 0,0.25 c 0.4375,0 0.5,0.046875 0.5,0.390625 l 0,1.8125 C 0.90625,-0.25 0.84375,-0.25 0.390625,-0.25 l 0,0.25 c 0,0 0.5,-0.03125 0.78125,-0.03125 0.25,0 0.5,0.015625 0.734375,0.03125 z m -0.375,-4.1875 c 0,-0.234375 -0.171875,-0.40625 -0.40625,-0.40625 -0.234375,0 -0.390625,0.1875 -0.390625,0.390625 0,0.21875 0.171875,0.40625 0.390625,0.40625 0.234375,0 0.40625,-0.203125 0.40625,-0.390625 z"
               style="stroke:none"
               inkscape:connector-curvature="0" />
          </symbol>
          <symbol
             id="textext-a40ee432-6"
             overflow="visible"
             style="overflow:visible">
            <path
               id="path8574"
               d="m 4.109375,0 0,-0.25 c -0.453125,0 -0.515625,0 -0.515625,-0.296875 l 0,-1.5625 c 0,-0.609375 -0.296875,-0.96875 -1.046875,-0.96875 -0.578125,0 -0.9375,0.3125 -1.140625,0.6875 l 0,-0.6875 L 0.375,-3 l 0,0.25 c 0.46875,0 0.53125,0.046875 0.53125,0.390625 l 0,1.8125 C 0.90625,-0.25 0.828125,-0.25 0.375,-0.25 l 0,0.25 c 0,0 0.5,-0.03125 0.796875,-0.03125 C 1.421875,-0.03125 1.90625,0 1.96875,0 l 0,-0.25 c -0.453125,0 -0.515625,0 -0.515625,-0.296875 l 0,-1.265625 c 0,-0.71875 0.578125,-1.0625 1.03125,-1.0625 0.484375,0 0.546875,0.375 0.546875,0.734375 l 0,1.59375 C 3.03125,-0.25 2.96875,-0.25 2.515625,-0.25 l 0,0.25 c 0,0 0.5,-0.03125 0.796875,-0.03125 C 3.5625,-0.03125 4.046875,0 4.109375,0 z"
               style="stroke:none"
               inkscape:connector-curvature="0" />
          </symbol>
        </g>
      </defs>
      <g
         id="textext-a40ee432-7">
        <g
           id="g8577"
           style="fill:#000000;fill-opacity:1">
          <use
             id="use8579"
             y="134.765"
             x="226.422"
             xlink:href="#textext-a40ee432-1"
             width="744.09448"
             height="1052.3622" />
        </g>
        <g
           id="g8581"
           style="fill:#000000;fill-opacity:1">
          <use
             id="use8583"
             y="134.765"
             x="223.43201"
             xlink:href="#textext-a40ee432-3"
             width="744.09448"
             height="1052.3622" />
        </g>
        <g
           id="g8585"
           style="fill:#000000;fill-opacity:1">
          <use
             id="use8587"
             y="136.259"
             x="232.179"
             xlink:href="#textext-a40ee432-5"
             width="744.09448"
             height="1052.3622" />
          <use
             id="use8589"
             y="136.259"
             x="234.43433"
             xlink:href="#textext-a40ee432-6"
             width="744.09448"
             height="1052.3622" />
        </g>
      </g>
    </g>
    <g
       ns0:text="$\\dot m_\\text{out}$"
       ns0:preamble="/home/me/.latex/inkscape/header.tex"
       transform="translate(-5.7527318,-77.442214)"
       id="g9291">
      <defs
         id="defs9293">
        <g
           id="g9295">
          <symbol
             style="overflow:visible"
             overflow="visible"
             id="textext-ef3b3dee-0">
            <path
               inkscape:connector-curvature="0"
               style="stroke:none"
               d=""
               id="path9298" />
          </symbol>
          <symbol
             style="overflow:visible"
             overflow="visible"
             id="textext-ef3b3dee-1">
            <path
               inkscape:connector-curvature="0"
               style="stroke:none"
               d="m 1.90625,-6.015625 c 0,-0.28125 -0.21875,-0.53125 -0.515625,-0.53125 -0.34375,0 -0.546875,0.28125 -0.546875,0.53125 C 0.84375,-5.75 1.078125,-5.5 1.375,-5.5 c 0.34375,0 0.53125,-0.265625 0.53125,-0.515625 z"
               id="path9301" />
          </symbol>
          <symbol
             style="overflow:visible"
             overflow="visible"
             id="textext-ef3b3dee-2">
            <path
               inkscape:connector-curvature="0"
               style="stroke:none"
               d=""
               id="path9304" />
          </symbol>
          <symbol
             style="overflow:visible"
             overflow="visible"
             id="textext-ef3b3dee-3">
            <path
               inkscape:connector-curvature="0"
               style="stroke:none"
               d="m 8.453125,-1.421875 c 0,-0.109375 -0.09375,-0.109375 -0.125,-0.109375 -0.09375,0 -0.09375,0.03125 -0.140625,0.1875 -0.15625,0.53125 -0.46875,1.234375 -1.015625,1.234375 -0.171875,0 -0.25,-0.09375 -0.25,-0.328125 0,-0.25 0.09375,-0.484375 0.1875,-0.703125 0.1875,-0.53125 0.609375,-1.625 0.609375,-2.203125 0,-0.640625 -0.40625,-1.0625 -1.15625,-1.0625 -0.734375,0 -1.25,0.4375 -1.625,0.96875 0,-0.125 -0.03125,-0.46875 -0.3125,-0.703125 -0.25,-0.21875 -0.5625,-0.265625 -0.8125,-0.265625 -0.90625,0 -1.390625,0.640625 -1.5625,0.875 -0.046875,-0.578125 -0.46875,-0.875 -0.921875,-0.875 -0.453125,0 -0.640625,0.390625 -0.734375,0.5625 -0.171875,0.359375 -0.296875,0.9375 -0.296875,0.96875 0,0.109375 0.109375,0.109375 0.109375,0.109375 0.109375,0 0.109375,-0.015625 0.171875,-0.234375 0.171875,-0.703125 0.375,-1.1875 0.734375,-1.1875 0.15625,0 0.296875,0.078125 0.296875,0.453125 0,0.21875 -0.03125,0.328125 -0.15625,0.84375 L 0.875,-0.59375 c -0.03125,0.15625 -0.09375,0.390625 -0.09375,0.4375 0,0.171875 0.140625,0.265625 0.296875,0.265625 0.125,0 0.296875,-0.078125 0.375,-0.28125 0,-0.015625 0.125,-0.484375 0.1875,-0.734375 l 0.21875,-0.890625 C 1.90625,-2.03125 1.96875,-2.25 2.03125,-2.46875 l 0.125,-0.5 c 0.140625,-0.3125 0.671875,-1.21875 1.625,-1.21875 0.453125,0 0.53125,0.375 0.53125,0.703125 0,0.25 -0.0625,0.53125 -0.140625,0.828125 L 3.890625,-1.5 C 3.78125,-1.140625 3.78125,-1.078125 3.6875,-0.75 c -0.03125,0.203125 -0.125,0.546875 -0.125,0.59375 0,0.171875 0.140625,0.265625 0.28125,0.265625 0.3125,0 0.375,-0.25 0.453125,-0.5625 l 0.59375,-2.40625 c 0.03125,-0.125 0.5625,-1.328125 1.65625,-1.328125 0.421875,0 0.53125,0.34375 0.53125,0.703125 0,0.5625 -0.421875,1.703125 -0.625,2.234375 -0.078125,0.234375 -0.125,0.34375 -0.125,0.546875 0,0.46875 0.34375,0.8125 0.8125,0.8125 0.9375,0 1.3125,-1.453125 1.3125,-1.53125 z"
               id="path9307" />
          </symbol>
          <symbol
             style="overflow:visible"
             overflow="visible"
             id="textext-ef3b3dee-4">
            <path
               inkscape:connector-curvature="0"
               style="stroke:none"
               d=""
               id="path9310" />
          </symbol>
          <symbol
             style="overflow:visible"
             overflow="visible"
             id="textext-ef3b3dee-5">
            <path
               inkscape:connector-curvature="0"
               style="stroke:none"
               d="m 3.6875,-1.484375 c 0,-0.875 -0.75,-1.625 -1.703125,-1.625 -0.96875,0 -1.71875,0.75 -1.71875,1.625 0,0.859375 0.765625,1.546875 1.71875,1.546875 0.9375,0 1.703125,-0.6875 1.703125,-1.546875 z m -0.640625,-0.0625 c 0,0.328125 -0.015625,0.703125 -0.21875,0.984375 -0.1875,0.265625 -0.5,0.40625 -0.84375,0.40625 -0.265625,0 -0.640625,-0.078125 -0.875,-0.421875 -0.1875,-0.28125 -0.203125,-0.640625 -0.203125,-0.96875 0,-0.296875 0,-0.71875 0.25,-1.015625 0.171875,-0.203125 0.46875,-0.34375 0.828125,-0.34375 0.40625,0 0.703125,0.1875 0.859375,0.40625 0.1875,0.265625 0.203125,0.625 0.203125,0.953125 z"
               id="path9313" />
          </symbol>
          <symbol
             style="overflow:visible"
             overflow="visible"
             id="textext-ef3b3dee-6">
            <path
               inkscape:connector-curvature="0"
               style="stroke:none"
               d="m 4.109375,0 0,-0.25 c -0.46875,0 -0.515625,-0.046875 -0.515625,-0.390625 l 0,-2.4375 L 2.515625,-3 l 0,0.25 c 0.46875,0 0.515625,0.046875 0.515625,0.390625 l 0,1.203125 c 0,0.609375 -0.390625,1.03125 -0.921875,1.03125 -0.625,0 -0.65625,-0.296875 -0.65625,-0.65625 l 0,-2.296875 L 0.375,-3 l 0,0.25 c 0.53125,0 0.53125,0.03125 0.53125,0.640625 l 0,1.046875 c 0,0.484375 0,1.125 1.15625,1.125 0.15625,0 0.65625,0 1,-0.578125 l 0,0.578125 z"
               id="path9316" />
          </symbol>
          <symbol
             style="overflow:visible"
             overflow="visible"
             id="textext-ef3b3dee-7">
            <path
               inkscape:connector-curvature="0"
               style="stroke:none"
               d="m 2.609375,-0.875 0,-0.390625 -0.234375,0 0,0.375 c 0,0.484375 -0.21875,0.734375 -0.5,0.734375 -0.46875,0 -0.46875,-0.578125 -0.46875,-0.703125 l 0,-1.890625 1.078125,0 0,-0.25 -1.078125,0 0,-1.28125 -0.25,0 c 0,0.625 -0.28125,1.3125 -0.953125,1.328125 l 0,0.203125 0.640625,0 0,1.875 c 0,0.78125 0.59375,0.9375 0.984375,0.9375 0.46875,0 0.78125,-0.390625 0.78125,-0.9375 z"
               id="path9319" />
          </symbol>
        </g>
      </defs>
      <g
         id="textext-ef3b3dee-8">
        <g
           style="fill:#000000;fill-opacity:1"
           id="g9322">
          <use
             height="1052.3622"
             width="744.09448"
             xlink:href="#textext-ef3b3dee-1"
             x="226.422"
             y="134.765"
             id="use9324" />
        </g>
        <g
           style="fill:#000000;fill-opacity:1"
           id="g9326">
          <use
             height="1052.3622"
             width="744.09448"
             xlink:href="#textext-ef3b3dee-3"
             x="223.43201"
             y="134.765"
             id="use9328" />
        </g>
        <g
           style="fill:#000000;fill-opacity:1"
           id="g9330">
          <use
             height="1052.3622"
             width="744.09448"
             xlink:href="#textext-ef3b3dee-5"
             x="232.179"
             y="136.259"
             id="use9332" />
          <use
             height="1052.3622"
             width="744.09448"
             xlink:href="#textext-ef3b3dee-6"
             x="236.14989"
             y="136.259"
             id="use9334" />
          <use
             height="1052.3622"
             width="744.09448"
             xlink:href="#textext-ef3b3dee-7"
             x="240.55035"
             y="136.259"
             id="use9336" />
        </g>
      </g>
    </g>
    <g
       ns0:text="d$y$"
       ns0:preamble="/home/me/.latex/inkscape/header.tex"
       transform="translate(-16.972093,-45.607875)"
       id="g10677">
      <defs
         id="defs10679">
        <g
           id="g10681">
          <symbol
             overflow="visible"
             id="textext-4ef59990-0">
            <path
               style="stroke:none;"
               d=""
               id="path10684" />
          </symbol>
          <symbol
             overflow="visible"
             id="textext-4ef59990-1">
            <path
               style="stroke:none;"
               d="M 5.25 0 L 5.25 -0.3125 C 4.5625 -0.3125 4.46875 -0.375 4.46875 -0.875 L 4.46875 -6.921875 L 3.046875 -6.8125 L 3.046875 -6.5 C 3.734375 -6.5 3.8125 -6.4375 3.8125 -5.9375 L 3.8125 -3.78125 C 3.53125 -4.140625 3.09375 -4.40625 2.5625 -4.40625 C 1.390625 -4.40625 0.34375 -3.421875 0.34375 -2.140625 C 0.34375 -0.875 1.3125 0.109375 2.453125 0.109375 C 3.09375 0.109375 3.53125 -0.234375 3.78125 -0.546875 L 3.78125 0.109375 Z M 3.78125 -1.171875 C 3.78125 -1 3.78125 -0.984375 3.671875 -0.8125 C 3.375 -0.328125 2.9375 -0.109375 2.5 -0.109375 C 2.046875 -0.109375 1.6875 -0.375 1.453125 -0.75 C 1.203125 -1.15625 1.171875 -1.71875 1.171875 -2.140625 C 1.171875 -2.5 1.1875 -3.09375 1.46875 -3.546875 C 1.6875 -3.859375 2.0625 -4.1875 2.609375 -4.1875 C 2.953125 -4.1875 3.375 -4.03125 3.671875 -3.59375 C 3.78125 -3.421875 3.78125 -3.40625 3.78125 -3.21875 Z "
               id="path10687" />
          </symbol>
          <symbol
             overflow="visible"
             id="textext-4ef59990-2">
            <path
               style="stroke:none;"
               d=""
               id="path10690" />
          </symbol>
          <symbol
             overflow="visible"
             id="textext-4ef59990-3">
            <path
               style="stroke:none;"
               d="M 4.84375 -3.796875 C 4.890625 -3.9375 4.890625 -3.953125 4.890625 -4.03125 C 4.890625 -4.203125 4.75 -4.296875 4.59375 -4.296875 C 4.5 -4.296875 4.34375 -4.234375 4.25 -4.09375 C 4.234375 -4.03125 4.140625 -3.734375 4.109375 -3.546875 L 3.90625 -2.75 L 3.453125 -0.953125 C 3.421875 -0.8125 2.984375 -0.109375 2.328125 -0.109375 C 1.828125 -0.109375 1.71875 -0.546875 1.71875 -0.921875 C 1.71875 -1.375 1.890625 -2 2.21875 -2.875 C 2.375 -3.28125 2.421875 -3.390625 2.421875 -3.59375 C 2.421875 -4.03125 2.109375 -4.40625 1.609375 -4.40625 C 0.65625 -4.40625 0.296875 -2.953125 0.296875 -2.875 C 0.296875 -2.765625 0.40625 -2.765625 0.40625 -2.765625 C 0.515625 -2.765625 0.515625 -2.796875 0.5625 -2.953125 C 0.84375 -3.890625 1.234375 -4.1875 1.578125 -4.1875 C 1.65625 -4.1875 1.828125 -4.1875 1.828125 -3.875 C 1.828125 -3.625 1.71875 -3.359375 1.65625 -3.171875 C 1.25 -2.109375 1.078125 -1.546875 1.078125 -1.078125 C 1.078125 -0.1875 1.703125 0.109375 2.296875 0.109375 C 2.6875 0.109375 3.015625 -0.0625 3.296875 -0.34375 C 3.171875 0.171875 3.046875 0.671875 2.65625 1.203125 C 2.390625 1.53125 2.015625 1.828125 1.5625 1.828125 C 1.421875 1.828125 0.96875 1.796875 0.796875 1.40625 C 0.953125 1.40625 1.09375 1.40625 1.21875 1.28125 C 1.328125 1.203125 1.421875 1.0625 1.421875 0.875 C 1.421875 0.5625 1.15625 0.53125 1.0625 0.53125 C 0.828125 0.53125 0.5 0.6875 0.5 1.171875 C 0.5 1.671875 0.9375 2.046875 1.5625 2.046875 C 2.578125 2.046875 3.609375 1.140625 3.890625 0.015625 Z "
               id="path10693" />
          </symbol>
        </g>
      </defs>
      <g
         id="textext-4ef59990-4">
        <g
           style="fill:rgb(0%,0%,0%);fill-opacity:1;"
           id="g10696">
          <use
             xlink:href="#textext-4ef59990-1"
             x="223.432"
             y="134.765"
             id="use10698" />
        </g>
        <g
           style="fill:rgb(0%,0%,0%);fill-opacity:1;"
           id="g10700">
          <use
             xlink:href="#textext-4ef59990-3"
             x="228.967"
             y="134.765"
             id="use10702" />
        </g>
      </g>
    </g>
    <g
       id="g11369"
       transform="translate(-62.002731,-32.620748)"
       ns0:preamble="/home/me/.latex/inkscape/header.tex"
       ns0:text="d$x$">
      <defs
         id="defs11371">
        <g
           id="g11373">
          <symbol
             id="textext-92f3c68d-0"
             overflow="visible">
            <path
               id="path11376"
               d=""
               style="stroke:none;" />
          </symbol>
          <symbol
             id="textext-92f3c68d-1"
             overflow="visible">
            <path
               id="path11379"
               d="M 5.25 0 L 5.25 -0.3125 C 4.5625 -0.3125 4.46875 -0.375 4.46875 -0.875 L 4.46875 -6.921875 L 3.046875 -6.8125 L 3.046875 -6.5 C 3.734375 -6.5 3.8125 -6.4375 3.8125 -5.9375 L 3.8125 -3.78125 C 3.53125 -4.140625 3.09375 -4.40625 2.5625 -4.40625 C 1.390625 -4.40625 0.34375 -3.421875 0.34375 -2.140625 C 0.34375 -0.875 1.3125 0.109375 2.453125 0.109375 C 3.09375 0.109375 3.53125 -0.234375 3.78125 -0.546875 L 3.78125 0.109375 Z M 3.78125 -1.171875 C 3.78125 -1 3.78125 -0.984375 3.671875 -0.8125 C 3.375 -0.328125 2.9375 -0.109375 2.5 -0.109375 C 2.046875 -0.109375 1.6875 -0.375 1.453125 -0.75 C 1.203125 -1.15625 1.171875 -1.71875 1.171875 -2.140625 C 1.171875 -2.5 1.1875 -3.09375 1.46875 -3.546875 C 1.6875 -3.859375 2.0625 -4.1875 2.609375 -4.1875 C 2.953125 -4.1875 3.375 -4.03125 3.671875 -3.59375 C 3.78125 -3.421875 3.78125 -3.40625 3.78125 -3.21875 Z "
               style="stroke:none;" />
          </symbol>
          <symbol
             id="textext-92f3c68d-2"
             overflow="visible">
            <path
               id="path11382"
               d=""
               style="stroke:none;" />
          </symbol>
          <symbol
             id="textext-92f3c68d-3"
             overflow="visible">
            <path
               id="path11385"
               d="M 4.9375 -1.421875 C 4.9375 -1.53125 4.859375 -1.53125 4.828125 -1.53125 C 4.734375 -1.53125 4.71875 -1.484375 4.6875 -1.421875 C 4.359375 -0.34375 3.6875 -0.109375 3.375 -0.109375 C 2.984375 -0.109375 2.828125 -0.421875 2.828125 -0.765625 C 2.828125 -0.984375 2.875 -1.203125 2.984375 -1.640625 L 3.328125 -3.015625 C 3.390625 -3.265625 3.625 -4.1875 4.3125 -4.1875 C 4.359375 -4.1875 4.609375 -4.1875 4.8125 -4.0625 C 4.53125 -4 4.34375 -3.765625 4.34375 -3.515625 C 4.34375 -3.359375 4.453125 -3.171875 4.71875 -3.171875 C 4.9375 -3.171875 5.25 -3.34375 5.25 -3.75 C 5.25 -4.265625 4.671875 -4.40625 4.328125 -4.40625 C 3.75 -4.40625 3.40625 -3.875 3.28125 -3.65625 C 3.03125 -4.3125 2.5 -4.40625 2.203125 -4.40625 C 1.171875 -4.40625 0.59375 -3.125 0.59375 -2.875 C 0.59375 -2.765625 0.71875 -2.765625 0.71875 -2.765625 C 0.796875 -2.765625 0.828125 -2.796875 0.84375 -2.875 C 1.1875 -3.9375 1.84375 -4.1875 2.1875 -4.1875 C 2.375 -4.1875 2.71875 -4.09375 2.71875 -3.515625 C 2.71875 -3.203125 2.546875 -2.546875 2.1875 -1.140625 C 2.03125 -0.53125 1.671875 -0.109375 1.234375 -0.109375 C 1.171875 -0.109375 0.953125 -0.109375 0.734375 -0.234375 C 0.984375 -0.296875 1.203125 -0.5 1.203125 -0.78125 C 1.203125 -1.046875 0.984375 -1.125 0.84375 -1.125 C 0.53125 -1.125 0.296875 -0.875 0.296875 -0.546875 C 0.296875 -0.09375 0.78125 0.109375 1.21875 0.109375 C 1.890625 0.109375 2.25 -0.59375 2.265625 -0.640625 C 2.390625 -0.28125 2.75 0.109375 3.34375 0.109375 C 4.375 0.109375 4.9375 -1.171875 4.9375 -1.421875 Z "
               style="stroke:none;" />
          </symbol>
        </g>
      </defs>
      <g
         id="textext-92f3c68d-4">
        <g
           id="g11388"
           style="fill:rgb(0%,0%,0%);fill-opacity:1;">
          <use
             id="use11390"
             y="134.765"
             x="223.432"
             xlink:href="#textext-92f3c68d-1" />
        </g>
        <g
           id="g11392"
           style="fill:rgb(0%,0%,0%);fill-opacity:1;">
          <use
             id="use11394"
             y="134.765"
             x="228.967"
             xlink:href="#textext-92f3c68d-3" />
        </g>
      </g>
    </g>
    <g
       id="g12751"
       transform="translate(-11.07924,-92.215015)"
       ns0:preamble="/home/me/.latex/inkscape/header.tex"
       ns0:text="d$z$">
      <defs
         id="defs12753">
        <g
           id="g12755">
          <symbol
             id="textext-1113ecf8-0"
             overflow="visible">
            <path
               id="path12758"
               d=""
               style="stroke:none;" />
          </symbol>
          <symbol
             id="textext-1113ecf8-1"
             overflow="visible">
            <path
               id="path12761"
               d="M 5.25 0 L 5.25 -0.3125 C 4.5625 -0.3125 4.46875 -0.375 4.46875 -0.875 L 4.46875 -6.921875 L 3.046875 -6.8125 L 3.046875 -6.5 C 3.734375 -6.5 3.8125 -6.4375 3.8125 -5.9375 L 3.8125 -3.78125 C 3.53125 -4.140625 3.09375 -4.40625 2.5625 -4.40625 C 1.390625 -4.40625 0.34375 -3.421875 0.34375 -2.140625 C 0.34375 -0.875 1.3125 0.109375 2.453125 0.109375 C 3.09375 0.109375 3.53125 -0.234375 3.78125 -0.546875 L 3.78125 0.109375 Z M 3.78125 -1.171875 C 3.78125 -1 3.78125 -0.984375 3.671875 -0.8125 C 3.375 -0.328125 2.9375 -0.109375 2.5 -0.109375 C 2.046875 -0.109375 1.6875 -0.375 1.453125 -0.75 C 1.203125 -1.15625 1.171875 -1.71875 1.171875 -2.140625 C 1.171875 -2.5 1.1875 -3.09375 1.46875 -3.546875 C 1.6875 -3.859375 2.0625 -4.1875 2.609375 -4.1875 C 2.953125 -4.1875 3.375 -4.03125 3.671875 -3.59375 C 3.78125 -3.421875 3.78125 -3.40625 3.78125 -3.21875 Z "
               style="stroke:none;" />
          </symbol>
          <symbol
             id="textext-1113ecf8-2"
             overflow="visible">
            <path
               id="path12764"
               d=""
               style="stroke:none;" />
          </symbol>
          <symbol
             id="textext-1113ecf8-3"
             overflow="visible">
            <path
               id="path12767"
               d="M 4.34375 -1.421875 C 4.34375 -1.46875 4.296875 -1.53125 4.21875 -1.53125 C 4.125 -1.53125 4.109375 -1.46875 4.078125 -1.390625 C 3.84375 -0.75 3.203125 -0.5625 2.875 -0.5625 C 2.6875 -0.5625 2.5 -0.625 2.296875 -0.6875 C 1.953125 -0.8125 1.796875 -0.859375 1.59375 -0.859375 C 1.59375 -0.859375 1.421875 -0.859375 1.328125 -0.828125 C 1.859375 -1.40625 2.15625 -1.65625 2.515625 -1.96875 C 2.515625 -1.96875 3.125 -2.5 3.484375 -2.859375 C 4.4375 -3.78125 4.65625 -4.265625 4.65625 -4.3125 C 4.65625 -4.40625 4.546875 -4.40625 4.546875 -4.40625 C 4.46875 -4.40625 4.453125 -4.390625 4.390625 -4.296875 C 4.09375 -3.8125 3.890625 -3.65625 3.65625 -3.65625 C 3.40625 -3.65625 3.296875 -3.8125 3.140625 -3.984375 C 2.953125 -4.203125 2.78125 -4.40625 2.453125 -4.40625 C 1.703125 -4.40625 1.25 -3.484375 1.25 -3.265625 C 1.25 -3.21875 1.28125 -3.15625 1.359375 -3.15625 C 1.453125 -3.15625 1.46875 -3.203125 1.5 -3.265625 C 1.6875 -3.734375 2.265625 -3.734375 2.34375 -3.734375 C 2.546875 -3.734375 2.734375 -3.671875 2.96875 -3.59375 C 3.375 -3.4375 3.484375 -3.4375 3.734375 -3.4375 C 3.375 -3.015625 2.546875 -2.296875 2.359375 -2.140625 L 1.453125 -1.296875 C 0.78125 -0.625 0.421875 -0.0625 0.421875 0.015625 C 0.421875 0.109375 0.546875 0.109375 0.546875 0.109375 C 0.625 0.109375 0.640625 0.09375 0.703125 -0.015625 C 0.9375 -0.375 1.234375 -0.640625 1.5625 -0.640625 C 1.78125 -0.640625 1.890625 -0.546875 2.140625 -0.265625 C 2.296875 -0.046875 2.484375 0.109375 2.765625 0.109375 C 3.765625 0.109375 4.34375 -1.15625 4.34375 -1.421875 Z "
               style="stroke:none;" />
          </symbol>
        </g>
      </defs>
      <g
         id="textext-1113ecf8-4">
        <g
           id="g12770"
           style="fill:rgb(0%,0%,0%);fill-opacity:1;">
          <use
             id="use12772"
             y="134.765"
             x="223.432"
             xlink:href="#textext-1113ecf8-1" />
        </g>
        <g
           id="g12774"
           style="fill:rgb(0%,0%,0%);fill-opacity:1;">
          <use
             id="use12776"
             y="134.765"
             x="228.967"
             xlink:href="#textext-1113ecf8-3" />
        </g>
      </g>
    </g>
  </g>
</svg>
