<?xml version="1.0" encoding="UTF-8" standalone="no"?>
<!-- Created with Inkscape (http://www.inkscape.org/) -->
<svg
   xmlns:ns0="http://www.iki.fi/pav/software/textext/"
   xmlns:dc="http://purl.org/dc/elements/1.1/"
   xmlns:cc="http://creativecommons.org/ns#"
   xmlns:rdf="http://www.w3.org/1999/02/22-rdf-syntax-ns#"
   xmlns:svg="http://www.w3.org/2000/svg"
   xmlns="http://www.w3.org/2000/svg"
   xmlns:sodipodi="http://sodipodi.sourceforge.net/DTD/sodipodi-0.dtd"
   xmlns:inkscape="http://www.inkscape.org/namespaces/inkscape"
   width="744.09448819"
   height="1052.3622047"
   id="svg4321"
   sodipodi:version="0.32"
   inkscape:version="0.46"
   sodipodi:docname="SonarPrinciple2.svg"
   inkscape:output_extension="org.inkscape.output.svg.inkscape">
  <defs
     id="defs4323">
    <marker
       style="overflow:visible"
       id="Arrow1Lend"
       refX="0"
       refY="0"
       orient="auto"
       inkscape:stockid="Arrow1Lend">
      <path
         transform="matrix(-0.8,0,0,-0.8,-10,0)"
         style="fill-rule:evenodd;stroke:#000000;stroke-width:1pt;marker-start:none"
         d="M 0,0 L 5,-5 L -12.5,0 L 5,5 L 0,0 z"
         id="path3161" />
    </marker>
    <inkscape:perspective
       sodipodi:type="inkscape:persp3d"
       inkscape:vp_x="0 : 526.18109 : 1"
       inkscape:vp_y="0 : 1000 : 0"
       inkscape:vp_z="744.09448 : 526.18109 : 1"
       inkscape:persp3d-origin="372.04724 : 350.78739 : 1"
       id="perspective4329" />
  </defs>
  <sodipodi:namedview
     id="base"
     pagecolor="#ffffff"
     bordercolor="#666666"
     borderopacity="1.0"
     gridtolerance="10000"
     guidetolerance="10"
     objecttolerance="10"
     inkscape:pageopacity="0.0"
     inkscape:pageshadow="2"
     inkscape:zoom="0.35"
     inkscape:cx="375"
     inkscape:cy="520"
     inkscape:document-units="px"
     inkscape:current-layer="layer1"
     showgrid="false"
     inkscape:window-width="640"
     inkscape:window-height="674"
     inkscape:window-x="752"
     inkscape:window-y="306" />
  <metadata
     id="metadata4326">
    <rdf:RDF>
      <cc:Work
         rdf:about="">
        <dc:format>image/svg+xml</dc:format>
        <dc:type
           rdf:resource="http://purl.org/dc/dcmitype/StillImage" />
      </cc:Work>
    </rdf:RDF>
  </metadata>
  <g
     inkscape:label="Layer 1"
     inkscape:groupmode="layer"
     id="layer1">
    <path
       sodipodi:nodetypes="ccc"
       id="path10952"
       d="M 652.04764,677.46128 L 149.4697,596.91534 L 408.4697,728.91534"
       style="fill:none;fill-rule:evenodd;stroke:#ff0000;stroke-width:0.2;stroke-linecap:butt;stroke-linejoin:miter;stroke-miterlimit:4;stroke-dasharray:none;stroke-opacity:1" />
    <path
       sodipodi:nodetypes="cssssss"
       id="path3945"
       d="M 216.07955,531.62189 C 202.83849,518.48888 153.76484,555.13081 132.5998,575.30787 C 115.09349,591.99701 83.045936,623.51013 82.175136,649.41433 C 81.419376,671.8967 48.917376,638.93448 77.715426,669.06098 C 103.799,696.34779 74.130826,664.19873 97.52043,663.70431 C 123.04645,663.16472 154.04939,633.91749 172.19016,615.84102 C 192.3719,595.73082 229.12054,544.55647 216.07955,531.62189 z"
       style="fill:none;fill-rule:evenodd;stroke:#000000;stroke-width:0.35971606;stroke-linecap:butt;stroke-linejoin:miter;stroke-miterlimit:4;stroke-dasharray:0.35971606, 0.35971606;stroke-dashoffset:0;stroke-opacity:1" />
    <path
       id="path6530"
       d="M 13.582916,733.97866 L 564.29721,183.26438"
       style="fill:none;fill-rule:evenodd;stroke:#000000;stroke-width:1;stroke-linecap:butt;stroke-linejoin:miter;stroke-miterlimit:4;stroke-dasharray:1, 2;stroke-dashoffset:0;stroke-opacity:1" />
    <path
       id="path8211"
       d="M 149.12311,597.76801 L 149.12311,803.768"
       style="fill:none;fill-rule:evenodd;stroke:#000000;stroke-width:1;stroke-linecap:butt;stroke-linejoin:miter;marker-start:none;marker-end:url(#Arrow1Lend);stroke-miterlimit:4;stroke-dasharray:1, 2;stroke-dashoffset:0;stroke-opacity:1" />
    <path
       id="path8213"
       d="M 149.13472,804.88856 L 651.62311,804.88856"
       style="fill:none;fill-rule:evenodd;stroke:#000000;stroke-width:1;stroke-linecap:butt;stroke-linejoin:miter;marker-end:url(#Arrow1Lend);stroke-miterlimit:4;stroke-dasharray:1, 2;stroke-dashoffset:0;stroke-opacity:1" />
    <path
       transform="translate(-95.583809,197.12584)"
       d="M 248.03571,401.06754 A 3.2589285,3.2589285 0 1 1 241.51785,401.06754 A 3.2589285,3.2589285 0 1 1 248.03571,401.06754 z"
       sodipodi:ry="3.2589285"
       sodipodi:rx="3.2589285"
       sodipodi:cy="401.06754"
       sodipodi:cx="244.77678"
       id="path3935"
       style="opacity:1;fill:#ff0000;fill-opacity:1;stroke:#ff0000;stroke-width:1;stroke-miterlimit:4;stroke-dasharray:none;stroke-dashoffset:0;stroke-opacity:1"
       sodipodi:type="arc" />
    <path
       sodipodi:nodetypes="cssssss"
       id="path10281"
       d="M 397.73067,349.93917 C 384.48961,336.80616 335.41596,373.44809 314.25092,393.62515 C 296.74461,410.31429 264.69705,441.82741 263.82626,467.73161 C 263.07049,490.21398 230.5685,457.25176 259.36655,487.37826 C 285.45012,514.66507 255.78194,482.51601 279.17154,482.02159 C 304.69757,481.482 335.70051,452.23477 353.84128,434.1583 C 374.02302,414.0481 410.77166,362.87375 397.73067,349.93917 z"
       style="fill:none;fill-rule:evenodd;stroke:#000000;stroke-width:0.35971606;stroke-linecap:butt;stroke-linejoin:miter;stroke-miterlimit:4;stroke-dasharray:0.35971606, 0.35971606;stroke-dashoffset:0;stroke-opacity:1" />
    <path
       id="path10283"
       d="M 330.77423,416.08529 L 330.77423,622.08528"
       style="fill:none;fill-rule:evenodd;stroke:#000000;stroke-width:1;stroke-linecap:butt;stroke-linejoin:miter;marker-start:none;marker-end:none;stroke-miterlimit:4;stroke-dasharray:1, 2;stroke-dashoffset:0;stroke-opacity:1" />
    <path
       id="path10285"
       d="M 330.78584,623.20584 L 833.27423,623.20584"
       style="fill:none;fill-rule:evenodd;stroke:#000000;stroke-width:1;stroke-linecap:butt;stroke-linejoin:miter;marker-end:url(#Arrow1Lend);stroke-miterlimit:4;stroke-dasharray:1, 2;stroke-dashoffset:0;stroke-opacity:1" />
    <path
       sodipodi:nodetypes="css"
       id="path10950"
       d="M 397.80853,702.26331 C 452.21777,646.68855 766.15782,669.57856 716.75704,719.25321 C 655.37149,780.97908 350.97802,750.09699 397.80853,702.26331 z"
       style="fill:#fff6d5;fill-rule:evenodd;stroke:#000000;stroke-width:1.19517314px;stroke-linecap:butt;stroke-linejoin:miter;stroke-opacity:1" />
    <path
       id="path10958"
       d="M 243.2197,503.85506 L 243.2197,709.85505"
       style="fill:none;fill-rule:evenodd;stroke:#000000;stroke-width:1;stroke-linecap:butt;stroke-linejoin:miter;marker-start:none;marker-end:none;stroke-miterlimit:4;stroke-dasharray:1, 2;stroke-dashoffset:0;stroke-opacity:1" />
    <path
       id="path10960"
       d="M 243.23131,710.97561 L 745.7197,710.97561"
       style="fill:none;fill-rule:evenodd;stroke:#000000;stroke-width:1;stroke-linecap:butt;stroke-linejoin:miter;marker-end:url(#Arrow1Lend);stroke-miterlimit:4;stroke-dasharray:1, 2;stroke-dashoffset:0;stroke-opacity:1" />
    <path
       id="path10962"
       d="M 309.73679,430.92831 L 351.63287,389.03224 L 351.63287,383.55216 L 309.60421,425.58082 L 309.73679,430.92831 z"
       style="fill:#0000ff;fill-rule:evenodd;stroke:#000000;stroke-width:0.5;stroke-linecap:butt;stroke-linejoin:miter;stroke-miterlimit:4;stroke-dasharray:none;stroke-opacity:1" />
    <path
       transform="translate(85.841756,16.028038)"
       d="M 248.03571,401.06754 A 3.2589285,3.2589285 0 1 1 241.51785,401.06754 A 3.2589285,3.2589285 0 1 1 248.03571,401.06754 z"
       sodipodi:ry="3.2589285"
       sodipodi:rx="3.2589285"
       sodipodi:cy="401.06754"
       sodipodi:cx="244.77678"
       id="path10964"
       style="opacity:1;fill:#28170b;fill-opacity:1;stroke:#28170b;stroke-width:1;stroke-miterlimit:4;stroke-dasharray:none;stroke-dashoffset:0;stroke-opacity:1"
       sodipodi:type="arc" />
    <path
       id="path10966"
       d="M 309.73679,450.63892 L 351.63287,408.74285 L 351.63287,403.26277 L 309.60421,445.29143 L 309.73679,450.63892 z"
       style="fill:#0000ff;fill-rule:evenodd;stroke:#000000;stroke-width:0.5;stroke-linecap:butt;stroke-linejoin:miter;stroke-miterlimit:4;stroke-dasharray:none;stroke-opacity:1" />
    <path
       id="path10968"
       d="M 128.32966,612.01792 L 170.22574,570.12185 L 170.22574,564.64177 L 128.19708,606.67043 L 128.32966,612.01792 z"
       style="fill:none;fill-rule:evenodd;stroke:#000000;stroke-width:0.5;stroke-linecap:butt;stroke-linejoin:miter;stroke-miterlimit:4;stroke-dasharray:none;stroke-opacity:1" />
    <path
       id="path10972"
       d="M 128.32966,631.72853 L 170.22574,589.83246 L 170.22574,584.35238 L 128.19708,626.38104 L 128.32966,631.72853 z"
       style="fill:none;fill-rule:evenodd;stroke:#000000;stroke-width:0.5;stroke-linecap:butt;stroke-linejoin:miter;stroke-miterlimit:4;stroke-dasharray:none;stroke-opacity:1" />
    <path
       sodipodi:nodetypes="cc"
       id="path10976"
       d="M 192.7197,618.66534 C 196.47995,615.25892 199.48926,611.10157 200.5947,605.04034"
       style="fill:none;fill-rule:evenodd;stroke:#ff0000;stroke-width:0.5;stroke-linecap:butt;stroke-linejoin:miter;stroke-miterlimit:4;stroke-dasharray:none;stroke-opacity:1" />
    <path
       sodipodi:nodetypes="cc"
       id="path10978"
       d="M 219.08543,632.27376 C 227.0613,625.53858 230.48405,618.04454 230.46347,609.97661"
       style="fill:none;fill-rule:evenodd;stroke:#ff0000;stroke-width:0.5;stroke-linecap:butt;stroke-linejoin:miter;stroke-miterlimit:4;stroke-dasharray:none;stroke-opacity:1" />
    <path
       sodipodi:nodetypes="cc"
       id="path10980"
       d="M 255.94684,650.84661 C 264.61305,642.41809 270.94509,629.13499 271.61226,616.70695"
       style="fill:none;fill-rule:evenodd;stroke:#ff0000;stroke-width:0.5;stroke-linecap:butt;stroke-linejoin:miter;stroke-miterlimit:4;stroke-dasharray:none;stroke-opacity:1" />
    <path
       sodipodi:nodetypes="cc"
       id="path10986"
       d="M 301.34812,673.93748 C 313.00998,660.95946 320.15771,643.2341 323.65491,624.76875"
       style="fill:none;fill-rule:evenodd;stroke:#ff0000;stroke-width:0.5;stroke-linecap:butt;stroke-linejoin:miter;stroke-miterlimit:4;stroke-dasharray:none;stroke-opacity:1" />
    <path
       sodipodi:nodetypes="cc"
       id="path10988"
       d="M 349.63827,700.12987 C 364.39868,683.28567 375.95382,663.52759 376.15662,633.4492"
       style="fill:none;fill-rule:evenodd;stroke:#ff0000;stroke-width:0.5;stroke-linecap:butt;stroke-linejoin:miter;stroke-miterlimit:4;stroke-dasharray:none;stroke-opacity:1" />
    <path
       sodipodi:nodetypes="cc"
       id="path10994"
       d="M 365.26194,621.69734 C 439.20066,605.07016 536.27151,598.24478 598.90869,598.56992"
       style="fill:none;fill-rule:evenodd;stroke:#0000ff;stroke-width:0.5;stroke-linecap:butt;stroke-linejoin:miter;stroke-miterlimit:4;stroke-dasharray:none;stroke-opacity:1" />
    <path
       sodipodi:nodetypes="cc"
       id="path10996"
       d="M 346.4127,564.67905 C 361.82521,560.00436 442.15698,542.81184 530.91984,538.54427"
       style="fill:none;fill-rule:evenodd;stroke:#0000ff;stroke-width:0.5;stroke-linecap:butt;stroke-linejoin:miter;stroke-miterlimit:4;stroke-dasharray:none;stroke-opacity:1" />
    <path
       sodipodi:nodetypes="cc"
       id="path10998"
       d="M 328.18478,508.19629 C 359.72083,500.79842 448.17287,489.31626 472.91411,488.53944"
       style="fill:none;fill-rule:evenodd;stroke:#0000ff;stroke-width:0.5;stroke-linecap:butt;stroke-linejoin:miter;stroke-miterlimit:4;stroke-dasharray:none;stroke-opacity:1" />
    <path
       transform="translate(-1.7867036,103.3714)"
       d="M 248.03571,401.06754 A 3.2589285,3.2589285 0 1 1 241.51785,401.06754 A 3.2589285,3.2589285 0 1 1 248.03571,401.06754 z"
       sodipodi:ry="3.2589285"
       sodipodi:rx="3.2589285"
       sodipodi:cy="401.06754"
       sodipodi:cx="244.77678"
       id="path12030"
       style="opacity:1;fill:#333333;fill-opacity:1;stroke:#333333;stroke-width:1;stroke-miterlimit:4;stroke-dasharray:none;stroke-dashoffset:0;stroke-opacity:1"
       sodipodi:type="arc" />
    <g
       id="g12415"
       ns0:preamble="/home/me/.latex/inkscape/header.tex"
       ns0:text="PCA\n"
       style="font-style:normal;font-variant:normal;font-weight:normal;font-stretch:normal;letter-spacing:normal;word-spacing:normal;text-anchor:start;fill:none;fill-opacity:1;stroke:#000000;stroke-linecap:butt;stroke-linejoin:miter;stroke-miterlimit:10.43299961;stroke-dasharray:none;stroke-dashoffset:0;stroke-opacity:1"
       xml:space="preserve"
       transform="matrix(0.8,0,0,-0.8,40.903186,888.47012)">
<path
   id="path12417"
   style="fill:#000000;stroke-width:0"
   d="M 229.65,482.18 L 229.65,482.28 L 229.64,482.37 L 229.62,482.46 L 229.6,482.54 L 229.58,482.63 L 229.55,482.72 L 229.51,482.8 L 229.47,482.89 L 229.43,482.97 L 229.38,483.05 L 229.32,483.12 L 229.27,483.2 L 229.2,483.27 L 229.13,483.34 L 229.06,483.41 L 228.99,483.48 L 228.91,483.54 L 228.82,483.6 L 228.73,483.65 L 228.64,483.71 L 228.55,483.76 L 228.45,483.8 L 228.35,483.85 L 228.24,483.88 L 228.13,483.92 L 228.02,483.95 L 227.91,483.98 L 227.79,484 L 227.67,484.01 L 227.55,484.03 L 227.42,484.03 L 227.3,484.04 L 223.78,484.04 L 223.78,483.73 L 224.02,483.73 C 224.79,483.73 224.81,483.62 224.81,483.26 L 224.81,478.01 C 224.81,477.65 224.79,477.54 224.02,477.54 L 223.78,477.54 L 223.78,477.23 C 224.13,477.26 224.87,477.26 225.25,477.26 C 225.62,477.26 226.37,477.26 226.72,477.23 L 226.72,477.54 L 226.48,477.54 C 225.71,477.54 225.69,477.65 225.69,478.01 L 225.69,480.38 L 225.66,480.64 L 225.66,483.33 C 225.66,483.66 225.68,483.73 226.15,483.73 L 227.04,483.73 C 228.62,483.73 228.62,482.67 228.62,482.18 L 228.62,482.18 C 228.62,481.72 228.62,480.64 227.04,480.64 L 225.66,480.64 L 225.69,480.38 L 227.38,480.38 C 228.57,480.38 229.65,481.19 229.65,482.18 z" />
<path
   id="path12419"
   style="fill:#000000;stroke-width:0"
   d="M 236.84,479.55 L 236.84,479.56 L 236.84,479.57 L 236.84,479.58 L 236.84,479.59 L 236.84,479.6 L 236.84,479.61 L 236.84,479.61 L 236.84,479.62 L 236.84,479.63 L 236.83,479.64 L 236.83,479.64 L 236.83,479.65 L 236.83,479.66 L 236.83,479.66 L 236.82,479.67 L 236.82,479.68 L 236.82,479.68 L 236.81,479.69 L 236.81,479.69 L 236.81,479.7 L 236.8,479.7 L 236.8,479.7 L 236.79,479.71 L 236.79,479.71 L 236.79,479.71 L 236.78,479.71 L 236.78,479.71 L 236.78,479.71 L 236.77,479.71 L 236.77,479.72 L 236.76,479.72 L 236.76,479.72 L 236.76,479.72 L 236.75,479.72 L 236.75,479.72 L 236.74,479.72 L 236.74,479.72 L 236.73,479.72 L 236.73,479.72 L 236.72,479.72 L 236.71,479.72 L 236.71,479.72 C 236.6,479.72 236.6,479.66 236.59,479.56 C 236.51,478.14 235.44,477.32 234.36,477.32 C 233.75,477.32 231.8,477.66 231.8,480.63 C 231.8,483.61 233.74,483.95 234.35,483.95 C 235.43,483.95 236.32,483.04 236.52,481.59 C 236.54,481.45 236.54,481.42 236.68,481.42 C 236.84,481.42 236.84,481.45 236.84,481.66 L 236.84,484.02 C 236.84,484.19 236.84,484.26 236.73,484.26 C 236.69,484.26 236.65,484.26 236.57,484.14 L 236.07,483.4 C 235.7,483.76 235.19,484.26 234.24,484.26 C 232.37,484.26 230.77,482.67 230.77,480.64 C 230.77,478.58 232.38,477.01 234.24,477.01 C 235.86,477.01 236.84,478.4 236.84,479.55 z" />
<path
   id="path12421"
   style="fill:#000000;stroke-width:0"
   d="M 244.55,477.23 L 244.55,477.54 L 244.37,477.54 C 243.77,477.54 243.63,477.61 243.52,477.94 L 241.37,484.17 C 241.32,484.3 241.3,484.37 241.14,484.37 C 240.98,484.37 240.95,484.31 240.9,484.17 L 238.84,478.21 C 238.66,477.7 238.26,477.55 237.72,477.54 L 237.72,477.23 L 238.74,477.26 L 239.89,477.23 L 239.89,477.54 C 239.39,477.54 239.14,477.79 239.14,478.05 C 239.14,478.08 239.15,478.18 239.16,478.2 L 239.62,479.5 L 239.73,479.81 L 240.84,483.05 L 241.97,479.81 L 239.73,479.81 L 239.62,479.5 L 242.08,479.5 L 242.6,477.98 C 242.62,477.94 242.63,477.88 242.63,477.84 C 242.63,477.54 242.08,477.54 241.81,477.54 L 241.81,477.23 C 242.17,477.26 242.87,477.26 243.24,477.26 L 244.55,477.23 z" />
</g>    <g
       transform="matrix(0.8,0,0,-0.8,-36.810854,961.9075)"
       xml:space="preserve"
       style="font-style:normal;font-variant:normal;font-weight:normal;font-stretch:normal;letter-spacing:normal;word-spacing:normal;text-anchor:start;fill:none;fill-opacity:1;stroke:#000000;stroke-linecap:butt;stroke-linejoin:miter;stroke-miterlimit:10.43299961;stroke-dasharray:none;stroke-dashoffset:0;stroke-opacity:1"
       ns0:text="TX\n"
       ns0:preamble="/home/me/.latex/inkscape/header.tex"
       id="g13167">
<path
   d="M 230.26,481.74 L 230.07,483.98 L 223.98,483.98 L 223.79,481.74 L 224.04,481.74 C 224.18,483.34 224.33,483.67 225.83,483.67 C 226.01,483.67 226.27,483.67 226.37,483.65 C 226.58,483.61 226.58,483.5 226.58,483.27 L 226.58,478.02 C 226.58,477.68 226.58,477.54 225.54,477.54 L 225.14,477.54 L 225.14,477.23 C 225.54,477.26 226.56,477.26 227.02,477.26 C 227.48,477.26 228.5,477.26 228.91,477.23 L 228.91,477.54 L 228.51,477.54 C 227.47,477.54 227.47,477.68 227.47,478.02 L 227.47,483.27 C 227.47,483.47 227.47,483.61 227.65,483.65 C 227.76,483.67 228.02,483.67 228.21,483.67 C 229.72,483.67 229.87,483.34 230.01,481.74 L 230.26,481.74 z"
   style="fill:#000000;stroke-width:0"
   id="path13169" />
<path
   d="M 237.86,477.23 L 237.86,477.54 L 237.67,477.54 C 237.15,477.54 236.94,477.59 236.73,477.9 L 234.63,481.08 L 235.99,483.08 C 236.21,483.4 236.55,483.72 237.44,483.73 L 237.44,484.04 L 236.33,484.01 C 235.93,484.01 235.46,484.01 235.06,484.04 L 235.06,483.73 C 235.46,483.72 235.68,483.5 235.68,483.27 C 235.68,483.17 235.66,483.15 235.59,483.04 L 234.45,481.36 L 233.16,483.28 C 233.15,483.31 233.1,483.39 233.1,483.43 C 233.1,483.55 233.32,483.72 233.74,483.73 L 233.74,484.04 C 233.4,484.01 232.67,484.01 232.29,484.01 L 230.99,484.04 L 230.99,483.73 L 231.18,483.73 C 231.73,483.73 231.92,483.66 232.11,483.38 L 233.94,480.61 L 232.31,478.2 C 232.17,478 231.87,477.54 230.86,477.54 L 230.86,477.23 L 231.97,477.26 C 232.34,477.26 232.89,477.26 233.24,477.23 L 233.24,477.54 C 232.79,477.55 232.62,477.82 232.62,478 C 232.62,478.09 232.65,478.13 232.72,478.24 L 234.13,480.33 L 235.71,477.95 C 235.73,477.91 235.76,477.87 235.76,477.84 C 235.76,477.72 235.54,477.55 235.11,477.54 L 235.11,477.23 C 235.46,477.26 236.18,477.26 236.56,477.26 L 237.86,477.23 z"
   style="fill:#000000;stroke-width:0"
   id="path13171" />
</g>    <g
       id="g13917"
       ns0:preamble="/home/me/.latex/inkscape/header.tex"
       ns0:text="RX\n\n"
       style="font-style:normal;font-variant:normal;font-weight:normal;font-stretch:normal;letter-spacing:normal;word-spacing:normal;text-anchor:start;fill:none;fill-opacity:1;stroke:#000000;stroke-linecap:butt;stroke-linejoin:miter;stroke-miterlimit:10.43299961;stroke-dasharray:none;stroke-dashoffset:0;stroke-opacity:1"
       xml:space="preserve"
       transform="matrix(0.8,0,0,-0.8,143.89001,781.11315)">
<path
   id="path13919"
   style="fill:#000000;stroke-width:0"
   d="M 230.73,478.11 L 230.73,478.11 L 230.72,478.12 L 230.72,478.13 L 230.72,478.13 L 230.72,478.14 L 230.72,478.15 L 230.72,478.15 L 230.72,478.16 L 230.72,478.17 L 230.72,478.18 L 230.72,478.18 L 230.72,478.19 L 230.72,478.2 L 230.71,478.2 L 230.71,478.21 L 230.71,478.22 L 230.71,478.22 L 230.7,478.23 L 230.7,478.24 L 230.69,478.24 L 230.69,478.25 L 230.68,478.25 L 230.68,478.25 L 230.68,478.26 L 230.67,478.26 L 230.67,478.26 L 230.67,478.26 L 230.66,478.26 L 230.66,478.27 L 230.66,478.27 L 230.65,478.27 L 230.65,478.27 L 230.64,478.27 L 230.64,478.27 L 230.63,478.28 L 230.63,478.28 L 230.62,478.28 L 230.62,478.28 L 230.61,478.28 L 230.61,478.28 L 230.6,478.28 L 230.6,478.28 C 230.49,478.28 230.49,478.19 230.48,478.12 C 230.42,477.41 230.07,477.23 229.82,477.23 C 229.33,477.23 229.25,477.74 229.11,478.67 L 228.98,479.46 C 228.8,480.1 228.31,480.43 227.77,480.62 C 228.73,480.86 229.51,481.47 229.51,482.24 C 229.51,483.2 228.37,484.04 226.91,484.04 L 223.78,484.04 L 223.78,483.73 L 224.02,483.73 C 224.79,483.73 224.81,483.62 224.81,483.26 L 224.81,478.01 C 224.81,477.65 224.79,477.54 224.02,477.54 L 223.78,477.54 L 223.78,477.23 C 224.14,477.26 224.85,477.26 225.24,477.26 C 225.62,477.26 226.33,477.26 226.69,477.23 L 226.69,477.54 L 226.45,477.54 C 225.68,477.54 225.66,477.65 225.66,478.01 L 225.66,480.53 L 225.66,480.75 L 225.66,483.33 C 225.66,483.56 225.66,483.68 225.88,483.71 C 225.98,483.73 226.27,483.73 226.47,483.73 C 227.37,483.73 228.48,483.69 228.48,482.24 L 228.48,482.24 C 228.48,481.56 228.24,480.75 226.77,480.75 L 225.66,480.75 L 225.66,480.53 L 226.81,480.53 C 226.97,480.53 227.39,480.53 227.74,480.19 C 228.12,479.83 228.12,479.52 228.12,478.86 C 228.12,478.21 228.12,477.81 228.52,477.43 C 228.93,477.07 229.48,477.01 229.78,477.01 C 230.56,477.01 230.73,477.83 230.73,478.11 z" />
<path
   id="path13921"
   style="fill:#000000;stroke-width:0"
   d="M 238,477.23 L 238,477.54 L 237.81,477.54 C 237.29,477.54 237.08,477.59 236.88,477.9 L 234.77,481.08 L 236.14,483.08 C 236.36,483.4 236.7,483.72 237.58,483.73 L 237.58,484.04 L 236.48,484.01 C 236.08,484.01 235.6,484.01 235.2,484.04 L 235.2,483.73 C 235.6,483.72 235.82,483.5 235.82,483.27 C 235.82,483.17 235.8,483.15 235.73,483.04 L 234.59,481.36 L 233.31,483.28 C 233.29,483.31 233.24,483.39 233.24,483.43 C 233.24,483.55 233.46,483.72 233.89,483.73 L 233.89,484.04 C 233.54,484.01 232.81,484.01 232.43,484.01 L 231.14,484.04 L 231.14,483.73 L 231.32,483.73 C 231.87,483.73 232.06,483.66 232.25,483.38 L 234.09,480.61 L 232.45,478.2 C 232.31,478 232.01,477.54 231.01,477.54 L 231.01,477.23 L 232.11,477.26 C 232.48,477.26 233.03,477.26 233.39,477.23 L 233.39,477.54 C 232.93,477.55 232.76,477.82 232.76,478 C 232.76,478.09 232.79,478.13 232.86,478.24 L 234.27,480.33 L 235.85,477.95 C 235.87,477.91 235.9,477.87 235.9,477.84 C 235.9,477.72 235.68,477.55 235.25,477.54 L 235.25,477.23 C 235.6,477.26 236.33,477.26 236.71,477.26 L 238,477.23 z" />
</g>    <path
       style="fill:none;fill-rule:evenodd;stroke:#0000ff;stroke-width:0.2;stroke-linecap:butt;stroke-linejoin:miter;stroke-miterlimit:4;stroke-dasharray:none;stroke-opacity:1"
       d="M 309.6349,450.69882 L 392.89672,708.08569"
       id="path14294" />
    <path
       style="fill:none;fill-rule:evenodd;stroke:#0000ff;stroke-width:0.2;stroke-linecap:butt;stroke-linejoin:miter;stroke-miterlimit:4;stroke-dasharray:none;stroke-opacity:1"
       d="M 351.17742,383.52367 L 720.99426,702.42883"
       id="path14296" />
    <path
       id="path7694"
       d="M 10.682123,950.2515 L 561.39612,399.53747"
       style="fill:none;fill-rule:evenodd;stroke:#000000;stroke-width:0.5;stroke-linecap:butt;stroke-linejoin:miter;marker-start:url(#Arrow1Lend);stroke-miterlimit:4;stroke-dasharray:0.5, 1;stroke-dashoffset:0;stroke-opacity:1" />
  </g>
</svg>
