<?xml version="1.0" encoding="UTF-8" standalone="no"?>
<!-- Created with Inkscape (http://www.inkscape.org/) -->

<svg
   xmlns:ns0="http://www.iki.fi/pav/software/textext/"
   xmlns:dc="http://purl.org/dc/elements/1.1/"
   xmlns:cc="http://creativecommons.org/ns#"
   xmlns:rdf="http://www.w3.org/1999/02/22-rdf-syntax-ns#"
   xmlns:svg="http://www.w3.org/2000/svg"
   xmlns="http://www.w3.org/2000/svg"
   xmlns:sodipodi="http://sodipodi.sourceforge.net/DTD/sodipodi-0.dtd"
   xmlns:inkscape="http://www.inkscape.org/namespaces/inkscape"
   width="210mm"
   height="297mm"
   viewBox="0 0 744.09448819 1052.3622047"
   id="svg2"
   version="1.1"
   inkscape:version="0.91 r13725"
   sodipodi:docname="code_description.svg">
  <sodipodi:namedview
     id="base"
     pagecolor="#ffffff"
     bordercolor="#666666"
     borderopacity="1.0"
     inkscape:pageopacity="0.0"
     inkscape:pageshadow="2"
     inkscape:zoom="1.4"
     inkscape:cx="373.71667"
     inkscape:cy="899.97054"
     inkscape:document-units="px"
     inkscape:current-layer="layer1"
     showgrid="true"
     inkscape:window-width="1122"
     inkscape:window-height="961"
     inkscape:window-x="3590"
     inkscape:window-y="0"
     inkscape:window-maximized="0"
     inkscape:snap-global="false"
     inkscape:object-nodes="true">
    <inkscape:grid
       id="grid4136"
       type="xygrid" />
  </sodipodi:namedview>
  <defs
     id="defs4">
    <marker
       inkscape:stockid="Arrow2Lend"
       orient="auto"
       refY="0.0"
       refX="0.0"
       id="marker6519"
       style="overflow:visible;"
       inkscape:isstock="true">
      <path
         id="path6521"
         style="fill-rule:evenodd;stroke-width:0.625;stroke-linejoin:round;stroke:#000000;stroke-opacity:1;fill:#000000;fill-opacity:1"
         d="M 8.7185878,4.0337352 L -2.2072895,0.016013256 L 8.7185884,-4.0017078 C 6.9730900,-1.6296469 6.9831476,1.6157441 8.7185878,4.0337352 z "
         transform="scale(1.1) rotate(180) translate(1,0)" />
    </marker>
    <marker
       inkscape:stockid="Arrow2Lend"
       orient="auto"
       refY="0.0"
       refX="0.0"
       id="Arrow2Lend"
       style="overflow:visible;"
       inkscape:isstock="true">
      <path
         id="path6140"
         style="fill-rule:evenodd;stroke-width:0.625;stroke-linejoin:round;stroke:#000000;stroke-opacity:1;fill:#000000;fill-opacity:1"
         d="M 8.7185878,4.0337352 L -2.2072895,0.016013256 L 8.7185884,-4.0017078 C 6.9730900,-1.6296469 6.9831476,1.6157441 8.7185878,4.0337352 z "
         transform="scale(1.1) rotate(180) translate(1,0)" />
    </marker>
    <marker
       inkscape:stockid="Arrow2Lstart"
       orient="auto"
       refY="0.0"
       refX="0.0"
       id="Arrow2Lstart"
       style="overflow:visible"
       inkscape:isstock="true">
      <path
         id="path6137"
         style="fill-rule:evenodd;stroke-width:0.625;stroke-linejoin:round;stroke:#000000;stroke-opacity:1;fill:#000000;fill-opacity:1"
         d="M 8.7185878,4.0337352 L -2.2072895,0.016013256 L 8.7185884,-4.0017078 C 6.9730900,-1.6296469 6.9831476,1.6157441 8.7185878,4.0337352 z "
         transform="scale(1.1) translate(1,0)" />
    </marker>
    <marker
       inkscape:stockid="Arrow2Lend"
       orient="auto"
       refY="0"
       refX="0"
       id="marker6519-9"
       style="overflow:visible"
       inkscape:isstock="true">
      <path
         inkscape:connector-curvature="0"
         id="path6521-5"
         style="fill:#000000;fill-opacity:1;fill-rule:evenodd;stroke:#000000;stroke-width:0.625;stroke-linejoin:round;stroke-opacity:1"
         d="M 8.7185878,4.0337352 -2.2072895,0.01601326 8.7185884,-4.0017078 c -1.7454984,2.3720609 -1.7354408,5.6174519 -6e-7,8.035443 z"
         transform="matrix(-1.1,0,0,-1.1,-1.1,0)" />
    </marker>
  </defs>
  <metadata
     id="metadata7">
    <rdf:RDF>
      <cc:Work
         rdf:about="">
        <dc:format>image/svg+xml</dc:format>
        <dc:type
           rdf:resource="http://purl.org/dc/dcmitype/StillImage" />
        <dc:title />
      </cc:Work>
    </rdf:RDF>
  </metadata>
  <g
     id="layer1"
     inkscape:groupmode="layer"
     inkscape:label="Layer 1">
    <path
       inkscape:connector-curvature="0"
       id="path4256-0"
       d="m 26.964439,282.36485 445.284731,0"
       style="fill:none;fill-rule:evenodd;stroke:#000000;stroke-width:0.50000006;stroke-linecap:butt;stroke-linejoin:miter;stroke-miterlimit:4;stroke-dasharray:none;stroke-opacity:1;marker-end:url(#Arrow2Lend)" />
    <path
       inkscape:connector-curvature="0"
       id="path4256-0-2-4"
       d="m 295,142.3622 130.00001,0"
       style="fill:none;fill-rule:evenodd;stroke:#666666;stroke-width:0.49999997;stroke-linecap:butt;stroke-linejoin:miter;stroke-miterlimit:4;stroke-dasharray:none;stroke-opacity:1" />
    <path
       inkscape:connector-curvature="0"
       id="path4303"
       d="m 360.00001,282.36219 0,-290.0000074"
       style="fill:none;fill-rule:evenodd;stroke:#000000;stroke-width:0.5;stroke-linecap:butt;stroke-linejoin:miter;stroke-miterlimit:4;stroke-dasharray:none;stroke-opacity:1;marker-end:url(#marker6519)" />
    <path
       sodipodi:nodetypes="csc"
       inkscape:connector-curvature="0"
       id="path4309"
       d="m 260,282.3622 c 0,0 25.4644,-199.999995 100,-199.999995 74.5356,0 100,199.999995 100,199.999995"
       style="fill:none;fill-rule:evenodd;stroke:#0000ff;stroke-width:1px;stroke-linecap:butt;stroke-linejoin:miter;stroke-opacity:1" />
    <path
       sodipodi:nodetypes="csc"
       inkscape:connector-curvature="0"
       id="path4309-5"
       d="m 42.587357,282.48622 c 0,0 50.026383,-279.8756358 196.456113,-279.8756358 146.42979,0 196.45615,279.8756358 196.45615,279.8756358"
       style="fill:none;fill-rule:evenodd;stroke:#ff0000;stroke-width:0.99999988px;stroke-linecap:butt;stroke-linejoin:miter;stroke-opacity:1" />
    <path
       style="fill:none;fill-rule:evenodd;stroke:#000000;stroke-width:0.5;stroke-linecap:butt;stroke-linejoin:miter;stroke-miterlimit:4;stroke-dasharray:0.5, 1.00000001;stroke-dashoffset:0;stroke-opacity:1"
       d="m 423.03562,142.36218 0,145"
       id="path5304"
       inkscape:connector-curvature="0" />
    <path
       style="fill:none;fill-rule:evenodd;stroke:#000000;stroke-width:0.5;stroke-linecap:butt;stroke-linejoin:miter;stroke-miterlimit:4;stroke-dasharray:0.5, 1.00000001;stroke-dashoffset:0;stroke-opacity:1"
       d="m 393.12491,142.36218 0,145"
       id="path5306"
       inkscape:connector-curvature="0" />
    <path
       style="fill:none;fill-rule:evenodd;stroke:#0000ff;stroke-width:0.5;stroke-linecap:round;stroke-linejoin:miter;stroke-miterlimit:4;stroke-dasharray:none;stroke-opacity:1"
       d="m 423.2143,142.00514 12.50001,-12.67878"
       id="path5663"
       inkscape:connector-curvature="0"
       sodipodi:nodetypes="cc" />
    <path
       style="fill:none;fill-rule:evenodd;stroke:#0000ff;stroke-width:0.5;stroke-linecap:round;stroke-linejoin:miter;stroke-miterlimit:4;stroke-dasharray:none;stroke-opacity:1"
       d="M 313.78017,111.737 C 305.14836,94.951709 305.14836,94.951709 305.14836,94.951709"
       id="path5665"
       inkscape:connector-curvature="0" />
    <path
       style="fill:#ff0000;fill-rule:evenodd;stroke:#ff0000;stroke-width:0.5;stroke-linecap:butt;stroke-linejoin:miter;stroke-miterlimit:4;stroke-dasharray:none;stroke-opacity:1"
       d="M 333.67603,48.175515 C 314.2559,67.005218 314.2559,67.005218 314.2559,67.005218"
       id="path5667"
       inkscape:connector-curvature="0" />
    <circle
       style="fill:#0000ff;stroke:#0000ff;stroke-width:0.5;stroke-miterlimit:4;stroke-dasharray:none;stroke-dashoffset:0"
       id="path5669"
       cx="314.46429"
       cy="111.55861"
       r="2.8571429" />
    <circle
       style="fill:#0000ff;stroke:#0000ff;stroke-width:0.5;stroke-miterlimit:4;stroke-dasharray:none;stroke-dashoffset:0"
       id="path5669-1"
       cx="423.21429"
       cy="142.18364"
       r="2.8571429" />
    <ellipse
       style="fill:#ff0000;stroke:#ff0000;stroke-width:0.5;stroke-miterlimit:4;stroke-dasharray:none;stroke-dashoffset:0"
       id="path5669-3"
       cx="333.31454"
       cy="47.966629"
       r="2.8571429" />
    <g
       id="g5807"
       transform="matrix(1,0,0,-1,121.42032,786.68623)"
       xml:space="preserve"
       stroke-miterlimit="10.433"
       font-style="normal"
       font-variant="normal"
       font-weight="normal"
       font-stretch="normal"
       font-size-adjust="none"
       letter-spacing="normal"
       word-spacing="normal"
       ns0:text="1"
       ns0:preamble=""
       style="font-style:normal;font-variant:normal;font-weight:normal;font-stretch:normal;letter-spacing:normal;word-spacing:normal;text-anchor:start;fill:none;fill-opacity:1;fill-rule:evenodd;stroke:#000000;stroke-linecap:butt;stroke-linejoin:miter;stroke-miterlimit:10.43299961;stroke-dasharray:none;stroke-dashoffset:0;stroke-opacity:1"><path
         style="fill:#000000;stroke-width:0"
         inkscape:connector-curvature="0"
         d="m 226.36,713.48 0,0.01 0,0.01 0,0.02 0,0.01 0,0 0,0.01 0,0.01 0,0.01 0,0.01 0,0.01 0,0.01 0,0.01 0,0 -0.01,0.01 0,0.01 0,0 0,0.01 0,0.01 0,0.01 0,0.01 -0.01,0.01 0,0.01 0,0.01 -0.01,0 0,0.01 -0.01,0.01 0,0 -0.01,0.01 -0.01,0 -0.01,0.01 0,0 -0.01,0 0,0 -0.01,0 0,0 -0.01,0 -0.01,0.01 0,0 -0.01,0 -0.01,0 0,0 -0.01,0 -0.01,0 -0.01,0 0,0 -0.01,0 -0.01,0 -0.01,0 -0.01,0 -0.01,0 -0.01,0 -0.01,0 c -0.62,-0.64 -1.49,-0.64 -1.81,-0.64 l 0,-0.3 c 0.2,0 0.78,0 1.3,0.25 l 0,-5.14 c 0,-0.36 -0.03,-0.48 -0.92,-0.48 l -0.32,0 0,-0.31 c 0.35,0.04 1.21,0.04 1.61,0.04 0.4,0 1.26,0 1.61,-0.04 l 0,0.31 -0.32,0 c -0.89,0 -0.92,0.11 -0.92,0.48 z"
         id="path5809" /></g>    <path
       sodipodi:nodetypes="cc"
       inkscape:connector-curvature="0"
       id="path4256-0-2-4-8"
       d="m 355,82.362183 10,-1e-5"
       style="fill:none;fill-rule:evenodd;stroke:#000000;stroke-width:1px;stroke-linecap:butt;stroke-linejoin:miter;stroke-opacity:1" />
    <g
       style="font-style:normal;font-variant:normal;font-weight:normal;font-stretch:normal;letter-spacing:normal;word-spacing:normal;text-anchor:start;fill:none;fill-opacity:1;fill-rule:evenodd;stroke:#000000;stroke-linecap:butt;stroke-linejoin:miter;stroke-miterlimit:10.43299961;stroke-dasharray:none;stroke-dashoffset:0;stroke-opacity:1"
       ns0:preamble=""
       ns0:text="-3dB"
       word-spacing="normal"
       letter-spacing="normal"
       font-size-adjust="none"
       font-stretch="normal"
       font-weight="normal"
       font-variant="normal"
       font-style="normal"
       stroke-miterlimit="10.433"
       xml:space="preserve"
       transform="matrix(1,0,0,-1,113.39714,846.64186)"
       id="g5993"><polygon
         id="polygon5995"
         points="226.18,709.56 223.54,709.56 223.54,708.98 226.18,708.98 "
         style="fill:#000000;stroke-width:0" /><path
         id="path5997"
         d="m 229.64,710.62 0.07,0.03 0.08,0.03 0.07,0.03 0.07,0.03 0.07,0.04 0.07,0.04 0.07,0.04 0.06,0.04 0.06,0.04 0.06,0.05 0.06,0.05 0.06,0.05 0.05,0.05 0.05,0.05 0.05,0.06 0.05,0.05 0.05,0.06 0.04,0.06 0.04,0.06 0.04,0.06 0.03,0.07 0.03,0.06 0.03,0.07 0.03,0.06 0.02,0.07 0.02,0.07 0.02,0.07 0.01,0.07 0.02,0.07 0,0.07 0.01,0.08 0,0.07 c 0,0.81 -0.88,1.37 -1.83,1.37 -1,0 -1.76,-0.59 -1.76,-1.35 0,-0.33 0.22,-0.52 0.51,-0.52 0.31,0 0.5,0.22 0.5,0.51 0,0.5 -0.46,0.5 -0.61,0.5 0.31,0.48 0.96,0.61 1.32,0.61 0.41,0 0.96,-0.22 0.96,-1.11 0,-0.12 -0.02,-0.7 -0.28,-1.13 -0.3,-0.48 -0.64,-0.51 -0.89,-0.52 -0.08,-0.01 -0.32,-0.03 -0.39,-0.03 -0.08,-0.01 -0.15,-0.02 -0.15,-0.12 0,-0.11 0.07,-0.11 0.24,-0.11 l 0.44,0 c 0.82,0 1.18,-0.67 1.18,-1.65 0,-1.35 -0.68,-1.64 -1.12,-1.64 -0.43,0 -1.17,0.17 -1.52,0.76 0.35,-0.05 0.66,0.17 0.66,0.55 0,0.35 -0.27,0.55 -0.56,0.55 -0.24,0 -0.56,-0.14 -0.56,-0.57 0,-0.91 0.93,-1.56 2.01,-1.56 1.21,0 2.12,0.9 2.12,1.91 0,0.82 -0.63,1.59 -1.66,1.8 z"
         inkscape:connector-curvature="0"
         style="fill:#000000;stroke-width:0" /><path
         id="path5999"
         d="m 235.51,707.67 0,-0.65 1.47,0.1 0,0.31 c -0.7,0 -0.78,0.07 -0.78,0.56 l 0,6.03 -1.43,-0.11 0,-0.31 c 0.69,0 0.77,-0.07 0.77,-0.55 l 0,-2.15 c -0.28,0.36 -0.71,0.62 -1.25,0.62 l 0.04,-0.22 c 0.35,0 0.77,-0.15 1.07,-0.6 0.11,-0.17 0.11,-0.19 0.11,-0.37 l 0,0 0,-2.03 c 0,-0.18 0,-0.2 -0.11,-0.37 -0.29,-0.48 -0.74,-0.7 -1.17,-0.7 -0.45,0 -0.8,0.26 -1.04,0.64 -0.26,0.41 -0.29,0.97 -0.29,1.38 0,0.37 0.02,0.96 0.31,1.41 0.2,0.31 0.58,0.64 1.12,0.64 l -0.04,0.22 c -1.17,0 -2.22,-0.98 -2.22,-2.26 0,-1.26 0.98,-2.24 2.11,-2.24 0.64,0 1.09,0.33 1.33,0.65 z"
         inkscape:connector-curvature="0"
         style="fill:#000000;stroke-width:0" /><path
         id="path6001"
         d="m 241.83,710.67 0.09,0.02 0.08,0.02 0.09,0.03 0.08,0.02 0.09,0.03 0.08,0.03 0.07,0.04 0.08,0.03 0.07,0.04 0.08,0.04 0.07,0.04 0.06,0.04 0.07,0.05 0.06,0.05 0.06,0.05 0.05,0.05 0.06,0.05 0.05,0.05 0.04,0.06 0.05,0.05 0.04,0.06 0.04,0.06 0.03,0.06 0.03,0.06 0.03,0.07 0.03,0.06 0.02,0.07 0.02,0.06 0.01,0.07 0.01,0.06 0.01,0.07 0,0.07 c 0,0.86 -0.92,1.68 -2.21,1.68 l -0.07,-0.31 c 0.96,0 1.31,-0.84 1.31,-1.37 0,-0.64 -0.49,-1.47 -1.59,-1.47 l -1.44,0 0,-0.22 1.87,0 c 0.98,0 1.4,-0.92 1.4,-1.59 0,-0.7 -0.52,-1.52 -1.54,-1.52 l 0,0 -1.25,0 c -0.46,0 -0.48,0.07 -0.48,0.4 l 0,2.71 0,0.22 0,2.45 c 0,0.32 0.02,0.39 0.48,0.39 l 1.24,0 0.07,0.31 -3.64,0 0,-0.31 0.24,0 c 0.76,0 0.78,-0.11 0.78,-0.46 l 0,-5.24 c 0,-0.36 -0.02,-0.47 -0.78,-0.47 l -0.24,0 0,-0.31 3.9,0 c 1.32,0 2.22,0.89 2.22,1.82 0,0.87 -0.82,1.61 -1.92,1.73 z"
         inkscape:connector-curvature="0"
         style="fill:#000000;stroke-width:0" /></g>    <path
       sodipodi:nodetypes="cc"
       inkscape:connector-curvature="0"
       id="path4256-0-2-4-8-4"
       d="m 355,142.36218 10,-1e-5"
       style="fill:none;fill-rule:evenodd;stroke:#000000;stroke-width:1px;stroke-linecap:butt;stroke-linejoin:miter;stroke-opacity:1" />
    <path
       style="fill:#ff0000;fill-rule:evenodd;stroke:#ff0000;stroke-width:0.5;stroke-linecap:round;stroke-linejoin:miter;stroke-miterlimit:4;stroke-dasharray:none;stroke-opacity:1"
       d="m 392.67729,142.18504 34.28577,-33.75015"
       id="path5663-9"
       inkscape:connector-curvature="0"
       sodipodi:nodetypes="cc" />
    <circle
       style="fill:#ff0000;stroke:#ff0000;stroke-width:0.5;stroke-miterlimit:4;stroke-dasharray:none;stroke-dashoffset:0"
       id="path5669-1-5"
       cx="392.67731"
       cy="142.36354"
       r="2.8571429" />
    <path
       style="fill:none;fill-rule:evenodd;stroke:#000000;stroke-width:0.5;stroke-linecap:butt;stroke-linejoin:miter;stroke-miterlimit:4;stroke-dasharray:0.5, 1.00000002;stroke-dashoffset:0;stroke-opacity:1"
       d="m 239,-132.63774 0,414.99992"
       id="path5306-7"
       inkscape:connector-curvature="0" />
    <g
       style="font-style:normal;font-variant:normal;font-weight:normal;font-stretch:normal;letter-spacing:normal;word-spacing:normal;text-anchor:start;fill:none;fill-opacity:1;fill-rule:evenodd;stroke:#000000;stroke-linecap:butt;stroke-linejoin:miter;stroke-miterlimit:10.43299961;stroke-dasharray:none;stroke-dashoffset:0;stroke-opacity:1"
       ns0:preamble=""
       ns0:text="$\\theta$"
       word-spacing="normal"
       letter-spacing="normal"
       font-size-adjust="none"
       font-stretch="normal"
       font-weight="normal"
       font-variant="normal"
       font-style="normal"
       stroke-miterlimit="10.433"
       xml:space="preserve"
       transform="matrix(1,0,0,-1,252.86,993.58218)"
       id="g9085"><path
         id="path9087"
         d="m 227.96,712.09 0,0.07 0,0.06 -0.01,0.07 0,0.08 -0.01,0.07 0,0.08 -0.01,0.08 -0.01,0.09 -0.02,0.08 -0.01,0.08 -0.02,0.09 -0.02,0.08 -0.02,0.09 -0.03,0.08 -0.03,0.08 -0.03,0.09 -0.03,0.07 -0.04,0.08 -0.04,0.08 -0.04,0.07 -0.05,0.06 -0.05,0.07 -0.05,0.06 -0.06,0.05 -0.06,0.05 -0.03,0.02 -0.04,0.03 -0.03,0.02 -0.04,0.01 -0.03,0.02 -0.04,0.02 -0.04,0.01 -0.04,0.01 -0.04,0.01 -0.04,0.01 -0.05,0.01 -0.04,0 -0.05,0.01 -0.05,0 0,-0.22 c 0.48,0 0.54,-0.64 0.54,-1.2 0,-0.49 -0.08,-1 -0.32,-1.98 l -2.08,0 c 0.17,0.64 0.37,1.43 0.77,2.14 0.27,0.48 0.64,1.04 1.09,1.04 l 0,0.22 c -1.38,0 -2.91,-2.8 -2.91,-5.08 0,-0.93 0.29,-2.03 1.19,-2.03 l 0,0.21 c -0.33,0 -0.53,0.29 -0.53,1.22 0,0.41 0.06,0.99 0.31,1.96 l 2.07,0 c -0.1,-0.45 -0.31,-1.3 -0.69,-2.01 -0.35,-0.68 -0.73,-1.17 -1.16,-1.17 l 0,-0.21 c 1.41,0 2.92,2.85 2.92,5.07 z"
         inkscape:connector-curvature="0"
         style="fill:#000000;stroke-width:0" /></g>    <g
       id="g9304"
       transform="matrix(1,0,0,-1,11.84,1001.3443)"
       xml:space="preserve"
       stroke-miterlimit="10.433"
       font-style="normal"
       font-variant="normal"
       font-weight="normal"
       font-stretch="normal"
       font-size-adjust="none"
       letter-spacing="normal"
       word-spacing="normal"
       ns0:text="$\\phi$"
       ns0:preamble=""
       style="font-style:normal;font-variant:normal;font-weight:normal;font-stretch:normal;letter-spacing:normal;word-spacing:normal;text-anchor:start;fill:#ff0000;fill-opacity:1;fill-rule:evenodd;stroke:#000000;stroke-linecap:butt;stroke-linejoin:miter;stroke-miterlimit:10.43299961;stroke-dasharray:none;stroke-dashoffset:0;stroke-opacity:1"><path
         style="fill:#000000;stroke-width:0"
         inkscape:connector-curvature="0"
         d="m 227.78,713.78 0,0 0,0 0,0 0,0.01 0,0 0,0 0,0 0,0 0,0.01 0,0 0,0 0,0.01 0.01,0 0,0.01 0,0.01 0,0 0,0.01 0,0 0,0.01 0.01,0.02 0,0 0,0.01 0,0 0,0.01 0,0 0.01,0.01 0,0 0,0.01 0,0 0,0 0,0 0,0 0,0 0,0.01 0,0 0,0 0,0 0,0 0,0 c 0,0.01 0,0.1 -0.12,0.1 -0.1,0 -0.11,-0.03 -0.15,-0.2 l -0.58,-2.29 c -1.58,-0.05 -3.04,-1.37 -3.04,-2.73 0,-0.94 0.7,-1.72 1.91,-1.79 l 0.05,0.21 c -0.6,0.03 -1.31,0.38 -1.31,1.37 0,1.2 0.85,2.59 2.33,2.72 l -1.02,-4.09 -0.05,-0.21 c -0.08,-0.31 -0.15,-0.63 -0.23,-0.94 -0.12,-0.47 -0.22,-0.84 -0.22,-0.87 0,-0.1 0.07,-0.11 0.12,-0.11 0.05,0 0.07,0.01 0.1,0.04 0.02,0.02 0.08,0.26 0.11,0.4 l 0.38,1.48 0.05,0.21 1.02,4.09 c 0.76,-0.04 1.33,-0.5 1.33,-1.37 0,-1.18 -0.86,-2.6 -2.35,-2.72 l -0.05,-0.21 c 1.6,0.04 3.04,1.39 3.04,2.72 0,0.78 -0.52,1.7 -1.91,1.8 z"
         id="path9306" /></g>    <g
       style="font-style:normal;font-variant:normal;font-weight:normal;font-stretch:normal;letter-spacing:normal;word-spacing:normal;text-anchor:start;fill:#ff0000;fill-opacity:1;fill-rule:evenodd;stroke:#ff0000;stroke-linecap:butt;stroke-linejoin:miter;stroke-miterlimit:10.43299961;stroke-dasharray:none;stroke-dashoffset:0;stroke-opacity:1"
       ns0:preamble=""
       ns0:text="$W_{\\!\\phi,\\textrm{\\tiny -3dB}}$"
       text-anchor="start"
       word-spacing="normal"
       letter-spacing="normal"
       font-size-adjust="none"
       font-stretch="normal"
       font-weight="normal"
       font-variant="normal"
       font-style="normal"
       fill-opacity="1"
       fill-rule="evenodd"
       fill="none"
       stroke-opacity="1"
       stroke-dashoffset="0"
       stroke-dasharray="none"
       stroke-miterlimit="10.433"
       stroke-linejoin="miter"
       stroke-linecap="butt"
       stroke="black"
       xml:space="preserve"
       transform="matrix(1,0,0,-1,204.11142,813.41862)"
       id="g9490"><path
         style="fill:#ff0000"
         id="path9492"
         fill="black"
         stroke-width="0"
         d="M232.55,712.76 L232.6,712.84 L232.65,712.92 L232.7,712.99 L232.75,713.07 L232.77,713.1 L232.8,713.14 L232.82,713.17 L232.85,713.2 L232.88,713.24 L232.91,713.27 L232.94,713.3 L232.97,713.33 L233,713.35 L233.04,713.38 L233.07,713.4 L233.11,713.43 L233.14,713.45 L233.18,713.47 L233.22,713.49 L233.27,713.51 L233.31,713.53 L233.36,713.54 L233.4,713.56 L233.45,713.57 L233.5,713.58 L233.56,713.59 L233.61,713.6 L233.67,713.6 C233.76,713.61,233.86,713.61,233.86,713.8 C233.86,713.84,233.82,713.91,233.74,713.91 C233.5,713.91,233.22,713.88,232.97,713.88 C232.63,713.88,232.27,713.91,231.94,713.91 C231.88,713.91,231.75,713.91,231.75,713.72 C231.75,713.61,231.84,713.6,231.9,713.6 C232.14,713.59,232.49,713.51,232.49,713.21 C232.49,713.1,232.44,713.03,232.36,712.89 L229.67,708.21 L229.3,713.14 C229.29,713.33,229.27,713.59,230,713.6 C230.17,713.6,230.27,713.6,230.27,713.8 C230.27,713.9,230.16,713.91,230.12,713.91 C229.72,713.91,229.3,713.88,228.9,713.88 C228.68,713.88,228.09,713.91,227.86,713.91 C227.8,713.91,227.67,713.91,227.67,713.71 C227.67,713.6,227.77,713.6,227.91,713.6 C228.35,713.6,228.42,713.54,228.44,713.35 L228.5,712.59 L225.98,708.21 L225.6,713.24 C225.6,713.36,225.6,713.59,226.36,713.6 C226.46,713.6,226.57,713.6,226.57,713.8 C226.57,713.91,226.45,713.91,226.43,713.91 C226.03,713.91,225.61,713.88,225.2,713.88 C224.85,713.88,224.5,713.91,224.16,713.91 C224.11,713.91,223.98,713.91,223.98,713.72 C223.98,713.6,224.07,713.6,224.23,713.6 C224.73,713.6,224.74,713.51,224.76,713.23 L225.2,707.16 C225.21,706.99,225.22,706.91,225.36,706.91 C225.48,706.91,225.51,706.97,225.6,707.11 L228.53,712.18 L228.89,707.16 C228.91,706.96,228.93,706.91,229.05,706.91 C229.18,706.91,229.24,707.01,229.29,707.09 Z " /><path
         style="fill:#ff0000"
         id="path9494"
         fill="black"
         stroke-width="0"
         d="M234.91,710.37 L234.91,710.37 L234.91,710.37 L234.91,710.38 L234.91,710.38 L234.91,710.39 L234.91,710.39 L234.91,710.39 L234.9,710.4 L234.9,710.4 L234.9,710.4 L234.9,710.41 L234.9,710.41 L234.9,710.41 L234.9,710.41 L234.9,710.42 L234.89,710.42 L234.89,710.42 L234.89,710.42 L234.89,710.43 L234.89,710.43 L234.88,710.43 L234.88,710.43 L234.88,710.44 L234.87,710.44 L234.87,710.44 L234.86,710.45 L234.86,710.45 L234.85,710.45 L234.85,710.45 L234.84,710.45 L234.84,710.45 L234.83,710.45 L234.83,710.45 L234.82,710.46 L234.82,710.46 L234.81,710.46 L234.81,710.46 L234.8,710.46 L234.8,710.46 L234.8,710.46 L234.79,710.46 L234.79,710.46 C234.68,710.46,234.68,710.42,234.65,710.3 L234.25,708.71 C233.02,708.66,231.97,707.77,231.97,706.84 C231.97,706.05,232.69,705.58,233.46,705.55 L233.51,705.75 C232.97,705.78,232.48,706.07,232.48,706.72 C232.48,707.42,233.01,708.4,234.2,708.51 L233.51,705.75 L233.46,705.55 C233.4,705.34,233.35,705.12,233.3,704.9 C233.21,704.57,233.15,704.32,233.15,704.3 C233.15,704.21,233.24,704.21,233.26,704.21 C233.37,704.21,233.38,704.23,233.41,704.38 L233.7,705.55 C234.89,705.6,235.99,706.47,235.99,707.42 C235.99,708.15,235.35,708.67,234.5,708.71 L234.44,708.51 C234.98,708.49,235.48,708.2,235.48,707.54 C235.48,706.78,234.88,705.85,233.75,705.75 L234.44,708.51 L234.5,708.71 Z " /><path
         style="fill:#ff0000"
         id="path9496"
         fill="black"
         stroke-width="0"
         d="M237.74,705.74 L237.74,705.67 L237.74,705.6 L237.73,705.52 L237.72,705.44 L237.72,705.41 L237.71,705.37 L237.7,705.33 L237.69,705.29 L237.68,705.25 L237.67,705.21 L237.66,705.17 L237.65,705.13 L237.63,705.09 L237.62,705.05 L237.6,705.01 L237.58,704.97 L237.56,704.93 L237.53,704.89 L237.51,704.84 L237.48,704.8 L237.45,704.76 L237.42,704.72 L237.39,704.68 L237.36,704.64 L237.32,704.6 L237.28,704.55 L237.24,704.51 L237.2,704.47 C237.17,704.44,237.15,704.42,237.15,704.39 C237.15,704.34,237.21,704.29,237.25,704.29 C237.34,704.29,237.94,704.84,237.94,705.67 C237.94,706.1,237.77,706.43,237.45,706.43 C237.22,706.43,237.05,706.25,237.05,706.03 C237.05,705.81,237.21,705.63,237.46,705.63 C237.62,705.63,237.73,705.74,237.74,705.74 Z " /><polygon
         style="fill:#ff0000"
         id="polygon9498"
         fill="black"
         stroke-width="0"
         points="240.5,706.51 240.5,706.89 238.85,706.89 238.85,706.51 " /><path
         style="fill:#ff0000"
         id="path9500"
         fill="black"
         stroke-width="0"
         d="M242.63,707.28 L242.67,707.27 L242.71,707.27 L242.76,707.27 L242.79,707.26 L242.83,707.25 L242.87,707.25 L242.91,707.24 L242.94,707.22 L242.98,707.21 L243.01,707.19 L243.04,707.18 L243.07,707.16 L243.1,707.14 L243.13,707.12 L243.16,707.1 L243.18,707.07 L243.21,707.05 L243.23,707.02 L243.25,706.99 L243.27,706.96 L243.29,706.93 L243.31,706.9 L243.32,706.86 L243.34,706.83 L243.35,706.79 L243.36,706.75 L243.37,706.72 L243.38,706.67 L243.38,706.63 L243.39,706.59 L243.39,706.55 L243.39,706.5 C243.39,705.99,243.08,705.72,242.64,705.72 C242.58,705.72,241.99,705.72,241.74,705.98 C241.94,706.01,242,706.17,242,706.29 C242,706.47,241.86,706.59,241.7,706.59 C241.54,706.59,241.39,706.48,241.39,706.28 C241.39,705.76,241.97,705.52,242.65,705.52 C243.47,705.52,243.97,706.01,243.97,706.49 C243.97,706.9,243.61,707.25,243.04,707.38 C243.64,707.57,243.8,707.95,243.8,708.23 C243.8,708.64,243.29,708.94,242.67,708.94 C242.05,708.94,241.56,708.68,241.56,708.23 C241.56,708,241.75,707.94,241.85,707.94 C241.99,707.94,242.13,708.04,242.13,708.22 C242.13,708.34,242.07,708.48,241.89,708.51 C242.1,708.73,242.55,708.75,242.65,708.75 C243.01,708.75,243.27,708.57,243.27,708.23 C243.27,707.94,243.08,707.49,242.56,707.46 C242.42,707.45,242.4,707.45,242.27,707.44 C242.22,707.44,242.16,707.43,242.16,707.36 C242.16,707.28,242.21,707.28,242.3,707.28 Z " /><path
         style="fill:#ff0000"
         id="path9502"
         fill="black"
         stroke-width="0"
         d="M246.48,709.02 V708.8 C246.85,708.8,246.89,708.77,246.89,708.53 V707.56 C246.78,707.65,246.51,707.83,246.1,707.83 C245.35,707.83,244.74,707.33,244.74,706.7 C244.74,706.1,245.3,705.58,246.04,705.58 L246.07,705.74 C245.82,705.74,245.57,705.84,245.41,706.06 C245.25,706.26,245.24,706.54,245.24,706.7 C245.24,706.83,245.24,707.16,245.46,707.39 C245.63,707.57,245.89,707.66,246.14,707.66 C246.28,707.66,246.63,707.63,246.87,707.29 V706.17 C246.63,705.8,246.26,705.74,246.07,705.74 L246.04,705.58 C246.45,705.58,246.73,705.76,246.87,705.87 V705.58 L247.73,705.63 V705.85 C247.36,705.85,247.31,705.88,247.31,706.13 V709.08 Z " /><path
         style="fill:#ff0000"
         id="path9504"
         fill="black"
         stroke-width="0"
         d="M249.1,706.05 L249.1,706.04 L249.1,706.03 L249.1,706.01 L249.1,706 L249.1,705.99 L249.1,705.98 L249.1,705.97 L249.09,705.96 L249.09,705.95 L249.09,705.94 L249.08,705.93 L249.08,705.92 L249.07,705.91 L249.07,705.91 L249.06,705.9 L249.05,705.89 L249.04,705.89 L249.03,705.89 L249.03,705.88 L249.02,705.88 L249.02,705.88 L249.01,705.88 L249,705.87 L248.99,705.87 L248.99,705.87 L248.98,705.87 L248.97,705.87 L248.96,705.86 L248.95,705.86 L248.94,705.86 L248.93,705.86 L248.92,705.86 L248.91,705.86 L248.9,705.86 L248.88,705.86 L248.87,705.85 L248.86,705.85 L248.84,705.85 L248.83,705.85 L248.82,705.85 L248.8,705.85 L248.78,705.85 L248.77,705.85 L248.75,705.85 L248.73,705.85 L248.72,705.85 L248.7,705.85 H248.55 V705.63 H250.91 C251.68,705.63,252.28,706.06,252.28,706.55 C252.28,706.9,251.92,707.3,251.12,707.41 C251.62,707.49,252.1,707.78,252.1,708.17 C252.1,708.64,251.49,709.02,250.75,709.02 L250.71,708.8 C251.24,708.8,251.56,708.48,251.56,708.17 C251.56,707.81,251.12,707.48,250.58,707.48 H249.59 V707.32 H250.76 C251.43,707.32,251.72,706.88,251.72,706.55 C251.72,706.18,251.3,705.85,250.72,705.85 H249.83 C249.59,705.85,249.59,705.88,249.59,706.04 V707.32 V707.48 V708.62 C249.59,708.77,249.59,708.8,249.83,708.8 H250.71 L250.75,709.02 H248.55 V708.8 H248.7 C249.1,708.8,249.1,708.76,249.1,708.6 Z " /></g>    <g
       style="font-style:normal;font-variant:normal;font-weight:normal;font-stretch:normal;letter-spacing:normal;word-spacing:normal;text-anchor:start;fill:#ff0000;fill-opacity:1;fill-rule:evenodd;stroke:#000000;stroke-linecap:butt;stroke-linejoin:miter;stroke-miterlimit:10.43299961;stroke-dasharray:none;stroke-dashoffset:0;stroke-opacity:1"
       ns0:preamble=""
       ns0:text="$W_{\\!\\phi}$"
       text-anchor="start"
       word-spacing="normal"
       letter-spacing="normal"
       font-size-adjust="none"
       font-stretch="normal"
       font-weight="normal"
       font-variant="normal"
       font-style="normal"
       fill-opacity="1"
       fill-rule="evenodd"
       fill="none"
       stroke-opacity="1"
       stroke-dashoffset="0"
       stroke-dasharray="none"
       stroke-miterlimit="10.433"
       stroke-linejoin="miter"
       stroke-linecap="butt"
       stroke="black"
       xml:space="preserve"
       transform="matrix(1,0,0,-1,78.417262,780.05857)"
       id="g9880"><path
         style="fill:#ff0000"
         id="path9882"
         fill="black"
         stroke-width="0"
         d="M232.55,712.76 L232.6,712.84 L232.65,712.92 L232.7,712.99 L232.75,713.07 L232.77,713.1 L232.8,713.14 L232.82,713.17 L232.85,713.2 L232.88,713.24 L232.91,713.27 L232.94,713.3 L232.97,713.33 L233,713.35 L233.04,713.38 L233.07,713.4 L233.11,713.43 L233.14,713.45 L233.18,713.47 L233.22,713.49 L233.27,713.51 L233.31,713.53 L233.36,713.54 L233.4,713.56 L233.45,713.57 L233.5,713.58 L233.56,713.59 L233.61,713.6 L233.67,713.6 C233.76,713.61,233.86,713.61,233.86,713.8 C233.86,713.84,233.82,713.91,233.74,713.91 C233.5,713.91,233.22,713.88,232.97,713.88 C232.63,713.88,232.27,713.91,231.94,713.91 C231.88,713.91,231.75,713.91,231.75,713.72 C231.75,713.61,231.84,713.6,231.9,713.6 C232.14,713.59,232.49,713.51,232.49,713.21 C232.49,713.1,232.44,713.03,232.36,712.89 L229.67,708.21 L229.3,713.14 C229.29,713.33,229.27,713.59,230,713.6 C230.17,713.6,230.27,713.6,230.27,713.8 C230.27,713.9,230.16,713.91,230.12,713.91 C229.72,713.91,229.3,713.88,228.9,713.88 C228.68,713.88,228.09,713.91,227.86,713.91 C227.8,713.91,227.67,713.91,227.67,713.71 C227.67,713.6,227.77,713.6,227.91,713.6 C228.35,713.6,228.42,713.54,228.44,713.35 L228.5,712.59 L225.98,708.21 L225.6,713.24 C225.6,713.36,225.6,713.59,226.36,713.6 C226.46,713.6,226.57,713.6,226.57,713.8 C226.57,713.91,226.45,713.91,226.43,713.91 C226.03,713.91,225.61,713.88,225.2,713.88 C224.85,713.88,224.5,713.91,224.16,713.91 C224.11,713.91,223.98,713.91,223.98,713.72 C223.98,713.6,224.07,713.6,224.23,713.6 C224.73,713.6,224.74,713.51,224.76,713.23 L225.2,707.16 C225.21,706.99,225.22,706.91,225.36,706.91 C225.48,706.91,225.51,706.97,225.6,707.11 L228.53,712.18 L228.89,707.16 C228.91,706.96,228.93,706.91,229.05,706.91 C229.18,706.91,229.24,707.01,229.29,707.09 Z " /><path
         style="fill:#ff0000"
         id="path9884"
         fill="black"
         stroke-width="0"
         d="M234.91,710.37 L234.91,710.37 L234.91,710.37 L234.91,710.38 L234.91,710.38 L234.91,710.39 L234.91,710.39 L234.91,710.39 L234.9,710.4 L234.9,710.4 L234.9,710.4 L234.9,710.41 L234.9,710.41 L234.9,710.41 L234.9,710.41 L234.9,710.42 L234.89,710.42 L234.89,710.42 L234.89,710.42 L234.89,710.43 L234.89,710.43 L234.88,710.43 L234.88,710.43 L234.88,710.44 L234.87,710.44 L234.87,710.44 L234.86,710.45 L234.86,710.45 L234.85,710.45 L234.85,710.45 L234.84,710.45 L234.84,710.45 L234.83,710.45 L234.83,710.45 L234.82,710.46 L234.82,710.46 L234.81,710.46 L234.81,710.46 L234.8,710.46 L234.8,710.46 L234.8,710.46 L234.79,710.46 L234.79,710.46 C234.68,710.46,234.68,710.42,234.65,710.3 L234.25,708.71 C233.02,708.66,231.97,707.77,231.97,706.84 C231.97,706.05,232.69,705.58,233.46,705.55 L233.51,705.75 C232.97,705.78,232.48,706.07,232.48,706.72 C232.48,707.42,233.01,708.4,234.2,708.51 L233.51,705.75 L233.46,705.55 C233.4,705.34,233.35,705.12,233.3,704.9 C233.21,704.57,233.15,704.32,233.15,704.3 C233.15,704.21,233.24,704.21,233.26,704.21 C233.37,704.21,233.38,704.23,233.41,704.38 L233.7,705.55 C234.89,705.6,235.99,706.47,235.99,707.42 C235.99,708.15,235.35,708.67,234.5,708.71 L234.44,708.51 C234.98,708.49,235.48,708.2,235.48,707.54 C235.48,706.78,234.88,705.85,233.75,705.75 L234.44,708.51 L234.5,708.71 Z " /></g>    <g
       id="g10830"
       transform="matrix(1,0,0,-1,155.18284,1001.4543)"
       xml:space="preserve"
       stroke-miterlimit="10.433"
       font-style="normal"
       font-variant="normal"
       font-weight="normal"
       font-stretch="normal"
       font-size-adjust="none"
       letter-spacing="normal"
       word-spacing="normal"
       ns0:text="$\\theta_{\\!\\phi,\\textrm{\\tiny -3dB}}$"
       ns0:preamble=""
       style="font-style:normal;font-variant:normal;font-weight:normal;font-stretch:normal;letter-spacing:normal;word-spacing:normal;text-anchor:start;fill:#ff0000;fill-opacity:1;fill-rule:evenodd;stroke:#000000;stroke-linecap:butt;stroke-linejoin:miter;stroke-miterlimit:10.43299961;stroke-dasharray:none;stroke-dashoffset:0;stroke-opacity:1"><path
         style="fill:#ff0000;stroke-width:0"
         inkscape:connector-curvature="0"
         d="m 227.96,712.09 0,0.07 0,0.06 -0.01,0.07 0,0.08 -0.01,0.07 0,0.08 -0.01,0.08 -0.01,0.09 -0.02,0.08 -0.01,0.08 -0.02,0.09 -0.02,0.08 -0.02,0.09 -0.03,0.08 -0.03,0.08 -0.03,0.09 -0.03,0.07 -0.04,0.08 -0.04,0.08 -0.04,0.07 -0.05,0.06 -0.05,0.07 -0.05,0.06 -0.06,0.05 -0.06,0.05 -0.03,0.02 -0.04,0.03 -0.03,0.02 -0.04,0.01 -0.03,0.02 -0.04,0.02 -0.04,0.01 -0.04,0.01 -0.04,0.01 -0.04,0.01 -0.05,0.01 -0.04,0 -0.05,0.01 -0.05,0 0,-0.22 c 0.48,0 0.54,-0.64 0.54,-1.2 0,-0.49 -0.08,-1 -0.32,-1.98 l -2.08,0 c 0.17,0.64 0.37,1.43 0.77,2.14 0.27,0.48 0.64,1.04 1.09,1.04 l 0,0.22 c -1.38,0 -2.91,-2.8 -2.91,-5.08 0,-0.93 0.29,-2.03 1.19,-2.03 l 0,0.21 c -0.33,0 -0.53,0.29 -0.53,1.22 0,0.41 0.06,0.99 0.31,1.96 l 2.07,0 c -0.1,-0.45 -0.31,-1.3 -0.69,-2.01 -0.35,-0.68 -0.73,-1.17 -1.16,-1.17 l 0,-0.21 c 1.41,0 2.92,2.85 2.92,5.07 z"
         id="path10832" /><path
         style="fill:#ff0000;stroke-width:0"
         inkscape:connector-curvature="0"
         d="m 230.18,710.37 -0.01,0 0,0 0,0.01 0,0 0,0.01 0,0 0,0 0,0.01 0,0 0,0 0,0.01 0,0 0,0 -0.01,0 0,0.01 0,0 0,0 0,0 0,0.01 -0.01,0 0,0 0,0 -0.01,0.01 0,0 -0.01,0 0,0.01 -0.01,0 0,0 -0.01,0 0,0 -0.01,0 0,0 -0.01,0 0,0.01 -0.01,0 0,0 0,0 -0.01,0 0,0 -0.01,0 0,0 0,0 c -0.11,0 -0.11,-0.04 -0.14,-0.16 l -0.4,-1.59 c -1.23,-0.05 -2.28,-0.94 -2.28,-1.87 0,-0.79 0.71,-1.26 1.49,-1.29 l 0.04,0.2 c -0.53,0.03 -1.03,0.32 -1.03,0.97 0,0.7 0.53,1.68 1.72,1.79 l -0.69,-2.76 -0.04,-0.2 c -0.06,-0.21 -0.11,-0.43 -0.16,-0.65 -0.09,-0.33 -0.15,-0.58 -0.15,-0.6 0,-0.09 0.09,-0.09 0.11,-0.09 0.1,0 0.11,0.02 0.15,0.17 l 0.29,1.17 c 1.19,0.05 2.28,0.92 2.28,1.87 0,0.73 -0.64,1.25 -1.49,1.29 l -0.05,-0.2 c 0.53,-0.02 1.04,-0.31 1.04,-0.97 0,-0.76 -0.6,-1.69 -1.73,-1.79 l 0.69,2.76 0.05,0.2 z"
         id="path10834" /><path
         style="fill:#ff0000;stroke-width:0"
         inkscape:connector-curvature="0"
         d="m 233.01,705.74 0,-0.07 -0.01,-0.07 0,-0.08 -0.01,-0.08 -0.01,-0.03 0,-0.04 -0.01,-0.04 -0.01,-0.04 -0.01,-0.04 -0.01,-0.04 -0.01,-0.04 -0.02,-0.04 -0.01,-0.04 -0.02,-0.04 -0.02,-0.04 -0.02,-0.04 -0.02,-0.04 -0.02,-0.04 -0.02,-0.05 -0.03,-0.04 -0.03,-0.04 -0.03,-0.04 -0.03,-0.04 -0.04,-0.04 -0.03,-0.04 -0.04,-0.05 -0.04,-0.04 -0.05,-0.04 c -0.02,-0.03 -0.04,-0.05 -0.04,-0.08 0,-0.05 0.05,-0.1 0.09,-0.1 0.1,0 0.69,0.55 0.69,1.38 0,0.43 -0.16,0.76 -0.49,0.76 -0.22,0 -0.39,-0.18 -0.39,-0.4 0,-0.22 0.16,-0.4 0.4,-0.4 0.17,0 0.28,0.11 0.29,0.11 z"
         id="path10836" /><polygon
         style="fill:#ff0000;stroke-width:0"
         points="234.11,706.51 235.76,706.51 235.76,706.89 234.11,706.89 "
         id="polygon10838" /><path
         style="fill:#ff0000;stroke-width:0"
         inkscape:connector-curvature="0"
         d="m 237.9,707.28 0.04,-0.01 0.04,0 0.04,0 0.04,-0.01 0.04,-0.01 0.04,0 0.04,-0.01 0.03,-0.02 0.03,-0.01 0.04,-0.02 0.03,-0.01 0.03,-0.02 0.03,-0.02 0.03,-0.02 0.03,-0.02 0.02,-0.03 0.03,-0.02 0.02,-0.03 0.02,-0.03 0.02,-0.03 0.02,-0.03 0.02,-0.03 0.01,-0.04 0.02,-0.03 0.01,-0.04 0.01,-0.04 0.01,-0.03 0.01,-0.05 0,-0.04 0.01,-0.04 0,-0.04 0,-0.05 c 0,-0.51 -0.31,-0.78 -0.76,-0.78 -0.05,0 -0.64,0 -0.9,0.26 0.21,0.03 0.27,0.19 0.27,0.31 0,0.18 -0.14,0.3 -0.31,0.3 -0.16,0 -0.31,-0.11 -0.31,-0.31 0,-0.52 0.59,-0.76 1.27,-0.76 0.81,0 1.32,0.49 1.32,0.97 0,0.41 -0.36,0.76 -0.93,0.89 0.6,0.19 0.76,0.57 0.76,0.85 0,0.41 -0.51,0.71 -1.14,0.71 -0.61,0 -1.1,-0.26 -1.1,-0.71 0,-0.23 0.19,-0.29 0.28,-0.29 0.15,0 0.29,0.1 0.29,0.28 0,0.12 -0.06,0.26 -0.24,0.29 0.21,0.22 0.65,0.24 0.76,0.24 0.36,0 0.62,-0.18 0.62,-0.52 0,-0.29 -0.19,-0.74 -0.71,-0.77 -0.14,-0.01 -0.16,-0.01 -0.29,-0.02 -0.05,0 -0.11,-0.01 -0.11,-0.08 0,-0.08 0.05,-0.08 0.14,-0.08 z"
         id="path10840" /><path
         style="fill:#ff0000;stroke-width:0"
         inkscape:connector-curvature="0"
         d="m 241.75,709.02 0,-0.22 c 0.37,0 0.41,-0.03 0.41,-0.27 l 0,-0.97 c -0.11,0.09 -0.38,0.27 -0.79,0.27 -0.75,0 -1.36,-0.5 -1.36,-1.13 0,-0.6 0.56,-1.12 1.3,-1.12 l 0.03,0.16 c -0.25,0 -0.5,0.1 -0.66,0.32 -0.16,0.2 -0.18,0.48 -0.18,0.64 0,0.13 0.01,0.46 0.23,0.69 0.17,0.18 0.43,0.27 0.67,0.27 0.15,0 0.5,-0.03 0.74,-0.37 l 0,-1.12 c -0.24,-0.37 -0.61,-0.43 -0.8,-0.43 l -0.03,-0.16 c 0.41,0 0.69,0.18 0.83,0.29 l 0,-0.29 0.85,0.05 0,0.22 c -0.36,0 -0.41,0.03 -0.41,0.28 l 0,2.95 z"
         id="path10842" /><path
         style="fill:#ff0000;stroke-width:0"
         inkscape:connector-curvature="0"
         d="m 244.37,706.05 0,-0.01 0,-0.01 0,-0.02 0,-0.01 0,-0.01 0,-0.01 -0.01,-0.01 0,-0.01 0,-0.01 0,-0.01 -0.01,-0.01 0,-0.01 -0.01,-0.01 -0.01,0 0,-0.01 -0.01,-0.01 -0.01,0 -0.01,0 0,-0.01 -0.01,0 -0.01,0 0,0 -0.01,-0.01 -0.01,0 -0.01,0 0,0 -0.01,0 -0.01,-0.01 -0.01,0 -0.01,0 -0.01,0 -0.01,0 -0.01,0 -0.02,0 -0.01,0 -0.01,-0.01 -0.01,0 -0.02,0 -0.01,0 -0.02,0 -0.01,0 -0.02,0 -0.01,0 -0.02,0 -0.02,0 -0.02,0 -0.02,0 -0.14,0 0,-0.22 2.36,0 c 0.77,0 1.37,0.43 1.37,0.92 0,0.35 -0.36,0.75 -1.17,0.86 0.51,0.08 0.99,0.37 0.99,0.76 0,0.47 -0.61,0.85 -1.36,0.85 l -0.03,-0.22 c 0.53,0 0.85,-0.32 0.85,-0.63 0,-0.36 -0.44,-0.69 -0.98,-0.69 l -0.99,0 0,-0.16 1.17,0 c 0.67,0 0.96,-0.44 0.96,-0.77 0,-0.37 -0.42,-0.7 -1,-0.7 l -0.89,0 c -0.24,0 -0.24,0.03 -0.24,0.19 l 0,1.28 0,0.16 0,1.14 c 0,0.15 0,0.18 0.24,0.18 l 0.88,0 0.03,0.22 -2.19,0 0,-0.22 0.14,0 c 0.41,0 0.41,-0.04 0.41,-0.2 z"
         id="path10844" /></g>    <g
       style="font-style:normal;font-variant:normal;font-weight:normal;font-stretch:normal;letter-spacing:normal;word-spacing:normal;text-anchor:start;fill:#0000ff;fill-opacity:1;fill-rule:evenodd;stroke:#000000;stroke-linecap:butt;stroke-linejoin:miter;stroke-miterlimit:10.43299961;stroke-dasharray:none;stroke-dashoffset:0;stroke-opacity:1"
       ns0:preamble=""
       ns0:text="$W_{\\!0}$"
       text-anchor="start"
       word-spacing="normal"
       letter-spacing="normal"
       font-size-adjust="none"
       font-stretch="normal"
       font-weight="normal"
       font-variant="normal"
       font-style="normal"
       fill-opacity="1"
       fill-rule="evenodd"
       fill="none"
       stroke-opacity="1"
       stroke-dashoffset="0"
       stroke-dasharray="none"
       stroke-miterlimit="10.433"
       stroke-linejoin="miter"
       stroke-linecap="butt"
       stroke="black"
       xml:space="preserve"
       transform="matrix(1,0,0,-1,71.54225,798.005)"
       id="content"><path
         style="fill:#0000ff"
         id="path11016"
         fill="black"
         stroke-width="0"
         d="M232.55,712.76 L232.6,712.84 L232.65,712.92 L232.7,712.99 L232.75,713.07 L232.77,713.1 L232.8,713.14 L232.82,713.17 L232.85,713.2 L232.88,713.24 L232.91,713.27 L232.94,713.3 L232.97,713.33 L233,713.35 L233.04,713.38 L233.07,713.4 L233.11,713.43 L233.14,713.45 L233.18,713.47 L233.22,713.49 L233.27,713.51 L233.31,713.53 L233.36,713.54 L233.4,713.56 L233.45,713.57 L233.5,713.58 L233.56,713.59 L233.61,713.6 L233.67,713.6 C233.76,713.61,233.86,713.61,233.86,713.8 C233.86,713.84,233.82,713.91,233.74,713.91 C233.5,713.91,233.22,713.88,232.97,713.88 C232.63,713.88,232.27,713.91,231.94,713.91 C231.88,713.91,231.75,713.91,231.75,713.72 C231.75,713.61,231.84,713.6,231.9,713.6 C232.14,713.59,232.49,713.51,232.49,713.21 C232.49,713.1,232.44,713.03,232.36,712.89 L229.67,708.21 L229.3,713.14 C229.29,713.33,229.27,713.59,230,713.6 C230.17,713.6,230.27,713.6,230.27,713.8 C230.27,713.9,230.16,713.91,230.12,713.91 C229.72,713.91,229.3,713.88,228.9,713.88 C228.68,713.88,228.09,713.91,227.86,713.91 C227.8,713.91,227.67,713.91,227.67,713.71 C227.67,713.6,227.77,713.6,227.91,713.6 C228.35,713.6,228.42,713.54,228.44,713.35 L228.5,712.59 L225.98,708.21 L225.6,713.24 C225.6,713.36,225.6,713.59,226.36,713.6 C226.46,713.6,226.57,713.6,226.57,713.8 C226.57,713.91,226.45,713.91,226.43,713.91 C226.03,713.91,225.61,713.88,225.2,713.88 C224.85,713.88,224.5,713.91,224.16,713.91 C224.11,713.91,223.98,713.91,223.98,713.72 C223.98,713.6,224.07,713.6,224.23,713.6 C224.73,713.6,224.74,713.51,224.76,713.23 L225.2,707.16 C225.21,706.99,225.22,706.91,225.36,706.91 C225.48,706.91,225.51,706.97,225.6,707.11 L228.53,712.18 L228.89,707.16 C228.91,706.96,228.93,706.91,229.05,706.91 C229.18,706.91,229.24,707.01,229.29,707.09 Z " /><path
         style="fill:#0000ff"
         id="path11018"
         fill="black"
         stroke-width="0"
         d="M235.07,707.85 L235.07,707.99 L235.07,708.13 L235.06,708.26 L235.06,708.38 L235.04,708.51 L235.03,708.63 L235.01,708.74 L234.99,708.85 L234.96,708.96 L234.93,709.07 L234.9,709.17 L234.86,709.27 L234.82,709.37 L234.77,709.46 L234.72,709.56 L234.69,709.6 L234.66,709.65 C234.45,709.97,234.02,710.25,233.46,710.25 V710.05 C233.84,710.05,234.2,709.82,234.32,709.42 C234.43,709.04,234.44,708.54,234.44,707.94 C234.44,707.42,234.44,706.91,234.35,706.47 C234.21,705.84,233.74,705.69,233.46,705.69 H233.46 C233.14,705.69,232.71,705.87,232.57,706.45 C232.48,706.85,232.48,707.42,232.48,707.94 C232.48,708.45,232.48,708.98,232.58,709.36 C232.73,709.91,233.17,710.05,233.46,710.05 V710.25 C231.84,710.25,231.84,708.35,231.84,707.85 C231.84,707.35,231.84,705.49,233.46,705.49 C235.07,705.49,235.07,707.35,235.07,707.85 Z " /></g>    <g
       id="g11175"
       transform="matrix(1,0,0,-1,212.3257,835.02576)"
       xml:space="preserve"
       stroke="black"
       stroke-linecap="butt"
       stroke-linejoin="miter"
       stroke-miterlimit="10.433"
       stroke-dasharray="none"
       stroke-dashoffset="0"
       stroke-opacity="1"
       fill="none"
       fill-rule="evenodd"
       fill-opacity="1"
       font-style="normal"
       font-variant="normal"
       font-weight="normal"
       font-stretch="normal"
       font-size-adjust="none"
       letter-spacing="normal"
       word-spacing="normal"
       text-anchor="start"
       ns0:text="$W_{\\!0,\\textrm{\\tiny -3dB}}$"
       ns0:preamble=""
       style="font-style:normal;font-variant:normal;font-weight:normal;font-stretch:normal;letter-spacing:normal;word-spacing:normal;text-anchor:start;fill:#0000ff;fill-opacity:1;fill-rule:evenodd;stroke:#000000;stroke-linecap:butt;stroke-linejoin:miter;stroke-miterlimit:10.43299961;stroke-dasharray:none;stroke-dashoffset:0;stroke-opacity:1"><path
         style="fill:#0000ff"
         d="M232.55,712.76 L232.6,712.84 L232.65,712.92 L232.7,712.99 L232.75,713.07 L232.77,713.1 L232.8,713.14 L232.82,713.17 L232.85,713.2 L232.88,713.24 L232.91,713.27 L232.94,713.3 L232.97,713.33 L233,713.35 L233.04,713.38 L233.07,713.4 L233.11,713.43 L233.14,713.45 L233.18,713.47 L233.22,713.49 L233.27,713.51 L233.31,713.53 L233.36,713.54 L233.4,713.56 L233.45,713.57 L233.5,713.58 L233.56,713.59 L233.61,713.6 L233.67,713.6 C233.76,713.61,233.86,713.61,233.86,713.8 C233.86,713.84,233.82,713.91,233.74,713.91 C233.5,713.91,233.22,713.88,232.97,713.88 C232.63,713.88,232.27,713.91,231.94,713.91 C231.88,713.91,231.75,713.91,231.75,713.72 C231.75,713.61,231.84,713.6,231.9,713.6 C232.14,713.59,232.49,713.51,232.49,713.21 C232.49,713.1,232.44,713.03,232.36,712.89 L229.67,708.21 L229.3,713.14 C229.29,713.33,229.27,713.59,230,713.6 C230.17,713.6,230.27,713.6,230.27,713.8 C230.27,713.9,230.16,713.91,230.12,713.91 C229.72,713.91,229.3,713.88,228.9,713.88 C228.68,713.88,228.09,713.91,227.86,713.91 C227.8,713.91,227.67,713.91,227.67,713.71 C227.67,713.6,227.77,713.6,227.91,713.6 C228.35,713.6,228.42,713.54,228.44,713.35 L228.5,712.59 L225.98,708.21 L225.6,713.24 C225.6,713.36,225.6,713.59,226.36,713.6 C226.46,713.6,226.57,713.6,226.57,713.8 C226.57,713.91,226.45,713.91,226.43,713.91 C226.03,713.91,225.61,713.88,225.2,713.88 C224.85,713.88,224.5,713.91,224.16,713.91 C224.11,713.91,223.98,713.91,223.98,713.72 C223.98,713.6,224.07,713.6,224.23,713.6 C224.73,713.6,224.74,713.51,224.76,713.23 L225.2,707.16 C225.21,706.99,225.22,706.91,225.36,706.91 C225.48,706.91,225.51,706.97,225.6,707.11 L228.53,712.18 L228.89,707.16 C228.91,706.96,228.93,706.91,229.05,706.91 C229.18,706.91,229.24,707.01,229.29,707.09 Z "
         stroke-width="0"
         fill="black"
         id="path11177" /><path
         style="fill:#0000ff"
         d="M235.07,707.85 L235.07,707.99 L235.07,708.13 L235.06,708.26 L235.06,708.38 L235.04,708.51 L235.03,708.63 L235.01,708.74 L234.99,708.85 L234.96,708.96 L234.93,709.07 L234.9,709.17 L234.86,709.27 L234.82,709.37 L234.77,709.46 L234.72,709.56 L234.69,709.6 L234.66,709.65 C234.45,709.97,234.02,710.25,233.46,710.25 V710.05 C233.84,710.05,234.2,709.82,234.32,709.42 C234.43,709.04,234.44,708.54,234.44,707.94 C234.44,707.42,234.44,706.91,234.35,706.47 C234.21,705.84,233.74,705.69,233.46,705.69 H233.46 C233.14,705.69,232.71,705.87,232.57,706.45 C232.48,706.85,232.48,707.42,232.48,707.94 C232.48,708.45,232.48,708.98,232.58,709.36 C232.73,709.91,233.17,710.05,233.46,710.05 V710.25 C231.84,710.25,231.84,708.35,231.84,707.85 C231.84,707.35,231.84,705.49,233.46,705.49 C235.07,705.49,235.07,707.35,235.07,707.85 Z "
         stroke-width="0"
         fill="black"
         id="path11179" /><path
         style="fill:#0000ff"
         d="M236.92,705.74 L236.92,705.67 L236.92,705.6 L236.91,705.52 L236.9,705.44 L236.9,705.41 L236.89,705.37 L236.88,705.33 L236.87,705.29 L236.86,705.25 L236.85,705.21 L236.84,705.17 L236.83,705.13 L236.81,705.09 L236.8,705.05 L236.78,705.01 L236.76,704.97 L236.74,704.93 L236.71,704.89 L236.69,704.84 L236.66,704.8 L236.63,704.76 L236.6,704.72 L236.57,704.68 L236.54,704.64 L236.5,704.6 L236.46,704.55 L236.42,704.51 L236.38,704.47 C236.35,704.44,236.33,704.42,236.33,704.39 C236.33,704.34,236.38,704.29,236.43,704.29 C236.52,704.29,237.12,704.84,237.12,705.67 C237.12,706.1,236.95,706.43,236.63,706.43 C236.4,706.43,236.23,706.25,236.23,706.03 C236.23,705.81,236.39,705.63,236.64,705.63 C236.8,705.63,236.91,705.74,236.92,705.74 Z "
         stroke-width="0"
         fill="black"
         id="path11181" /><polygon
         style="fill:#0000ff"
         points="239.68,706.51 239.68,706.89 238.03,706.89 238.03,706.51 "
         stroke-width="0"
         fill="black"
         id="polygon11183" /><path
         style="fill:#0000ff"
         d="M241.81,707.28 L241.85,707.27 L241.9,707.27 L241.94,707.27 L241.98,707.26 L242.01,707.25 L242.05,707.25 L242.09,707.24 L242.12,707.22 L242.16,707.21 L242.19,707.19 L242.22,707.18 L242.25,707.16 L242.28,707.14 L242.31,707.12 L242.34,707.1 L242.36,707.07 L242.39,707.05 L242.41,707.02 L242.43,706.99 L242.45,706.96 L242.47,706.93 L242.49,706.9 L242.5,706.86 L242.52,706.83 L242.53,706.79 L242.54,706.75 L242.55,706.72 L242.56,706.67 L242.57,706.63 L242.57,706.59 L242.57,706.55 L242.57,706.5 C242.57,705.99,242.26,705.72,241.82,705.72 C241.76,705.72,241.17,705.72,240.92,705.98 C241.12,706.01,241.18,706.17,241.18,706.29 C241.18,706.47,241.04,706.59,240.88,706.59 C240.72,706.59,240.57,706.48,240.57,706.28 C240.57,705.76,241.15,705.52,241.83,705.52 C242.65,705.52,243.15,706.01,243.15,706.49 C243.15,706.9,242.79,707.25,242.23,707.38 C242.82,707.57,242.98,707.95,242.98,708.23 C242.98,708.64,242.47,708.94,241.85,708.94 C241.24,708.94,240.74,708.68,240.74,708.23 C240.74,708,240.93,707.94,241.03,707.94 C241.17,707.94,241.31,708.04,241.31,708.22 C241.31,708.34,241.25,708.48,241.07,708.51 C241.29,708.73,241.73,708.75,241.83,708.75 C242.2,708.75,242.45,708.57,242.45,708.23 C242.45,707.94,242.26,707.49,241.74,707.46 C241.6,707.45,241.58,707.45,241.45,707.44 C241.4,707.44,241.34,707.43,241.34,707.36 C241.34,707.28,241.39,707.28,241.48,707.28 Z "
         stroke-width="0"
         fill="black"
         id="path11185" /><path
         style="fill:#0000ff"
         d="M245.66,709.02 V708.8 C246.03,708.8,246.07,708.77,246.07,708.53 V707.56 C245.96,707.65,245.7,707.83,245.28,707.83 C244.54,707.83,243.92,707.33,243.92,706.7 C243.92,706.1,244.48,705.58,245.22,705.58 L245.25,705.74 C245,705.74,244.75,705.84,244.59,706.06 C244.43,706.26,244.42,706.54,244.42,706.7 C244.42,706.83,244.43,707.16,244.64,707.39 C244.81,707.57,245.07,707.66,245.32,707.66 C245.46,707.66,245.81,707.63,246.05,707.29 V706.17 C245.81,705.8,245.45,705.74,245.25,705.74 L245.22,705.58 C245.63,705.58,245.91,705.76,246.05,705.87 V705.58 L246.91,705.63 V705.85 C246.54,705.85,246.49,705.88,246.49,706.13 V709.08 Z "
         stroke-width="0"
         fill="black"
         id="path11187" /><path
         style="fill:#0000ff"
         d="M248.28,706.05 L248.28,706.04 L248.28,706.03 L248.28,706.01 L248.28,706 L248.28,705.99 L248.28,705.98 L248.28,705.97 L248.27,705.96 L248.27,705.95 L248.27,705.94 L248.26,705.93 L248.26,705.92 L248.25,705.91 L248.25,705.91 L248.24,705.9 L248.23,705.89 L248.22,705.89 L248.22,705.89 L248.21,705.88 L248.2,705.88 L248.2,705.88 L248.19,705.88 L248.18,705.87 L248.18,705.87 L248.17,705.87 L248.16,705.87 L248.15,705.87 L248.14,705.86 L248.13,705.86 L248.12,705.86 L248.11,705.86 L248.1,705.86 L248.09,705.86 L248.08,705.86 L248.06,705.86 L248.05,705.85 L248.04,705.85 L248.03,705.85 L248.01,705.85 L248,705.85 L247.98,705.85 L247.97,705.85 L247.95,705.85 L247.93,705.85 L247.91,705.85 L247.9,705.85 L247.88,705.85 H247.73 V705.63 H250.09 C250.86,705.63,251.46,706.06,251.46,706.55 C251.46,706.9,251.1,707.3,250.3,707.41 C250.8,707.49,251.29,707.78,251.29,708.17 C251.29,708.64,250.67,709.02,249.93,709.02 L249.89,708.8 C250.43,708.8,250.74,708.48,250.74,708.17 C250.74,707.81,250.31,707.48,249.76,707.48 H248.77 V707.32 H249.94 C250.61,707.32,250.9,706.88,250.9,706.55 C250.9,706.18,250.49,705.85,249.9,705.85 H249.01 C248.77,705.85,248.77,705.88,248.77,706.04 V707.32 V707.48 V708.62 C248.77,708.77,248.77,708.8,249.01,708.8 H249.89 L249.93,709.02 H247.73 V708.8 H247.88 C248.28,708.8,248.28,708.76,248.28,708.6 Z "
         stroke-width="0"
         fill="black"
         id="path11189" /></g>    <g
       id="g11512"
       transform="matrix(1,0,0,-1,192.18284,1001.4543)"
       xml:space="preserve"
       stroke-miterlimit="10.433"
       font-style="normal"
       font-variant="normal"
       font-weight="normal"
       font-stretch="normal"
       font-size-adjust="none"
       letter-spacing="normal"
       word-spacing="normal"
       ns0:text="$\\theta_{0,\\textrm{\\tiny -3dB}}$"
       ns0:preamble=""
       style="font-style:normal;font-variant:normal;font-weight:normal;font-stretch:normal;letter-spacing:normal;word-spacing:normal;text-anchor:start;fill:#0000ff;fill-opacity:1;fill-rule:evenodd;stroke:#000000;stroke-linecap:butt;stroke-linejoin:miter;stroke-miterlimit:10.43299961;stroke-dasharray:none;stroke-dashoffset:0;stroke-opacity:1"><path
         style="fill:#0000ff;stroke-width:0"
         d="m 227.96,712.09 0,0.07 0,0.06 -0.01,0.07 0,0.08 -0.01,0.07 0,0.08 -0.01,0.08 -0.01,0.09 -0.02,0.08 -0.01,0.08 -0.02,0.09 -0.02,0.08 -0.02,0.09 -0.03,0.08 -0.03,0.08 -0.03,0.09 -0.03,0.07 -0.04,0.08 -0.04,0.08 -0.04,0.07 -0.05,0.06 -0.05,0.07 -0.05,0.06 -0.06,0.05 -0.06,0.05 -0.03,0.02 -0.04,0.03 -0.03,0.02 -0.04,0.01 -0.03,0.02 -0.04,0.02 -0.04,0.01 -0.04,0.01 -0.04,0.01 -0.04,0.01 -0.05,0.01 -0.04,0 -0.05,0.01 -0.05,0 0,-0.22 c 0.48,0 0.54,-0.64 0.54,-1.2 0,-0.49 -0.08,-1 -0.32,-1.98 l -2.08,0 c 0.17,0.64 0.37,1.43 0.77,2.14 0.27,0.48 0.64,1.04 1.09,1.04 l 0,0.22 c -1.38,0 -2.91,-2.8 -2.91,-5.08 0,-0.93 0.29,-2.03 1.19,-2.03 l 0,0.21 c -0.33,0 -0.53,0.29 -0.53,1.22 0,0.41 0.06,0.99 0.31,1.96 l 2.07,0 c -0.1,-0.45 -0.31,-1.3 -0.69,-2.01 -0.35,-0.68 -0.73,-1.17 -1.16,-1.17 l 0,-0.21 c 1.41,0 2.92,2.85 2.92,5.07 z"
         id="path11514"
         inkscape:connector-curvature="0" /><path
         style="fill:#0000ff;stroke-width:0"
         d="m 231.7,707.85 0,0.14 0,0.14 -0.01,0.13 -0.01,0.12 -0.01,0.13 -0.01,0.12 -0.02,0.11 -0.02,0.11 -0.03,0.11 -0.03,0.11 -0.03,0.1 -0.04,0.1 -0.04,0.1 -0.05,0.09 -0.05,0.1 -0.03,0.04 -0.03,0.05 c -0.21,0.32 -0.65,0.6 -1.2,0.6 l 0,-0.2 c 0.37,0 0.73,-0.23 0.86,-0.63 0.11,-0.38 0.12,-0.88 0.12,-1.48 0,-0.52 0,-1.03 -0.09,-1.47 -0.14,-0.63 -0.61,-0.78 -0.89,-0.78 l 0,0 c -0.32,0 -0.75,0.18 -0.89,0.76 -0.1,0.4 -0.1,0.97 -0.1,1.49 0,0.51 0,1.04 0.11,1.42 0.15,0.55 0.59,0.69 0.88,0.69 l 0,0.2 c -1.62,0 -1.62,-1.9 -1.62,-2.4 0,-0.5 0,-2.36 1.62,-2.36 1.61,0 1.61,1.86 1.61,2.36 z"
         id="path11516"
         inkscape:connector-curvature="0" /><path
         style="fill:#0000ff;stroke-width:0"
         d="m 233.55,705.74 0,-0.07 0,-0.07 -0.01,-0.08 -0.01,-0.08 0,-0.03 -0.01,-0.04 -0.01,-0.04 -0.01,-0.04 -0.01,-0.04 -0.01,-0.04 -0.01,-0.04 -0.01,-0.04 -0.02,-0.04 -0.02,-0.04 -0.01,-0.04 -0.02,-0.04 -0.02,-0.04 -0.03,-0.04 -0.02,-0.05 -0.03,-0.04 -0.03,-0.04 -0.03,-0.04 -0.03,-0.04 -0.03,-0.04 -0.04,-0.04 -0.04,-0.05 -0.04,-0.04 -0.04,-0.04 c -0.03,-0.03 -0.05,-0.05 -0.05,-0.08 0,-0.05 0.05,-0.1 0.09,-0.1 0.1,0 0.69,0.55 0.69,1.38 0,0.43 -0.16,0.76 -0.48,0.76 -0.23,0 -0.4,-0.18 -0.4,-0.4 0,-0.22 0.16,-0.4 0.4,-0.4 0.17,0 0.28,0.11 0.29,0.11 z"
         id="path11518"
         inkscape:connector-curvature="0" /><polygon
         style="fill:#0000ff;stroke-width:0"
         points="234.65,706.51 236.31,706.51 236.31,706.89 234.65,706.89 "
         id="polygon11520" /><path
         style="fill:#0000ff;stroke-width:0"
         d="m 238.44,707.28 0.04,-0.01 0.04,0 0.04,0 0.04,-0.01 0.04,-0.01 0.04,0 0.04,-0.01 0.03,-0.02 0.04,-0.01 0.03,-0.02 0.03,-0.01 0.03,-0.02 0.03,-0.02 0.03,-0.02 0.03,-0.02 0.02,-0.03 0.03,-0.02 0.02,-0.03 0.02,-0.03 0.02,-0.03 0.02,-0.03 0.02,-0.03 0.01,-0.04 0.02,-0.03 0.01,-0.04 0.01,-0.04 0.01,-0.03 0.01,-0.05 0,-0.04 0.01,-0.04 0,-0.04 0,-0.05 c 0,-0.51 -0.31,-0.78 -0.75,-0.78 -0.06,0 -0.65,0 -0.91,0.26 0.21,0.03 0.27,0.19 0.27,0.31 0,0.18 -0.14,0.3 -0.3,0.3 -0.16,0 -0.31,-0.11 -0.31,-0.31 0,-0.52 0.58,-0.76 1.26,-0.76 0.81,0 1.32,0.49 1.32,0.97 0,0.41 -0.36,0.76 -0.93,0.89 0.6,0.19 0.76,0.57 0.76,0.85 0,0.41 -0.51,0.71 -1.13,0.71 -0.62,0 -1.11,-0.26 -1.11,-0.71 0,-0.23 0.19,-0.29 0.28,-0.29 0.15,0 0.29,0.1 0.29,0.28 0,0.12 -0.06,0.26 -0.24,0.29 0.21,0.22 0.65,0.24 0.76,0.24 0.36,0 0.62,-0.18 0.62,-0.52 0,-0.29 -0.19,-0.74 -0.71,-0.77 -0.14,-0.01 -0.16,-0.01 -0.29,-0.02 -0.05,0 -0.11,-0.01 -0.11,-0.08 0,-0.08 0.05,-0.08 0.14,-0.08 z"
         id="path11522"
         inkscape:connector-curvature="0" /><path
         style="fill:#0000ff;stroke-width:0"
         d="m 242.29,709.02 0,-0.22 c 0.37,0 0.41,-0.03 0.41,-0.27 l 0,-0.97 c -0.11,0.09 -0.38,0.27 -0.79,0.27 -0.75,0 -1.36,-0.5 -1.36,-1.13 0,-0.6 0.56,-1.12 1.3,-1.12 l 0.03,0.16 c -0.25,0 -0.5,0.1 -0.66,0.32 -0.16,0.2 -0.18,0.48 -0.18,0.64 0,0.13 0.01,0.46 0.23,0.69 0.17,0.18 0.43,0.27 0.67,0.27 0.15,0 0.5,-0.03 0.74,-0.37 l 0,-1.12 c -0.24,-0.37 -0.61,-0.43 -0.8,-0.43 l -0.03,-0.16 c 0.41,0 0.69,0.18 0.83,0.29 l 0,-0.29 0.86,0.05 0,0.22 c -0.37,0 -0.42,0.03 -0.42,0.28 l 0,2.95 z"
         id="path11524"
         inkscape:connector-curvature="0" /><path
         style="fill:#0000ff;stroke-width:0"
         d="m 244.91,706.05 0,-0.01 0,-0.01 0,-0.02 0,-0.01 0,-0.01 0,-0.01 -0.01,-0.01 0,-0.01 0,-0.01 0,-0.01 -0.01,-0.01 0,-0.01 -0.01,-0.01 0,0 -0.01,-0.01 -0.01,-0.01 -0.01,0 -0.01,0 0,-0.01 -0.01,0 -0.01,0 0,0 -0.01,-0.01 -0.01,0 0,0 -0.01,0 -0.01,0 -0.01,-0.01 -0.01,0 -0.01,0 -0.01,0 -0.01,0 -0.01,0 -0.01,0 -0.02,0 -0.01,-0.01 -0.01,0 -0.02,0 -0.01,0 -0.02,0 -0.01,0 -0.02,0 -0.01,0 -0.02,0 -0.02,0 -0.02,0 -0.01,0 -0.15,0 0,-0.22 2.36,0 c 0.77,0 1.37,0.43 1.37,0.92 0,0.35 -0.36,0.75 -1.17,0.86 0.51,0.08 0.99,0.37 0.99,0.76 0,0.47 -0.61,0.85 -1.35,0.85 l -0.04,-0.22 c 0.53,0 0.85,-0.32 0.85,-0.63 0,-0.36 -0.44,-0.69 -0.98,-0.69 l -0.99,0 0,-0.16 1.17,0 c 0.67,0 0.96,-0.44 0.96,-0.77 0,-0.37 -0.42,-0.7 -1,-0.7 l -0.89,0 c -0.24,0 -0.24,0.03 -0.24,0.19 l 0,1.28 0,0.16 0,1.14 c 0,0.15 0,0.18 0.24,0.18 l 0.88,0 0.04,0.22 -2.2,0 0,-0.22 0.15,0 c 0.4,0 0.4,-0.04 0.4,-0.2 z"
         id="path11526"
         inkscape:connector-curvature="0" /></g>    <g
       style="font-style:normal;font-variant:normal;font-weight:normal;font-stretch:normal;letter-spacing:normal;word-spacing:normal;text-anchor:start;fill:#ff0000;fill-opacity:1;fill-rule:evenodd;stroke:#000000;stroke-linecap:butt;stroke-linejoin:miter;stroke-miterlimit:10.43299961;stroke-dasharray:none;stroke-dashoffset:0;stroke-opacity:1"
       ns0:preamble=""
       ns0:text="0"
       word-spacing="normal"
       letter-spacing="normal"
       font-size-adjust="none"
       font-stretch="normal"
       font-weight="normal"
       font-variant="normal"
       font-style="normal"
       stroke-miterlimit="10.433"
       xml:space="preserve"
       transform="matrix(1,0,0,-1,134.0762,1001.0643)"
       id="g11706"><path
         id="path11708"
         d="m 228.01,710.3 0,0.15 0,0.15 -0.01,0.15 0,0.15 -0.01,0.15 -0.02,0.14 -0.01,0.15 -0.02,0.15 -0.02,0.14 -0.03,0.15 -0.03,0.14 -0.04,0.15 -0.04,0.14 -0.05,0.14 -0.06,0.14 -0.03,0.07 -0.03,0.07 c -0.46,0.95 -1.27,1.11 -1.69,1.11 -0.6,0 -1.32,-0.26 -1.73,-1.18 -0.32,-0.69 -0.37,-1.46 -0.37,-2.26 0,-0.74 0.04,-1.64 0.45,-2.39 0.43,-0.81 1.15,-1 1.64,-1 l 0,0.21 c -0.39,0 -0.98,0.25 -1.15,1.21 -0.11,0.59 -0.11,1.51 -0.11,2.09 0,0.64 0,1.29 0.08,1.83 0.18,1.18 0.93,1.27 1.18,1.27 0.33,0 0.98,-0.18 1.17,-1.16 0.1,-0.56 0.1,-1.31 0.1,-1.94 0,-0.74 0,-1.42 -0.11,-2.05 -0.15,-0.95 -0.71,-1.25 -1.16,-1.25 l 0,0 0,-0.21 c 0.54,0 1.29,0.2 1.73,1.15 0.32,0.68 0.37,1.46 0.37,2.24 z"
         inkscape:connector-curvature="0"
         style="fill:#000000;stroke-width:0" /></g>  </g>
</svg>
