<?xml version="1.0" encoding="UTF-8" standalone="no"?>
<!-- Created with Inkscape (http://www.inkscape.org/) -->

<svg
   xmlns:ns0="http://www.iki.fi/pav/software/textext/"
   xmlns:dc="http://purl.org/dc/elements/1.1/"
   xmlns:cc="http://creativecommons.org/ns#"
   xmlns:rdf="http://www.w3.org/1999/02/22-rdf-syntax-ns#"
   xmlns:svg="http://www.w3.org/2000/svg"
   xmlns="http://www.w3.org/2000/svg"
   xmlns:xlink="http://www.w3.org/1999/xlink"
   xmlns:sodipodi="http://sodipodi.sourceforge.net/DTD/sodipodi-0.dtd"
   xmlns:inkscape="http://www.inkscape.org/namespaces/inkscape"
   sodipodi:docname="cross.svg"
   height="1200"
   width="1600"
   inkscape:version="0.48.4 r9939"
   version="1.1"
   id="svg2"
   inkscape:export-filename="/home/me/Work/UiO/Phd/Articles/LCAforActiveSonarImaging/gfx/cross_tagged.png"
   inkscape:export-xdpi="99"
   inkscape:export-ydpi="99">
  <sodipodi:namedview
     pagecolor="#ffffff"
     bordercolor="#666666"
     borderopacity="1"
     objecttolerance="10"
     gridtolerance="10"
     guidetolerance="10"
     inkscape:pageopacity="0"
     inkscape:pageshadow="2"
     inkscape:window-width="1914"
     inkscape:window-height="1173"
     id="namedview4"
     showgrid="false"
     inkscape:zoom="0.39333333"
     inkscape:cx="335.07924"
     inkscape:cy="877.50562"
     inkscape:window-x="1920"
     inkscape:window-y="0"
     inkscape:window-maximized="0"
     inkscape:current-layer="svg2" />
  <metadata
     id="metadata8">
    <rdf:RDF>
      <cc:Work
         rdf:about="">
        <dc:format>image/svg+xml</dc:format>
        <dc:type
           rdf:resource="http://purl.org/dc/dcmitype/StillImage" />
        <dc:title />
      </cc:Work>
    </rdf:RDF>
  </metadata>
  <defs
     id="defs6">
    <linearGradient
       id="linearGradient4545">
      <stop
         id="stop4547"
         offset="0"
         style="stop-color:#c8c8c8;stop-opacity:0.31645569;" />
      <stop
         id="stop4549"
         offset="1"
         style="stop-color:#c8c8c8;stop-opacity:0.5316456;" />
    </linearGradient>
    <linearGradient
       id="linearGradient4537">
      <stop
         id="stop4539"
         offset="0"
         style="stop-color:#ffffff;stop-opacity:1;" />
      <stop
         id="stop4541"
         offset="1"
         style="stop-color:#ffffff;stop-opacity:0.65822786;" />
    </linearGradient>
    <marker
       style="overflow:visible;"
       id="Arrow2Mend"
       refX="0.0"
       refY="0.0"
       orient="auto"
       inkscape:stockid="Arrow2Mend">
      <path
         transform="scale(0.6) rotate(180) translate(0,0)"
         d="M 8.7185878,4.0337352 L -2.2072895,0.016013256 L 8.7185884,-4.0017078 C 6.9730900,-1.6296469 6.9831476,1.6157441 8.7185878,4.0337352 z "
         style="fill-rule:evenodd;stroke-width:0.62500000;stroke-linejoin:round;"
         id="path3788" />
    </marker>
    <marker
       style="overflow:visible"
       id="Arrow2Mstart"
       refX="0.0"
       refY="0.0"
       orient="auto"
       inkscape:stockid="Arrow2Mstart">
      <path
         transform="scale(0.6) translate(0,0)"
         d="M 8.7185878,4.0337352 L -2.2072895,0.016013256 L 8.7185884,-4.0017078 C 6.9730900,-1.6296469 6.9831476,1.6157441 8.7185878,4.0337352 z "
         style="fill-rule:evenodd;stroke-width:0.62500000;stroke-linejoin:round"
         id="path3785" />
    </marker>
    <marker
       style="overflow:visible"
       id="Arrow2MstartE"
       refX="0.0"
       refY="0.0"
       orient="auto"
       inkscape:stockid="Arrow2MstartE">
      <path
         transform="scale(0.6) translate(0,0)"
         d="M 8.7185878,4.0337352 L -2.2072895,0.016013256 L 8.7185884,-4.0017078 C 6.9730900,-1.6296469 6.9831476,1.6157441 8.7185878,4.0337352 z "
         style="stroke-linejoin:round;stroke:#ff0000;stroke-width:0.62500000;fill:#ff0000;fill-rule:evenodd"
         id="path4395" />
    </marker>
    <marker
       style="overflow:visible;"
       id="Arrow2Mendb"
       refX="0.0"
       refY="0.0"
       orient="auto"
       inkscape:stockid="Arrow2Mendb">
      <path
         transform="scale(0.6) rotate(180) translate(0,0)"
         d="M 8.7185878,4.0337352 L -2.2072895,0.016013256 L 8.7185884,-4.0017078 C 6.9730900,-1.6296469 6.9831476,1.6157441 8.7185878,4.0337352 z "
         style="stroke-linejoin:round;stroke:#ff0000;stroke-width:0.62500000;fill:#ff0000;fill-rule:evenodd"
         id="path4398" />
    </marker>
    <radialGradient
       gradientUnits="userSpaceOnUse"
       gradientTransform="matrix(1,0,0,0.5117076,0,346.30672)"
       r="106.76829"
       fy="709.21997"
       fx="1215.2649"
       cy="709.21997"
       cx="1215.2649"
       id="radialGradient4543"
       xlink:href="#linearGradient4537"
       inkscape:collect="always" />
    <radialGradient
       gradientUnits="userSpaceOnUse"
       gradientTransform="matrix(1,0,0,0.5117076,0,346.30672)"
       r="106.76829"
       fy="709.21997"
       fx="1215.2649"
       cy="709.21997"
       cx="1215.2649"
       id="radialGradient4551"
       xlink:href="#linearGradient4545"
       inkscape:collect="always" />
    <radialGradient
       gradientUnits="userSpaceOnUse"
       gradientTransform="matrix(1,0,0,0.5117076,0,346.30672)"
       r="106.76829"
       fy="709.21997"
       fx="1215.2649"
       cy="709.21997"
       cx="1215.2649"
       id="radialGradient4551-5"
       xlink:href="#linearGradient4545-9"
       inkscape:collect="always" />
    <linearGradient
       id="linearGradient4545-9">
      <stop
         id="stop4547-1"
         offset="0"
         style="stop-color:#ffffff;stop-opacity:0.31645569;" />
      <stop
         id="stop4549-9"
         offset="1"
         style="stop-color:#ffffff;stop-opacity:0.5316456;" />
    </linearGradient>
    <radialGradient
       gradientUnits="userSpaceOnUse"
       gradientTransform="matrix(1,0,0,0.5117076,0,346.30672)"
       r="106.76829"
       fy="709.21997"
       fx="1215.2649"
       cy="709.21997"
       cx="1215.2649"
       id="radialGradient4543-4"
       xlink:href="#linearGradient4537-2"
       inkscape:collect="always" />
    <linearGradient
       id="linearGradient4537-2">
      <stop
         id="stop4539-6"
         offset="0"
         style="stop-color:#ffffff;stop-opacity:1;" />
      <stop
         id="stop4541-1"
         offset="1"
         style="stop-color:#ffffff;stop-opacity:0.65822786;" />
    </linearGradient>
    <marker
       style="overflow:visible"
       id="Arrow2MstartE-0"
       refX="0"
       refY="0"
       orient="auto"
       inkscape:stockid="Arrow2MstartE">
      <path
         transform="scale(0.6,0.6)"
         d="M 8.7185878,4.0337352 -2.2072895,0.01601326 8.7185884,-4.0017078 c -1.7454984,2.3720609 -1.7354408,5.6174519 -6e-7,8.035443 z"
         style="fill:#ff0000;fill-rule:evenodd;stroke:#ff0000;stroke-width:0.625;stroke-linejoin:round"
         id="path4395-7"
         inkscape:connector-curvature="0" />
    </marker>
    <marker
       style="overflow:visible"
       id="Arrow2Mendb-9"
       refX="0"
       refY="0"
       orient="auto"
       inkscape:stockid="Arrow2Mendb">
      <path
         transform="scale(-0.6,-0.6)"
         d="M 8.7185878,4.0337352 -2.2072895,0.01601326 8.7185884,-4.0017078 c -1.7454984,2.3720609 -1.7354408,5.6174519 -6e-7,8.035443 z"
         style="fill:#ff0000;fill-rule:evenodd;stroke:#ff0000;stroke-width:0.625;stroke-linejoin:round"
         id="path4398-8"
         inkscape:connector-curvature="0" />
    </marker>
    <radialGradient
       inkscape:collect="always"
       xlink:href="#linearGradient4545-9"
       id="radialGradient4786"
       gradientUnits="userSpaceOnUse"
       gradientTransform="matrix(1,0,0,0.5117076,0,346.30672)"
       cx="1215.2649"
       cy="709.21997"
       fx="1215.2649"
       fy="709.21997"
       r="106.76829" />
    <radialGradient
       inkscape:collect="always"
       xlink:href="#linearGradient4537-2"
       id="radialGradient4788"
       gradientUnits="userSpaceOnUse"
       gradientTransform="matrix(1,0,0,0.5117076,0,346.30672)"
       cx="1215.2649"
       cy="709.21997"
       fx="1215.2649"
       fy="709.21997"
       r="106.76829" />
    <marker
       style="overflow:visible"
       id="Arrow2MstartEb"
       refX="0.0"
       refY="0.0"
       orient="auto"
       inkscape:stockid="Arrow2MstartEb">
      <path
         transform="scale(0.6) translate(0,0)"
         d="M 8.7185878,4.0337352 L -2.2072895,0.016013256 L 8.7185884,-4.0017078 C 6.9730900,-1.6296469 6.9831476,1.6157441 8.7185878,4.0337352 z "
         style="stroke-linejoin:round;fill-rule:evenodd;stroke:#d40000;stroke-width:0.62500000;fill:#d40000"
         id="path4825" />
    </marker>
    <marker
       style="overflow:visible;"
       id="Arrow2Mendb6"
       refX="0.0"
       refY="0.0"
       orient="auto"
       inkscape:stockid="Arrow2Mendb6">
      <path
         transform="scale(0.6) rotate(180) translate(0,0)"
         d="M 8.7185878,4.0337352 L -2.2072895,0.016013256 L 8.7185884,-4.0017078 C 6.9730900,-1.6296469 6.9831476,1.6157441 8.7185878,4.0337352 z "
         style="stroke-linejoin:round;fill-rule:evenodd;stroke:#d40000;stroke-width:0.62500000;fill:#d40000"
         id="path4828" />
    </marker>
    <marker
       style="overflow:visible"
       id="Arrow2MstartED"
       refX="0.0"
       refY="0.0"
       orient="auto"
       inkscape:stockid="Arrow2MstartED">
      <path
         transform="scale(0.6) translate(0,0)"
         d="M 8.7185878,4.0337352 L -2.2072895,0.016013256 L 8.7185884,-4.0017078 C 6.9730900,-1.6296469 6.9831476,1.6157441 8.7185878,4.0337352 z "
         style="stroke-linejoin:round;fill-rule:evenodd;stroke:#d40000;stroke-width:0.62500000;fill:#d40000"
         id="path4939" />
    </marker>
    <marker
       style="overflow:visible;"
       id="Arrow2Mendbq"
       refX="0.0"
       refY="0.0"
       orient="auto"
       inkscape:stockid="Arrow2Mendbq">
      <path
         transform="scale(0.6) rotate(180) translate(0,0)"
         d="M 8.7185878,4.0337352 L -2.2072895,0.016013256 L 8.7185884,-4.0017078 C 6.9730900,-1.6296469 6.9831476,1.6157441 8.7185878,4.0337352 z "
         style="stroke-linejoin:round;fill-rule:evenodd;stroke:#d40000;stroke-width:0.62500000;fill:#d40000"
         id="path4942" />
    </marker>
    <radialGradient
       inkscape:collect="always"
       xlink:href="#linearGradient4545-9"
       id="radialGradient5018"
       gradientUnits="userSpaceOnUse"
       gradientTransform="matrix(1,0,0,0.5117076,0,346.30672)"
       cx="1215.2649"
       cy="709.21997"
       fx="1215.2649"
       fy="709.21997"
       r="106.76829" />
    <radialGradient
       inkscape:collect="always"
       xlink:href="#linearGradient4537-2"
       id="radialGradient5020"
       gradientUnits="userSpaceOnUse"
       gradientTransform="matrix(1,0,0,0.5117076,0,346.30672)"
       cx="1215.2649"
       cy="709.21997"
       fx="1215.2649"
       fy="709.21997"
       r="106.76829" />
  </defs>
  <image
     y="0"
     x="0"
     id="image10"
     xlink:href="file:///home/me/Work/UiO/Phd/Articles/LCAforActiveSonarImaging/gfx/cross.png"
     height="1200"
     width="1600" />
  <path
     sodipodi:nodetypes="cc"
     inkscape:connector-curvature="0"
     id="path3755"
     d="m 231.35593,589.83051 c 567.26693,14.30084 1133.58047,37.1822 1133.58047,37.1822"
     style="stroke-linejoin:miter;marker-end:url(#Arrow2Mendbq);stroke-opacity:1;marker-start:url(#Arrow2MstartED);stroke:#d40000;stroke-linecap:butt;stroke-miterlimit:4;stroke-dasharray:none;stroke-width:8;fill:#d40000" />
  <path
     transform="matrix(1.0505407,0,0,1.0517241,-56.150566,-33.987198)"
     d="m 1319.5332,709.21997 a 104.26829,52.134144 0 1 1 -208.5366,0 104.26829,52.134144 0 1 1 208.5366,0 z"
     sodipodi:ry="52.134144"
     sodipodi:rx="104.26829"
     sodipodi:cy="709.21997"
     sodipodi:cx="1215.2649"
     id="path4535"
     style="fill:url(#radialGradient4551);fill-opacity:1;stroke:url(#radialGradient4543);stroke-width:4.75677538;stroke-linecap:butt;stroke-miterlimit:4;stroke-opacity:1;stroke-dasharray:none;stroke-dashoffset:0"
     sodipodi:type="arc" />
  <g
     id="content"
     transform="matrix(6.1059762,0,0,-6.7862581,-232.47396,3972.6118)"
     xml:space="preserve"
     stroke-miterlimit="10.433"
     font-style="normal"
     font-variant="normal"
     font-weight="normal"
     font-stretch="normal"
     font-size-adjust="none"
     letter-spacing="normal"
     word-spacing="normal"
     ns0:text="\\bf$\\approx$ 1\\,m"
     ns0:preamble="/home/me/.latex/inkscape/header.tex"
     style="font-style:normal;font-variant:normal;font-weight:normal;font-stretch:normal;letter-spacing:normal;word-spacing:normal;text-anchor:start;fill:#d40000;stroke:#d40000;stroke-width:0.15534857;stroke-linecap:butt;stroke-linejoin:miter;stroke-miterlimit:10.43299961;stroke-opacity:1;stroke-dasharray:none;stroke-dashoffset:0"><path
       style="fill:#d40000;stroke:#d40000;stroke-width:0"
       inkscape:connector-curvature="0"
       d="m 230.6,481.73 0,0.01 0,0.02 0,0.02 0,0.02 0,0.01 0,0.02 0,0.02 -0.01,0.01 0,0.01 0,0.02 -0.01,0.01 0,0.01 0,0.01 -0.01,0.01 0,0.01 -0.01,0.01 0,0.01 -0.01,0.01 0,0.01 -0.01,0 0,0.01 -0.01,0.01 -0.01,0 0,0.01 -0.01,0 -0.01,0 0,0.01 -0.01,0 0,0 -0.01,0 -0.01,0 0,0 c -0.1,0 -0.13,-0.17 -0.14,-0.26 -0.04,-0.68 -0.74,-1.1 -1.38,-1.1 -0.59,0 -1.04,0.3 -1.72,0.75 -0.43,0.27 -0.95,0.62 -1.59,0.62 -0.91,0 -1.65,-0.69 -1.65,-1.62 0,-0.21 0.07,-0.29 0.14,-0.29 0.11,0 0.14,0.18 0.14,0.22 0.05,0.84 0.87,1.14 1.37,1.14 0.6,0 1.04,-0.3 1.72,-0.75 0.43,-0.28 0.96,-0.62 1.59,-0.62 0.92,0 1.65,0.69 1.65,1.62 z"
       id="path4510" /><path
       style="fill:#d40000;stroke:#d40000;stroke-width:0"
       inkscape:connector-curvature="0"
       d="m 230.6,479.4 0,0.02 0,0.02 0,0.02 0,0.01 0,0.02 0,0.02 0,0.01 -0.01,0.02 0,0.01 0,0.01 -0.01,0.02 0,0.01 0,0.01 -0.01,0.01 0,0.01 -0.01,0.01 0,0.01 -0.01,0.01 0,0.01 -0.01,0.01 0,0 -0.01,0.01 -0.01,0 0,0.01 -0.01,0 -0.01,0.01 0,0 -0.01,0 0,0.01 -0.01,0 -0.01,0 0,0 c -0.11,0 -0.13,-0.17 -0.14,-0.32 -0.05,-0.57 -0.67,-1.04 -1.38,-1.04 -0.59,0 -1.04,0.3 -1.72,0.74 -0.43,0.28 -0.95,0.63 -1.59,0.63 -0.91,0 -1.65,-0.7 -1.65,-1.62 0,-0.22 0.07,-0.3 0.14,-0.3 0.11,0 0.14,0.18 0.14,0.23 0.05,0.83 0.87,1.13 1.37,1.13 0.6,0 1.04,-0.3 1.72,-0.74 0.43,-0.28 0.96,-0.63 1.59,-0.63 0.94,0 1.65,0.73 1.65,1.61 z"
       id="path4512" /><path
       style="fill:#d40000;stroke:#d40000;stroke-width:0"
       inkscape:connector-curvature="0"
       d="m 239.91,477.23 v 0.47 h -1.39 v 5.72 c 0,0.22 0,0.32 -0.26,0.32 -0.11,0 -0.13,0 -0.22,-0.07 -0.76,-0.56 -1.79,-0.56 -2,-0.56 h -0.19 v -0.47 h 0.19 c 0.16,0 0.71,0.01 1.3,0.2 v -5.14 h -1.38 v -0.47 c 0.43,0.04 1.49,0.04 1.97,0.04 0.49,0 1.55,0 1.98,-0.04 z"
       id="path4514" /><path
       style="fill:#d40000;stroke:#d40000;stroke-width:0"
       inkscape:connector-curvature="0"
       d="m 251.94,477.23 v 0.47 h -0.68 v 2.57 c 0,1.03 -0.51,1.43 -1.53,1.43 -0.91,0 -1.43,-0.49 -1.69,-0.95 -0.19,0.92 -1.11,0.95 -1.49,0.95 -0.86,0 -1.43,-0.44 -1.75,-1.07 v 1.07 l -1.71,-0.07 v -0.47 c 0.62,0 0.69,0 0.69,-0.39 v -3.07 h -0.69 v -0.47 l 1.25,0.04 1.26,-0.04 v 0.47 h -0.69 v 2.08 c 0,1.08 0.86,1.57 1.48,1.57 0.34,0 0.56,-0.2 0.56,-0.97 v -2.68 h -0.69 v -0.47 l 1.26,0.04 1.25,-0.04 v 0.47 h -0.69 v 2.08 c 0,1.08 0.87,1.57 1.49,1.57 0.33,0 0.55,-0.2 0.55,-0.97 v -2.68 h -0.68 v -0.47 l 1.25,0.04 z"
       id="path4516" /></g>  <path
     sodipodi:nodetypes="cc"
     inkscape:connector-curvature="0"
     id="path3755-4"
     d="m 340.64317,134.74298 c 71.93316,8.39124 143.74543,21.81723 143.74543,21.81723"
     style="stroke-linejoin:miter;marker-end:url(#Arrow2Mendb6);stroke-opacity:1;marker-start:url(#Arrow2MstartEb);stroke:#d40000;stroke-linecap:butt;stroke-miterlimit:4;stroke-dasharray:none;stroke-width:8;fill:#ff0000" />
  <path
     transform="matrix(1.4341614,0,0,1.2931034,-1586.1107,-692.0384)"
     d="m 1319.5332,709.21997 a 104.26829,52.134144 0 1 1 -208.5366,0 104.26829,52.134144 0 1 1 208.5366,0 z"
     sodipodi:ry="52.134144"
     sodipodi:rx="104.26829"
     sodipodi:cy="709.21997"
     sodipodi:cx="1215.2649"
     id="path4535-1"
     style="fill:url(#radialGradient5018);fill-opacity:1;stroke:url(#radialGradient5020);stroke-width:3.67159152;stroke-linecap:butt;stroke-miterlimit:4;stroke-opacity:1;stroke-dasharray:none;stroke-dashoffset:0"
     sodipodi:type="arc" />
  <g
     style="font-style:normal;font-variant:normal;font-weight:normal;font-stretch:normal;letter-spacing:normal;word-spacing:normal;text-anchor:start;fill:#d40000;fill-opacity:1;fill-rule:evenodd;stroke:#000000;stroke-width:0.15534857;stroke-linecap:butt;stroke-linejoin:miter;stroke-miterlimit:10.43299961;stroke-opacity:1;stroke-dasharray:none;stroke-dashoffset:0"
     ns0:preamble="/home/me/.latex/inkscape/header.tex"
     ns0:text="\\bf$\\approx$ 13\\,cm"
     word-spacing="normal"
     letter-spacing="normal"
     font-size-adjust="none"
     font-stretch="normal"
     font-weight="normal"
     font-variant="normal"
     font-style="normal"
     stroke-miterlimit="10.433"
     xml:space="preserve"
     transform="matrix(6.1059762,0,0,-6.7862581,-1329.2667,3485.4123)"
     id="g4725"><path
       id="path4727"
       d="m 230.6,481.73 0,0.01 0,0.02 0,0.02 0,0.02 0,0.01 0,0.02 0,0.02 -0.01,0.01 0,0.01 0,0.02 -0.01,0.01 0,0.01 0,0.01 -0.01,0.01 0,0.01 -0.01,0.01 0,0.01 -0.01,0.01 0,0.01 -0.01,0 0,0.01 -0.01,0.01 -0.01,0 0,0.01 -0.01,0 -0.01,0 0,0.01 -0.01,0 0,0 -0.01,0 -0.01,0 0,0 c -0.1,0 -0.13,-0.17 -0.14,-0.26 -0.04,-0.68 -0.74,-1.1 -1.38,-1.1 -0.59,0 -1.04,0.3 -1.72,0.75 -0.43,0.27 -0.95,0.62 -1.59,0.62 -0.91,0 -1.65,-0.69 -1.65,-1.62 0,-0.21 0.07,-0.29 0.14,-0.29 0.11,0 0.14,0.18 0.14,0.22 0.05,0.84 0.87,1.14 1.37,1.14 0.6,0 1.04,-0.3 1.72,-0.75 0.43,-0.28 0.96,-0.62 1.59,-0.62 0.92,0 1.65,0.69 1.65,1.62 z"
       inkscape:connector-curvature="0"
       style="fill:#d40000;stroke:#000000;stroke-width:0" /><path
       id="path4729"
       d="m 230.6,479.4 0,0.02 0,0.02 0,0.02 0,0.01 0,0.02 0,0.02 0,0.01 -0.01,0.02 0,0.01 0,0.01 -0.01,0.02 0,0.01 0,0.01 -0.01,0.01 0,0.01 -0.01,0.01 0,0.01 -0.01,0.01 0,0.01 -0.01,0.01 0,0 -0.01,0.01 -0.01,0 0,0.01 -0.01,0 -0.01,0.01 0,0 -0.01,0 0,0.01 -0.01,0 -0.01,0 0,0 c -0.11,0 -0.13,-0.17 -0.14,-0.32 -0.05,-0.57 -0.67,-1.04 -1.38,-1.04 -0.59,0 -1.04,0.3 -1.72,0.74 -0.43,0.28 -0.95,0.63 -1.59,0.63 -0.91,0 -1.65,-0.7 -1.65,-1.62 0,-0.22 0.07,-0.3 0.14,-0.3 0.11,0 0.14,0.18 0.14,0.23 0.05,0.83 0.87,1.13 1.37,1.13 0.6,0 1.04,-0.3 1.72,-0.74 0.43,-0.28 0.96,-0.63 1.59,-0.63 0.94,0 1.65,0.73 1.65,1.61 z"
       inkscape:connector-curvature="0"
       style="fill:#d40000;stroke:#000000;stroke-width:0" /><path
       id="path4731"
       d="m 239.91,477.23 v 0.47 h -1.39 v 5.72 c 0,0.22 0,0.32 -0.26,0.32 -0.11,0 -0.13,0 -0.22,-0.07 -0.76,-0.56 -1.79,-0.56 -2,-0.56 h -0.19 v -0.47 h 0.19 c 0.16,0 0.71,0.01 1.3,0.2 v -5.14 h -1.38 v -0.47 c 0.43,0.04 1.49,0.04 1.97,0.04 0.49,0 1.55,0 1.98,-0.04 z"
       inkscape:connector-curvature="0"
       style="fill:#d40000;stroke:#000000;stroke-width:0" /><path
       id="path4733"
       d="m 245.96,479.02 0,0.06 0,0.05 -0.01,0.05 0,0.06 -0.01,0.06 -0.01,0.06 -0.02,0.06 -0.02,0.06 -0.02,0.06 -0.02,0.06 -0.03,0.06 -0.03,0.06 -0.03,0.06 -0.04,0.07 -0.04,0.06 -0.04,0.06 -0.05,0.06 -0.06,0.06 -0.05,0.05 -0.07,0.06 -0.07,0.06 -0.07,0.05 -0.08,0.05 -0.08,0.05 -0.09,0.05 -0.09,0.05 -0.1,0.04 -0.11,0.04 -0.11,0.04 -0.12,0.04 -0.13,0.03 -0.06,0.02 -0.07,0.01 c 0.69,0.21 1.41,0.78 1.41,1.63 0,0.77 -0.75,1.38 -2.16,1.38 -1.18,0 -1.96,-0.63 -1.96,-1.43 0,-0.43 0.31,-0.69 0.69,-0.69 0.45,0 0.7,0.31 0.7,0.68 0,0.58 -0.54,0.69 -0.58,0.7 0.35,0.27 0.79,0.35 1.1,0.35 0.82,0 0.85,-0.63 0.85,-0.96 0,-0.13 -0.01,-1.43 -1.04,-1.49 -0.41,-0.02 -0.43,-0.03 -0.48,-0.04 -0.1,-0.01 -0.12,-0.11 -0.12,-0.17 0,-0.18 0.1,-0.18 0.28,-0.18 h 0.43 c 1.09,0 1.09,-0.97 1.09,-1.48 0,-0.46 0,-1.48 -1.04,-1.48 -0.25,0 -0.77,0.04 -1.25,0.34 0.33,0.09 0.58,0.34 0.58,0.75 0,0.44 -0.32,0.75 -0.76,0.75 -0.42,0 -0.76,-0.27 -0.76,-0.77 0,-0.9 0.96,-1.49 2.25,-1.49 1.78,0 2.5,0.99 2.5,1.89 z"
       inkscape:connector-curvature="0"
       style="fill:#d40000;stroke:#000000;stroke-width:0" /><path
       id="path4735"
       d="m 253.12,478.4 0,0 0,0.01 0,0.01 0,0 0,0.01 0,0 0,0.01 0,0 0,0.01 0,0 -0.01,0.01 0,0 0,0.01 0,0 -0.01,0 0,0.01 0,0 -0.01,0.01 -0.01,0.01 0,0 -0.01,0.01 -0.01,0 -0.01,0.01 -0.01,0 -0.01,0 -0.01,0 0,0.01 -0.01,0 -0.01,0 -0.01,0 -0.01,0 -0.01,0 -0.02,0.01 -0.02,0 -0.02,0 -0.01,0 -0.01,0 c -0.18,0 -0.19,-0.02 -0.24,-0.15 -0.26,-0.63 -0.74,-0.82 -1.25,-0.82 -1.38,0 -1.38,1.46 -1.38,1.92 0,0.56 0,1.85 1.28,1.85 0.35,0 0.52,-0.03 0.65,-0.06 -0.18,-0.16 -0.2,-0.37 -0.2,-0.46 0,-0.44 0.35,-0.62 0.62,-0.62 0.31,0 0.63,0.2 0.63,0.62 0,0.85 -1.16,0.91 -1.74,0.91 -1.78,0 -2.51,-1.14 -2.51,-2.29 0,-1.32 0.93,-2.27 2.46,-2.27 1.62,0 1.91,1.16 1.91,1.23 z"
       inkscape:connector-curvature="0"
       style="fill:#d40000;stroke:#000000;stroke-width:0" /><path
       id="path4737"
       d="m 262.76,477.23 v 0.47 h -0.68 v 2.57 c 0,1.03 -0.51,1.43 -1.53,1.43 -0.91,0 -1.43,-0.49 -1.69,-0.95 -0.19,0.92 -1.11,0.95 -1.49,0.95 -0.86,0 -1.43,-0.44 -1.75,-1.07 v 1.07 l -1.71,-0.07 v -0.47 c 0.62,0 0.69,0 0.69,-0.39 v -3.07 h -0.69 v -0.47 l 1.25,0.04 1.26,-0.04 v 0.47 h -0.69 v 2.08 c 0,1.08 0.87,1.57 1.48,1.57 0.34,0 0.56,-0.2 0.56,-0.97 v -2.68 h -0.69 v -0.47 l 1.26,0.04 1.25,-0.04 v 0.47 h -0.69 v 2.08 c 0,1.08 0.87,1.57 1.49,1.57 0.34,0 0.55,-0.2 0.55,-0.97 v -2.68 h -0.68 v -0.47 l 1.25,0.04 z"
       inkscape:connector-curvature="0"
       style="fill:#d40000;stroke:#000000;stroke-width:0" /></g></svg>
