<?xml version="1.0" encoding="UTF-8" standalone="no"?>
<!-- Created with Inkscape (http://www.inkscape.org/) -->

<svg
   xmlns:ns0="http://www.iki.fi/pav/software/textext/"
   xmlns:dc="http://purl.org/dc/elements/1.1/"
   xmlns:cc="http://creativecommons.org/ns#"
   xmlns:rdf="http://www.w3.org/1999/02/22-rdf-syntax-ns#"
   xmlns:svg="http://www.w3.org/2000/svg"
   xmlns="http://www.w3.org/2000/svg"
   xmlns:xlink="http://www.w3.org/1999/xlink"
   xmlns:sodipodi="http://sodipodi.sourceforge.net/DTD/sodipodi-0.dtd"
   xmlns:inkscape="http://www.inkscape.org/namespaces/inkscape"
   sodipodi:docname="scenario_interference.svg"
   inkscape:version="0.48.3.1 r9886"
   version="1.1"
   id="svg3307"
   height="455.51068"
   width="690.13092"
   inkscape:export-filename="/home/me/Work/UiO/Phd/Articles/ECUA2012/presentation/gfx/scenario_interference.png"
   inkscape:export-xdpi="299.94"
   inkscape:export-ydpi="299.94">
  <sodipodi:namedview
     id="base"
     pagecolor="#ffffff"
     bordercolor="#666666"
     borderopacity="1.0"
     inkscape:pageopacity="0.0"
     inkscape:pageshadow="2"
     inkscape:zoom="1.979899"
     inkscape:cx="306.33649"
     inkscape:cy="310.18886"
     inkscape:document-units="px"
     inkscape:current-layer="layer1"
     showgrid="true"
     inkscape:window-width="822"
     inkscape:window-height="812"
     inkscape:window-x="415"
     inkscape:window-y="71"
     inkscape:window-maximized="0"
     inkscape:snap-global="true"
     fit-margin-top="0"
     fit-margin-left="0"
     fit-margin-right="0"
     fit-margin-bottom="0">
    <inkscape:grid
       snapvisiblegridlinesonly="true"
       enabled="true"
       visible="true"
       empspacing="5"
       type="xygrid"
       id="grid4125" />
  </sodipodi:namedview>
  <defs
     id="defs3309">
    <linearGradient
       inkscape:collect="always"
       id="linearGradient18270">
      <stop
         style="stop-color:#808080;stop-opacity:1;"
         offset="0"
         id="stop18272" />
      <stop
         style="stop-color:#808080;stop-opacity:0;"
         offset="1"
         id="stop18274" />
    </linearGradient>
    <linearGradient
       id="linearGradient12844">
      <stop
         style="stop-color:#82c4dc;stop-opacity:0;"
         offset="0"
         id="stop12846" />
      <stop
         id="stop12984"
         offset="0.05"
         style="stop-color:#41bfed;stop-opacity:0.84666669;" />
      <stop
         style="stop-color:#00baff;stop-opacity:0;"
         offset="1"
         id="stop12848" />
    </linearGradient>
    <linearGradient
       id="linearGradient12834">
      <stop
         style="stop-color:#ff0000;stop-opacity:0.28666666;"
         offset="0"
         id="stop12836" />
      <stop
         style="stop-color:#ff0000;stop-opacity:0.52666664;"
         offset="1"
         id="stop12838" />
    </linearGradient>
    <marker
       style="overflow:visible"
       id="Arrow2Mend"
       refX="0"
       refY="0"
       orient="auto"
       inkscape:stockid="Arrow2Mend">
      <path
         inkscape:connector-curvature="0"
         transform="scale(-0.6,-0.6)"
         d="M 8.7185878,4.0337352 -2.2072895,0.01601326 8.7185884,-4.0017078 c -1.7454984,2.3720609 -1.7354408,5.6174519 -6e-7,8.035443 z"
         style="font-size:12px;fill-rule:evenodd;stroke-width:0.625;stroke-linejoin:round"
         id="path3793" />
    </marker>
    <marker
       style="overflow:visible"
       id="Arrow2Mstart"
       refX="0"
       refY="0"
       orient="auto"
       inkscape:stockid="Arrow2Mstart">
      <path
         inkscape:connector-curvature="0"
         transform="scale(0.6,0.6)"
         d="M 8.7185878,4.0337352 -2.2072895,0.01601326 8.7185884,-4.0017078 c -1.7454984,2.3720609 -1.7354408,5.6174519 -6e-7,8.035443 z"
         style="font-size:12px;fill-rule:evenodd;stroke-width:0.625;stroke-linejoin:round"
         id="path3790" />
    </marker>
    <marker
       inkscape:stockid="Arrow2Lend"
       orient="auto"
       refY="0"
       refX="0"
       id="Arrow2Lend"
       style="overflow:visible">
      <path
         inkscape:connector-curvature="0"
         id="path11637"
         style="font-size:12px;fill-rule:evenodd;stroke-width:0.625;stroke-linejoin:round"
         d="M 8.7185878,4.0337352 -2.2072895,0.01601326 8.7185884,-4.0017078 c -1.7454984,2.3720609 -1.7354408,5.6174519 -6e-7,8.035443 z"
         transform="matrix(-1.1,0,0,-1.1,-1.1,0)" />
    </marker>
    <marker
       inkscape:stockid="Arrow2Lstart"
       orient="auto"
       refY="0"
       refX="0"
       id="Arrow2Lstart"
       style="overflow:visible">
      <path
         inkscape:connector-curvature="0"
         id="path11634"
         style="font-size:12px;fill-rule:evenodd;stroke-width:0.625;stroke-linejoin:round"
         d="M 8.7185878,4.0337352 -2.2072895,0.01601326 8.7185884,-4.0017078 c -1.7454984,2.3720609 -1.7354408,5.6174519 -6e-7,8.035443 z"
         transform="matrix(1.1,0,0,1.1,1.1,0)" />
    </marker>
    <marker
       inkscape:stockid="Arrow2Lend4"
       orient="auto"
       refY="0"
       refX="0"
       id="Arrow2Lend4"
       style="overflow:visible">
      <path
         inkscape:connector-curvature="0"
         id="path15603"
         style="font-size:12px;fill:#008000;fill-rule:evenodd;stroke:#008000;stroke-width:0.625;stroke-linejoin:round"
         d="M 8.7185878,4.0337352 -2.2072895,0.01601326 8.7185884,-4.0017078 c -1.7454984,2.3720609 -1.7354408,5.6174519 -6e-7,8.035443 z"
         transform="matrix(-1.1,0,0,-1.1,-1.1,0)" />
    </marker>
    <marker
       inkscape:stockid="Arrow2Lend"
       orient="auto"
       refY="0"
       refX="0"
       id="Arrow2Lend-5"
       style="overflow:visible">
      <path
         id="path11637-3"
         style="font-size:12px;fill-rule:evenodd;stroke-width:0.625;stroke-linejoin:round"
         d="M 8.7185878,4.0337352 -2.2072895,0.01601326 8.7185884,-4.0017078 c -1.7454984,2.3720609 -1.7354408,5.6174519 -6e-7,8.035443 z"
         transform="matrix(-1.1,0,0,-1.1,-1.1,0)"
         inkscape:connector-curvature="0" />
    </marker>
    <marker
       inkscape:stockid="Arrow2Lend"
       orient="auto"
       refY="0"
       refX="0"
       id="Arrow2Lend-0"
       style="overflow:visible">
      <path
         id="path11637-1"
         style="font-size:12px;fill-rule:evenodd;stroke-width:0.625;stroke-linejoin:round"
         d="M 8.7185878,4.0337352 -2.2072895,0.01601326 8.7185884,-4.0017078 c -1.7454984,2.3720609 -1.7354408,5.6174519 -6e-7,8.035443 z"
         transform="matrix(-1.1,0,0,-1.1,-1.1,0)"
         inkscape:connector-curvature="0" />
    </marker>
    <marker
       inkscape:stockid="Arrow2Lstart"
       orient="auto"
       refY="0"
       refX="0"
       id="Arrow2Lstart-8"
       style="overflow:visible">
      <path
         inkscape:connector-curvature="0"
         id="path11634-9"
         style="font-size:12px;fill-rule:evenodd;stroke-width:0.625;stroke-linejoin:round"
         d="M 8.7185878,4.0337352 -2.2072895,0.01601326 8.7185884,-4.0017078 c -1.7454984,2.3720609 -1.7354408,5.6174519 -6e-7,8.035443 z"
         transform="matrix(1.1,0,0,1.1,1.1,0)" />
    </marker>
    <marker
       inkscape:stockid="Arrow2Lend"
       orient="auto"
       refY="0"
       refX="0"
       id="Arrow2Lend-03"
       style="overflow:visible">
      <path
         inkscape:connector-curvature="0"
         id="path11637-6"
         style="font-size:12px;fill-rule:evenodd;stroke-width:0.625;stroke-linejoin:round"
         d="M 8.7185878,4.0337352 -2.2072895,0.01601326 8.7185884,-4.0017078 c -1.7454984,2.3720609 -1.7354408,5.6174519 -6e-7,8.035443 z"
         transform="matrix(-1.1,0,0,-1.1,-1.1,0)" />
    </marker>
    <marker
       style="overflow:visible"
       id="Arrow2Mstart-8"
       refX="0"
       refY="0"
       orient="auto"
       inkscape:stockid="Arrow2Mstart">
      <path
         transform="scale(0.6,0.6)"
         d="M 8.7185878,4.0337352 -2.2072895,0.01601326 8.7185884,-4.0017078 c -1.7454984,2.3720609 -1.7354408,5.6174519 -6e-7,8.035443 z"
         style="font-size:12px;fill-rule:evenodd;stroke-width:0.625;stroke-linejoin:round"
         id="path3790-7"
         inkscape:connector-curvature="0" />
    </marker>
    <marker
       style="overflow:visible"
       id="Arrow2Mend-2"
       refX="0"
       refY="0"
       orient="auto"
       inkscape:stockid="Arrow2Mend">
      <path
         transform="scale(-0.6,-0.6)"
         d="M 8.7185878,4.0337352 -2.2072895,0.01601326 8.7185884,-4.0017078 c -1.7454984,2.3720609 -1.7354408,5.6174519 -6e-7,8.035443 z"
         style="font-size:12px;fill-rule:evenodd;stroke-width:0.625;stroke-linejoin:round"
         id="path3793-9"
         inkscape:connector-curvature="0" />
    </marker>
    <marker
       style="overflow:visible"
       id="Arrow2Mstart-8-0"
       refX="0"
       refY="0"
       orient="auto"
       inkscape:stockid="Arrow2Mstart">
      <path
         transform="scale(0.6,0.6)"
         d="M 8.7185878,4.0337352 -2.2072895,0.01601326 8.7185884,-4.0017078 c -1.7454984,2.3720609 -1.7354408,5.6174519 -6e-7,8.035443 z"
         style="font-size:12px;fill-rule:evenodd;stroke-width:0.625;stroke-linejoin:round"
         id="path3790-7-5"
         inkscape:connector-curvature="0" />
    </marker>
    <marker
       style="overflow:visible"
       id="Arrow2Mend-2-2"
       refX="0"
       refY="0"
       orient="auto"
       inkscape:stockid="Arrow2Mend">
      <path
         transform="scale(-0.6,-0.6)"
         d="M 8.7185878,4.0337352 -2.2072895,0.01601326 8.7185884,-4.0017078 c -1.7454984,2.3720609 -1.7354408,5.6174519 -6e-7,8.035443 z"
         style="font-size:12px;fill-rule:evenodd;stroke-width:0.625;stroke-linejoin:round"
         id="path3793-9-7"
         inkscape:connector-curvature="0" />
    </marker>
    <marker
       inkscape:stockid="Arrow2Lstart"
       orient="auto"
       refY="0"
       refX="0"
       id="Arrow2Lstart-7"
       style="overflow:visible">
      <path
         inkscape:connector-curvature="0"
         id="path3176"
         style="font-size:12px;fill-rule:evenodd;stroke-width:0.625;stroke-linejoin:round"
         d="M 8.7185878,4.0337352 -2.2072895,0.01601326 8.7185884,-4.0017078 c -1.7454984,2.3720609 -1.7354408,5.6174519 -6e-7,8.035443 z"
         transform="matrix(1.1,0,0,1.1,1.1,0)" />
    </marker>
    <marker
       style="overflow:visible"
       id="Arrow2Lend-6"
       refX="0"
       refY="0"
       orient="auto"
       inkscape:stockid="Arrow2Lend">
      <path
         inkscape:connector-curvature="0"
         transform="matrix(-1.1,0,0,-1.1,-1.1,0)"
         d="M 8.7185878,4.0337352 -2.2072895,0.01601326 8.7185884,-4.0017078 c -1.7454984,2.3720609 -1.7354408,5.6174519 -6e-7,8.035443 z"
         style="font-size:12px;fill-rule:evenodd;stroke-width:0.625;stroke-linejoin:round"
         id="path3179" />
    </marker>
    <radialGradient
       inkscape:collect="always"
       xlink:href="#linearGradient12834-0"
       id="radialGradient12840-9"
       cx="271.58548"
       cy="-285.18103"
       fx="271.58548"
       fy="-285.18103"
       r="186.54291"
       gradientTransform="matrix(1,0,0,0.23510469,-16.42857,-211.70509)"
       gradientUnits="userSpaceOnUse" />
    <linearGradient
       id="linearGradient12834-0">
      <stop
         style="stop-color:#ff0000;stop-opacity:0.12666667;"
         offset="0"
         id="stop12836-7" />
      <stop
         style="stop-color:#ff0000;stop-opacity:0.27333334;"
         offset="1"
         id="stop12838-6" />
    </linearGradient>
    <radialGradient
       inkscape:collect="always"
       xlink:href="#linearGradient12834"
       id="radialGradient12990"
       gradientUnits="userSpaceOnUse"
       gradientTransform="matrix(1,0,0,0.23510469,-6.4285634,-381.70509)"
       cx="271.58548"
       cy="-285.18103"
       fx="271.58548"
       fy="-285.18103"
       r="186.54291" />
    <linearGradient
       inkscape:collect="always"
       xlink:href="#linearGradient12844"
       id="linearGradient18250"
       gradientUnits="userSpaceOnUse"
       gradientTransform="matrix(1.078125,0,0,0.81249997,130.7602,237.5911)"
       x1="140"
       y1="-257.66312"
       x2="140"
       y2="-737.66309" />
    <linearGradient
       inkscape:collect="always"
       xlink:href="#linearGradient18270"
       id="linearGradient18276"
       x1="302.47897"
       y1="-208.63516"
       x2="302.47897"
       y2="-113.63516"
       gradientUnits="userSpaceOnUse"
       gradientTransform="translate(-2.390625e-5,205)" />
  </defs>
  <metadata
     id="metadata3312">
    <rdf:RDF>
      <cc:Work
         rdf:about="">
        <dc:format>image/svg+xml</dc:format>
        <dc:type
           rdf:resource="http://purl.org/dc/dcmitype/StillImage" />
        <dc:title />
      </cc:Work>
    </rdf:RDF>
  </metadata>
  <g
     transform="translate(52.577106,353.63513)"
     inkscape:label="Layer 1"
     inkscape:groupmode="layer"
     id="layer1">
    <path
       style="fill:#ff7f2a;stroke:none"
       d="m -52.521044,6.0791212 c 28.30188,-0.316938 56.4013541,0.7675205 84.285715,1.42858 17.198351,2.0666633 36.350832,-0.5843758 53.571428,1.42857 8.383126,-1.7248906 20.036871,-0.1791591 29.609761,-0.71429 22.643,0.080518 44.70914,-1.2316731 67.5331,-0.71428 5.4738,-1.1399312 12.33843,-1.8831335 18.57143,-2.14286 8.01625,-2.7359295 19.65272,-0.5199005 28.57143,-3.57143 22.53252,-1.61321666 45.76101,-0.2782258 68.57142,-0.71429 7.71446,1.7828685 14.96027,2.9015052 23.57143,3.57143 11.59359,2.4292119 25.07011,2.9211019 37.14286,1.42857 8.42666,-2.963839 14.69508,-2.7222468 22.85714,-5.71428003 21.84868,-1.43456527 43.95378,-0.44420758 65.71429,0 25.81133,4.36166973 54.05072,0.66904113 80.58421,2.85714003 17.75718,1.1589162 36.23039,0.5891741 54.41579,0.71429 7.11185,3.7874927 17.5075,1.1748328 26.42857,0.71428 9.50422,0.1089504 19.02068,-0.2427799 28.51536,0.225 3e-5,32.3333328 -3.2e-4,64.6666658 0,96.9999988 -229.98055,1.01794 -459.96325,-0.12561 -689.943934,-0.51071 0,-30.809523 0,-61.619046 0,-92.4285688 l 0.71429,0 -0.71429,-2.85715 z"
       id="path12982"
       inkscape:connector-curvature="0" />
    <rect
       style="color:#000000;fill:url(#linearGradient18250);fill-opacity:1;fill-rule:nonzero;stroke:none;stroke-width:1;marker:none;visibility:visible;display:inline;overflow:visible;enable-background:accumulate"
       id="rect12842"
       width="690"
       height="389.99997"
       x="-52.521042"
       y="-353.63513" />
    <g
       id="g12986"
       transform="matrix(0.65702281,0,0,0.65702281,122.26473,12.622591)">
      <path
         style="fill:#ffffff;fill-opacity:1;stroke:#000000;stroke-width:0.93730277;stroke-linecap:butt;stroke-linejoin:miter;stroke-miterlimit:4;stroke-opacity:1;stroke-dasharray:0.93730277, 0.93730277;stroke-dashoffset:0"
         d="m 78.924917,-446.28439 c 0.69935,28.61661 116.693233,40.66069 172.533973,41.03552 46.18775,0.31003 132.01844,-0.182 167.64464,-27.79723 30.92015,-23.96738 31.67253,47.07542 32.22966,-16.88586 0.5046,-57.93234 -1.54781,9.18722 -34.27641,-15.2535 -35.71807,-26.67315 -117.10454,-27.56218 -166.00634,-27.02115 -54.40357,0.60188 -172.814283,17.73798 -172.125523,45.92222 z"
         id="path14314-7-7-7"
         sodipodi:nodetypes="cssssss"
         inkscape:connector-curvature="0" />
      <path
         style="fill:url(#radialGradient12990);fill-opacity:1;stroke:#000000;stroke-width:0.93730277;stroke-linecap:butt;stroke-linejoin:miter;stroke-miterlimit:4;stroke-opacity:1;stroke-dasharray:0.93730277, 0.93730277;stroke-dashoffset:0"
         d="m 78.924917,-446.28439 c 0.69935,28.61661 116.693233,40.66069 172.533973,41.03552 46.18775,0.31003 132.01844,-0.182 167.64464,-27.79723 30.92015,-23.96738 31.67253,47.07542 32.22966,-16.88586 0.5046,-57.93234 -1.54781,9.18722 -34.27641,-15.2535 -35.71807,-26.67315 -117.10454,-27.56218 -166.00634,-27.02115 -54.40357,0.60188 -172.814283,17.73798 -172.125523,45.92222 z"
         id="path14314-7-7"
         sodipodi:nodetypes="cssssss"
         inkscape:connector-curvature="0" />
    </g>
    <image
       y="-63.635162"
       x="162.81227"
       id="image12979"
       xlink:href="file:///home/me/Work/UiO/Phd/Articles/ECUA2012/presentation/gfx/happy_fish.png"
       height="56.000004"
       width="74.666672" />
    <path
       style="fill:url(#linearGradient18276);fill-opacity:1;stroke:#000000;stroke-width:1px;stroke-linecap:butt;stroke-linejoin:miter;stroke-opacity:1"
       d="m 175.47896,76.364841 90,-60 150,0 -70,60 z"
       id="path12992"
       inkscape:connector-curvature="0" />
    <path
       style="fill:#ff0000;stroke:#000000;stroke-width:1px;stroke-linecap:butt;stroke-linejoin:miter;stroke-opacity:1"
       d="m 285.47894,48.864841 7.50001,-5 12.50001,0 -5.83334,5 z"
       id="path12992-1"
       inkscape:connector-curvature="0" />
    <g
       id="g16842"
       transform="matrix(2.2404744,0,0,2.2404744,-96.689894,-250.22113)"
       ns0:preamble="/home/me/.latex/inkscape/header.tex"
       ns0:text="Image pixel delayed\\\\ to broadside">
      <defs
         id="defs16844">
        <g
           id="g16846">
          <symbol
             id="textext-68052273-0"
             overflow="visible"
             style="overflow:visible">
            <path
               id="path16849"
               d="m 3.3125,0 0,-0.3125 -0.25,0 C 2.265625,-0.3125 2.25,-0.421875 2.25,-0.78125 l 0,-5.25 C 2.25,-6.390625 2.265625,-6.5 3.0625,-6.5 l 0.25,0 0,-0.3125 c -0.34375,0.03125 -1.125,0.03125 -1.515625,0.03125 -0.375,0 -1.171875,0 -1.515625,-0.03125 l 0,0.3125 0.25,0 c 0.796875,0 0.828125,0.109375 0.828125,0.46875 l 0,5.25 c 0,0.359375 -0.03125,0.46875 -0.828125,0.46875 l -0.25,0 0,0.3125 c 0.34375,-0.03125 1.140625,-0.03125 1.515625,-0.03125 0.390625,0 1.171875,0 1.515625,0.03125 z m 0,0"
               style="stroke:none"
               inkscape:connector-curvature="0" />
          </symbol>
          <symbol
             id="textext-68052273-1"
             overflow="visible"
             style="overflow:visible">
            <path
               id="path16852"
               d="m 8.109375,0 0,-0.3125 c -0.515625,0 -0.765625,0 -0.78125,-0.296875 l 0,-1.90625 c 0,-0.859375 0,-1.15625 -0.3125,-1.515625 -0.140625,-0.171875 -0.46875,-0.375 -1.046875,-0.375 -0.828125,0 -1.28125,0.59375 -1.4375,0.984375 C 4.390625,-4.296875 3.65625,-4.40625 3.203125,-4.40625 2.46875,-4.40625 2,-3.984375 1.71875,-3.359375 l 0,-1.046875 -1.40625,0.109375 0,0.3125 c 0.703125,0 0.78125,0.0625 0.78125,0.5625 l 0,2.671875 c 0,0.4375 -0.109375,0.4375 -0.78125,0.4375 L 0.3125,0 1.453125,-0.03125 2.5625,0 l 0,-0.3125 c -0.671875,0 -0.78125,0 -0.78125,-0.4375 l 0,-1.84375 C 1.78125,-3.625 2.5,-4.1875 3.125,-4.1875 c 0.640625,0 0.75,0.53125 0.75,1.109375 l 0,2.328125 c 0,0.4375 -0.109375,0.4375 -0.78125,0.4375 l 0,0.3125 1.125,-0.03125 L 5.328125,0 l 0,-0.3125 c -0.65625,0 -0.765625,0 -0.765625,-0.4375 l 0,-1.84375 c 0,-1.03125 0.703125,-1.59375 1.34375,-1.59375 0.625,0 0.734375,0.53125 0.734375,1.109375 l 0,2.328125 c 0,0.4375 -0.109375,0.4375 -0.78125,0.4375 l 0,0.3125 1.125,-0.03125 z m 0,0"
               style="stroke:none"
               inkscape:connector-curvature="0" />
          </symbol>
          <symbol
             id="textext-68052273-2"
             overflow="visible"
             style="overflow:visible">
            <path
               id="path16855"
               d="m 4.8125,-0.890625 0,-0.5625 -0.25,0 0,0.5625 C 4.5625,-0.3125 4.3125,-0.25 4.203125,-0.25 3.875,-0.25 3.84375,-0.703125 3.84375,-0.75 l 0,-1.984375 c 0,-0.421875 0,-0.8125 -0.359375,-1.1875 C 3.09375,-4.3125 2.59375,-4.46875 2.109375,-4.46875 c -0.8125,0 -1.5,0.46875 -1.5,1.125 0,0.296875 0.203125,0.46875 0.453125,0.46875 0.28125,0 0.46875,-0.203125 0.46875,-0.453125 0,-0.125 -0.0625,-0.453125 -0.515625,-0.453125 C 1.28125,-4.140625 1.78125,-4.25 2.09375,-4.25 c 0.484375,0 1.0625,0.390625 1.0625,1.28125 l 0,0.359375 C 2.640625,-2.578125 1.9375,-2.546875 1.3125,-2.25 c -0.75,0.34375 -1,0.859375 -1,1.296875 0,0.8125 0.96875,1.0625 1.59375,1.0625 0.671875,0 1.125,-0.40625 1.3125,-0.859375 0.046875,0.390625 0.3125,0.8125 0.78125,0.8125 0.203125,0 0.8125,-0.140625 0.8125,-0.953125 z m -1.65625,-0.5 c 0,0.9375 -0.71875,1.28125 -1.171875,1.28125 -0.484375,0 -0.890625,-0.34375 -0.890625,-0.84375 0,-0.546875 0.40625,-1.375 2.0625,-1.4375 z m 0,0"
               style="stroke:none"
               inkscape:connector-curvature="0" />
          </symbol>
          <symbol
             id="textext-68052273-3"
             overflow="visible"
             style="overflow:visible">
            <path
               id="path16858"
               d="m 4.828125,-4.03125 c 0,-0.171875 -0.109375,-0.484375 -0.5,-0.484375 -0.203125,0 -0.640625,0.0625 -1.0625,0.46875 C 2.84375,-4.375 2.4375,-4.40625 2.21875,-4.40625 c -0.9375,0 -1.625,0.6875 -1.625,1.453125 0,0.4375 0.21875,0.8125 0.46875,1.03125 -0.125,0.140625 -0.3125,0.46875 -0.3125,0.828125 0,0.3125 0.140625,0.6875 0.453125,0.890625 -0.609375,0.15625 -0.921875,0.59375 -0.921875,0.984375 0,0.71875 0.984375,1.265625 2.203125,1.265625 1.171875,0 2.203125,-0.5 2.203125,-1.28125 0,-0.34375 -0.125,-0.859375 -0.640625,-1.140625 -0.53125,-0.265625 -1.109375,-0.265625 -1.71875,-0.265625 -0.25,0 -0.671875,0 -0.75,-0.015625 C 1.265625,-0.703125 1.0625,-1 1.0625,-1.328125 c 0,-0.03125 0,-0.265625 0.15625,-0.46875 0.390625,0.28125 0.8125,0.3125 1,0.3125 0.921875,0 1.609375,-0.6875 1.609375,-1.453125 0,-0.375 -0.15625,-0.734375 -0.40625,-0.96875 C 3.78125,-4.25 4.140625,-4.296875 4.3125,-4.296875 c 0,0 0.078125,0 0.109375,0.015625 C 4.3125,-4.25 4.25,-4.140625 4.25,-4.015625 c 0,0.171875 0.140625,0.28125 0.296875,0.28125 0.09375,0 0.28125,-0.0625 0.28125,-0.296875 z m -1.75,1.078125 c 0,0.265625 0,0.59375 -0.15625,0.84375 C 2.84375,-2 2.609375,-1.71875 2.21875,-1.71875 c -0.875,0 -0.875,-1 -0.875,-1.21875 0,-0.265625 0.015625,-0.59375 0.15625,-0.84375 0.078125,-0.109375 0.3125,-0.390625 0.71875,-0.390625 0.859375,0 0.859375,0.984375 0.859375,1.21875 z m 1.09375,3.734375 c 0,0.546875 -0.703125,1.046875 -1.671875,1.046875 -1.015625,0 -1.703125,-0.515625 -1.703125,-1.046875 0,-0.453125 0.375,-0.828125 0.8125,-0.84375 l 0.59375,0 c 0.859375,0 1.96875,0 1.96875,0.84375 z m 0,0"
               style="stroke:none"
               inkscape:connector-curvature="0" />
          </symbol>
          <symbol
             id="textext-68052273-4"
             overflow="visible"
             style="overflow:visible">
            <path
               id="path16861"
               d="m 4.140625,-1.1875 c 0,-0.09375 -0.078125,-0.125 -0.140625,-0.125 -0.078125,0 -0.109375,0.0625 -0.125,0.140625 -0.34375,1.03125 -1.25,1.03125 -1.34375,1.03125 -0.5,0 -0.890625,-0.296875 -1.125,-0.671875 -0.296875,-0.46875 -0.296875,-1.125 -0.296875,-1.484375 l 2.78125,0 c 0.21875,0 0.25,0 0.25,-0.21875 0,-0.984375 -0.546875,-1.953125 -1.78125,-1.953125 -1.15625,0 -2.078125,1.03125 -2.078125,2.28125 0,1.328125 1.046875,2.296875 2.1875,2.296875 C 3.6875,0.109375 4.140625,-1 4.140625,-1.1875 z m -0.65625,-1.328125 -2.375,0 C 1.171875,-4 2.015625,-4.25 2.359375,-4.25 c 1.015625,0 1.125,1.34375 1.125,1.734375 z m 0,0"
               style="stroke:none"
               inkscape:connector-curvature="0" />
          </symbol>
          <symbol
             id="textext-68052273-5"
             overflow="visible"
             style="overflow:visible">
            <path
               id="path16864"
               d="m 5.1875,-2.15625 c 0,-1.265625 -0.953125,-2.25 -2.078125,-2.25 -0.78125,0 -1.203125,0.4375 -1.390625,0.65625 l 0,-0.65625 -1.4375,0.109375 0,0.3125 c 0.703125,0 0.78125,0.0625 0.78125,0.5 l 0,4.65625 C 1.0625,1.625 0.953125,1.625 0.28125,1.625 l 0,0.3125 1.109375,-0.03125 1.125,0.03125 0,-0.3125 C 1.859375,1.625 1.75,1.625 1.75,1.171875 l 0,-1.765625 c 0.046875,0.171875 0.46875,0.703125 1.21875,0.703125 1.1875,0 2.21875,-0.984375 2.21875,-2.265625 z m -0.828125,0 c 0,1.203125 -0.6875,2.046875 -1.421875,2.046875 -0.40625,0 -0.78125,-0.203125 -1.046875,-0.609375 C 1.75,-0.921875 1.75,-0.9375 1.75,-1.140625 l 0,-2.21875 C 2.03125,-3.875 2.515625,-4.15625 3.03125,-4.15625 c 0.734375,0 1.328125,0.875 1.328125,2 z m 0,0"
               style="stroke:none"
               inkscape:connector-curvature="0" />
          </symbol>
          <symbol
             id="textext-68052273-6"
             overflow="visible"
             style="overflow:visible">
            <path
               id="path16867"
               d="m 2.46875,0 0,-0.3125 c -0.671875,0 -0.703125,-0.046875 -0.703125,-0.4375 l 0,-3.65625 -1.390625,0.109375 0,0.3125 c 0.640625,0 0.734375,0.0625 0.734375,0.546875 l 0,2.6875 c 0,0.4375 -0.109375,0.4375 -0.78125,0.4375 l 0,0.3125 1.09375,-0.03125 C 1.78125,-0.03125 2.125,-0.015625 2.46875,0 z m -0.5625,-6.015625 c 0,-0.28125 -0.21875,-0.53125 -0.515625,-0.53125 -0.34375,0 -0.546875,0.28125 -0.546875,0.53125 C 0.84375,-5.75 1.078125,-5.5 1.375,-5.5 c 0.34375,0 0.53125,-0.265625 0.53125,-0.515625 z m 0,0"
               style="stroke:none"
               inkscape:connector-curvature="0" />
          </symbol>
          <symbol
             id="textext-68052273-7"
             overflow="visible"
             style="overflow:visible">
            <path
               id="path16870"
               d="m 5.140625,0 0,-0.3125 c -0.53125,0 -0.71875,-0.015625 -0.9375,-0.3125 L 2.859375,-2.34375 C 3.15625,-2.71875 3.53125,-3.203125 3.78125,-3.46875 4.09375,-3.828125 4.5,-3.984375 4.96875,-3.984375 l 0,-0.3125 c -0.265625,0.015625 -0.5625,0.03125 -0.828125,0.03125 -0.296875,0 -0.828125,-0.015625 -0.953125,-0.03125 l 0,0.3125 c 0.21875,0.015625 0.296875,0.140625 0.296875,0.3125 0,0.15625 -0.109375,0.28125 -0.15625,0.34375 L 2.71875,-2.546875 1.9375,-3.5625 C 1.84375,-3.65625 1.84375,-3.671875 1.84375,-3.734375 c 0,-0.15625 0.15625,-0.25 0.34375,-0.25 l 0,-0.3125 -1.078125,0.03125 c -0.203125,0 -0.671875,-0.015625 -0.9375,-0.03125 l 0,0.3125 c 0.703125,0 0.703125,0 1.171875,0.609375 l 0.984375,1.28125 c -0.46875,0.59375 -0.46875,0.625 -0.9375,1.1875 C 0.921875,-0.328125 0.328125,-0.3125 0.125,-0.3125 L 0.125,0 c 0.25,-0.015625 0.5625,-0.03125 0.828125,-0.03125 L 1.890625,0 l 0,-0.3125 c -0.21875,-0.03125 -0.28125,-0.15625 -0.28125,-0.3125 0,-0.21875 0.28125,-0.546875 0.890625,-1.265625 l 0.765625,1 C 3.34375,-0.78125 3.46875,-0.625 3.46875,-0.5625 c 0,0.09375 -0.09375,0.25 -0.359375,0.25 l 0,0.3125 1.078125,-0.03125 c 0.265625,0 0.65625,0.015625 0.953125,0.03125 z m 0,0"
               style="stroke:none"
               inkscape:connector-curvature="0" />
          </symbol>
          <symbol
             id="textext-68052273-8"
             overflow="visible"
             style="overflow:visible">
            <path
               id="path16873"
               d="m 2.546875,0 0,-0.3125 c -0.671875,0 -0.78125,0 -0.78125,-0.4375 l 0,-6.171875 -1.4375,0.109375 0,0.3125 c 0.703125,0 0.78125,0.0625 0.78125,0.5625 l 0,5.1875 c 0,0.4375 -0.109375,0.4375 -0.78125,0.4375 l 0,0.3125 1.109375,-0.03125 z m 0,0"
               style="stroke:none"
               inkscape:connector-curvature="0" />
          </symbol>
          <symbol
             id="textext-68052273-9"
             overflow="visible"
             style="overflow:visible">
            <path
               id="path16876"
               d="m 5.25,0 0,-0.3125 c -0.6875,0 -0.78125,-0.0625 -0.78125,-0.5625 l 0,-6.046875 -1.421875,0.109375 0,0.3125 c 0.6875,0 0.765625,0.0625 0.765625,0.5625 l 0,2.15625 c -0.28125,-0.359375 -0.71875,-0.625 -1.25,-0.625 -1.171875,0 -2.21875,0.984375 -2.21875,2.265625 0,1.265625 0.96875,2.25 2.109375,2.25 0.640625,0 1.078125,-0.34375 1.328125,-0.65625 l 0,0.65625 z M 3.78125,-1.171875 c 0,0.171875 0,0.1875 -0.109375,0.359375 C 3.375,-0.328125 2.9375,-0.109375 2.5,-0.109375 2.046875,-0.109375 1.6875,-0.375 1.453125,-0.75 1.203125,-1.15625 1.171875,-1.71875 1.171875,-2.140625 1.171875,-2.5 1.1875,-3.09375 1.46875,-3.546875 1.6875,-3.859375 2.0625,-4.1875 2.609375,-4.1875 c 0.34375,0 0.765625,0.15625 1.0625,0.59375 0.109375,0.171875 0.109375,0.1875 0.109375,0.375 z m 0,0"
               style="stroke:none"
               inkscape:connector-curvature="0" />
          </symbol>
          <symbol
             id="textext-68052273-10"
             overflow="visible"
             style="overflow:visible">
            <path
               id="path16879"
               d="m 5.0625,-3.984375 0,-0.3125 c -0.234375,0.015625 -0.515625,0.03125 -0.75,0.03125 l -0.859375,-0.03125 0,0.3125 c 0.3125,0 0.46875,0.171875 0.46875,0.421875 0,0.109375 -0.015625,0.125 -0.0625,0.25 L 2.84375,-0.875 1.75,-3.546875 C 1.703125,-3.65625 1.6875,-3.6875 1.6875,-3.734375 c 0,-0.25 0.359375,-0.25 0.5625,-0.25 l 0,-0.3125 -1.09375,0.03125 c -0.265625,0 -0.671875,-0.015625 -0.96875,-0.03125 l 0,0.3125 c 0.484375,0 0.671875,0 0.8125,0.34375 L 2.5,0 2.25,0.59375 c -0.21875,0.546875 -0.5,1.234375 -1.140625,1.234375 -0.046875,0 -0.28125,0 -0.46875,-0.1875 0.3125,-0.03125 0.390625,-0.25 0.390625,-0.421875 0,-0.25 -0.1875,-0.40625 -0.421875,-0.40625 -0.203125,0 -0.421875,0.125 -0.421875,0.421875 0,0.453125 0.421875,0.8125 0.921875,0.8125 0.625,0 1.03125,-0.578125 1.265625,-1.140625 l 1.765625,-4.25 c 0.25,-0.640625 0.765625,-0.640625 0.921875,-0.640625 z m 0,0"
               style="stroke:none"
               inkscape:connector-curvature="0" />
          </symbol>
          <symbol
             id="textext-68052273-11"
             overflow="visible"
             style="overflow:visible">
            <path
               id="path16882"
               d="m 3.3125,-1.234375 0,-0.5625 -0.25,0 0,0.546875 c 0,0.734375 -0.296875,1.109375 -0.671875,1.109375 -0.671875,0 -0.671875,-0.90625 -0.671875,-1.078125 l 0,-2.765625 1.4375,0 0,-0.3125 -1.4375,0 0,-1.828125 -0.25,0 c 0,0.8125 -0.296875,1.875 -1.28125,1.921875 l 0,0.21875 0.84375,0 0,2.75 c 0,1.21875 0.9375,1.34375 1.296875,1.34375 0.703125,0 0.984375,-0.703125 0.984375,-1.34375 z m 0,0"
               style="stroke:none"
               inkscape:connector-curvature="0" />
          </symbol>
          <symbol
             id="textext-68052273-12"
             overflow="visible"
             style="overflow:visible">
            <path
               id="path16885"
               d="M 4.6875,-2.140625 C 4.6875,-3.40625 3.703125,-4.46875 2.5,-4.46875 c -1.25,0 -2.21875,1.09375 -2.21875,2.328125 0,1.296875 1.03125,2.25 2.203125,2.25 1.203125,0 2.203125,-0.984375 2.203125,-2.25 z M 3.875,-2.21875 c 0,0.359375 0,0.90625 -0.21875,1.34375 -0.234375,0.453125 -0.671875,0.734375 -1.15625,0.734375 -0.4375,0 -0.875,-0.203125 -1.140625,-0.671875 -0.25,-0.4375 -0.25,-1.046875 -0.25,-1.40625 0,-0.390625 0,-0.921875 0.234375,-1.359375 C 1.609375,-4.03125 2.078125,-4.25 2.484375,-4.25 c 0.4375,0 0.859375,0.21875 1.125,0.65625 0.265625,0.421875 0.265625,1 0.265625,1.375 z m 0,0"
               style="stroke:none"
               inkscape:connector-curvature="0" />
          </symbol>
          <symbol
             id="textext-68052273-13"
             overflow="visible"
             style="overflow:visible">
            <path
               id="path16888"
               d="m 5.1875,-2.15625 c 0,-1.265625 -0.96875,-2.25 -2.109375,-2.25 -0.78125,0 -1.203125,0.46875 -1.359375,0.640625 l 0,-3.15625 -1.4375,0.109375 0,0.3125 c 0.703125,0 0.78125,0.0625 0.78125,0.5625 l 0,5.9375 0.25,0 0.359375,-0.625 c 0.140625,0.234375 0.5625,0.734375 1.296875,0.734375 1.1875,0 2.21875,-0.984375 2.21875,-2.265625 z m -0.828125,0 c 0,0.359375 -0.015625,0.953125 -0.296875,1.40625 -0.21875,0.3125 -0.59375,0.640625 -1.125,0.640625 -0.453125,0 -0.8125,-0.234375 -1.046875,-0.609375 C 1.75,-0.921875 1.75,-0.953125 1.75,-1.140625 l 0,-2.046875 c 0,-0.1875 0,-0.203125 0.109375,-0.359375 C 2.25,-4.109375 2.796875,-4.1875 3.03125,-4.1875 c 0.453125,0 0.8125,0.265625 1.046875,0.640625 0.265625,0.40625 0.28125,0.96875 0.28125,1.390625 z m 0,0"
               style="stroke:none"
               inkscape:connector-curvature="0" />
          </symbol>
          <symbol
             id="textext-68052273-14"
             overflow="visible"
             style="overflow:visible">
            <path
               id="path16891"
               d="m 3.625,-3.796875 c 0,-0.3125 -0.3125,-0.609375 -0.734375,-0.609375 -0.734375,0 -1.09375,0.671875 -1.21875,1.09375 l 0,-1.09375 -1.390625,0.109375 0,0.3125 c 0.703125,0 0.78125,0.0625 0.78125,0.5625 l 0,2.671875 c 0,0.4375 -0.109375,0.4375 -0.78125,0.4375 l 0,0.3125 1.140625,-0.03125 c 0.390625,0 0.859375,0 1.265625,0.03125 l 0,-0.3125 -0.21875,0 c -0.734375,0 -0.75,-0.109375 -0.75,-0.46875 l 0,-1.53125 c 0,-0.984375 0.421875,-1.875 1.171875,-1.875 0.0625,0 0.09375,0 0.109375,0.015625 -0.03125,0 -0.234375,0.125 -0.234375,0.390625 0,0.265625 0.21875,0.421875 0.4375,0.421875 0.171875,0 0.421875,-0.125 0.421875,-0.4375 z m 0,0"
               style="stroke:none"
               inkscape:connector-curvature="0" />
          </symbol>
          <symbol
             id="textext-68052273-15"
             overflow="visible"
             style="overflow:visible">
            <path
               id="path16894"
               d="m 3.59375,-1.28125 c 0,-0.515625 -0.296875,-0.828125 -0.421875,-0.9375 C 2.84375,-2.546875 2.453125,-2.625 2.03125,-2.703125 1.46875,-2.8125 0.8125,-2.9375 0.8125,-3.515625 c 0,-0.359375 0.25,-0.765625 1.109375,-0.765625 1.09375,0 1.15625,0.90625 1.171875,1.203125 0,0.09375 0.109375,0.09375 0.109375,0.09375 0.140625,0 0.140625,-0.046875 0.140625,-0.234375 l 0,-1.015625 c 0,-0.15625 0,-0.234375 -0.109375,-0.234375 -0.046875,0 -0.078125,0 -0.203125,0.125 -0.03125,0.03125 -0.125,0.125 -0.171875,0.15625 -0.375,-0.28125 -0.78125,-0.28125 -0.9375,-0.28125 -1.21875,0 -1.59375,0.671875 -1.59375,1.234375 0,0.34375 0.15625,0.625 0.421875,0.84375 0.328125,0.25 0.609375,0.3125 1.328125,0.453125 0.21875,0.046875 1.03125,0.203125 1.03125,0.921875 0,0.5 -0.34375,0.90625 -1.125,0.90625 -0.84375,0 -1.203125,-0.5625 -1.390625,-1.421875 C 0.5625,-1.65625 0.5625,-1.6875 0.453125,-1.6875 c -0.125,0 -0.125,0.0625 -0.125,0.234375 l 0,1.328125 c 0,0.171875 0,0.234375 0.109375,0.234375 0.046875,0 0.0625,-0.015625 0.25,-0.203125 0.015625,-0.015625 0.015625,-0.03125 0.203125,-0.21875 0.4375,0.40625 0.890625,0.421875 1.09375,0.421875 1.140625,0 1.609375,-0.671875 1.609375,-1.390625 z m 0,0"
               style="stroke:none"
               inkscape:connector-curvature="0" />
          </symbol>
        </g>
      </defs>
      <g
         id="textext-68052273-16">
        <g
           id="g16897"
           style="fill:#000000;fill-opacity:1">
          <use
             id="use16899"
             y="134.765"
             x="223.43201"
             xlink:href="#textext-68052273-0"
             width="336.51462"
             height="92.336891" />
          <use
             id="use16901"
             y="134.765"
             x="227.0295"
             xlink:href="#textext-68052273-1"
             width="336.51462"
             height="92.336891" />
          <use
             id="use16903"
             y="134.765"
             x="235.33133"
             xlink:href="#textext-68052273-2"
             width="336.51462"
             height="92.336891" />
          <use
             id="use16905"
             y="134.765"
             x="240.31262"
             xlink:href="#textext-68052273-3"
             width="336.51462"
             height="92.336891" />
          <use
             id="use16907"
             y="134.765"
             x="245.29393"
             xlink:href="#textext-68052273-4"
             width="336.51462"
             height="92.336891" />
        </g>
        <g
           id="g16909"
           style="fill:#000000;fill-opacity:1">
          <use
             id="use16911"
             y="134.765"
             x="253.03986"
             xlink:href="#textext-68052273-5"
             width="336.51462"
             height="92.336891" />
          <use
             id="use16913"
             y="134.765"
             x="258.57507"
             xlink:href="#textext-68052273-6"
             width="336.51462"
             height="92.336891" />
          <use
             id="use16915"
             y="134.765"
             x="261.34268"
             xlink:href="#textext-68052273-7"
             width="336.51462"
             height="92.336891" />
          <use
             id="use16917"
             y="134.765"
             x="266.60095"
             xlink:href="#textext-68052273-4"
             width="336.51462"
             height="92.336891" />
          <use
             id="use16919"
             y="134.765"
             x="271.02933"
             xlink:href="#textext-68052273-8"
             width="336.51462"
             height="92.336891" />
        </g>
        <g
           id="g16921"
           style="fill:#000000;fill-opacity:1">
          <use
             id="use16923"
             y="134.765"
             x="277.11447"
             xlink:href="#textext-68052273-9"
             width="336.51462"
             height="92.336891" />
          <use
             id="use16925"
             y="134.765"
             x="282.64969"
             xlink:href="#textext-68052273-4"
             width="336.51462"
             height="92.336891" />
          <use
             id="use16927"
             y="134.765"
             x="287.07806"
             xlink:href="#textext-68052273-8"
             width="336.51462"
             height="92.336891" />
          <use
             id="use16929"
             y="134.765"
             x="289.84567"
             xlink:href="#textext-68052273-2"
             width="336.51462"
             height="92.336891" />
        </g>
        <g
           id="g16931"
           style="fill:#000000;fill-opacity:1">
          <use
             id="use16933"
             y="134.765"
             x="294.55798"
             xlink:href="#textext-68052273-10"
             width="336.51462"
             height="92.336891" />
        </g>
        <g
           id="g16935"
           style="fill:#000000;fill-opacity:1">
          <use
             id="use16937"
             y="134.765"
             x="299.53729"
             xlink:href="#textext-68052273-4"
             width="336.51462"
             height="92.336891" />
          <use
             id="use16939"
             y="134.765"
             x="303.96567"
             xlink:href="#textext-68052273-9"
             width="336.51462"
             height="92.336891" />
        </g>
        <g
           id="g16941"
           style="fill:#000000;fill-opacity:1">
          <use
             id="use16943"
             y="146.72"
             x="223.43201"
             xlink:href="#textext-68052273-11"
             width="336.51462"
             height="92.336891" />
          <use
             id="use16945"
             y="146.72"
             x="227.30646"
             xlink:href="#textext-68052273-12"
             width="336.51462"
             height="92.336891" />
        </g>
        <g
           id="g16947"
           style="fill:#000000;fill-opacity:1">
          <use
             id="use16949"
             y="146.72"
             x="235.6053"
             xlink:href="#textext-68052273-13"
             width="336.51462"
             height="92.336891" />
          <use
             id="use16951"
             y="146.72"
             x="241.14052"
             xlink:href="#textext-68052273-14"
             width="336.51462"
             height="92.336891" />
          <use
             id="use16953"
             y="146.72"
             x="245.04288"
             xlink:href="#textext-68052273-12"
             width="336.51462"
             height="92.336891" />
          <use
             id="use16955"
             y="146.72"
             x="250.02417"
             xlink:href="#textext-68052273-2"
             width="336.51462"
             height="92.336891" />
          <use
             id="use16957"
             y="146.72"
             x="255.00548"
             xlink:href="#textext-68052273-9"
             width="336.51462"
             height="92.336891" />
          <use
             id="use16959"
             y="146.72"
             x="260.54068"
             xlink:href="#textext-68052273-15"
             width="336.51462"
             height="92.336891" />
          <use
             id="use16961"
             y="146.72"
             x="264.47095"
             xlink:href="#textext-68052273-6"
             width="336.51462"
             height="92.336891" />
          <use
             id="use16963"
             y="146.72"
             x="267.23856"
             xlink:href="#textext-68052273-9"
             width="336.51462"
             height="92.336891" />
          <use
             id="use16965"
             y="146.72"
             x="272.77377"
             xlink:href="#textext-68052273-4"
             width="336.51462"
             height="92.336891" />
        </g>
      </g>
    </g>
    <path
       style="fill:none;stroke:#000000;stroke-width:1;stroke-linecap:butt;stroke-linejoin:miter;stroke-miterlimit:4;stroke-opacity:1;stroke-dasharray:2, 2;stroke-dashoffset:0"
       d="m 297.47896,-283.63516 0,327.000001"
       id="path18248"
       inkscape:connector-curvature="0"
       sodipodi:nodetypes="cc" />
    <path
       style="fill:none;stroke:#000000;stroke-width:1;stroke-linecap:butt;stroke-linejoin:miter;stroke-miterlimit:4;stroke-opacity:1;stroke-dasharray:2, 2;stroke-dashoffset:0"
       d="m 297.47896,-283.63516 -80,230.000001"
       id="path18248-0"
       inkscape:connector-curvature="0"
       sodipodi:nodetypes="cc" />
    <path
       inkscape:connector-curvature="0"
       id="path21272"
       d="m 62.478956,-283.63516 90.000004,0 0,35"
       style="fill:none;stroke:#000000;stroke-width:1px;stroke-linecap:butt;stroke-linejoin:miter;stroke-opacity:1;marker-start:url(#Arrow2Mstart-8-0);marker-end:url(#Arrow2Mend-2-2)" />
    <g
       id="g24167"
       transform="matrix(1.3394324,0,0,1.3394324,-308.48794,-474.47072)"
       ns0:preamble="/home/me/.latex/inkscape/header.tex"
       ns0:text="Propagation direction">
      <defs
         id="defs24169">
        <g
           id="g24171">
          <symbol
             id="textext-5cd9a704-0"
             overflow="visible"
             style="overflow:visible">
            <path
               id="path24174"
               d="M 6.21875,-4.953125 C 6.21875,-5.9375 5.234375,-6.8125 3.875,-6.8125 l -3.53125,0 0,0.3125 0.25,0 c 0.765625,0 0.78125,0.109375 0.78125,0.46875 l 0,5.25 c 0,0.359375 -0.015625,0.46875 -0.78125,0.46875 l -0.25,0 0,0.3125 c 0.359375,-0.03125 1.09375,-0.03125 1.46875,-0.03125 0.375,0 1.125,0 1.484375,0.03125 l 0,-0.3125 -0.25,0 c -0.765625,0 -0.78125,-0.109375 -0.78125,-0.46875 l 0,-2.375 1.6875,0 c 1.1875,0 2.265625,-0.796875 2.265625,-1.796875 z m -1.03125,0 c 0,0.46875 0,1.546875 -1.578125,1.546875 l -1.375,0 0,-2.6875 C 2.234375,-6.4375 2.25,-6.5 2.71875,-6.5 l 0.890625,0 C 5.1875,-6.5 5.1875,-5.4375 5.1875,-4.953125 z m 0,0"
               style="stroke:none"
               inkscape:connector-curvature="0" />
          </symbol>
          <symbol
             id="textext-5cd9a704-1"
             overflow="visible"
             style="overflow:visible">
            <path
               id="path24177"
               d="m 3.625,-3.796875 c 0,-0.3125 -0.3125,-0.609375 -0.734375,-0.609375 -0.734375,0 -1.09375,0.671875 -1.21875,1.09375 l 0,-1.09375 -1.390625,0.109375 0,0.3125 c 0.703125,0 0.78125,0.0625 0.78125,0.5625 l 0,2.671875 c 0,0.4375 -0.109375,0.4375 -0.78125,0.4375 l 0,0.3125 1.140625,-0.03125 c 0.390625,0 0.859375,0 1.265625,0.03125 l 0,-0.3125 -0.21875,0 c -0.734375,0 -0.75,-0.109375 -0.75,-0.46875 l 0,-1.53125 c 0,-0.984375 0.421875,-1.875 1.171875,-1.875 0.0625,0 0.09375,0 0.109375,0.015625 -0.03125,0 -0.234375,0.125 -0.234375,0.390625 0,0.265625 0.21875,0.421875 0.4375,0.421875 0.171875,0 0.421875,-0.125 0.421875,-0.4375 z m 0,0"
               style="stroke:none"
               inkscape:connector-curvature="0" />
          </symbol>
          <symbol
             id="textext-5cd9a704-2"
             overflow="visible"
             style="overflow:visible">
            <path
               id="path24180"
               d="M 4.6875,-2.140625 C 4.6875,-3.40625 3.703125,-4.46875 2.5,-4.46875 c -1.25,0 -2.21875,1.09375 -2.21875,2.328125 0,1.296875 1.03125,2.25 2.203125,2.25 1.203125,0 2.203125,-0.984375 2.203125,-2.25 z M 3.875,-2.21875 c 0,0.359375 0,0.90625 -0.21875,1.34375 -0.234375,0.453125 -0.671875,0.734375 -1.15625,0.734375 -0.4375,0 -0.875,-0.203125 -1.140625,-0.671875 -0.25,-0.4375 -0.25,-1.046875 -0.25,-1.40625 0,-0.390625 0,-0.921875 0.234375,-1.359375 C 1.609375,-4.03125 2.078125,-4.25 2.484375,-4.25 c 0.4375,0 0.859375,0.21875 1.125,0.65625 0.265625,0.421875 0.265625,1 0.265625,1.375 z m 0,0"
               style="stroke:none"
               inkscape:connector-curvature="0" />
          </symbol>
          <symbol
             id="textext-5cd9a704-3"
             overflow="visible"
             style="overflow:visible">
            <path
               id="path24183"
               d="m 5.1875,-2.15625 c 0,-1.265625 -0.953125,-2.25 -2.078125,-2.25 -0.78125,0 -1.203125,0.4375 -1.390625,0.65625 l 0,-0.65625 -1.4375,0.109375 0,0.3125 c 0.703125,0 0.78125,0.0625 0.78125,0.5 l 0,4.65625 C 1.0625,1.625 0.953125,1.625 0.28125,1.625 l 0,0.3125 1.109375,-0.03125 1.125,0.03125 0,-0.3125 C 1.859375,1.625 1.75,1.625 1.75,1.171875 l 0,-1.765625 c 0.046875,0.171875 0.46875,0.703125 1.21875,0.703125 1.1875,0 2.21875,-0.984375 2.21875,-2.265625 z m -0.828125,0 c 0,1.203125 -0.6875,2.046875 -1.421875,2.046875 -0.40625,0 -0.78125,-0.203125 -1.046875,-0.609375 C 1.75,-0.921875 1.75,-0.9375 1.75,-1.140625 l 0,-2.21875 C 2.03125,-3.875 2.515625,-4.15625 3.03125,-4.15625 c 0.734375,0 1.328125,0.875 1.328125,2 z m 0,0"
               style="stroke:none"
               inkscape:connector-curvature="0" />
          </symbol>
          <symbol
             id="textext-5cd9a704-4"
             overflow="visible"
             style="overflow:visible">
            <path
               id="path24186"
               d="m 4.8125,-0.890625 0,-0.5625 -0.25,0 0,0.5625 C 4.5625,-0.3125 4.3125,-0.25 4.203125,-0.25 3.875,-0.25 3.84375,-0.703125 3.84375,-0.75 l 0,-1.984375 c 0,-0.421875 0,-0.8125 -0.359375,-1.1875 C 3.09375,-4.3125 2.59375,-4.46875 2.109375,-4.46875 c -0.8125,0 -1.5,0.46875 -1.5,1.125 0,0.296875 0.203125,0.46875 0.453125,0.46875 0.28125,0 0.46875,-0.203125 0.46875,-0.453125 0,-0.125 -0.0625,-0.453125 -0.515625,-0.453125 C 1.28125,-4.140625 1.78125,-4.25 2.09375,-4.25 c 0.484375,0 1.0625,0.390625 1.0625,1.28125 l 0,0.359375 C 2.640625,-2.578125 1.9375,-2.546875 1.3125,-2.25 c -0.75,0.34375 -1,0.859375 -1,1.296875 0,0.8125 0.96875,1.0625 1.59375,1.0625 0.671875,0 1.125,-0.40625 1.3125,-0.859375 0.046875,0.390625 0.3125,0.8125 0.78125,0.8125 0.203125,0 0.8125,-0.140625 0.8125,-0.953125 z m -1.65625,-0.5 c 0,0.9375 -0.71875,1.28125 -1.171875,1.28125 -0.484375,0 -0.890625,-0.34375 -0.890625,-0.84375 0,-0.546875 0.40625,-1.375 2.0625,-1.4375 z m 0,0"
               style="stroke:none"
               inkscape:connector-curvature="0" />
          </symbol>
          <symbol
             id="textext-5cd9a704-5"
             overflow="visible"
             style="overflow:visible">
            <path
               id="path24189"
               d="m 4.828125,-4.03125 c 0,-0.171875 -0.109375,-0.484375 -0.5,-0.484375 -0.203125,0 -0.640625,0.0625 -1.0625,0.46875 C 2.84375,-4.375 2.4375,-4.40625 2.21875,-4.40625 c -0.9375,0 -1.625,0.6875 -1.625,1.453125 0,0.4375 0.21875,0.8125 0.46875,1.03125 -0.125,0.140625 -0.3125,0.46875 -0.3125,0.828125 0,0.3125 0.140625,0.6875 0.453125,0.890625 -0.609375,0.15625 -0.921875,0.59375 -0.921875,0.984375 0,0.71875 0.984375,1.265625 2.203125,1.265625 1.171875,0 2.203125,-0.5 2.203125,-1.28125 0,-0.34375 -0.125,-0.859375 -0.640625,-1.140625 -0.53125,-0.265625 -1.109375,-0.265625 -1.71875,-0.265625 -0.25,0 -0.671875,0 -0.75,-0.015625 C 1.265625,-0.703125 1.0625,-1 1.0625,-1.328125 c 0,-0.03125 0,-0.265625 0.15625,-0.46875 0.390625,0.28125 0.8125,0.3125 1,0.3125 0.921875,0 1.609375,-0.6875 1.609375,-1.453125 0,-0.375 -0.15625,-0.734375 -0.40625,-0.96875 C 3.78125,-4.25 4.140625,-4.296875 4.3125,-4.296875 c 0,0 0.078125,0 0.109375,0.015625 C 4.3125,-4.25 4.25,-4.140625 4.25,-4.015625 c 0,0.171875 0.140625,0.28125 0.296875,0.28125 0.09375,0 0.28125,-0.0625 0.28125,-0.296875 z m -1.75,1.078125 c 0,0.265625 0,0.59375 -0.15625,0.84375 C 2.84375,-2 2.609375,-1.71875 2.21875,-1.71875 c -0.875,0 -0.875,-1 -0.875,-1.21875 0,-0.265625 0.015625,-0.59375 0.15625,-0.84375 0.078125,-0.109375 0.3125,-0.390625 0.71875,-0.390625 0.859375,0 0.859375,0.984375 0.859375,1.21875 z m 1.09375,3.734375 c 0,0.546875 -0.703125,1.046875 -1.671875,1.046875 -1.015625,0 -1.703125,-0.515625 -1.703125,-1.046875 0,-0.453125 0.375,-0.828125 0.8125,-0.84375 l 0.59375,0 c 0.859375,0 1.96875,0 1.96875,0.84375 z m 0,0"
               style="stroke:none"
               inkscape:connector-curvature="0" />
          </symbol>
          <symbol
             id="textext-5cd9a704-6"
             overflow="visible"
             style="overflow:visible">
            <path
               id="path24192"
               d="m 3.3125,-1.234375 0,-0.5625 -0.25,0 0,0.546875 c 0,0.734375 -0.296875,1.109375 -0.671875,1.109375 -0.671875,0 -0.671875,-0.90625 -0.671875,-1.078125 l 0,-2.765625 1.4375,0 0,-0.3125 -1.4375,0 0,-1.828125 -0.25,0 c 0,0.8125 -0.296875,1.875 -1.28125,1.921875 l 0,0.21875 0.84375,0 0,2.75 c 0,1.21875 0.9375,1.34375 1.296875,1.34375 0.703125,0 0.984375,-0.703125 0.984375,-1.34375 z m 0,0"
               style="stroke:none"
               inkscape:connector-curvature="0" />
          </symbol>
          <symbol
             id="textext-5cd9a704-7"
             overflow="visible"
             style="overflow:visible">
            <path
               id="path24195"
               d="m 2.46875,0 0,-0.3125 c -0.671875,0 -0.703125,-0.046875 -0.703125,-0.4375 l 0,-3.65625 -1.390625,0.109375 0,0.3125 c 0.640625,0 0.734375,0.0625 0.734375,0.546875 l 0,2.6875 c 0,0.4375 -0.109375,0.4375 -0.78125,0.4375 l 0,0.3125 1.09375,-0.03125 C 1.78125,-0.03125 2.125,-0.015625 2.46875,0 z m -0.5625,-6.015625 c 0,-0.28125 -0.21875,-0.53125 -0.515625,-0.53125 -0.34375,0 -0.546875,0.28125 -0.546875,0.53125 C 0.84375,-5.75 1.078125,-5.5 1.375,-5.5 c 0.34375,0 0.53125,-0.265625 0.53125,-0.515625 z m 0,0"
               style="stroke:none"
               inkscape:connector-curvature="0" />
          </symbol>
          <symbol
             id="textext-5cd9a704-8"
             overflow="visible"
             style="overflow:visible">
            <path
               id="path24198"
               d="m 5.328125,0 0,-0.3125 c -0.515625,0 -0.765625,0 -0.765625,-0.296875 l 0,-1.90625 c 0,-0.859375 0,-1.15625 -0.3125,-1.515625 -0.140625,-0.171875 -0.46875,-0.375 -1.046875,-0.375 C 2.46875,-4.40625 2,-3.984375 1.71875,-3.359375 l 0,-1.046875 -1.40625,0.109375 0,0.3125 c 0.703125,0 0.78125,0.0625 0.78125,0.5625 l 0,2.671875 c 0,0.4375 -0.109375,0.4375 -0.78125,0.4375 L 0.3125,0 1.453125,-0.03125 2.5625,0 l 0,-0.3125 c -0.671875,0 -0.78125,0 -0.78125,-0.4375 l 0,-1.84375 C 1.78125,-3.625 2.5,-4.1875 3.125,-4.1875 c 0.640625,0 0.75,0.53125 0.75,1.109375 l 0,2.328125 c 0,0.4375 -0.109375,0.4375 -0.78125,0.4375 l 0,0.3125 1.125,-0.03125 z m 0,0"
               style="stroke:none"
               inkscape:connector-curvature="0" />
          </symbol>
          <symbol
             id="textext-5cd9a704-9"
             overflow="visible"
             style="overflow:visible">
            <path
               id="path24201"
               d="m 5.25,0 0,-0.3125 c -0.6875,0 -0.78125,-0.0625 -0.78125,-0.5625 l 0,-6.046875 -1.421875,0.109375 0,0.3125 c 0.6875,0 0.765625,0.0625 0.765625,0.5625 l 0,2.15625 c -0.28125,-0.359375 -0.71875,-0.625 -1.25,-0.625 -1.171875,0 -2.21875,0.984375 -2.21875,2.265625 0,1.265625 0.96875,2.25 2.109375,2.25 0.640625,0 1.078125,-0.34375 1.328125,-0.65625 l 0,0.65625 z M 3.78125,-1.171875 c 0,0.171875 0,0.1875 -0.109375,0.359375 C 3.375,-0.328125 2.9375,-0.109375 2.5,-0.109375 2.046875,-0.109375 1.6875,-0.375 1.453125,-0.75 1.203125,-1.15625 1.171875,-1.71875 1.171875,-2.140625 1.171875,-2.5 1.1875,-3.09375 1.46875,-3.546875 1.6875,-3.859375 2.0625,-4.1875 2.609375,-4.1875 c 0.34375,0 0.765625,0.15625 1.0625,0.59375 0.109375,0.171875 0.109375,0.1875 0.109375,0.375 z m 0,0"
               style="stroke:none"
               inkscape:connector-curvature="0" />
          </symbol>
          <symbol
             id="textext-5cd9a704-10"
             overflow="visible"
             style="overflow:visible">
            <path
               id="path24204"
               d="m 4.140625,-1.1875 c 0,-0.09375 -0.078125,-0.125 -0.140625,-0.125 -0.078125,0 -0.109375,0.0625 -0.125,0.140625 -0.34375,1.03125 -1.25,1.03125 -1.34375,1.03125 -0.5,0 -0.890625,-0.296875 -1.125,-0.671875 -0.296875,-0.46875 -0.296875,-1.125 -0.296875,-1.484375 l 2.78125,0 c 0.21875,0 0.25,0 0.25,-0.21875 0,-0.984375 -0.546875,-1.953125 -1.78125,-1.953125 -1.15625,0 -2.078125,1.03125 -2.078125,2.28125 0,1.328125 1.046875,2.296875 2.1875,2.296875 C 3.6875,0.109375 4.140625,-1 4.140625,-1.1875 z m -0.65625,-1.328125 -2.375,0 C 1.171875,-4 2.015625,-4.25 2.359375,-4.25 c 1.015625,0 1.125,1.34375 1.125,1.734375 z m 0,0"
               style="stroke:none"
               inkscape:connector-curvature="0" />
          </symbol>
          <symbol
             id="textext-5cd9a704-11"
             overflow="visible"
             style="overflow:visible">
            <path
               id="path24207"
               d="M 4.140625,-1.1875 C 4.140625,-1.28125 4.03125,-1.28125 4,-1.28125 c -0.078125,0 -0.109375,0.03125 -0.125,0.09375 -0.28125,0.921875 -0.9375,1.046875 -1.296875,1.046875 -0.53125,0 -1.40625,-0.421875 -1.40625,-2.03125 0,-1.625 0.8125,-2.046875 1.34375,-2.046875 0.09375,0 0.71875,0.015625 1.0625,0.375 -0.40625,0.03125 -0.46875,0.328125 -0.46875,0.453125 0,0.265625 0.1875,0.453125 0.453125,0.453125 0.265625,0 0.46875,-0.15625 0.46875,-0.46875 0,-0.671875 -0.765625,-1.0625 -1.53125,-1.0625 -1.25,0 -2.15625,1.078125 -2.15625,2.3125 0,1.28125 0.984375,2.265625 2.140625,2.265625 1.328125,0 1.65625,-1.203125 1.65625,-1.296875 z m 0,0"
               style="stroke:none"
               inkscape:connector-curvature="0" />
          </symbol>
        </g>
      </defs>
      <g
         id="textext-5cd9a704-12">
        <g
           id="g24210"
           style="fill:#000000;fill-opacity:1">
          <use
             id="use24212"
             y="134.765"
             x="223.43201"
             xlink:href="#textext-5cd9a704-0"
             width="336.51462"
             height="92.336891" />
          <use
             id="use24214"
             y="134.765"
             x="230.21254"
             xlink:href="#textext-5cd9a704-1"
             width="336.51462"
             height="92.336891" />
          <use
             id="use24216"
             y="134.765"
             x="234.1149"
             xlink:href="#textext-5cd9a704-2"
             width="336.51462"
             height="92.336891" />
          <use
             id="use24218"
             y="134.765"
             x="239.09619"
             xlink:href="#textext-5cd9a704-3"
             width="336.51462"
             height="92.336891" />
          <use
             id="use24220"
             y="134.765"
             x="244.63142"
             xlink:href="#textext-5cd9a704-4"
             width="336.51462"
             height="92.336891" />
          <use
             id="use24222"
             y="134.765"
             x="249.61272"
             xlink:href="#textext-5cd9a704-5"
             width="336.51462"
             height="92.336891" />
          <use
             id="use24224"
             y="134.765"
             x="254.59401"
             xlink:href="#textext-5cd9a704-4"
             width="336.51462"
             height="92.336891" />
          <use
             id="use24226"
             y="134.765"
             x="259.57532"
             xlink:href="#textext-5cd9a704-6"
             width="336.51462"
             height="92.336891" />
          <use
             id="use24228"
             y="134.765"
             x="263.44977"
             xlink:href="#textext-5cd9a704-7"
             width="336.51462"
             height="92.336891" />
          <use
             id="use24230"
             y="134.765"
             x="266.21738"
             xlink:href="#textext-5cd9a704-2"
             width="336.51462"
             height="92.336891" />
          <use
             id="use24232"
             y="134.765"
             x="271.19867"
             xlink:href="#textext-5cd9a704-8"
             width="336.51462"
             height="92.336891" />
        </g>
        <g
           id="g24234"
           style="fill:#000000;fill-opacity:1">
          <use
             id="use24236"
             y="134.765"
             x="280.05145"
             xlink:href="#textext-5cd9a704-9"
             width="336.51462"
             height="92.336891" />
          <use
             id="use24238"
             y="134.765"
             x="285.58667"
             xlink:href="#textext-5cd9a704-7"
             width="336.51462"
             height="92.336891" />
          <use
             id="use24240"
             y="134.765"
             x="288.35428"
             xlink:href="#textext-5cd9a704-1"
             width="336.51462"
             height="92.336891" />
          <use
             id="use24242"
             y="134.765"
             x="292.25662"
             xlink:href="#textext-5cd9a704-10"
             width="336.51462"
             height="92.336891" />
          <use
             id="use24244"
             y="134.765"
             x="296.685"
             xlink:href="#textext-5cd9a704-11"
             width="336.51462"
             height="92.336891" />
          <use
             id="use24246"
             y="134.765"
             x="301.11337"
             xlink:href="#textext-5cd9a704-6"
             width="336.51462"
             height="92.336891" />
          <use
             id="use24248"
             y="134.765"
             x="304.98782"
             xlink:href="#textext-5cd9a704-7"
             width="336.51462"
             height="92.336891" />
          <use
             id="use24250"
             y="134.765"
             x="307.75543"
             xlink:href="#textext-5cd9a704-2"
             width="336.51462"
             height="92.336891" />
          <use
             id="use24252"
             y="134.765"
             x="312.73676"
             xlink:href="#textext-5cd9a704-8"
             width="336.51462"
             height="92.336891" />
        </g>
      </g>
    </g>
    <g
       ns0:text="Depth"
       ns0:preamble="/home/me/.latex/inkscape/header.tex"
       transform="matrix(1.3394324,0,0,1.3394324,-165.80772,-415.83366)"
       id="g27233">
      <defs
         id="defs27235">
        <g
           id="g27237">
          <symbol
             style="overflow:visible"
             overflow="visible"
             id="textext-151f11cf-0">
            <path
               inkscape:connector-curvature="0"
               style="stroke:none"
               d="M 7.046875,-3.34375 C 7.046875,-5.25 5.703125,-6.8125 4,-6.8125 l -3.65625,0 0,0.3125 0.25,0 c 0.765625,0 0.78125,0.109375 0.78125,0.46875 l 0,5.25 c 0,0.359375 -0.015625,0.46875 -0.78125,0.46875 l -0.25,0 0,0.3125 L 4,0 c 1.671875,0 3.046875,-1.46875 3.046875,-3.34375 z m -1,0 c 0,1.09375 -0.1875,1.703125 -0.546875,2.1875 -0.203125,0.265625 -0.765625,0.84375 -1.765625,0.84375 l -1.015625,0 C 2.25,-0.3125 2.234375,-0.375 2.234375,-0.703125 l 0,-5.390625 C 2.234375,-6.4375 2.25,-6.5 2.71875,-6.5 l 1,0 c 0.625,0 1.3125,0.21875 1.8125,0.921875 0.4375,0.59375 0.515625,1.453125 0.515625,2.234375 z m 0,0"
               id="path27240" />
          </symbol>
          <symbol
             style="overflow:visible"
             overflow="visible"
             id="textext-151f11cf-1">
            <path
               inkscape:connector-curvature="0"
               style="stroke:none"
               d="m 4.140625,-1.1875 c 0,-0.09375 -0.078125,-0.125 -0.140625,-0.125 -0.078125,0 -0.109375,0.0625 -0.125,0.140625 -0.34375,1.03125 -1.25,1.03125 -1.34375,1.03125 -0.5,0 -0.890625,-0.296875 -1.125,-0.671875 -0.296875,-0.46875 -0.296875,-1.125 -0.296875,-1.484375 l 2.78125,0 c 0.21875,0 0.25,0 0.25,-0.21875 0,-0.984375 -0.546875,-1.953125 -1.78125,-1.953125 -1.15625,0 -2.078125,1.03125 -2.078125,2.28125 0,1.328125 1.046875,2.296875 2.1875,2.296875 C 3.6875,0.109375 4.140625,-1 4.140625,-1.1875 z m -0.65625,-1.328125 -2.375,0 C 1.171875,-4 2.015625,-4.25 2.359375,-4.25 c 1.015625,0 1.125,1.34375 1.125,1.734375 z m 0,0"
               id="path27243" />
          </symbol>
          <symbol
             style="overflow:visible"
             overflow="visible"
             id="textext-151f11cf-2">
            <path
               inkscape:connector-curvature="0"
               style="stroke:none"
               d="m 5.1875,-2.15625 c 0,-1.265625 -0.953125,-2.25 -2.078125,-2.25 -0.78125,0 -1.203125,0.4375 -1.390625,0.65625 l 0,-0.65625 -1.4375,0.109375 0,0.3125 c 0.703125,0 0.78125,0.0625 0.78125,0.5 l 0,4.65625 C 1.0625,1.625 0.953125,1.625 0.28125,1.625 l 0,0.3125 1.109375,-0.03125 1.125,0.03125 0,-0.3125 C 1.859375,1.625 1.75,1.625 1.75,1.171875 l 0,-1.765625 c 0.046875,0.171875 0.46875,0.703125 1.21875,0.703125 1.1875,0 2.21875,-0.984375 2.21875,-2.265625 z m -0.828125,0 c 0,1.203125 -0.6875,2.046875 -1.421875,2.046875 -0.40625,0 -0.78125,-0.203125 -1.046875,-0.609375 C 1.75,-0.921875 1.75,-0.9375 1.75,-1.140625 l 0,-2.21875 C 2.03125,-3.875 2.515625,-4.15625 3.03125,-4.15625 c 0.734375,0 1.328125,0.875 1.328125,2 z m 0,0"
               id="path27246" />
          </symbol>
          <symbol
             style="overflow:visible"
             overflow="visible"
             id="textext-151f11cf-3">
            <path
               inkscape:connector-curvature="0"
               style="stroke:none"
               d="m 3.3125,-1.234375 0,-0.5625 -0.25,0 0,0.546875 c 0,0.734375 -0.296875,1.109375 -0.671875,1.109375 -0.671875,0 -0.671875,-0.90625 -0.671875,-1.078125 l 0,-2.765625 1.4375,0 0,-0.3125 -1.4375,0 0,-1.828125 -0.25,0 c 0,0.8125 -0.296875,1.875 -1.28125,1.921875 l 0,0.21875 0.84375,0 0,2.75 c 0,1.21875 0.9375,1.34375 1.296875,1.34375 0.703125,0 0.984375,-0.703125 0.984375,-1.34375 z m 0,0"
               id="path27249" />
          </symbol>
          <symbol
             style="overflow:visible"
             overflow="visible"
             id="textext-151f11cf-4">
            <path
               inkscape:connector-curvature="0"
               style="stroke:none"
               d="m 5.328125,0 0,-0.3125 c -0.515625,0 -0.765625,0 -0.765625,-0.296875 l 0,-1.90625 c 0,-0.859375 0,-1.15625 -0.3125,-1.515625 -0.140625,-0.171875 -0.46875,-0.375 -1.046875,-0.375 -0.84375,0 -1.28125,0.59375 -1.4375,0.953125 l -0.015625,0 0,-3.46875 -1.4375,0.109375 0,0.3125 c 0.703125,0 0.78125,0.0625 0.78125,0.5625 l 0,5.1875 c 0,0.4375 -0.109375,0.4375 -0.78125,0.4375 L 0.3125,0 1.453125,-0.03125 2.5625,0 l 0,-0.3125 c -0.671875,0 -0.78125,0 -0.78125,-0.4375 l 0,-1.84375 C 1.78125,-3.625 2.5,-4.1875 3.125,-4.1875 c 0.640625,0 0.75,0.53125 0.75,1.109375 l 0,2.328125 c 0,0.4375 -0.109375,0.4375 -0.78125,0.4375 l 0,0.3125 1.125,-0.03125 z m 0,0"
               id="path27252" />
          </symbol>
        </g>
      </defs>
      <g
         id="textext-151f11cf-5">
        <g
           style="fill:#000000;fill-opacity:1"
           id="g27255">
          <use
             height="92.336891"
             width="336.51462"
             xlink:href="#textext-151f11cf-0"
             x="223.43201"
             y="134.765"
             id="use27257" />
          <use
             height="92.336891"
             width="336.51462"
             xlink:href="#textext-151f11cf-1"
             x="231.04243"
             y="134.765"
             id="use27259" />
          <use
             height="92.336891"
             width="336.51462"
             xlink:href="#textext-151f11cf-2"
             x="235.47081"
             y="134.765"
             id="use27261" />
          <use
             height="92.336891"
             width="336.51462"
             xlink:href="#textext-151f11cf-3"
             x="241.00603"
             y="134.765"
             id="use27263" />
          <use
             height="92.336891"
             width="336.51462"
             xlink:href="#textext-151f11cf-4"
             x="244.88048"
             y="134.765"
             id="use27265" />
        </g>
      </g>
    </g>
    <path
       sodipodi:nodetypes="csc"
       inkscape:connector-curvature="0"
       id="path28891"
       d="m 426.3331,-283.02176 c 2.09296,-0.71954 4.16688,-2.27285 6.81853,0 1.47001,1.26001 5.80837,0 5.80837,0"
       style="fill:none;stroke:#008080;stroke-width:1px;stroke-linecap:butt;stroke-linejoin:miter;stroke-opacity:1" />
    <path
       sodipodi:nodetypes="csc"
       inkscape:connector-curvature="0"
       id="path28891-4"
       d="m 443.25316,-286.64152 c 2.09296,-0.71954 4.16688,-2.27285 6.81853,0 1.47001,1.26001 5.80837,0 5.80837,0"
       style="fill:none;stroke:#008080;stroke-width:1px;stroke-linecap:butt;stroke-linejoin:miter;stroke-opacity:1" />
    <path
       sodipodi:nodetypes="csc"
       inkscape:connector-curvature="0"
       id="path28891-3"
       d="m 461.94098,-294.21767 c 2.09296,-0.71954 4.16688,-2.27285 6.81853,0 1.47001,1.26001 5.80837,0 5.80837,0"
       style="fill:none;stroke:#008080;stroke-width:1px;stroke-linecap:butt;stroke-linejoin:miter;stroke-opacity:1" />
    <path
       sodipodi:nodetypes="csc"
       inkscape:connector-curvature="0"
       id="path28891-2"
       d="m 458.65799,-275.27731 c 2.09296,-0.71954 4.16688,-2.27285 6.81853,0 1.47001,1.26001 5.80837,0 5.80837,0"
       style="fill:none;stroke:#008080;stroke-width:1px;stroke-linecap:butt;stroke-linejoin:miter;stroke-opacity:1" />
    <path
       sodipodi:nodetypes="csc"
       inkscape:connector-curvature="0"
       id="path28891-44"
       d="m 425.76443,-270.02826 c 2.1802,0.3807 4.74639,0.0222 5.97062,3.29302 0.67869,1.81327 5.08608,2.80517 5.08608,2.80517"
       style="fill:none;stroke:#008080;stroke-width:1px;stroke-linecap:butt;stroke-linejoin:miter;stroke-opacity:1" />
    <path
       sodipodi:nodetypes="csc"
       inkscape:connector-curvature="0"
       id="path28891-44-6"
       d="m 444.03692,-271.70044 c 2.21104,-0.0975 4.63991,-0.99998 6.53948,1.93068 1.05308,1.62468 5.57066,1.64465 5.57066,1.64465"
       style="fill:none;stroke:#008080;stroke-width:1px;stroke-linecap:butt;stroke-linejoin:miter;stroke-opacity:1" />
    <path
       sodipodi:nodetypes="csc"
       inkscape:connector-curvature="0"
       id="path28891-44-3"
       d="m 467.25012,-264.1446 c 2.21104,-0.0975 4.63991,-0.99998 6.53948,1.93068 1.05308,1.62468 5.57066,1.64465 5.57066,1.64465"
       style="fill:none;stroke:#008080;stroke-width:1px;stroke-linecap:butt;stroke-linejoin:miter;stroke-opacity:1" />
    <path
       sodipodi:nodetypes="csc"
       inkscape:connector-curvature="0"
       id="path28891-44-2"
       d="m 444.07753,-260.31592 c 2.21104,-0.0975 4.63991,-0.99998 6.53948,1.93068 1.05308,1.62468 5.57066,1.64465 5.57066,1.64465"
       style="fill:none;stroke:#008080;stroke-width:1px;stroke-linecap:butt;stroke-linejoin:miter;stroke-opacity:1" />
    <path
       sodipodi:nodetypes="csc"
       inkscape:connector-curvature="0"
       id="path28891-44-0"
       d="m 423.69991,-295.05023 c 1.59841,-1.53078 2.82999,-3.81049 6.19027,-2.85883 1.86285,0.52758 5.27318,-2.43529 5.27318,-2.43529"
       style="fill:none;stroke:#008080;stroke-width:1px;stroke-linecap:butt;stroke-linejoin:miter;stroke-opacity:1" />
    <path
       sodipodi:nodetypes="csc"
       inkscape:connector-curvature="0"
       id="path28891-44-0-7"
       d="m 445.09757,-298.95656 c 1.59841,-1.53078 2.82999,-3.81049 6.19027,-2.85883 1.86285,0.52758 5.27318,-2.43529 5.27318,-2.43529"
       style="fill:none;stroke:#008080;stroke-width:1px;stroke-linecap:butt;stroke-linejoin:miter;stroke-opacity:1" />
    <path
       sodipodi:nodetypes="csc"
       inkscape:connector-curvature="0"
       id="path28891-44-0-8"
       d="m 476.09032,-283.62452 c 2.0562,-0.81867 4.0536,-2.4692 6.81075,-0.32555 1.52849,1.18839 5.80174,-0.27731 5.80174,-0.27731"
       style="fill:none;stroke:#008080;stroke-width:1px;stroke-linecap:butt;stroke-linejoin:miter;stroke-opacity:1" />
    <path
       sodipodi:nodetypes="csc"
       inkscape:connector-curvature="0"
       id="path28891-44-3-9"
       d="m 480.92162,-272.68169 c 2.058,-0.81414 4.05904,-2.46026 6.81145,-0.31052 1.52587,1.19176 5.80234,-0.26451 5.80234,-0.26451"
       style="fill:none;stroke:#008080;stroke-width:1px;stroke-linecap:butt;stroke-linejoin:miter;stroke-opacity:1" />
    <path
       sodipodi:nodetypes="cc"
       inkscape:connector-curvature="0"
       id="path29059"
       d="m 279.86098,-234.68102 c 5.69917,3.54237 11.81095,4.19651 18.18275,3.03046"
       style="fill:none;stroke:#000000;stroke-width:1px;stroke-linecap:butt;stroke-linejoin:miter;stroke-opacity:1" />
    <g
       ns0:text="Strong interference\\\\ at 20 degrees"
       ns0:preamble="/home/me/.latex/inkscape/header.tex"
       transform="matrix(2.2404744,0,0,2.2404744,-478.15436,-397.39117)"
       id="g4558">
      <defs
         id="defs4560">
        <g
           id="g4562">
          <symbol
             overflow="visible"
             id="textext-4d0c1c03-0">
            <path
               style="stroke:none;"
               d="M 4.96875 -1.859375 C 4.96875 -2.84375 4.3125 -3.671875 3.484375 -3.875 L 2.203125 -4.171875 C 1.578125 -4.328125 1.203125 -4.859375 1.203125 -5.4375 C 1.203125 -6.140625 1.734375 -6.75 2.515625 -6.75 C 4.171875 -6.75 4.390625 -5.109375 4.453125 -4.671875 C 4.46875 -4.609375 4.46875 -4.546875 4.578125 -4.546875 C 4.703125 -4.546875 4.703125 -4.59375 4.703125 -4.78125 L 4.703125 -6.78125 C 4.703125 -6.953125 4.703125 -7.03125 4.59375 -7.03125 C 4.53125 -7.03125 4.515625 -7.015625 4.453125 -6.890625 L 4.09375 -6.328125 C 3.796875 -6.625 3.390625 -7.03125 2.5 -7.03125 C 1.390625 -7.03125 0.5625 -6.15625 0.5625 -5.09375 C 0.5625 -4.265625 1.09375 -3.53125 1.859375 -3.265625 C 1.96875 -3.234375 2.484375 -3.109375 3.1875 -2.9375 C 3.453125 -2.875 3.75 -2.796875 4.03125 -2.4375 C 4.234375 -2.171875 4.34375 -1.84375 4.34375 -1.515625 C 4.34375 -0.8125 3.84375 -0.09375 3 -0.09375 C 2.71875 -0.09375 1.953125 -0.140625 1.421875 -0.625 C 0.84375 -1.171875 0.8125 -1.796875 0.8125 -2.15625 C 0.796875 -2.265625 0.71875 -2.265625 0.6875 -2.265625 C 0.5625 -2.265625 0.5625 -2.1875 0.5625 -2.015625 L 0.5625 -0.015625 C 0.5625 0.15625 0.5625 0.21875 0.671875 0.21875 C 0.734375 0.21875 0.75 0.203125 0.8125 0.09375 C 0.8125 0.09375 0.84375 0.046875 1.171875 -0.484375 C 1.484375 -0.140625 2.125 0.21875 3.015625 0.21875 C 4.171875 0.21875 4.96875 -0.75 4.96875 -1.859375 Z M 4.96875 -1.859375 "
               id="path4565" />
          </symbol>
          <symbol
             overflow="visible"
             id="textext-4d0c1c03-1">
            <path
               style="stroke:none;"
               d="M 3.3125 -1.234375 L 3.3125 -1.796875 L 3.0625 -1.796875 L 3.0625 -1.25 C 3.0625 -0.515625 2.765625 -0.140625 2.390625 -0.140625 C 1.71875 -0.140625 1.71875 -1.046875 1.71875 -1.21875 L 1.71875 -3.984375 L 3.15625 -3.984375 L 3.15625 -4.296875 L 1.71875 -4.296875 L 1.71875 -6.125 L 1.46875 -6.125 C 1.46875 -5.3125 1.171875 -4.25 0.1875 -4.203125 L 0.1875 -3.984375 L 1.03125 -3.984375 L 1.03125 -1.234375 C 1.03125 -0.015625 1.96875 0.109375 2.328125 0.109375 C 3.03125 0.109375 3.3125 -0.59375 3.3125 -1.234375 Z M 3.3125 -1.234375 "
               id="path4568" />
          </symbol>
          <symbol
             overflow="visible"
             id="textext-4d0c1c03-2">
            <path
               style="stroke:none;"
               d="M 3.625 -3.796875 C 3.625 -4.109375 3.3125 -4.40625 2.890625 -4.40625 C 2.15625 -4.40625 1.796875 -3.734375 1.671875 -3.3125 L 1.671875 -4.40625 L 0.28125 -4.296875 L 0.28125 -3.984375 C 0.984375 -3.984375 1.0625 -3.921875 1.0625 -3.421875 L 1.0625 -0.75 C 1.0625 -0.3125 0.953125 -0.3125 0.28125 -0.3125 L 0.28125 0 L 1.421875 -0.03125 C 1.8125 -0.03125 2.28125 -0.03125 2.6875 0 L 2.6875 -0.3125 L 2.46875 -0.3125 C 1.734375 -0.3125 1.71875 -0.421875 1.71875 -0.78125 L 1.71875 -2.3125 C 1.71875 -3.296875 2.140625 -4.1875 2.890625 -4.1875 C 2.953125 -4.1875 2.984375 -4.1875 3 -4.171875 C 2.96875 -4.171875 2.765625 -4.046875 2.765625 -3.78125 C 2.765625 -3.515625 2.984375 -3.359375 3.203125 -3.359375 C 3.375 -3.359375 3.625 -3.484375 3.625 -3.796875 Z M 3.625 -3.796875 "
               id="path4571" />
          </symbol>
          <symbol
             overflow="visible"
             id="textext-4d0c1c03-3">
            <path
               style="stroke:none;"
               d="M 4.6875 -2.140625 C 4.6875 -3.40625 3.703125 -4.46875 2.5 -4.46875 C 1.25 -4.46875 0.28125 -3.375 0.28125 -2.140625 C 0.28125 -0.84375 1.3125 0.109375 2.484375 0.109375 C 3.6875 0.109375 4.6875 -0.875 4.6875 -2.140625 Z M 3.875 -2.21875 C 3.875 -1.859375 3.875 -1.3125 3.65625 -0.875 C 3.421875 -0.421875 2.984375 -0.140625 2.5 -0.140625 C 2.0625 -0.140625 1.625 -0.34375 1.359375 -0.8125 C 1.109375 -1.25 1.109375 -1.859375 1.109375 -2.21875 C 1.109375 -2.609375 1.109375 -3.140625 1.34375 -3.578125 C 1.609375 -4.03125 2.078125 -4.25 2.484375 -4.25 C 2.921875 -4.25 3.34375 -4.03125 3.609375 -3.59375 C 3.875 -3.171875 3.875 -2.59375 3.875 -2.21875 Z M 3.875 -2.21875 "
               id="path4574" />
          </symbol>
          <symbol
             overflow="visible"
             id="textext-4d0c1c03-4">
            <path
               style="stroke:none;"
               d="M 5.328125 0 L 5.328125 -0.3125 C 4.8125 -0.3125 4.5625 -0.3125 4.5625 -0.609375 L 4.5625 -2.515625 C 4.5625 -3.375 4.5625 -3.671875 4.25 -4.03125 C 4.109375 -4.203125 3.78125 -4.40625 3.203125 -4.40625 C 2.46875 -4.40625 2 -3.984375 1.71875 -3.359375 L 1.71875 -4.40625 L 0.3125 -4.296875 L 0.3125 -3.984375 C 1.015625 -3.984375 1.09375 -3.921875 1.09375 -3.421875 L 1.09375 -0.75 C 1.09375 -0.3125 0.984375 -0.3125 0.3125 -0.3125 L 0.3125 0 L 1.453125 -0.03125 L 2.5625 0 L 2.5625 -0.3125 C 1.890625 -0.3125 1.78125 -0.3125 1.78125 -0.75 L 1.78125 -2.59375 C 1.78125 -3.625 2.5 -4.1875 3.125 -4.1875 C 3.765625 -4.1875 3.875 -3.65625 3.875 -3.078125 L 3.875 -0.75 C 3.875 -0.3125 3.765625 -0.3125 3.09375 -0.3125 L 3.09375 0 L 4.21875 -0.03125 Z M 5.328125 0 "
               id="path4577" />
          </symbol>
          <symbol
             overflow="visible"
             id="textext-4d0c1c03-5">
            <path
               style="stroke:none;"
               d="M 4.828125 -4.03125 C 4.828125 -4.203125 4.71875 -4.515625 4.328125 -4.515625 C 4.125 -4.515625 3.6875 -4.453125 3.265625 -4.046875 C 2.84375 -4.375 2.4375 -4.40625 2.21875 -4.40625 C 1.28125 -4.40625 0.59375 -3.71875 0.59375 -2.953125 C 0.59375 -2.515625 0.8125 -2.140625 1.0625 -1.921875 C 0.9375 -1.78125 0.75 -1.453125 0.75 -1.09375 C 0.75 -0.78125 0.890625 -0.40625 1.203125 -0.203125 C 0.59375 -0.046875 0.28125 0.390625 0.28125 0.78125 C 0.28125 1.5 1.265625 2.046875 2.484375 2.046875 C 3.65625 2.046875 4.6875 1.546875 4.6875 0.765625 C 4.6875 0.421875 4.5625 -0.09375 4.046875 -0.375 C 3.515625 -0.640625 2.9375 -0.640625 2.328125 -0.640625 C 2.078125 -0.640625 1.65625 -0.640625 1.578125 -0.65625 C 1.265625 -0.703125 1.0625 -1 1.0625 -1.328125 C 1.0625 -1.359375 1.0625 -1.59375 1.21875 -1.796875 C 1.609375 -1.515625 2.03125 -1.484375 2.21875 -1.484375 C 3.140625 -1.484375 3.828125 -2.171875 3.828125 -2.9375 C 3.828125 -3.3125 3.671875 -3.671875 3.421875 -3.90625 C 3.78125 -4.25 4.140625 -4.296875 4.3125 -4.296875 C 4.3125 -4.296875 4.390625 -4.296875 4.421875 -4.28125 C 4.3125 -4.25 4.25 -4.140625 4.25 -4.015625 C 4.25 -3.84375 4.390625 -3.734375 4.546875 -3.734375 C 4.640625 -3.734375 4.828125 -3.796875 4.828125 -4.03125 Z M 3.078125 -2.953125 C 3.078125 -2.6875 3.078125 -2.359375 2.921875 -2.109375 C 2.84375 -2 2.609375 -1.71875 2.21875 -1.71875 C 1.34375 -1.71875 1.34375 -2.71875 1.34375 -2.9375 C 1.34375 -3.203125 1.359375 -3.53125 1.5 -3.78125 C 1.578125 -3.890625 1.8125 -4.171875 2.21875 -4.171875 C 3.078125 -4.171875 3.078125 -3.1875 3.078125 -2.953125 Z M 4.171875 0.78125 C 4.171875 1.328125 3.46875 1.828125 2.5 1.828125 C 1.484375 1.828125 0.796875 1.3125 0.796875 0.78125 C 0.796875 0.328125 1.171875 -0.046875 1.609375 -0.0625 L 2.203125 -0.0625 C 3.0625 -0.0625 4.171875 -0.0625 4.171875 0.78125 Z M 4.171875 0.78125 "
               id="path4580" />
          </symbol>
          <symbol
             overflow="visible"
             id="textext-4d0c1c03-6">
            <path
               style="stroke:none;"
               d="M 2.46875 0 L 2.46875 -0.3125 C 1.796875 -0.3125 1.765625 -0.359375 1.765625 -0.75 L 1.765625 -4.40625 L 0.375 -4.296875 L 0.375 -3.984375 C 1.015625 -3.984375 1.109375 -3.921875 1.109375 -3.4375 L 1.109375 -0.75 C 1.109375 -0.3125 1 -0.3125 0.328125 -0.3125 L 0.328125 0 L 1.421875 -0.03125 C 1.78125 -0.03125 2.125 -0.015625 2.46875 0 Z M 1.90625 -6.015625 C 1.90625 -6.296875 1.6875 -6.546875 1.390625 -6.546875 C 1.046875 -6.546875 0.84375 -6.265625 0.84375 -6.015625 C 0.84375 -5.75 1.078125 -5.5 1.375 -5.5 C 1.71875 -5.5 1.90625 -5.765625 1.90625 -6.015625 Z M 1.90625 -6.015625 "
               id="path4583" />
          </symbol>
          <symbol
             overflow="visible"
             id="textext-4d0c1c03-7">
            <path
               style="stroke:none;"
               d="M 4.140625 -1.1875 C 4.140625 -1.28125 4.0625 -1.3125 4 -1.3125 C 3.921875 -1.3125 3.890625 -1.25 3.875 -1.171875 C 3.53125 -0.140625 2.625 -0.140625 2.53125 -0.140625 C 2.03125 -0.140625 1.640625 -0.4375 1.40625 -0.8125 C 1.109375 -1.28125 1.109375 -1.9375 1.109375 -2.296875 L 3.890625 -2.296875 C 4.109375 -2.296875 4.140625 -2.296875 4.140625 -2.515625 C 4.140625 -3.5 3.59375 -4.46875 2.359375 -4.46875 C 1.203125 -4.46875 0.28125 -3.4375 0.28125 -2.1875 C 0.28125 -0.859375 1.328125 0.109375 2.46875 0.109375 C 3.6875 0.109375 4.140625 -1 4.140625 -1.1875 Z M 3.484375 -2.515625 L 1.109375 -2.515625 C 1.171875 -4 2.015625 -4.25 2.359375 -4.25 C 3.375 -4.25 3.484375 -2.90625 3.484375 -2.515625 Z M 3.484375 -2.515625 "
               id="path4586" />
          </symbol>
          <symbol
             overflow="visible"
             id="textext-4d0c1c03-8">
            <path
               style="stroke:none;"
               d="M 3.5625 -6.328125 C 3.5625 -6.703125 3.1875 -7.03125 2.65625 -7.03125 C 1.96875 -7.03125 1.109375 -6.5 1.109375 -5.4375 L 1.109375 -4.296875 L 0.328125 -4.296875 L 0.328125 -3.984375 L 1.109375 -3.984375 L 1.109375 -0.75 C 1.109375 -0.3125 1 -0.3125 0.34375 -0.3125 L 0.34375 0 L 1.46875 -0.03125 C 1.875 -0.03125 2.34375 -0.03125 2.734375 0 L 2.734375 -0.3125 L 2.53125 -0.3125 C 1.796875 -0.3125 1.78125 -0.421875 1.78125 -0.78125 L 1.78125 -3.984375 L 2.90625 -3.984375 L 2.90625 -4.296875 L 1.75 -4.296875 L 1.75 -5.453125 C 1.75 -6.328125 2.21875 -6.8125 2.65625 -6.8125 C 2.6875 -6.8125 2.84375 -6.8125 2.984375 -6.734375 C 2.875 -6.703125 2.6875 -6.5625 2.6875 -6.3125 C 2.6875 -6.09375 2.84375 -5.890625 3.125 -5.890625 C 3.40625 -5.890625 3.5625 -6.09375 3.5625 -6.328125 Z M 3.5625 -6.328125 "
               id="path4589" />
          </symbol>
          <symbol
             overflow="visible"
             id="textext-4d0c1c03-9">
            <path
               style="stroke:none;"
               d="M 4.140625 -1.1875 C 4.140625 -1.28125 4.03125 -1.28125 4 -1.28125 C 3.921875 -1.28125 3.890625 -1.25 3.875 -1.1875 C 3.59375 -0.265625 2.9375 -0.140625 2.578125 -0.140625 C 2.046875 -0.140625 1.171875 -0.5625 1.171875 -2.171875 C 1.171875 -3.796875 1.984375 -4.21875 2.515625 -4.21875 C 2.609375 -4.21875 3.234375 -4.203125 3.578125 -3.84375 C 3.171875 -3.8125 3.109375 -3.515625 3.109375 -3.390625 C 3.109375 -3.125 3.296875 -2.9375 3.5625 -2.9375 C 3.828125 -2.9375 4.03125 -3.09375 4.03125 -3.40625 C 4.03125 -4.078125 3.265625 -4.46875 2.5 -4.46875 C 1.25 -4.46875 0.34375 -3.390625 0.34375 -2.15625 C 0.34375 -0.875 1.328125 0.109375 2.484375 0.109375 C 3.8125 0.109375 4.140625 -1.09375 4.140625 -1.1875 Z M 4.140625 -1.1875 "
               id="path4592" />
          </symbol>
          <symbol
             overflow="visible"
             id="textext-4d0c1c03-10">
            <path
               style="stroke:none;"
               d="M 4.8125 -0.890625 L 4.8125 -1.453125 L 4.5625 -1.453125 L 4.5625 -0.890625 C 4.5625 -0.3125 4.3125 -0.25 4.203125 -0.25 C 3.875 -0.25 3.84375 -0.703125 3.84375 -0.75 L 3.84375 -2.734375 C 3.84375 -3.15625 3.84375 -3.546875 3.484375 -3.921875 C 3.09375 -4.3125 2.59375 -4.46875 2.109375 -4.46875 C 1.296875 -4.46875 0.609375 -4 0.609375 -3.34375 C 0.609375 -3.046875 0.8125 -2.875 1.0625 -2.875 C 1.34375 -2.875 1.53125 -3.078125 1.53125 -3.328125 C 1.53125 -3.453125 1.46875 -3.78125 1.015625 -3.78125 C 1.28125 -4.140625 1.78125 -4.25 2.09375 -4.25 C 2.578125 -4.25 3.15625 -3.859375 3.15625 -2.96875 L 3.15625 -2.609375 C 2.640625 -2.578125 1.9375 -2.546875 1.3125 -2.25 C 0.5625 -1.90625 0.3125 -1.390625 0.3125 -0.953125 C 0.3125 -0.140625 1.28125 0.109375 1.90625 0.109375 C 2.578125 0.109375 3.03125 -0.296875 3.21875 -0.75 C 3.265625 -0.359375 3.53125 0.0625 4 0.0625 C 4.203125 0.0625 4.8125 -0.078125 4.8125 -0.890625 Z M 3.15625 -1.390625 C 3.15625 -0.453125 2.4375 -0.109375 1.984375 -0.109375 C 1.5 -0.109375 1.09375 -0.453125 1.09375 -0.953125 C 1.09375 -1.5 1.5 -2.328125 3.15625 -2.390625 Z M 3.15625 -1.390625 "
               id="path4595" />
          </symbol>
          <symbol
             overflow="visible"
             id="textext-4d0c1c03-11">
            <path
               style="stroke:none;"
               d="M 4.46875 -1.734375 L 4.234375 -1.734375 C 4.171875 -1.4375 4.109375 -1 4 -0.84375 C 3.9375 -0.765625 3.28125 -0.765625 3.0625 -0.765625 L 1.265625 -0.765625 L 2.328125 -1.796875 C 3.875 -3.171875 4.46875 -3.703125 4.46875 -4.703125 C 4.46875 -5.84375 3.578125 -6.640625 2.359375 -6.640625 C 1.234375 -6.640625 0.5 -5.71875 0.5 -4.828125 C 0.5 -4.28125 1 -4.28125 1.03125 -4.28125 C 1.203125 -4.28125 1.546875 -4.390625 1.546875 -4.8125 C 1.546875 -5.0625 1.359375 -5.328125 1.015625 -5.328125 C 0.9375 -5.328125 0.921875 -5.328125 0.890625 -5.3125 C 1.109375 -5.96875 1.65625 -6.328125 2.234375 -6.328125 C 3.140625 -6.328125 3.5625 -5.515625 3.5625 -4.703125 C 3.5625 -3.90625 3.078125 -3.125 2.515625 -2.5 L 0.609375 -0.375 C 0.5 -0.265625 0.5 -0.234375 0.5 0 L 4.203125 0 Z M 4.46875 -1.734375 "
               id="path4598" />
          </symbol>
          <symbol
             overflow="visible"
             id="textext-4d0c1c03-12">
            <path
               style="stroke:none;"
               d="M 4.578125 -3.1875 C 4.578125 -3.984375 4.53125 -4.78125 4.1875 -5.515625 C 3.734375 -6.484375 2.90625 -6.640625 2.5 -6.640625 C 1.890625 -6.640625 1.171875 -6.375 0.75 -5.453125 C 0.4375 -4.765625 0.390625 -3.984375 0.390625 -3.1875 C 0.390625 -2.4375 0.421875 -1.546875 0.84375 -0.78125 C 1.265625 0.015625 2 0.21875 2.484375 0.21875 C 3.015625 0.21875 3.78125 0.015625 4.21875 -0.9375 C 4.53125 -1.625 4.578125 -2.40625 4.578125 -3.1875 Z M 3.765625 -3.3125 C 3.765625 -2.5625 3.765625 -1.890625 3.65625 -1.25 C 3.5 -0.296875 2.9375 0 2.484375 0 C 2.09375 0 1.5 -0.25 1.328125 -1.203125 C 1.21875 -1.796875 1.21875 -2.71875 1.21875 -3.3125 C 1.21875 -3.953125 1.21875 -4.609375 1.296875 -5.140625 C 1.484375 -6.328125 2.234375 -6.421875 2.484375 -6.421875 C 2.8125 -6.421875 3.46875 -6.234375 3.65625 -5.25 C 3.765625 -4.6875 3.765625 -3.9375 3.765625 -3.3125 Z M 3.765625 -3.3125 "
               id="path4601" />
          </symbol>
          <symbol
             overflow="visible"
             id="textext-4d0c1c03-13">
            <path
               style="stroke:none;"
               d="M 5.25 0 L 5.25 -0.3125 C 4.5625 -0.3125 4.46875 -0.375 4.46875 -0.875 L 4.46875 -6.921875 L 3.046875 -6.8125 L 3.046875 -6.5 C 3.734375 -6.5 3.8125 -6.4375 3.8125 -5.9375 L 3.8125 -3.78125 C 3.53125 -4.140625 3.09375 -4.40625 2.5625 -4.40625 C 1.390625 -4.40625 0.34375 -3.421875 0.34375 -2.140625 C 0.34375 -0.875 1.3125 0.109375 2.453125 0.109375 C 3.09375 0.109375 3.53125 -0.234375 3.78125 -0.546875 L 3.78125 0.109375 Z M 3.78125 -1.171875 C 3.78125 -1 3.78125 -0.984375 3.671875 -0.8125 C 3.375 -0.328125 2.9375 -0.109375 2.5 -0.109375 C 2.046875 -0.109375 1.6875 -0.375 1.453125 -0.75 C 1.203125 -1.15625 1.171875 -1.71875 1.171875 -2.140625 C 1.171875 -2.5 1.1875 -3.09375 1.46875 -3.546875 C 1.6875 -3.859375 2.0625 -4.1875 2.609375 -4.1875 C 2.953125 -4.1875 3.375 -4.03125 3.671875 -3.59375 C 3.78125 -3.421875 3.78125 -3.40625 3.78125 -3.21875 Z M 3.78125 -1.171875 "
               id="path4604" />
          </symbol>
          <symbol
             overflow="visible"
             id="textext-4d0c1c03-14">
            <path
               style="stroke:none;"
               d="M 3.59375 -1.28125 C 3.59375 -1.796875 3.296875 -2.109375 3.171875 -2.21875 C 2.84375 -2.546875 2.453125 -2.625 2.03125 -2.703125 C 1.46875 -2.8125 0.8125 -2.9375 0.8125 -3.515625 C 0.8125 -3.875 1.0625 -4.28125 1.921875 -4.28125 C 3.015625 -4.28125 3.078125 -3.375 3.09375 -3.078125 C 3.09375 -2.984375 3.203125 -2.984375 3.203125 -2.984375 C 3.34375 -2.984375 3.34375 -3.03125 3.34375 -3.21875 L 3.34375 -4.234375 C 3.34375 -4.390625 3.34375 -4.46875 3.234375 -4.46875 C 3.1875 -4.46875 3.15625 -4.46875 3.03125 -4.34375 C 3 -4.3125 2.90625 -4.21875 2.859375 -4.1875 C 2.484375 -4.46875 2.078125 -4.46875 1.921875 -4.46875 C 0.703125 -4.46875 0.328125 -3.796875 0.328125 -3.234375 C 0.328125 -2.890625 0.484375 -2.609375 0.75 -2.390625 C 1.078125 -2.140625 1.359375 -2.078125 2.078125 -1.9375 C 2.296875 -1.890625 3.109375 -1.734375 3.109375 -1.015625 C 3.109375 -0.515625 2.765625 -0.109375 1.984375 -0.109375 C 1.140625 -0.109375 0.78125 -0.671875 0.59375 -1.53125 C 0.5625 -1.65625 0.5625 -1.6875 0.453125 -1.6875 C 0.328125 -1.6875 0.328125 -1.625 0.328125 -1.453125 L 0.328125 -0.125 C 0.328125 0.046875 0.328125 0.109375 0.4375 0.109375 C 0.484375 0.109375 0.5 0.09375 0.6875 -0.09375 C 0.703125 -0.109375 0.703125 -0.125 0.890625 -0.3125 C 1.328125 0.09375 1.78125 0.109375 1.984375 0.109375 C 3.125 0.109375 3.59375 -0.5625 3.59375 -1.28125 Z M 3.59375 -1.28125 "
               id="path4607" />
          </symbol>
        </g>
      </defs>
      <g
         id="textext-4d0c1c03-15">
        <g
           style="fill:rgb(0%,0%,0%);fill-opacity:1;"
           id="g4610">
          <use
             xlink:href="#textext-4d0c1c03-0"
             x="223.432"
             y="134.765"
             id="use4612" />
          <use
             xlink:href="#textext-4d0c1c03-1"
             x="228.967221"
             y="134.765"
             id="use4614" />
          <use
             xlink:href="#textext-4d0c1c03-2"
             x="232.841676"
             y="134.765"
             id="use4616" />
          <use
             xlink:href="#textext-4d0c1c03-3"
             x="236.744026"
             y="134.765"
             id="use4618" />
          <use
             xlink:href="#textext-4d0c1c03-4"
             x="241.725326"
             y="134.765"
             id="use4620" />
          <use
             xlink:href="#textext-4d0c1c03-5"
             x="247.260547"
             y="134.765"
             id="use4622" />
        </g>
        <g
           style="fill:rgb(0%,0%,0%);fill-opacity:1;"
           id="g4624">
          <use
             xlink:href="#textext-4d0c1c03-6"
             x="255.559392"
             y="134.765"
             id="use4626" />
          <use
             xlink:href="#textext-4d0c1c03-4"
             x="258.327003"
             y="134.765"
             id="use4628" />
        </g>
        <g
           style="fill:rgb(0%,0%,0%);fill-opacity:1;"
           id="g4630">
          <use
             xlink:href="#textext-4d0c1c03-1"
             x="263.583271"
             y="134.765"
             id="use4632" />
          <use
             xlink:href="#textext-4d0c1c03-7"
             x="267.457726"
             y="134.765"
             id="use4634" />
          <use
             xlink:href="#textext-4d0c1c03-2"
             x="271.886101"
             y="134.765"
             id="use4636" />
          <use
             xlink:href="#textext-4d0c1c03-8"
             x="275.788452"
             y="134.765"
             id="use4638" />
          <use
             xlink:href="#textext-4d0c1c03-7"
             x="278.833022"
             y="134.765"
             id="use4640" />
          <use
             xlink:href="#textext-4d0c1c03-2"
             x="283.261398"
             y="134.765"
             id="use4642" />
          <use
             xlink:href="#textext-4d0c1c03-7"
             x="287.163748"
             y="134.765"
             id="use4644" />
          <use
             xlink:href="#textext-4d0c1c03-4"
             x="291.592124"
             y="134.765"
             id="use4646" />
          <use
             xlink:href="#textext-4d0c1c03-9"
             x="297.127345"
             y="134.765"
             id="use4648" />
          <use
             xlink:href="#textext-4d0c1c03-7"
             x="301.55572"
             y="134.765"
             id="use4650" />
        </g>
        <g
           style="fill:rgb(0%,0%,0%);fill-opacity:1;"
           id="g4652">
          <use
             xlink:href="#textext-4d0c1c03-10"
             x="223.432"
             y="146.72"
             id="use4654" />
          <use
             xlink:href="#textext-4d0c1c03-1"
             x="228.4133"
             y="146.72"
             id="use4656" />
        </g>
        <g
           style="fill:rgb(0%,0%,0%);fill-opacity:1;"
           id="g4658">
          <use
             xlink:href="#textext-4d0c1c03-11"
             x="235.605301"
             y="146.72"
             id="use4660" />
          <use
             xlink:href="#textext-4d0c1c03-12"
             x="240.586601"
             y="146.72"
             id="use4662" />
        </g>
        <g
           style="fill:rgb(0%,0%,0%);fill-opacity:1;"
           id="g4664">
          <use
             xlink:href="#textext-4d0c1c03-13"
             x="248.895409"
             y="146.72"
             id="use4666" />
          <use
             xlink:href="#textext-4d0c1c03-7"
             x="254.43063"
             y="146.72"
             id="use4668" />
          <use
             xlink:href="#textext-4d0c1c03-5"
             x="258.859006"
             y="146.72"
             id="use4670" />
          <use
             xlink:href="#textext-4d0c1c03-2"
             x="263.840306"
             y="146.72"
             id="use4672" />
          <use
             xlink:href="#textext-4d0c1c03-7"
             x="267.742656"
             y="146.72"
             id="use4674" />
          <use
             xlink:href="#textext-4d0c1c03-7"
             x="272.171032"
             y="146.72"
             id="use4676" />
        </g>
        <g
           style="fill:rgb(0%,0%,0%);fill-opacity:1;"
           id="g4678">
          <use
             xlink:href="#textext-4d0c1c03-14"
             x="276.589445"
             y="146.72"
             id="use4680" />
        </g>
      </g>
    </g>
    <g
       id="g5271"
       transform="matrix(1.3394324,0,0,1.3394324,-21.785956,-396.19415)"
       ns0:preamble="/home/me/.latex/inkscape/header.tex"
       ns0:text="20$^\\circ$">
      <defs
         id="defs5273">
        <g
           id="g5275">
          <symbol
             id="textext-4311bb9b-0"
             overflow="visible">
            <path
               id="path5278"
               d="M 4.46875 -1.734375 L 4.234375 -1.734375 C 4.171875 -1.4375 4.109375 -1 4 -0.84375 C 3.9375 -0.765625 3.28125 -0.765625 3.0625 -0.765625 L 1.265625 -0.765625 L 2.328125 -1.796875 C 3.875 -3.171875 4.46875 -3.703125 4.46875 -4.703125 C 4.46875 -5.84375 3.578125 -6.640625 2.359375 -6.640625 C 1.234375 -6.640625 0.5 -5.71875 0.5 -4.828125 C 0.5 -4.28125 1 -4.28125 1.03125 -4.28125 C 1.203125 -4.28125 1.546875 -4.390625 1.546875 -4.8125 C 1.546875 -5.0625 1.359375 -5.328125 1.015625 -5.328125 C 0.9375 -5.328125 0.921875 -5.328125 0.890625 -5.3125 C 1.109375 -5.96875 1.65625 -6.328125 2.234375 -6.328125 C 3.140625 -6.328125 3.5625 -5.515625 3.5625 -4.703125 C 3.5625 -3.90625 3.078125 -3.125 2.515625 -2.5 L 0.609375 -0.375 C 0.5 -0.265625 0.5 -0.234375 0.5 0 L 4.203125 0 Z M 4.46875 -1.734375 "
               style="stroke:none;" />
          </symbol>
          <symbol
             id="textext-4311bb9b-1"
             overflow="visible">
            <path
               id="path5281"
               d="M 4.578125 -3.1875 C 4.578125 -3.984375 4.53125 -4.78125 4.1875 -5.515625 C 3.734375 -6.484375 2.90625 -6.640625 2.5 -6.640625 C 1.890625 -6.640625 1.171875 -6.375 0.75 -5.453125 C 0.4375 -4.765625 0.390625 -3.984375 0.390625 -3.1875 C 0.390625 -2.4375 0.421875 -1.546875 0.84375 -0.78125 C 1.265625 0.015625 2 0.21875 2.484375 0.21875 C 3.015625 0.21875 3.78125 0.015625 4.21875 -0.9375 C 4.53125 -1.625 4.578125 -2.40625 4.578125 -3.1875 Z M 3.765625 -3.3125 C 3.765625 -2.5625 3.765625 -1.890625 3.65625 -1.25 C 3.5 -0.296875 2.9375 0 2.484375 0 C 2.09375 0 1.5 -0.25 1.328125 -1.203125 C 1.21875 -1.796875 1.21875 -2.71875 1.21875 -3.3125 C 1.21875 -3.953125 1.21875 -4.609375 1.296875 -5.140625 C 1.484375 -6.328125 2.234375 -6.421875 2.484375 -6.421875 C 2.8125 -6.421875 3.46875 -6.234375 3.65625 -5.25 C 3.765625 -4.6875 3.765625 -3.9375 3.765625 -3.3125 Z M 3.765625 -3.3125 "
               style="stroke:none;" />
          </symbol>
          <symbol
             id="textext-4311bb9b-2"
             overflow="visible">
            <path
               id="path5284"
               d="M 3.53125 -1.734375 C 3.53125 -2.59375 2.84375 -3.234375 2.03125 -3.234375 C 1.203125 -3.234375 0.546875 -2.5625 0.546875 -1.75 C 0.546875 -0.90625 1.21875 -0.25 2.03125 -0.25 C 2.859375 -0.25 3.53125 -0.921875 3.53125 -1.734375 Z M 3.1875 -1.75 C 3.1875 -1.109375 2.671875 -0.59375 2.03125 -0.59375 C 1.390625 -0.59375 0.890625 -1.125 0.890625 -1.734375 C 0.890625 -2.390625 1.40625 -2.90625 2.03125 -2.90625 C 2.6875 -2.90625 3.1875 -2.375 3.1875 -1.75 Z M 3.1875 -1.75 "
               style="stroke:none;" />
          </symbol>
        </g>
      </defs>
      <g
         id="textext-4311bb9b-3">
        <g
           id="g5287"
           style="fill:rgb(0%,0%,0%);fill-opacity:1;">
          <use
             id="use5289"
             y="134.765"
             x="223.432"
             xlink:href="#textext-4311bb9b-0" />
          <use
             id="use5291"
             y="134.765"
             x="228.4133"
             xlink:href="#textext-4311bb9b-1" />
        </g>
        <g
           id="g5293"
           style="fill:rgb(0%,0%,0%);fill-opacity:1;">
          <use
             id="use5295"
             y="131.149"
             x="233.395"
             xlink:href="#textext-4311bb9b-2" />
        </g>
      </g>
    </g>
  </g>
</svg>
